<svg width="100" height="100" viewBox="0 0 100 100" fill="none" xmlns="http://www.w3.org/2000/svg">
<rect width="100" height="100" rx="22.2222" fill="white"/>
<path d="M87.6457 26.6807C86.8877 26.3016 86.5605 27.0242 86.1176 27.3914C85.9667 27.5099 85.8379 27.6639 85.7091 27.806C84.6015 29.0141 83.3074 29.8078 81.615 29.7131C79.1423 29.571 77.0309 30.3646 75.1652 32.2954C74.7684 29.9144 73.4506 28.493 71.4444 27.5809C70.3931 27.1072 69.3329 26.6333 68.597 25.6027C68.0848 24.8683 67.9455 24.051 67.6879 23.2456C67.525 22.7599 67.3621 22.2624 66.8144 22.1795C66.2176 22.0847 65.9851 22.5941 65.7512 23.0205C64.8184 24.7618 64.4556 26.6807 64.4926 28.6233C64.5726 32.9943 66.382 36.4768 69.9741 38.9525C70.3827 39.2367 70.4879 39.521 70.359 39.9355C70.1147 40.7884 69.8215 41.6176 69.5654 42.4705C69.4024 43.0154 69.1582 43.1338 68.5852 42.8969C66.6144 42.0559 64.9116 40.8121 63.4058 39.3078C60.8517 36.7847 58.5418 34.0011 55.662 31.8216C54.9952 31.3188 54.3102 30.8407 53.6083 30.3883C50.6692 27.4743 53.9932 25.0816 54.7632 24.7973C55.5672 24.5012 55.0431 23.4825 52.4415 23.4943C49.84 23.5061 47.4606 24.3946 44.4281 25.5791C43.984 25.7567 43.5175 25.887 43.0408 25.9937C40.2867 25.4606 37.4291 25.3422 34.4426 25.6857C28.8205 26.3254 24.3296 29.0379 21.0278 33.6694C17.0626 39.2367 16.1282 45.5621 17.2728 52.1599C18.4721 59.1132 21.9501 64.87 27.2924 69.3712C32.8331 74.0382 39.2133 76.3244 46.4922 75.8862C50.9135 75.6255 55.8352 75.0214 61.3876 70.224C62.7884 70.9348 64.2586 71.2191 66.6959 71.4322C68.5748 71.6099 70.3827 71.3375 71.782 71.0413C73.9748 70.5676 73.8223 68.4946 73.0301 68.1156C66.6026 65.0594 68.0136 66.3032 66.7314 65.2964C69.9977 61.3519 74.9194 57.2534 76.8444 43.9748C76.9968 42.9206 76.868 42.2573 76.8444 41.4044C76.8325 40.8832 76.9479 40.6818 77.5329 40.6226C79.1423 40.4331 80.7059 39.983 82.1407 39.1775C86.3043 36.8559 87.9848 33.0416 88.3816 28.4693C88.4409 27.7705 88.3698 27.0479 87.6457 26.6807ZM51.3562 67.8313C45.1285 62.8325 42.1064 61.1861 40.8583 61.2571C39.6915 61.3282 39.9018 62.6904 40.1579 63.5788C40.4259 64.4554 40.7768 65.0594 41.2669 65.8294C41.6046 66.3388 41.8385 67.0969 40.9279 67.6654C38.9216 68.9329 35.4346 67.239 35.2718 67.1561C31.2118 64.716 27.8166 61.494 25.4253 57.0876C23.1155 52.847 21.7755 48.2984 21.5534 43.4418C21.4941 42.2691 21.8332 41.8545 22.9749 41.6412C24.4783 41.3483 26.0201 41.3083 27.5367 41.5228C33.8948 42.4706 39.3081 45.3726 43.8448 49.9686C46.4345 52.5864 48.3934 55.7136 50.413 58.7697C52.5585 62.0152 54.8683 65.1069 57.8075 67.6417C58.8454 68.5301 59.6731 69.2053 60.4667 69.7028C58.0754 69.9753 54.0851 70.0345 51.3562 67.8313ZM54.3427 48.2273C54.3427 47.7061 54.7514 47.2915 55.2651 47.2915C55.3816 47.2935 55.4862 47.3132 55.579 47.3507C55.7558 47.4187 55.9076 47.5391 56.014 47.6958C56.1204 47.8524 56.1763 48.0379 56.1743 48.2273C56.1758 48.3494 56.1532 48.4706 56.1077 48.5838C56.0621 48.6971 55.9946 48.8003 55.9089 48.8873C55.8233 48.9743 55.7213 49.0435 55.6087 49.0908C55.4962 49.1382 55.3754 49.1627 55.2533 49.1631C55.1317 49.1628 55.0113 49.1381 54.8994 49.0907C54.7874 49.0432 54.686 48.9738 54.6012 48.8867C54.5164 48.7995 54.4498 48.6963 54.4054 48.5831C54.361 48.4698 54.3397 48.3489 54.3427 48.2273ZM63.6161 53.0838C63.0223 53.3326 62.4271 53.5459 61.8541 53.5695C60.9686 53.6169 60.0003 53.2498 59.4762 52.7996C58.6589 52.1007 58.0754 51.7098 57.8311 50.4897C57.726 49.9685 57.7837 49.1631 57.8771 48.7012C58.0873 47.7061 57.8533 47.0665 57.1663 46.4861C56.6066 46.0122 55.8944 45.8819 55.1126 45.8819C54.8209 45.8819 54.553 45.7517 54.3546 45.645C54.2579 45.5988 54.1719 45.533 54.1019 45.452C54.0319 45.3709 53.9794 45.2762 53.9477 45.1739C53.916 45.0716 53.9057 44.9638 53.9177 44.8574C53.9296 44.7509 53.9634 44.648 54.0169 44.5553C54.0984 44.3894 54.4952 43.9866 54.5885 43.9156C55.6501 43.2996 56.8746 43.5011 58.0058 43.963C59.0556 44.4013 59.8478 45.2068 60.9924 46.3439C62.1591 47.718 62.3693 48.0971 63.0327 49.1276C63.5583 49.933 64.0366 50.7622 64.3624 51.7098C64.5622 52.3021 64.3046 52.7877 63.6161 53.0838Z" fill="#4D6BFE"/>
</svg>
