<svg width="260" height="102" viewBox="0 0 260 102" fill="none" xmlns="http://www.w3.org/2000/svg">
<path d="M104.654 56.114C112.038 54.4112 119.403 52.6402 126.807 51.0353C132.4 49.822 138.042 48.7737 143.675 47.7365C148.405 46.8747 153.148 46.1319 157.887 45.3493C161.315 44.7796 164.753 44.2892 168.165 43.6711C169.749 43.3864 171.274 42.6867 172.869 42.501C179.366 41.7248 185.873 41.0377 192.385 40.3902C199.532 39.6789 206.699 39.1359 213.838 38.3552C219.648 37.7191 225.444 36.8738 231.235 36.0693C232.954 35.829 234.662 35.4897 236.355 35.1119C237.783 34.785 238.025 34.3553 237.884 32.8855C237.646 30.4128 237.005 29.8247 234.487 29.7563C233.852 29.7398 233.211 29.7541 232.571 29.7784C230.142 29.8703 227.709 30.013 225.276 30.0752C218.56 30.2644 211.836 30.0428 205.12 30.6638C195.604 31.5505 186.054 32.1499 176.522 32.9079C174.442 33.0696 172.376 33.3502 170.307 33.6012C165.534 34.1768 160.769 34.8217 155.99 35.3478C152.887 35.6889 149.748 35.8132 146.646 36.1642C141.987 36.6864 137.342 37.3274 132.682 37.9201C128.546 38.4516 124.407 38.9534 120.276 39.5246C114.446 40.3337 108.627 41.3323 102.777 41.973C96.8086 42.6275 90.8767 43.5991 85.019 44.8633C81.2286 45.686 77.3896 46.2634 73.5825 47.0278C68.0717 48.0809 62.5621 49.1439 57.0716 50.285C54.9349 50.7346 52.8816 51.556 50.7402 51.9659C46.2518 52.8297 41.7315 53.5064 37.2262 54.3119C33.3516 55.014 29.4949 55.7842 25.6359 56.5346C25.3223 56.6012 25.0336 56.7954 24.738 56.9303C24.936 57.5097 25.1773 58.3753 25.7485 58.7105C26.3087 59.0369 26.9635 58.7097 27.5579 58.6405C29.7166 58.3792 31.8821 58.1774 34.0408 57.9161C38.3569 57.3836 42.6627 56.762 46.9493 56.0622C52.8603 55.083 58.7517 53.9354 64.5926 52.6129C70.3653 51.3084 76.1046 50.1484 81.9451 49.1674C86.1117 48.4716 90.2795 47.7857 94.4507 47.1295C98.0507 46.5699 101.664 46.0389 105.27 45.5288C109.112 44.9812 112.959 44.4732 116.805 43.9552C121.274 43.3548 125.752 42.7432 130.227 42.1923C133.73 41.7544 137.243 41.3957 140.752 40.9974C144.835 40.5323 148.916 40.0572 153.011 39.6008C156.579 39.2055 160.163 38.9389 163.717 38.4148C171.467 37.2719 179.243 36.5275 187.063 36.2499C187.693 36.2268 188.313 36.2049 188.943 36.1818C187.239 36.6411 185.526 36.8505 183.816 37.0797C178.653 37.7609 173.47 38.3442 168.323 39.1641C161.984 40.173 155.665 41.3603 149.351 42.4969C142.013 43.8129 134.665 45.13 127.333 46.4955C125.407 46.8503 123.466 47.2569 121.609 47.8746C120.449 48.2607 119.324 48.6025 118.11 48.6936C117.243 48.7543 116.389 48.924 115.538 49.1135C107.734 50.8251 100.049 52.9547 92.5514 55.7453C91.6269 56.0838 90.7156 56.451 89.8323 56.8852C89.5192 57.0421 89.1808 57.4129 89.0988 57.7437C88.6953 59.3672 90.1758 61.3036 91.8737 61.3972C92.7937 61.4508 93.7278 61.4526 94.6527 61.375C98.1154 61.1025 101.586 60.8091 105.042 60.4772C108.845 60.1148 112.652 59.6918 116.451 59.2898C120.825 58.8209 125.208 58.3409 129.58 57.8621C133.438 57.4433 137.294 57.0145 141.151 56.5957C145.753 56.1003 150.346 55.6159 154.95 55.2307C155.646 55.1698 156.383 55.1141 157.034 55.3597C148.538 56.8205 140.191 59.3886 131.929 61.8263C129.171 62.6293 126.488 63.7348 123.81 64.7996C122.457 65.3387 122.231 66.0679 122.68 67.4215C123.162 68.8917 123.758 69.3545 125.326 69.4532C125.791 69.4794 126.254 69.4858 126.711 69.4427C130.51 69.131 134.319 68.8082 138.117 68.4866C139.439 68.3729 140.762 68.2592 142.083 68.1355C143.255 68.0292 144.737 67.6459 145.878 68.0453C145.342 68.3587 144.752 68.5479 144.162 68.747C140.015 70.1235 135.988 71.5059 132.01 73.3044C131.161 73.6845 130.632 74.3184 130.846 75.378C131.137 76.7599 131.858 77.7806 132.914 77.8786C134.63 78.0404 136.363 78.0897 138.1 78.1787C138.519 76.6036 137.396 75.921 136.592 74.9702C137.898 74.4567 139.121 73.9228 140.367 73.4966C146.055 71.5493 151.757 69.6404 157.456 67.7018C158.142 67.4714 158.807 67.143 159.496 66.8519C159.405 66.2399 159.352 65.7842 159.27 65.3418C159.024 64.0048 158.77 63.8035 157.424 63.8898C155.92 63.9945 154.419 64.129 152.919 64.1831C151.88 64.2238 150.826 64.0552 149.8 64.1245C145.409 64.4447 141.024 64.8245 136.636 65.1646C135.919 65.2179 135.206 65.2205 134.496 65.2429C134.823 64.9438 135.184 64.7712 135.554 64.6679C143.648 62.2598 151.746 59.8813 159.837 57.4434C162.272 56.7082 164.675 55.8761 167.05 54.9671C168.348 54.4746 168.593 53.3917 167.874 52.2102C167.75 52.0137 167.529 51.8386 167.505 51.6306C167.388 50.7103 166.767 50.5517 166.006 50.5699C154.181 50.8618 142.262 52.249 130.553 53.8829C126.364 54.4709 122.188 55.0875 117.991 55.6061C117.188 55.6995 116.379 55.7335 115.58 55.7762C114.481 55.8238 113.383 55.7909 112.29 55.888C109.359 56.1589 106.424 56.4804 103.496 56.771C103.834 56.4002 104.234 56.2131 104.654 56.114ZM130.287 56.605C130.199 56.6252 130.101 56.6467 130.287 56.605V56.605ZM130.188 56.6165C130.178 56.6176 130.178 56.6176 130.188 56.6165V56.6165Z" fill="#CACAC9"/>
</svg>
