<svg xmlns="http://www.w3.org/2000/svg" width="38" height="38" fill="none" viewBox="0 0 38 38"><path fill="#1c2d46" d="M14.25 33.15h1.425v-.027l-.001-.027zm-.017-.463 1.424-.054zm.004-.72 1.42.122zm.022-.256 1.42.121zm.022-.257-1.42-.122zm.002-.513-1.42.113zm-.04-.513 1.42-.112zm-.03-.513-1.423.047zm-.016-.513-1.424.047zm.008-.513-1.422-.09zm.032-.513-1.422-.09zm.017-.513-1.425-.004zm.002-.513 1.425.004zm-.015-.513-1.422.083zm-.03-.513 1.423-.083zm-.009-.513-1.424-.033zm.012-.513 1.425.033zm.03-.513 1.42.137zm.05-.513-1.418-.137zm-.01-.513 1.413-.189zm-.068-.513-1.413.19zm-.023-.513 1.423.062zm.022-.513-1.424-.061zm-.002-.513 1.423-.072zm-.026-.514-1.423.072zm.047-.507-1.386-.332zm.06-.25-1.386-.332zm.06-.25 1.386.333zm.558-.812-1.067-.944zm.416-.24-.297-1.395zm.5-.107.297 1.393zm.507-.068.079 1.423zm.513-.028-.079-1.423zm.514.022-.204 1.41zm.513.074.203-1.41zm.513 0 .201 1.411zm.513-.073-.202-1.41zm.513-.017-.11 1.421zm.256.02.11-1.42zm.257.02-.11 1.42zm.513.008.062 1.424zm.256-.011-.063-1.424zm.257-.012-.063-1.423zm.766.059-.193 1.412zm.255.035.193-1.412zm.506.087.294-1.394zm.251.053-.293 1.395zm.628.335-1.252.683zm.125.23-1.251.682zm.125.23 1.251-.682zm.135.488-1.424.052zm.01.257-1.425.052zm.009.258 1.424-.052zm.013.514 1.424-.02zm.007.513-1.425.02zm-.023.513 1.418.144zm-.052.513-1.417-.143zm-.007.513 1.421-.105zm.02.257-1.422.106zm.019.256 1.42-.105zm.02.513-1.425.01zm.003.513-1.425.01zm-.022.513-1.419-.13zm-.023.257 1.419.13zm-.024.256 1.42.131zm.008.513-1.415.174zm.031.257 1.415-.173zm.032.256-1.415.174zm.02.513-1.423-.056zm-.01.257 1.425.057zm-.01.256-1.424-.056zm-.022.513 1.424.067zm-.024.513-1.423-.066zm.005.513-1.422.094zm.017.257-1.422.094zm.017.256 1.422-.093zm.018.513 1.425-.008zm.003.513-1.425.008zm-.027.513-1.416-.156zm-.056.513 1.416.157zm.009.435 1.394-.296zm.038.178-1.394.296zm.038.178-1.394.296zm.003.178-1.348.461.33.964h1.018zm-.034-.1 1.348-.462-2.773.462zm9.529-15.91 1.422-.078zm.014.257-1.423.08zm.015.513 1.425-.006zm.002.513 1.425-.006zm-.01.513 1.423.067zm-.012.257 1.423.066zm-.012.256-1.424-.066zm-.004.513 1.424-.045zm.016.513-1.424.045zm.003.513 1.425.026zm-.009.513 1.425.026zm.003.513-1.425.04zm.003 1.026 1.42.104zm-.038.513-1.421-.103zm.005.513-1.419.132zm.048.513 1.419-.132zm-.003.513 1.417.149zm-.054.513-1.417-.148zm-.021.513-1.425.03zm.01.513 1.425-.03zm.005.513-1.425-.003zm0 .257 1.424.003zm-.001.256 1.425.004zm.02.513 1.42-.111zm.04.514 1.42-.112zm-.025.512 1.404.247zm-.09.51-1.403-.248zm-.07.506-1.418-.147zm-.027.252 1.417.148zm-.026.252 1.417.148zm-.14.476 1.274.64zm-.225.45-1.273-.64zm-.281.419-1.078-.932zm-.168.195 1.078.932zm-.169.195L31 31.619zm-.411.28-.47-1.346zM31.18 33l.469 1.345zm-.496.128.244 1.404zm-.252.044-.244-1.404zm-.253.044-.244-1.404zm-.51.043.006-1.425zm-.513-.002-.005 1.425zm-.513-.019-.1 1.422zm-.257-.018.1-1.421zm-.257-.017-.099 1.421zm-.513-.011.04 1.424zm-.256.007-.04-1.424zm-.257.007-.04-1.424zm-1.026.071-.117-1.42zm-.513.002-.109 1.42zm-.256-.02-.11 1.42zm-.257-.02.11-1.42zm-.513-.01.05 1.424zm-.513.018-.05-1.424zm-.513.023-.08-1.422zm-1.026.045.008 1.425zm-.513.003-.007-1.425zm-1.539.009.004-1.425zm-.513-.002.004-1.425zm-.513-.04-.216 1.409zm-.256-.04.216-1.408zm-.257-.039.217-1.408zm-.513-.022-.095-1.422zm-.256.017.096 1.422zm-.257.018-.095-1.422zm-.513.022.03 1.425zm-.513.011-.03-1.425zm-.513.004.008-1.425zm-.256-.001-.008 1.425zm-.257-.002-.007 1.425zm-.513.011.07 1.424zm-.513.025-.069-1.423zm-.513-.012-.138 1.418zm-.513-.05-.138 1.418zm-.513-.003.121 1.42zm-.256.021-.121-1.42zm-.257.022-.12-1.42zm-.513.016-.031 1.425zm-.256-.005.031-1.425zm-.257-.006-.031 1.425zm-.513-.013.04-1.424zm-.513-.014-.04 1.425zm-.513.002.05 1.424zm-.257.009-.05-1.424zm-.256.009-.05-1.425zm-.513-.018.15-1.418zm-.511-.054-.15 1.417zm-1.024-.033-.01 1.425zm-.496-.084.465-1.347zm-.24-.083-.464 1.347zm-.239-.082-.464 1.347zm-.433-.244.91-1.097zm-.194-.16-.91 1.096zm-.194-.161.91-1.097zm-.34-.367 1.161-.825zm-.293-.412-1.161.826zm-.204-.453 1.388-.325zm-.058-.248-1.388.324zm-.058-.248-1.388.324zm-.082-1.53-1.416.154zm-.028-.256 1.417-.154zm-.027-.256 1.416-.154zm-.046-1.026-1.424.032zm.025-.513-1.415-.168zm.078-1.026-1.424.073zm-.065-1.283-1.424.07zm-.021-1.795-1.425-.04zm.032-1.026-1.424-.06zm.022-.513 1.423.06zm.034-1.54 1.423-.077zm-.014-.256-1.422.078zm-.005-1.795 1.42-.118zm-.021-.257-1.42.118zm-.021-.256-1.42.118zm.022-1.533 1.381.35zm.126-.498-1.382-.35zm.163-.477 1.305.572zm.2-.456-1.305-.572zm.265-.416 1.072.938zm.165-.19-1.072-.938zm.165-.188-1.072-.938zm.357-.36.948 1.064zm.384-.342-.948-1.063zm.401-.318-.82-1.166zm.21-.148-.82-1.166zm.21-.148.82 1.166zm.397-.326.986 1.028zm.372-.357-.987-1.028zm.4-.32-.785-1.19zm.215-.142.785 1.19zm.215-.142L8.208 9.74zm.404-.316.964 1.05zm.38-.348.963 1.05zm.404-.316-.787-1.188zm.214-.142.787 1.189zm.215-.142-.787-1.188zm.596-.487-.956-1.057zm.19-.172.956 1.057zm.41-.31-.76-1.206zm.435-.275.76 1.206zm.406-.314.977 1.037zm.188-.177-.978-1.037zm.6-.482.707 1.238zm.224-.128-.707-1.237zm.225-.129-.707-1.237zm.425-.29-.894-1.109zm.4-.321.894 1.11zm.39-.334.958 1.054zm.19-.173.958 1.054zm.19-.173-.958-1.055zm.626-.45.764 1.204zm.218-.138-.764-1.203zm.418-.296-.882-1.12zm.202-.16-.883-1.118zm.201-.158.883 1.119zm.396-.327.932 1.078zm.194-.168-.931-1.078zm1.112-.49L18.55 2.32zm.479.023.418-1.362zm.475.146-.418 1.362zm.438.234-.891 1.111zm.4.32.892-1.11zm.397.327-.918 1.09zm.393.33-.918 1.09zm.405.316.833-1.156zm.416.3.833-1.156zm.42.295-.8 1.179zm.426.289.8-1.18zm.401.32-.972 1.042zm.188.175-.972 1.042zm.189.176.972-1.042zm.405.314.765-1.203zm.435.276-.764 1.203zm.397.326-1.029.986zm.359.374 1.029-.986zm.392.331.799-1.18zm.426.288-.798 1.18zm.43.283.768-1.2zm.434.277-.767 1.201zm.397.326-1.027.988zm.18.187 1.027-.988zm.18.187-1.028.987zm.78.666.889-1.114zm.406.315.86-1.136zm.409.31-.86 1.136zm.416.3-.806 1.175zm.212.145.806-1.175zm.212.146-.806 1.175zm.412.306-.896 1.109zm.2.161.894-1.108zm.199.162-.895 1.108zm.393.328-.933 1.077zm.193.168.933-1.077zm.194.167L31 14.384zm.385.342-.958 1.055zm.191.174-.957 1.055zm.192.173-.957 1.056zm.279.42-1.344.475zm.174.493 1.343-.474zm.069.505 1.42.1zm-.037.91 1.412-.196zm.038.27-1.412.195zm.04.39 1.422-.079zM14.25 33.25h1.425v-.1h-2.85v.1zm0-.1 1.424-.054-.017-.463-1.424.054-1.424.053.017.463zm-.017-.463 1.424-.054a5 5 0 0 1 0-.544l-1.42-.122-1.42-.122a8 8 0 0 0-.008.895zm.004-.72 1.42.122.022-.257-1.42-.121-1.42-.122-.021.256zm.022-.256 1.42.121.022-.256-1.42-.122-1.42-.122-.021.257zm.022-.257 1.42.122q.032-.373.003-.747l-1.42.112-1.421.113q.01.139-.001.278zm.002-.513 1.42-.112-.02-.257-1.42.113-1.42.112.02.257zm-.02-.256 1.42-.113-.02-.256-1.42.112-1.421.113.02.256zm-.02-.257 1.42-.112a10 10 0 0 1-.025-.448l-1.424.047-1.424.047q.01.29.032.579zm-.03-.513 1.425-.047-.008-.256-1.425.047-1.424.046.008.257zm-.008-.256 1.425-.047-.009-.257-1.424.047-1.424.047.008.256zm-.008-.257 1.424-.047a4 4 0 0 1 .006-.376l-1.422-.09-1.422-.09a7 7 0 0 0-.01.65zm.008-.513 1.422.09.016-.256-1.422-.09-1.422-.09-.016.256zm.016-.256 1.422.09.016-.257-1.422-.09-1.422-.09-.016.257zm.016-.257 1.422.09q.02-.3.02-.599l-1.425-.004-1.425-.004q0 .214-.014.427zm.017-.513 1.425.004v-.256l-1.424-.004-1.425-.004v.256zm0-.256 1.426.004v-.257l-1.424-.004-1.425-.004-.001.257zm.002-.257 1.425.004q0-.3-.017-.6l-1.423.083-1.422.083q.012.213.012.426zm-.015-.513 1.423-.083-.015-.257-1.423.084-1.422.083.015.256zm-.015-.256 1.423-.084-.015-.256-1.423.083-1.422.083.015.257zm-.015-.257 1.423-.083a5 5 0 0 1-.007-.397l-1.425-.033-1.424-.033q-.008.315.01.63zm-.009-.513 1.425.033.006-.257-1.425-.032-1.424-.033-.006.256zm.006-.256 1.425.032.006-.256-1.425-.033-1.425-.033-.005.257zm.006-.257 1.425.033q.004-.204.024-.41l-1.418-.136-1.419-.137q-.03.31-.037.617zm.03-.513 1.42.137.024-.257-1.419-.136-1.418-.137-.025.256zm.025-.256 1.419.136.024-.256-1.418-.137-1.418-.137-.025.257zm.025-.257 1.418.137a3.7 3.7 0 0 0-.015-.839l-1.412.19-1.413.188a.8.8 0 0 1 .004.187zm-.01-.513 1.413-.189-.034-.256-1.413.189-1.412.189.034.256zm-.034-.256 1.413-.19-.035-.256-1.412.19-1.413.188.035.257zm-.034-.257 1.412-.189a1.5 1.5 0 0 1-.012-.262l-1.423-.062-1.424-.061q-.017.383.034.763zm-.023-.513 1.423.062.011-.257-1.423-.061-1.424-.062-.011.257zm.01-.256 1.424.061.011-.256-1.423-.062-1.424-.061-.011.256zm.012-.257 1.423.062q.015-.324-.002-.647l-1.423.072-1.423.072q.01.19.001.38zm-.002-.513 1.423-.072-.013-.257-1.423.072-1.423.072.013.257zm-.013-.257 1.423-.072-.013-.257-1.423.072-1.423.072.013.257zm-.013-.257 1.423-.072a.4.4 0 0 1 .01-.102l-1.386-.333-1.386-.332q-.108.45-.084.91zm.047-.507 1.386.333.06-.25-1.386-.332-1.386-.333-.06.25zm.06-.25 1.386.333.06-.25-1.386-.332-1.386-.333-.06.25zm.06-.25 1.386.333a.4.4 0 0 1-.093.175l-1.067-.945-1.067-.944c-.27.304-.452.661-.545 1.049zm.226-.437 1.067.945.166-.188-1.067-.944-1.067-.945-.166.188zm.166-.187 1.067.944.166-.187-1.067-.945-1.067-.944-.166.187zm.166-.188 1.067.945a.67.67 0 0 1-.354.208l-.297-1.394-.297-1.393c-.458.097-.869.331-1.186.69zm.416-.24.297 1.393.25-.053-.297-1.394-.297-1.394-.25.053zm.25-.054.297 1.394.25-.053-.297-1.394-.297-1.394-.25.053zm.25-.053.297 1.393q.142-.03.289-.038l-.08-1.423-.078-1.423a5 5 0 0 0-.725.097zm.507-.068.079 1.423.257-.014-.08-1.423-.078-1.423-.257.014zm.257-.014.079 1.423.256-.014-.079-1.423-.079-1.423-.256.014zm.256-.014.08 1.422q.113-.006.23.01l.204-1.41.203-1.41a4 4 0 0 0-.796-.035zm.514.022-.204 1.41.257.038.203-1.41.203-1.411-.256-.037zm.256.037-.203 1.41.256.038.204-1.41.203-1.411-.257-.037zm.257.037-.204 1.41q.46.067.918.001l-.201-1.41-.202-1.411a.4.4 0 0 1-.108 0zm.513 0 .201 1.411.257-.036-.202-1.411-.202-1.41-.256.036zm.256-.036.202 1.41.256-.036-.201-1.41-.202-1.411-.257.036zm.257-.037.201 1.41a1 1 0 0 1 .203-.006l.109-1.42.109-1.421a3.8 3.8 0 0 0-.824.027zm.513-.017-.11 1.421.257.02.11-1.421.108-1.42-.256-.02zm.256.02-.109 1.42.256.02.11-1.42.109-1.421-.257-.02zm.257.02-.11 1.42q.343.027.685.012l-.062-1.424-.063-1.424a3 3 0 0 1-.341-.005zm.513.008.062 1.424.257-.012-.063-1.423-.063-1.424-.256.011zm.256-.011.063 1.423.256-.01-.062-1.425-.063-1.423-.257.011zm.257-.012.062 1.424q.128-.006.256.012l.193-1.412.193-1.412a4.3 4.3 0 0 0-.767-.035zm.511.024-.193 1.412.255.035.193-1.412.193-1.412-.255-.035zm.255.035-.193 1.412.256.035.192-1.412.193-1.412-.255-.035zm.255.035-.192 1.412q.204.027.405.07l.293-1.395.294-1.394a9 9 0 0 0-.607-.105zm.506.087-.293 1.395.251.053.293-1.395.294-1.394-.251-.053zm.251.053-.293 1.395.251.052.293-1.394.294-1.395-.251-.052zm.251.053-.293 1.394a.88.88 0 0 1-.582-.43l1.252-.681 1.25-.682a1.96 1.96 0 0 0-1.333-.996zm.377.283-1.252.681.126.23 1.251-.682 1.251-.681-.125-.23zm.125.23-1.251.681.125.23 1.251-.682 1.251-.682-.125-.23zm.125.23-1.251.681a.3.3 0 0 1-.038-.142l1.424-.052 1.424-.052a2.5 2.5 0 0 0-.308-1.118zm.135.487-1.424.052.01.257 1.423-.052 1.424-.051-.009-.258zm.01.257-1.425.052.01.258 1.424-.052 1.424-.052-.01-.257zm.009.258-1.424.052q.009.24.012.482l1.425-.02 1.424-.02a24 24 0 0 0-.013-.546zm.013.514-1.425.02.003.256 1.425-.02 1.425-.019-.004-.257zm.003.257-1.425.02.004.256 1.425-.02 1.424-.02-.003-.256zm.004.256-1.425.02q.002.174-.016.35l1.418.143 1.418.144a6 6 0 0 0 .03-.676zm-.023.513-1.418-.143-.025.256 1.417.144 1.418.143.026-.256zm-.026.257-1.418-.144-.025.257 1.417.143 1.418.144.026-.257zm-.026.256-1.417-.143q-.04.38-.01.762l1.42-.106 1.421-.105a1.5 1.5 0 0 1 .004-.264zm-.007.513-1.42.106.018.257 1.422-.106 1.42-.106-.019-.256zm.02.257-1.422.106.02.256 1.42-.106 1.422-.105-.02-.257zm.019.256-1.421.106q.015.209.016.416l1.425-.009 1.425-.008a9 9 0 0 0-.024-.61zm.02.513-1.425.01.002.256 1.425-.01 1.425-.008-.002-.256zm.002.257-1.425.009.002.256 1.425-.009 1.425-.009-.002-.256zm.002.256-1.425.01q0 .185-.017.372l1.42.131 1.418.131q.03-.326.029-.652zm-.023.513-1.419-.13-.023.256 1.419.13 1.419.132.023-.257zm-.023.257-1.42-.131-.023.256 1.42.131 1.418.131.024-.256zm-.024.256-1.419-.13q-.037.408.012.817l1.415-.174 1.414-.173a1 1 0 0 1-.003-.209zm.008.513-1.415.174.032.256 1.414-.173 1.415-.173-.032-.257zm.031.257-1.414.173.031.257 1.415-.174 1.414-.173-.031-.256zm.032.256-1.415.174q.018.142.012.283l1.424.056 1.424.057q.015-.372-.03-.743zm.02.513-1.423-.056-.01.256 1.424.057 1.424.057.01-.257zm-.01.257-1.423-.057-.01.256 1.423.057 1.424.057.01-.256zm-.01.256-1.424-.056-.021.503 1.423.066 1.424.067.022-.523zm-.022.513-1.423-.066-.012.257 1.423.066 1.424.066.012-.256zm-.012.257-1.423-.066-.012.256 1.423.066 1.424.067.012-.257zm-.012.256-1.423-.066a6 6 0 0 0 .006.673l1.422-.094 1.422-.093a3 3 0 0 1-.003-.353zm.005.513-1.422.094.017.257 1.422-.094 1.422-.094-.017-.256zm.017.257-1.422.094.017.256 1.422-.094 1.422-.093-.017-.257zm.017.256-1.422.094q.015.213.015.427l1.425-.008 1.425-.008q0-.3-.021-.598zm.018.513-1.425.008.002.257 1.425-.008 1.425-.008-.002-.256zm.002.257-1.425.008.001.256 1.425-.008 1.425-.008-.001-.256zm.001.256-1.425.008q0 .174-.018.349l1.416.156 1.417.157q.036-.337.035-.678zm-.027.513-1.416-.156-.028.256 1.416.157 1.416.156.029-.256zm-.028.257-1.416-.157-.029.257 1.417.156 1.416.157.028-.257zm-.028.256-1.417-.156c-.029.264-.035.572.032.887l1.394-.296 1.394-.296a1 1 0 0 1 .01.067v-.011l.003-.038zm.009.435-1.394.296.038.178 1.394-.296 1.394-.296-.038-.178zm.038.178-1.394.296.038.178 1.394-.296 1.393-.297-.037-.177zm.038.178-1.394.296c.01.05.007.041.002.002 0-.005-.014-.105-.003-.24a1.42 1.42 0 0 1 1.416-1.306v2.851c.789 0 1.18-.576 1.297-.832.108-.234.124-.439.128-.496.012-.15-.003-.272-.007-.306a3 3 0 0 0-.046-.265zm.02.178v-1.425h-.017v2.85h.017zm-.017 0 1.348-.462-.034-.1-1.348.462-1.348.461.034.1zm-.034-.1h-1.425v.1h2.85v-.1zm9.529-15.91-1.423.08.014.256 1.423-.079 1.422-.079-.014-.256zm.014.257-1.423.08q.012.22.013.44l1.425-.007 1.425-.006q-.001-.292-.017-.586zm.015.513-1.425.007.001.256 1.425-.006 1.425-.007v-.256zm.001.257-1.425.006.001.257 1.425-.007 1.425-.006v-.257zm.001.256-1.425.007q.002.22-.009.44l1.424.066 1.423.067q.014-.293.012-.586zm-.01.513-1.424-.066-.012.256 1.424.067 1.423.066.012-.256zm-.012.257-1.424-.067-.012.257 1.424.066 1.423.067.012-.257zm-.012.256-1.424-.066q-.014.312-.005.624l1.425-.045 1.424-.045a5 5 0 0 1 .003-.401zm-.004.513-1.424.045.008.257 1.424-.045 1.424-.045-.008-.257zm.008.257-1.424.045.008.256 1.424-.045 1.424-.045-.008-.256zm.008.256-1.424.045q.006.222.003.442l1.424.026 1.425.026q.005-.293-.004-.584zm.003.513-1.424-.026-.005.257 1.425.026 1.425.026.004-.257zm-.004.257-1.425-.026-.005.256 1.425.026 1.425.026.005-.256zm-.005.256-1.425-.026q-.004.29.003.58l1.425-.04 1.424-.04a10 10 0 0 1-.002-.448zm.003.513-1.425.04.007.257 1.425-.04 1.424-.04-.007-.257zm.007.257-1.425.04.008.256 1.424-.04 1.425-.04-.008-.256zm.007.256-1.424.04q.005.184-.009.37l1.422.103 1.42.104a7 7 0 0 0 .016-.657zm-.011.513-1.422-.103-.018.256 1.42.104 1.422.103.019-.256zm-.02.257-1.42-.104-.019.257 1.421.103 1.421.104.02-.257zm-.018.256-1.421-.103q-.028.375.008.748l1.418-.132 1.42-.132a2 2 0 0 1-.004-.277zm.005.513-1.419.132.024.257 1.42-.132 1.418-.132-.024-.257zm.024.257-1.419.132.024.256 1.419-.132 1.419-.132-.024-.256zm.024.256-1.419.132q.01.117-.001.233l1.417.148 1.417.149a4 4 0 0 0 .005-.794zm-.003.513-1.417-.148-.027.256 1.417.149 1.417.148.027-.256zm-.027.257-1.417-.149-.027.257 1.417.148 1.417.149.027-.257zm-.027.256-1.417-.148a6 6 0 0 0-.029.69l1.425-.029 1.424-.03a3 3 0 0 1 .014-.334zm-.021.513-1.425.03.005.256 1.425-.03 1.425-.029-.006-.256zm.005.257-1.425.03.006.256 1.424-.03 1.425-.03-.005-.256zm.005.256-1.424.03q.005.24.004.48l1.425.003 1.425.004q0-.273-.005-.547zm.005.513-1.425-.003v.256l1.424.004 1.425.003.001-.256zm0 .257-1.426-.004v.257l1.425.003 1.425.004v-.257zm-.001.256-1.425-.003q0 .315.024.628l1.42-.112 1.42-.111a5 5 0 0 1-.014-.398zm.02.513-1.421.112.02.257 1.42-.112 1.421-.112-.02-.256zm.02.257-1.421.112.02.257 1.42-.112 1.421-.112-.02-.257zm.02.257-1.42.112q.004.075-.008.152l1.403.248 1.404.247q.075-.433.041-.871zm-.025.512-1.403-.248-.045.255 1.403.248 1.404.247.044-.255zm-.045.255-1.403-.248-.045.255 1.403.248 1.404.247.045-.255zm-.045.255-1.403-.248a9 9 0 0 0-.085.607l1.417.147 1.418.148q.02-.201.057-.407zm-.07.506-1.418-.147-.026.252 1.417.147 1.417.148.027-.252zm-.027.252-1.417-.148-.027.252 1.418.148 1.417.148.026-.252zm-.026.252-1.418-.148.002-.006.003-.009 1.274.64 1.273.639q.23-.46.283-.968zm-.14.476-1.273-.639-.113.225 1.274.639 1.274.64.112-.225zm-.112.225-1.274-.64-.112.225 1.273.64 1.274.639.113-.225zm-.113.224-1.273-.639a.6.6 0 0 1-.086.127l1.078.932 1.078.932q.281-.326.477-.712zm-.281.42-1.078-.932-.168.195 1.078.932 1.078.932.168-.195zm-.168.195-1.078-.932-.169.195 1.078.932 1.078.931.169-.194zm-.169.195L31 31.619a.5.5 0 0 1 .198-.134l.469 1.345.469 1.346a2.4 2.4 0 0 0 1.02-.694zm-.411.28-.47-1.346-.242.084.469 1.346.469 1.346.243-.085zm-.243.084-.47-1.346-.242.085L31.18 33l.469 1.345.243-.084zM31.18 33l-.47-1.346q-.132.046-.27.07l.244 1.404.244 1.404q.368-.063.721-.187zm-.496.128-.244-1.404-.252.044.244 1.404.244 1.404.252-.044zm-.252.044-.244-1.404-.253.044.244 1.404.244 1.404.253-.044zm-.253.044-.244-1.404a1.5 1.5 0 0 1-.26.022l-.005 1.425-.006 1.425q.382.001.759-.064zm-.51.043.006-1.425-.257-.001-.005 1.425-.005 1.425h.256zm-.256-.001.005-1.425h-.257l-.005 1.424-.005 1.425.257.001zm-.257 0 .005-1.426q-.21 0-.42-.015l-.098 1.421-.1 1.422q.304.02.608.022zm-.513-.02.099-1.421-.257-.018-.099 1.421-.099 1.422.257.018zm-.257-.018.1-1.421-.258-.018-.099 1.422-.099 1.421.257.018zm-.257-.017.1-1.422a7 7 0 0 0-.653-.014l.04 1.425.04 1.424q.188-.004.374.008zm-.513-.011-.04-1.425-.256.008.04 1.424.04 1.425.256-.008zm-.256.007-.04-1.424-.257.007.04 1.424.04 1.425.257-.008zm-.257.007-.04-1.424q-.296.007-.59.033l.117 1.42.118 1.42q.217-.018.435-.024zm-.513.029-.117-1.42-.257.02.118 1.421.117 1.42.257-.021zm-.256.021-.118-1.42-.256.021.117 1.42.118 1.42.256-.02zm-.257.021-.117-1.42a2 2 0 0 1-.287 0l-.109 1.422-.109 1.42q.37.03.74-.002zm-.513.002.11-1.421-.257-.02-.11 1.421-.108 1.42.256.02zm-.256-.02.109-1.42-.257-.02-.109 1.42-.109 1.421.257.02zm-.257-.02.11-1.42a6 6 0 0 0-.673-.014l.05 1.424.05 1.424a3 3 0 0 1 .354.007zm-.513-.01-.05-1.424-.256.009.05 1.424.05 1.424.257-.01zm-.256.009-.05-1.424-.257.009.05 1.424.05 1.424.257-.009zm-.257.009-.05-1.424q-.272.009-.543.025l.08 1.422.08 1.423q.243-.013.483-.022zm-.513.023-.08-1.422-.256.014.08 1.423.08 1.423.256-.015zm-.256.015-.08-1.423-.257.015.08 1.422.08 1.423.257-.014zm-.257.014-.08-1.422a9 9 0 0 1-.44.013l.007 1.425.008 1.425q.293 0 .585-.018zm-.513.016-.007-1.425-.257.002.008 1.425.007 1.425.257-.002zm-.256.002-.008-1.425-.256.001.007 1.425.008 1.425.256-.001zm-.257.001-.007-1.425-.517.003.011 1.425.011 1.425.51-.003zm-.513.003-.01-1.425-.257.002.01 1.425.012 1.425.256-.002zm-.256.002-.011-1.425-.257.002.011 1.425.011 1.425.257-.002zm-.257.002-.01-1.425q-.25.002-.499.002l-.004 1.425-.004 1.425q.264 0 .528-.002zm-.513.002.004-1.425-.256-.001-.004 1.425-.004 1.425h.256zm-.256-.001.004-1.425h-.257l-.004 1.424-.004 1.425h.257zm-.257 0 .004-1.426q-.149 0-.3-.023l-.217 1.408-.216 1.409q.36.054.725.056zm-.513-.041.217-1.408-.257-.04-.216 1.409-.216 1.408.256.04zm-.256-.04.216-1.408-.256-.04-.217 1.41-.216 1.408.256.04zm-.257-.039.217-1.408a3.8 3.8 0 0 0-.825-.036l.095 1.422.096 1.422a1 1 0 0 1 .201.009zm-.513-.022-.095-1.422-.257.018.096 1.421.096 1.422.256-.017zm-.256.017-.096-1.421-.256.017.095 1.422.096 1.421.256-.017zm-.257.018-.095-1.422q-.224.015-.447.02l.03 1.424.029 1.425q.29-.006.579-.026zm-.513.022-.03-1.424-.256.005.03 1.425.03 1.424.256-.005zm-.256.006-.03-1.425-.257.005.03 1.425.03 1.425.257-.006zm-.257.005-.03-1.425q-.238.006-.475.004l-.008 1.425-.007 1.425q.275.001.55-.004zm-.513.004.008-1.425-.257-.001-.007 1.425-.008 1.425.257.001zm-.256-.001.007-1.425-.256-.002-.008 1.425-.007 1.425.256.002zm-.257-.002.008-1.425q-.296 0-.59.013l.07 1.423.069 1.424q.217-.01.436-.01zm-.513.011-.069-1.423-.256.013.069 1.423.069 1.423.256-.012zm-.256.013-.07-1.423-.256.012.07 1.423.069 1.424.256-.013zm-.257.012-.069-1.423a2 2 0 0 1-.305-.007l-.139 1.418-.138 1.418q.36.036.72.018zm-.513-.012.139-1.418-.257-.025-.138 1.418-.139 1.418.257.025zm-.256-.025.138-1.418-.256-.026-.139 1.419-.138 1.418.256.025zm-.257-.025.139-1.418a4.2 4.2 0 0 0-.773-.005l.121 1.42.121 1.42q.127-.011.254.001zm-.513-.003-.12-1.42-.257.022.12 1.42.122 1.42.256-.023zm-.256.021-.121-1.42-.257.022.121 1.42.121 1.42.257-.022zm-.257.022-.12-1.42q-.181.015-.361.012l-.032 1.424-.031 1.425q.333.007.665-.02zm-.513.016.031-1.424-.256-.006-.031 1.425-.031 1.425.256.005zm-.256-.005.031-1.425-.257-.006-.03 1.425-.032 1.425.257.005zm-.257-.006.031-1.424-.504-.013-.04 1.424-.04 1.425.522.013zm-.513-.013.04-1.424-.256-.007-.04 1.424-.04 1.425.256.007zm-.256-.007.04-1.424-.257-.007-.04 1.424-.04 1.425.257.007zm-.257-.007.04-1.424a10 10 0 0 0-.602.002l.05 1.424.049 1.424q.211-.007.423-.002zm-.513.002-.05-1.424-.256.009.05 1.424.049 1.424.257-.01zm-.257.009-.05-1.424-.256.008.05 1.425.05 1.424.256-.01zm-.256.009-.05-1.425q-.156.006-.314-.01l-.149 1.417L9 34.664q.356.037.711.025zm-.513-.018.15-1.418-.257-.026-.149 1.417-.149 1.417.256.027zm-.256-.027.15-1.417-.256-.027-.15 1.417-.149 1.417.256.027zm-.255-.027.149-1.417a7 7 0 0 0-.651-.037l-.01 1.425-.01 1.425q.185 0 .372.021zm-.512-.029.01-1.425-.256-.002-.01 1.425-.01 1.425.255.002zm-.256-.002.01-1.425-.256-.002-.01 1.425-.01 1.425.256.002zm-.256-.002.01-1.425a.1.1 0 0 1-.041-.006l-.465 1.347-.464 1.347q.462.159.95.162zm-.496-.084.465-1.347-.24-.083-.464 1.347-.465 1.347.24.083zm-.24-.083.465-1.347-.239-.082-.465 1.347-.464 1.347.24.082zm-.239-.082.465-1.347.005.002.007.004-.91 1.097-.91 1.097a2.8 2.8 0 0 0 .879.494zm-.433-.244.91-1.097-.194-.16-.91 1.097-.91 1.096.194.161zm-.194-.16.91-1.097-.194-.161-.91 1.097-.91 1.097.194.16zm-.194-.161.91-1.097a.5.5 0 0 1-.089-.095l-1.161.825-1.162.826q.255.357.593.638zm-.34-.367 1.161-.825-.146-.206-1.161.825-1.162.826.146.206zm-.146-.206 1.161-.825-.146-.206-1.162.825-1.161.826.146.206zm-.147-.206 1.162-.825a.2.2 0 0 1 .022.047l-1.388.325-1.387.324c.08.344.224.666.43.955zm-.204-.453 1.388-.325-.059-.248-1.387.325-1.388.324.059.248zm-.058-.248 1.387-.325-.058-.248-1.387.325-1.388.324.058.248zm-.058-.248 1.387-.325a.7.7 0 0 1-.02-.174l-1.424-.006-1.425-.005q-.002.421.094.834zm-.057-.505 1.425.006.001-.256-1.425-.006-1.425-.006-.001.257zm.001-.256 1.425.006.001-.256L4.81 29.6l-1.425-.006-.001.256zm.001-.256 1.425.006a6 6 0 0 0-.035-.672l-1.417.153-1.416.154q.019.177.018.353zm-.027-.513 1.417-.154-.028-.256-1.417.154-1.416.154.028.256zm-.028-.256 1.417-.154-.028-.256-1.416.154-1.417.154.028.256zm-.027-.256 1.416-.154a5 5 0 0 1-.025-.391l-1.425.032-1.425.033q.008.317.042.634zm-.034-.513 1.425-.032-.006-.257-1.425.032-1.424.033.005.257zm-.006-.257 1.425-.032-.006-.257-1.425.033-1.424.032.006.257zm-.006-.256 1.425-.033a2 2 0 0 1 .015-.313l-1.415-.167-1.415-.168q-.042.356-.034.713zm.025-.513 1.415.167.03-.256-1.415-.168-1.415-.167-.03.256zm.03-.257 1.415.168.03-.257-1.415-.167-1.415-.168-.03.257zm.03-.256 1.416.167q.045-.376.025-.754l-1.423.074-1.424.073q.007.134-.009.273zm.018-.513 1.423-.074-.014-.256-1.423.073-1.423.074.013.256zm-.014-.257 1.423-.073-.013-.257-1.423.074-1.423.073.013.257zm-.013-.256 1.423-.074-.026-.51-1.423.07-1.423.07.026.517zm-.026-.513 1.423-.07-.012-.257-1.423.07-1.424.07.013.257zm-.012-.257 1.423-.07-.013-.256-1.423.07-1.423.07.012.256zm-.013-.256 1.423-.07a10 10 0 0 1-.011-.447l-1.425.004-1.425.003q0 .29.015.58zm-.013-.513 1.425-.004V23.7l-1.426.003-1.425.004v.256zm0-.257 1.424-.003v-.257l-1.426.004-1.425.003.001.257zm-.002-.256 1.425-.004q0-.234.006-.47l-1.424-.04-1.425-.039q-.007.278-.007.556zm.007-.513 1.424.04.007-.257-1.424-.04-1.424-.04-.008.257zm.007-.257 1.424.04.008-.257-1.425-.04-1.424-.039-.007.257zm.007-.256 1.425.04q.006-.248.017-.493l-1.424-.06-1.424-.06q-.01.267-.018.533zm.018-.513 1.424.06.01-.257-1.423-.06-1.424-.06-.01.257zm.01-.257 1.425.06.01-.256-1.423-.06-1.424-.06-.01.256zm.012-.256 1.423.06.021-.52-1.424-.053-1.424-.053-.02.506zm.02-.513 1.424.052.01-.256-1.425-.053-1.424-.052-.01.256zm.01-.257 1.423.053.01-.257-1.424-.052-1.424-.053-.01.257zm.009-.256 1.424.052a7 7 0 0 0-.006-.643l-1.423.078-1.423.077q.011.192.004.383zm-.005-.513 1.423-.078-.014-.256-1.423.077-1.422.078.013.256zm-.014-.257 1.423-.077-.014-.257-1.423.078-1.422.077.014.257zm-.014-.256 1.423-.078a4 4 0 0 1-.002-.374l-1.424-.061-1.423-.062q-.014.327.004.652zm-.003-.513 1.424.061.011-.256-1.424-.062-1.423-.061-.011.256zm.011-.257 1.424.062.011-.257-1.423-.061-1.424-.061-.011.256zm.012-.256 1.423.061q.016-.346-.014-.692l-1.42.118-1.42.118q.015.166.007.334zm-.01-.513 1.42-.118-.022-.257-1.42.118-1.42.118.021.257zm-.022-.257 1.42-.118-.021-.256-1.42.118-1.42.118.02.256zm-.021-.256 1.42-.118a7 7 0 0 1-.022-.423l-1.425.027-1.424.028q.006.302.03.604zm-.027-.514 1.425-.027-.005-.257-1.425.028-1.424.027.005.257zm-.005-.256 1.425-.028-.005-.257-1.424.028-1.425.027.005.257zm-.005-.257 1.425-.028q0-.065.015-.128l-1.381-.35-1.382-.35q-.11.435-.101.883zm.059-.506 1.381.35.063-.25-1.381-.35-1.382-.349-.063.249zm.063-.25 1.381.35.063-.248-1.381-.35-1.382-.35-.063.249zm.063-.248 1.381.35q.036-.139.087-.255l-1.305-.572-1.305-.572q-.15.34-.24.699zm.163-.477 1.305.572.1-.228-1.305-.572-1.305-.572-.1.228zm.1-.228 1.305.572.1-.227-1.305-.573-1.305-.572-.1.228zm.1-.228 1.305.573a.2.2 0 0 1 .032-.051l-1.072-.938-1.073-.939a3 3 0 0 0-.498.783zm.265-.416 1.072.938.166-.189-1.073-.938-1.072-.939-.166.19zm.165-.19 1.073.939.165-.189-1.073-.938-1.072-.938-.165.188zm.165-.188 1.073.938q.105-.12.232-.234l-.948-1.064-.948-1.064q-.256.228-.481.486zm.357-.36.948 1.064.192-.171-.948-1.064-.948-1.064-.192.171zm.192-.17.948 1.063.192-.17-.948-1.065-.948-1.063-.192.17zm.192-.172.948 1.064q.13-.116.273-.217l-.82-1.165-.82-1.166q-.276.195-.53.42zm.401-.318.82 1.165.21-.147-.82-1.166-.82-1.166-.21.148zm.21-.148.82 1.166.21-.148-.82-1.166-.82-1.165-.21.147zm.21-.148.82 1.166q.3-.21.563-.464l-.986-1.028-.987-1.028q-.108.104-.23.189zm.397-.326.986 1.028.186-.178-.986-1.029-.987-1.028-.186.179zm.186-.179.986 1.029.186-.179-.986-1.028-.987-1.028-.186.178zm.186-.178.986 1.028q.093-.089.2-.16l-.786-1.188-.785-1.19a4.3 4.3 0 0 0-.602.482zm.4-.32.786 1.189.214-.142-.785-1.19-.785-1.188-.215.141zm.215-.142.785 1.19.215-.143-.785-1.189-.785-1.189-.215.142zm.215-.142.785 1.19q.309-.205.583-.456l-.964-1.05-.963-1.05a2 2 0 0 1-.226.177zm.404-.316.964 1.05.19-.174-.964-1.05-.964-1.05-.19.175zm.19-.173.963 1.05.19-.175-.964-1.05-.963-1.05-.19.175zm.19-.175.963 1.05a2 2 0 0 1 .227-.177l-.786-1.189-.787-1.188q-.31.204-.581.455zm.404-.316.786 1.189.215-.142-.787-1.189-.787-1.188-.214.142zm.214-.142.787 1.189.214-.142-.786-1.189-.787-1.188-.215.142zm.215-.142.786 1.189q.304-.201.575-.446l-.956-1.057-.956-1.057a2 2 0 0 1-.236.183zm.405-.314.956 1.057.19-.173-.955-1.057-.956-1.057-.19.173zm.19-.173.956 1.057.191-.172-.956-1.057-.955-1.057-.191.172zm.191-.172.956 1.057a1.5 1.5 0 0 1 .213-.161l-.76-1.206-.76-1.206a4.4 4.4 0 0 0-.604.459zm.41-.31.759 1.206.218-.138-.76-1.205-.76-1.206-.217.137zm.217-.137.76 1.205.218-.137-.76-1.206-.76-1.205-.217.137zm.218-.138.76 1.206q.335-.21.623-.483l-.977-1.037-.977-1.037a1.2 1.2 0 0 1-.188.146zm.406-.314.977 1.037.188-.177-.977-1.037-.978-1.037-.187.177zm.188-.177.977 1.037.187-.176-.977-1.037-.977-1.037-.188.176zm.187-.176.977 1.037a.7.7 0 0 1 .143-.105l-.707-1.238-.708-1.237a3.6 3.6 0 0 0-.682.506zm.412-.306.708 1.238.225-.129-.708-1.237-.707-1.237-.225.128zm.226-.128.707 1.237.224-.129-.707-1.237-.707-1.237-.225.129zm.224-.129.707 1.237q.324-.184.612-.417l-.894-1.11-.894-1.109q-.11.09-.238.162zm.425-.29.894 1.11.2-.16-.894-1.11-.895-1.11-.2.161zm.2-.16.894 1.11.2-.162-.894-1.11-.895-1.109-.2.161zm.2-.161.894 1.11q.232-.188.454-.39l-.958-1.054-.959-1.055q-.16.145-.326.28zm.39-.334.958 1.054.19-.173-.958-1.054-.958-1.055-.19.173zm.19-.173.958 1.054.19-.173L15.48 5.9l-.958-1.055-.19.173zm.19-.173.959 1.054q.099-.09.213-.162l-.764-1.203-.763-1.203q-.321.203-.603.459zm.409-.311.763 1.203.218-.138-.764-1.203-.764-1.203-.217.138zm.217-.138.764 1.203.217-.139-.763-1.203-.764-1.203-.218.139zm.218-.139.763 1.203a7 7 0 0 0 .538-.38l-.883-1.12-.882-1.118a4 4 0 0 1-.3.212zm.418-.296.883 1.118.201-.158-.882-1.12-.883-1.118-.2.159zm.202-.16.882 1.12.202-.16-.883-1.118-.882-1.12-.201.16zm.201-.158.883 1.119q.226-.18.445-.368l-.932-1.078-.932-1.078a10 10 0 0 1-.346.286zm.396-.327.932 1.078.194-.168-.932-1.078-.931-1.078-.195.168zm.194-.168.932 1.078.194-.168-.931-1.078-.932-1.078-.194.168zm.195-.168.931 1.078a.482.482 0 0 1-.2.097l-.296-1.394-.296-1.394a2.4 2.4 0 0 0-1.071.535zm.435-.219.296 1.394.241-.051-.296-1.394-.296-1.394-.241.051zm.24-.051.297 1.394.24-.051-.295-1.394-.296-1.394-.241.051zm.242-.051.296 1.394a.5.5 0 0 1-.236-.01l.419-1.362.418-1.362a2.37 2.37 0 0 0-1.193-.054zm.479.022-.419 1.362.238.073.418-1.362.42-1.362-.239-.073zm.237.073-.418 1.362.238.073.418-1.362.419-1.362-.238-.073zm.238.073-.418 1.362-.024-.01-.011-.007.891-1.111.892-1.112a2.7 2.7 0 0 0-.911-.484zm.438.234-.891 1.111.2.16.892-1.11.891-1.112-.2-.16zm.2.16-.891 1.112.2.16.892-1.111.892-1.112-.2-.16zm.2.16-.89 1.112q.186.15.37.305l.917-1.09.918-1.09q-.21-.176-.422-.348zm.397.327-.918 1.09.197.165.918-1.09.918-1.09-.197-.165zm.197.165-.918 1.09.196.166.918-1.09.918-1.09-.196-.165zm.196.166-.918 1.09q.237.2.49.381l.833-1.156.833-1.156a5 5 0 0 1-.32-.25zm.405.315-.834 1.156.209.15.833-1.156.833-1.156-.208-.15zm.208.15-.834 1.156.209.15.833-1.156.833-1.156-.208-.15zm.208.15-.833 1.156q.224.162.453.318l.8-1.18.801-1.178q-.196-.134-.388-.272zm.42.295-.8 1.179.213.144.8-1.179.801-1.179-.213-.144zm.213.144-.8 1.18.213.144.8-1.18.8-1.178-.212-.145zm.213.145-.8 1.179q.12.082.229.183l.972-1.042.972-1.042q-.269-.251-.572-.457zm.401.32-.972 1.042.188.175.972-1.042.973-1.041-.189-.176zm.188.175-.972 1.042.189.176.972-1.042.972-1.042-.188-.175zm.189.176L22.9 8.006q.285.266.614.475l.764-1.203.765-1.203a1.4 1.4 0 0 1-.198-.153zm.405.314-.764 1.203.218.138.764-1.203.764-1.203-.217-.138zm.218.138-.764 1.203.217.138.764-1.203.765-1.202-.218-.139zm.217.138-.764 1.203q.072.045.132.109l1.03-.986 1.028-.986a3.6 3.6 0 0 0-.661-.542zm.397.326-1.029.986.18.187 1.029-.986 1.028-.986-.179-.187zm.18.187-1.03.986.18.187 1.029-.986 1.029-.986-.18-.187zm.179.187-1.029.986q.284.296.623.526l.798-1.18.799-1.181a1 1 0 0 1-.162-.137zm.392.331-.798 1.18.213.145.798-1.18.798-1.181-.212-.144zm.213.144-.798 1.18.213.145.798-1.18.799-1.181-.213-.144zm.213.144-.798 1.18q.229.154.46.303l.768-1.2.768-1.2a19 19 0 0 1-.4-.263zm.43.283-.767 1.2.217.14.767-1.201.768-1.2-.217-.14zm.217.139-.767 1.2.217.139.767-1.2.768-1.201-.217-.139zm.217.138-.767 1.201a.8.8 0 0 1 .137.113l1.027-.988 1.027-.988a3.6 3.6 0 0 0-.656-.538zm.397.326-1.027.988.18.187 1.027-.988 1.027-.988-.18-.187zm.18.187-1.027.988.18.186 1.026-.987 1.027-.988-.18-.187zm.18.187-1.028.987q.244.255.52.474l.888-1.115.888-1.114a3 3 0 0 1-.242-.22zm.38.346-.889 1.115.2.16.89-1.115.887-1.114-.2-.16zm.2.16-.888 1.115.2.16.889-1.115.888-1.114-.2-.16zm.2.16-.888 1.114q.215.172.433.337l.86-1.136.86-1.136a19 19 0 0 1-.376-.293zm.406.315-.86 1.136.204.155.86-1.136.86-1.136-.204-.155zm.204.155-.86 1.136.205.155.86-1.136.86-1.136-.205-.155zm.205.155-.86 1.136q.23.175.47.339l.806-1.175.806-1.175a10 10 0 0 1-.362-.261zm.416.3-.806 1.175.212.145.806-1.175.806-1.175-.212-.145zm.212.145-.806 1.175.212.146.806-1.175.806-1.176-.212-.145zm.212.146-.806 1.175q.165.114.322.24l.895-1.109.896-1.109a8 8 0 0 0-.501-.373zm.412.306-.896 1.109.2.161.895-1.109.895-1.108-.2-.162zm.2.161-.896 1.11.2.16.895-1.109.895-1.108-.2-.162zm.199.162-.895 1.108q.18.146.355.297l.933-1.077.933-1.077a16 16 0 0 0-.431-.36zm.393.328-.933 1.077.193.168.933-1.077.933-1.077-.193-.168zm.193.168-.933 1.077.193.167.933-1.077.934-1.077-.194-.167zm.194.167L31 14.384q.181.158.361.32l.958-1.055.957-1.056a25 25 0 0 0-.41-.363zm.385.342-.958 1.055.192.174.957-1.056.958-1.055-.192-.174zm.191.174-.957 1.055.192.174.957-1.056.957-1.055-.191-.174zm.192.173-.957 1.056a.4.4 0 0 1-.108-.16l1.344-.476 1.343-.474a2.44 2.44 0 0 0-.665-1.001zm.279.42-1.344.475.087.246 1.344-.474 1.343-.475-.087-.246zm.087.247-1.344.474.087.247 1.344-.475 1.343-.474-.087-.247zm.087.246-1.344.475-.008-.033-.001-.037 1.422.1 1.42.1a2.7 2.7 0 0 0-.146-1.08zm.069.505-1.422-.1-.018.258 1.421.1 1.422.101.018-.258zm-.019.259-1.421-.1-.019.258 1.422.1 1.421.1.019-.258zm-.018.258-1.422-.1c-.014.199-.023.45.01.69l1.412-.197 1.412-.196.004.04v-.01q-.001-.034.005-.126zm0 .393-1.411.196.018.135 1.412-.196 1.411-.196-.018-.135zm.019.135-1.412.196.02.134 1.41-.196 1.412-.196-.019-.134zm.019.134-1.412.196.027.177c.001.008.006.038.014.073.003.012.015.064.036.129a1.42 1.42 0 0 0 1.355.985v-2.85a1.43 1.43 0 0 1 1.262.763c.056.107.085.198.093.22a1.297 1.297 0 0 1 .047.186l.001.009-.012-.084zm.02.135v1.425h.002v-2.85h-.002zm.002 0v1.425h.001v-2.85h-.001zm.001 0v1.425a1.43 1.43 0 0 1-1.291-.824c-.056-.12-.082-.22-.089-.246-.018-.07-.026-.127-.028-.138l-.01-.09-.001-.005v.008l.002.022.01.183 1.423-.079 1.423-.079-.016-.268-.004-.049-.01-.075c-.002-.012-.01-.07-.028-.14-.007-.026-.033-.127-.089-.247a1.42 1.42 0 0 0-1.292-.823zm.016.256-1.423.08.015.256 1.422-.08 1.423-.078-.014-.257z"/></svg>