<svg width="30" height="30" viewBox="0 0 30 30" fill="none" xmlns="http://www.w3.org/2000/svg">
<path d="M10.0566 10.3592C9.95677 9.84305 9.45739 9.50559 8.94124 9.60546C8.42509 9.70534 8.08762 10.2047 8.1875 10.7209L9.12207 10.54L10.0566 10.3592ZM9.14107 10.6382L8.20649 10.8191L8.21132 10.844L8.21747 10.8686L9.14107 10.6382ZM9.27871 11.4599L8.32994 11.5372L9.27871 11.4599ZM9.47495 12.2364L8.54883 12.4565L9.47495 12.2364ZM9.70063 13.5501L8.76541 13.7275L9.70063 13.5501ZM9.7332 13.7153L10.6619 13.5062L9.7332 13.7153ZM9.74093 13.7496L8.81227 13.9588L10.6861 13.6363L9.74093 13.7496ZM9.73739 13.7201L10.672 13.5393L8.79225 13.8334L9.73739 13.7201ZM8.82181 13.9991C8.92168 14.5153 9.42106 14.8527 9.93721 14.7528C10.4534 14.653 10.7908 14.1536 10.691 13.6374L9.75638 13.8183L8.82181 13.9991ZM9.12207 10.54L8.1875 10.7209L8.20649 10.8191L9.14107 10.6382L10.0756 10.4574L10.0566 10.3592L9.12207 10.54ZM9.14107 10.6382L8.21747 10.8686L8.26995 11.079L9.19356 10.8486L10.1172 10.6182L10.0647 10.4078L9.14107 10.6382ZM9.19356 10.8486L8.26995 11.079C8.29905 11.1957 8.30687 11.2541 8.30817 11.2699L9.25693 11.1926L10.2057 11.1153C10.1925 10.953 10.158 10.7821 10.1172 10.6182L9.19356 10.8486ZM9.25693 11.1926L8.30817 11.2699L8.31905 11.4036L9.26782 11.3263L10.2166 11.249L10.2057 11.1153L9.25693 11.1926ZM9.26782 11.3263L8.31905 11.4036L8.32994 11.5372L9.27871 11.4599L10.2275 11.3826L10.2166 11.249L9.26782 11.3263ZM9.27871 11.4599L8.32994 11.5372C8.34264 11.6931 8.37164 11.8465 8.41675 11.9963L9.32822 11.7218L10.2397 11.4473C10.2333 11.4261 10.2293 11.4049 10.2275 11.3826L9.27871 11.4599ZM9.32822 11.7218L8.41675 11.9963L8.45538 12.1246L9.36685 11.8501L10.2783 11.5756L10.2397 11.4473L9.32822 11.7218ZM9.36685 11.8501L8.45538 12.1246L8.49401 12.2528L9.40548 11.9783L10.3169 11.7038L10.2783 11.5756L9.36685 11.8501ZM9.40548 11.9783L8.49401 12.2528C8.51436 12.3204 8.53263 12.3883 8.54883 12.4565L9.47495 12.2364L10.4011 12.0163C10.3761 11.9114 10.3481 11.8073 10.3169 11.7038L9.40548 11.9783ZM9.47495 12.2364L8.54883 12.4565L8.57967 12.5862L9.50579 12.3661L10.4319 12.146L10.4011 12.0163L9.47495 12.2364ZM9.50579 12.3661L8.57967 12.5862L8.61051 12.716L9.53663 12.4959L10.4627 12.2758L10.4319 12.146L9.50579 12.3661ZM9.53663 12.4959L8.61051 12.716C8.62199 12.7643 8.63047 12.8132 8.63596 12.8629L9.58213 12.7586L10.5283 12.6542C10.5142 12.5268 10.4924 12.4005 10.4627 12.2758L9.53663 12.4959ZM9.58213 12.7586L8.63596 12.8629L8.65062 12.9958L9.59679 12.8915L10.543 12.7871L10.5283 12.6542L9.58213 12.7586ZM9.59679 12.8915L8.65062 12.9958L8.66528 13.1288L9.61145 13.0244L10.5576 12.92L10.543 12.7871L9.59679 12.8915ZM9.61145 13.0244L8.66528 13.1288C8.67774 13.2418 8.69455 13.3541 8.71573 13.4657L9.65095 13.2882L10.5862 13.1108C10.5742 13.0478 10.5647 12.9842 10.5576 12.92L9.61145 13.0244ZM9.65095 13.2882L8.71573 13.4657L8.74057 13.5966L9.67579 13.4192L10.611 13.2417L10.5862 13.1108L9.65095 13.2882ZM9.67579 13.4192L8.74057 13.5966L8.76541 13.7275L9.70063 13.5501L10.6359 13.3726L10.611 13.2417L9.67579 13.4192ZM9.70063 13.5501L8.76541 13.7275C8.78096 13.8095 8.79507 13.8824 8.80455 13.9244L9.7332 13.7153L10.6619 13.5062C10.6624 13.5085 10.6606 13.5002 10.6551 13.4728C10.6503 13.4483 10.6439 13.4152 10.6359 13.3726L9.70063 13.5501ZM9.7332 13.7153L8.80455 13.9244L8.81227 13.9588L9.74093 13.7496L10.6696 13.5405L10.6619 13.5062L9.7332 13.7153ZM9.74093 13.7496L10.6861 13.6363L10.6825 13.6067L9.73739 13.7201L8.79225 13.8334L8.79579 13.863L9.74093 13.7496ZM9.73739 13.7201L8.80281 13.9009L8.82181 13.9991L9.75638 13.8183L10.691 13.6374L10.672 13.5393L9.73739 13.7201Z" fill="#B8B8B8"/>
<path d="M20.1357 9.61009C20.1571 9.0848 19.7487 8.6416 19.2234 8.62017C18.6981 8.59874 18.2549 9.0072 18.2335 9.53249L19.1846 9.57129L20.1357 9.61009ZM19.1805 9.67121L18.2294 9.63241L18.2283 9.65779L18.2287 9.68318L19.1805 9.67121ZM19.1256 10.5025L18.1845 10.3597L19.1256 10.5025ZM19.1381 11.3033L18.1862 11.3047L19.1381 11.3033ZM19.0559 12.6337L18.1049 12.5915L19.0559 12.6337ZM19.0496 12.802L20.0014 12.812L19.0496 12.802ZM19.0492 12.8372L18.0974 12.8273L19.9951 12.9441L19.0492 12.8372ZM19.0526 12.8076L20.0037 12.8464L18.1067 12.7007L19.0526 12.8076ZM18.0974 12.8687C18.0759 13.394 18.4844 13.8372 19.0097 13.8587C19.535 13.8801 19.9782 13.4716 19.9996 12.9463L19.0485 12.9075L18.0974 12.8687ZM19.1846 9.57129L18.2335 9.53249L18.2294 9.63241L19.1805 9.67121L20.1316 9.71L20.1357 9.61009L19.1846 9.57129ZM19.1805 9.67121L18.2287 9.68318L18.2314 9.90001L19.1832 9.88803L20.1351 9.87605L20.1323 9.65923L19.1805 9.67121ZM19.1832 9.88803L18.2314 9.90001C18.2329 10.0202 18.2271 10.0789 18.2247 10.0946L19.1658 10.2374L20.107 10.3802C20.1314 10.2192 20.1372 10.045 20.1351 9.87605L19.1832 9.88803ZM19.1658 10.2374L18.2247 10.0946L18.2046 10.2272L19.1457 10.37L20.0869 10.5128L20.107 10.3802L19.1658 10.2374ZM19.1457 10.37L18.2046 10.2272L18.1845 10.3597L19.1256 10.5025L20.0667 10.6454L20.0869 10.5128L19.1457 10.37ZM19.1256 10.5025L18.1845 10.3597C18.161 10.5143 18.154 10.6703 18.1634 10.8265L19.1136 10.7688L20.0638 10.7111C20.0624 10.689 20.0634 10.6675 20.0667 10.6454L19.1256 10.5025ZM19.1136 10.7688L18.1634 10.8265L18.1716 10.9602L19.1217 10.9025L20.0719 10.8448L20.0638 10.7111L19.1136 10.7688ZM19.1217 10.9025L18.1716 10.9602L18.1797 11.0939L19.1298 11.0362L20.08 10.9785L20.0719 10.8448L19.1217 10.9025ZM19.1298 11.0362L18.1797 11.0939C18.1839 11.1644 18.1861 11.2346 18.1862 11.3047L19.1381 11.3033L20.09 11.3019C20.0899 11.1942 20.0865 11.0864 20.08 10.9785L19.1298 11.0362ZM19.1381 11.3033L18.1862 11.3047L18.1864 11.4381L19.1383 11.4367L20.0902 11.4353L20.09 11.3019L19.1381 11.3033ZM19.1383 11.4367L18.1864 11.4381L18.1866 11.5714L19.1385 11.5701L20.0904 11.5687L20.0902 11.4353L19.1383 11.4367ZM19.1385 11.5701L18.1866 11.5714C18.1867 11.6211 18.1837 11.6706 18.1776 11.7203L19.1224 11.8362L20.0673 11.9521C20.0829 11.8248 20.0906 11.6969 20.0904 11.5687L19.1385 11.5701ZM19.1224 11.8362L18.1776 11.7203L18.1613 11.853L19.1062 11.9689L20.051 12.0848L20.0673 11.9521L19.1224 11.8362ZM19.1062 11.9689L18.1613 11.853L18.145 11.9857L19.0899 12.1016L20.0347 12.2175L20.051 12.0848L19.1062 11.9689ZM19.0899 12.1016L18.145 11.9857C18.1312 12.0986 18.1218 12.2118 18.1167 12.3252L19.0677 12.3675L20.0187 12.4097C20.0215 12.3456 20.0268 12.2816 20.0347 12.2175L19.0899 12.1016ZM19.0677 12.3675L18.1167 12.3252L18.1108 12.4584L19.0618 12.5006L20.0127 12.5428L20.0187 12.4097L19.0677 12.3675ZM19.0618 12.5006L18.1108 12.4584L18.1049 12.5915L19.0559 12.6337L20.0068 12.676L20.0127 12.5428L19.0618 12.5006ZM19.0559 12.6337L18.1049 12.5915C18.1012 12.6748 18.0982 12.749 18.0977 12.7921L19.0496 12.802L20.0014 12.812C20.0014 12.8143 20.0015 12.8058 20.0026 12.7779C20.0035 12.753 20.0049 12.7192 20.0068 12.676L19.0559 12.6337ZM19.0496 12.802L18.0977 12.7921L18.0974 12.8273L19.0492 12.8372L20.0011 12.8471L20.0014 12.812L19.0496 12.802ZM19.0492 12.8372L19.9951 12.9441L19.9984 12.9145L19.0526 12.8076L18.1067 12.7007L18.1033 12.7303L19.0492 12.8372ZM19.0526 12.8076L18.1014 12.7688L18.0974 12.8687L19.0485 12.9075L19.9996 12.9463L20.0037 12.8464L19.0526 12.8076Z" fill="#B8B8B8"/>
<path d="M8.72179 19.4018C8.21498 19.262 7.69084 19.5596 7.55109 20.0664C7.41134 20.5732 7.7089 21.0974 8.21571 21.2371L8.46875 20.3194L8.72179 19.4018ZM8.56515 20.346L9.06158 19.5338L8.9473 19.464L8.81819 19.4284L8.56515 20.346ZM10.1242 21.25L9.71957 22.1117L10.1242 21.25ZM10.8139 21.5739L11.2185 20.7123L10.8139 21.5739ZM11.5298 21.8232L11.3116 22.7498V22.7498L11.5298 21.8232ZM12.2717 21.9979L12.4899 21.0714V21.0714L12.2717 21.9979ZM13.0195 22.1307L13.1334 21.1857L13.0195 22.1307ZM13.3964 22.1762L13.2824 23.1212L13.3964 22.1762ZM13.7732 22.2216L13.8872 21.2766V21.2766L13.7732 22.2216ZM14.9098 22.2872L14.8846 23.2388L14.9098 22.2872ZM15.2896 22.2972L15.3148 21.3457L15.2896 22.2972ZM16.7988 22.1405L16.6597 21.1988L16.7988 22.1405ZM17.5345 21.9615L17.2254 21.0612L17.5345 21.9615ZM17.8937 21.8382L17.5846 20.9379L17.8937 21.8382ZM18.253 21.7148L18.5621 22.6151L18.253 21.7148ZM19.2919 21.2553L19.7139 22.1086L19.2919 21.2553ZM19.6318 21.0872L19.2098 20.234L19.6318 21.0872ZM20.2877 20.7055L19.7547 19.9168L20.2877 20.7055ZM20.9199 20.2783L21.4529 21.067L20.9199 20.2783ZM21.4843 19.7763L20.7631 19.1551L21.4843 19.7763ZM21.7327 19.4879L22.454 20.1092L21.7327 19.4879ZM21.9812 19.1995L22.7024 19.8208L21.9812 19.1995ZM22.4569 18.6068L23.2195 19.1765L22.4569 18.6068ZM22.6843 18.3025L21.9217 17.7328L22.6843 18.3025ZM22.9116 17.9981L22.149 17.4284L22.9116 17.9981ZM23.1465 17.6893L22.6581 16.8722L23.1465 17.6893ZM23.154 17.6848L23.7345 18.4392L22.6657 16.8677L23.154 17.6848ZM23.0886 17.7351L22.5081 16.9807L23.6535 18.5013L23.0886 17.7351ZM23.734 18.4419C24.1571 18.13 24.2472 17.534 23.9352 17.1109C23.6233 16.6877 23.0273 16.5976 22.6042 16.9096L23.1691 17.6758L23.734 18.4419ZM8.46875 20.3194L8.21571 21.2371L8.31211 21.2637L8.56515 20.346L8.81819 19.4284L8.72179 19.4018L8.46875 20.3194ZM8.56515 20.346L8.06873 21.1582L8.67579 21.5293L9.17221 20.7171L9.66863 19.9048L9.06158 19.5338L8.56515 20.346ZM9.17221 20.7171L8.67579 21.5293C9.08946 21.7821 9.44195 21.9813 9.71957 22.1117L10.1242 21.25L10.5287 20.3884C10.3465 20.3028 10.0644 20.1467 9.66863 19.9048L9.17221 20.7171ZM10.1242 21.25L9.71957 22.1117L10.0645 22.2736L10.469 21.412L10.8736 20.5503L10.5287 20.3884L10.1242 21.25ZM10.469 21.412L10.0645 22.2736L10.4093 22.4356L10.8139 21.5739L11.2185 20.7123L10.8736 20.5503L10.469 21.412ZM10.8139 21.5739L10.4093 22.4356C10.699 22.5716 11.0001 22.6764 11.3116 22.7498L11.5298 21.8232L11.748 20.8967C11.5649 20.8535 11.3887 20.7922 11.2185 20.7123L10.8139 21.5739ZM11.5298 21.8232L11.3116 22.7498L11.6825 22.8371L11.9007 21.9106L12.1189 20.984L11.748 20.8967L11.5298 21.8232ZM11.9007 21.9106L11.6825 22.8371L12.0535 22.9245L12.2717 21.9979L12.4899 21.0714L12.1189 20.984L11.9007 21.9106ZM12.2717 21.9979L12.0535 22.9245C12.335 22.9908 12.6191 23.0413 12.9055 23.0758L13.0195 22.1307L13.1334 21.1857C12.9174 21.1596 12.7029 21.1215 12.4899 21.0714L12.2717 21.9979ZM13.0195 22.1307L12.9055 23.0758L13.2824 23.1212L13.3964 22.1762L13.5103 21.2311L13.1334 21.1857L13.0195 22.1307ZM13.3964 22.1762L13.2824 23.1212L13.6593 23.1667L13.7732 22.2216L13.8872 21.2766L13.5103 21.2311L13.3964 22.1762ZM13.7732 22.2216L13.6593 23.1667C13.94 23.2005 14.2218 23.2212 14.5047 23.2287L14.5299 22.2771L14.5551 21.3255C14.3315 21.3196 14.1089 21.3033 13.8872 21.2766L13.7732 22.2216ZM14.5299 22.2771L14.5047 23.2287L14.8846 23.2388L14.9098 22.2872L14.935 21.3356L14.5551 21.3255L14.5299 22.2771ZM14.9098 22.2872L14.8846 23.2388L15.2644 23.2488L15.2896 22.2972L15.3148 21.3457L14.935 21.3356L14.9098 22.2872ZM15.2896 22.2972L15.2644 23.2488C15.5727 23.257 15.8797 23.2385 16.185 23.1934L16.0459 22.2517L15.9068 21.31C15.7101 21.3391 15.513 21.3509 15.3148 21.3457L15.2896 22.2972ZM16.0459 22.2517L16.185 23.1934L16.5615 23.1378L16.4224 22.1961L16.2833 21.2544L15.9068 21.31L16.0459 22.2517ZM16.4224 22.1961L16.5615 23.1378L16.9379 23.0822L16.7988 22.1405L16.6597 21.1988L16.2833 21.2544L16.4224 22.1961ZM16.7988 22.1405L16.9379 23.0822C17.2466 23.0366 17.5488 22.9631 17.8437 22.8618L17.5345 21.9615L17.2254 21.0612C17.0413 21.1244 16.853 21.1702 16.6597 21.1988L16.7988 22.1405ZM17.5345 21.9615L17.8437 22.8618L18.2029 22.7385L17.8937 21.8382L17.5846 20.9379L17.2254 21.0612L17.5345 21.9615ZM17.8937 21.8382L18.2029 22.7385L18.5621 22.6151L18.253 21.7148L17.9438 20.8145L17.5846 20.9379L17.8937 21.8382ZM18.253 21.7148L18.5621 22.6151C18.8401 22.5197 19.1109 22.4068 19.3741 22.2766L18.9521 21.4234L18.5301 20.5701C18.3401 20.6641 18.1448 20.7455 17.9438 20.8145L18.253 21.7148ZM18.9521 21.4234L19.3741 22.2766L19.7139 22.1086L19.2919 21.2553L18.87 20.402L18.5301 20.5701L18.9521 21.4234ZM19.2919 21.2553L19.7139 22.1086L20.0538 21.9405L19.6318 21.0872L19.2098 20.234L18.87 20.402L19.2919 21.2553ZM19.6318 21.0872L20.0538 21.9405C20.319 21.8093 20.5748 21.6605 20.8208 21.4942L20.2877 20.7055L19.7547 19.9168C19.5793 20.0354 19.3977 20.141 19.2098 20.234L19.6318 21.0872ZM20.2877 20.7055L20.8208 21.4942L21.1368 21.2806L20.6038 20.4919L20.0708 19.7032L19.7547 19.9168L20.2877 20.7055ZM20.6038 20.4919L21.1368 21.2806L21.4529 21.067L20.9199 20.2783L20.3868 19.4896L20.0708 19.7032L20.6038 20.4919ZM20.9199 20.2783L21.4529 21.067C21.7333 20.8775 21.9848 20.6539 22.2056 20.3975L21.4843 19.7763L20.7631 19.1551C20.6527 19.2833 20.5278 19.3943 20.3868 19.4896L20.9199 20.2783ZM21.4843 19.7763L22.2056 20.3975L22.454 20.1092L21.7327 19.4879L21.0115 18.8667L20.7631 19.1551L21.4843 19.7763ZM21.7327 19.4879L22.454 20.1092L22.7024 19.8208L21.9812 19.1995L21.2599 18.5783L21.0115 18.8667L21.7327 19.4879ZM21.9812 19.1995L22.7024 19.8208C22.8823 19.6118 23.0547 19.3971 23.2195 19.1765L22.4569 18.6068L21.6943 18.0371C21.5559 18.2223 21.4112 18.4027 21.2599 18.5783L21.9812 19.1995ZM22.4569 18.6068L23.2195 19.1765L23.4469 18.8722L22.6843 18.3025L21.9217 17.7328L21.6943 18.0371L22.4569 18.6068ZM22.6843 18.3025L23.4469 18.8722L23.6742 18.5678L22.9116 17.9981L22.149 17.4284L21.9217 17.7328L22.6843 18.3025ZM22.9116 17.9981L23.6742 18.5678C23.7496 18.4669 23.8051 18.3931 23.8417 18.345C23.8604 18.3203 23.8717 18.3058 23.8773 18.2987C23.8807 18.2943 23.8781 18.2977 23.8723 18.3047C23.8704 18.3069 23.8675 18.3103 23.8639 18.3146C23.8604 18.3186 23.8545 18.3253 23.8469 18.3337C23.843 18.3379 23.8379 18.3435 23.8316 18.35C23.8256 18.3562 23.817 18.3651 23.8062 18.3754C23.7962 18.385 23.7794 18.4008 23.7575 18.4192C23.7463 18.4286 23.7311 18.4409 23.7126 18.4545C23.6948 18.4677 23.6684 18.4863 23.6349 18.5064L23.1465 17.6893L22.6581 16.8722C22.5564 16.933 22.4888 17.001 22.4854 17.0043C22.465 17.024 22.4497 17.0405 22.4425 17.0484C22.4271 17.0651 22.4152 17.0793 22.4101 17.0855C22.3984 17.0995 22.3877 17.113 22.3807 17.1219C22.3655 17.1413 22.3468 17.1657 22.3263 17.1925C22.2846 17.2473 22.2252 17.3264 22.149 17.4284L22.9116 17.9981ZM23.1465 17.6893L23.6349 18.5064L23.6424 18.5019L23.154 17.6848L22.6657 16.8677L22.6581 16.8722L23.1465 17.6893ZM23.154 17.6848L22.5735 16.9304L22.5081 16.9807L23.0886 17.7351L23.6691 18.4895L23.7345 18.4392L23.154 17.6848ZM23.0886 17.7351L23.6535 18.5013L23.734 18.4419L23.1691 17.6758L22.6042 16.9096L22.5237 16.969L23.0886 17.7351Z" fill="#B8B8B8"/>
</svg>
