<svg width="30" height="30" viewBox="0 0 30 30" fill="none" xmlns="http://www.w3.org/2000/svg">
<path d="M11.7974 24.441H12.6974V24.4289L12.697 24.4168L11.7974 24.441ZM11.7719 23.492L10.8722 23.5162L11.7719 23.492ZM11.7788 22.0435L10.8807 21.9852L11.7788 22.0435ZM11.8436 21.0445L12.7417 21.1028L11.8436 21.0445ZM11.8461 20.0455L10.9477 20.0993L11.8461 20.0455ZM11.8162 19.546L12.7146 19.4922L11.8162 19.546ZM11.7863 19.0465L10.8879 19.1003L11.7863 19.0465ZM11.744 18.0475L10.8443 18.0698V18.0698L11.744 18.0475ZM11.9415 16.1544L11.1681 15.6941L11.9415 16.1544ZM12.411 15.3656L13.1843 15.8259L12.411 15.3656ZM13.1446 14.9639L13.1579 15.8638L13.1446 14.9639ZM13.6435 14.9565L13.6303 14.0566L13.6435 14.9565ZM14.1425 14.9492L14.1557 15.8491L14.1425 14.9492ZM15.1409 14.9197L15.1012 14.0206L15.1409 14.9197ZM15.6405 14.8976L15.6007 13.9985L15.6405 14.8976ZM16.1401 14.8755L16.1799 15.7746L16.1401 14.8755ZM17.035 15.0966L16.5635 15.8632L17.035 15.0966ZM17.4304 15.3398L17.902 14.5732L17.4304 15.3398ZM17.8258 15.583L17.3542 16.3496L17.8258 15.583ZM18.1913 16.327L17.2929 16.2734L18.1913 16.327ZM18.2535 19.3278L17.3581 19.4185V19.4185L18.2535 19.3278ZM18.2878 20.3268L19.1873 20.3561L18.2878 20.3268ZM18.2552 21.3258L17.3557 21.2964L18.2552 21.3258ZM18.259 22.3248L17.3597 22.361L18.259 22.3248ZM18.2993 23.3238L19.1986 23.2875L18.2993 23.3238ZM18.2904 24.0027L17.402 23.8587L18.2904 24.0027ZM18.2613 24.1821L19.1394 24.3794L19.1453 24.3529L19.1497 24.3261L18.2613 24.1821ZM18.2031 24.441L17.325 24.2437L17.3031 24.3412V24.441H18.2031ZM24.6251 14.8989L23.7251 14.9086V14.9086L24.6251 14.8989ZM24.6141 15.8979L23.7145 15.8684L24.6141 15.8979ZM24.5812 16.8969L23.6817 16.8674L24.5812 16.8969ZM24.5656 17.8959L23.6656 17.8973L24.5656 17.8959ZM24.5664 18.3954L23.6664 18.3968L24.5664 18.3954ZM24.5672 18.8949L25.4672 18.8935L24.5672 18.8949ZM24.5484 19.894L23.6491 19.8588L24.5484 19.894ZM24.5289 20.3935L25.4282 20.4287L24.5289 20.3935ZM24.5094 20.8931L23.6101 20.858L24.5094 20.8931ZM24.4659 21.8863L23.5669 21.8426L24.4659 21.8863ZM24.4179 22.8735L25.3169 22.9171L24.4179 22.8735ZM24.0043 23.6557L23.4687 22.9324L24.0043 23.6557ZM23.2249 24.2329L22.6893 23.5096L23.2249 24.2329ZM21.3344 24.4571L21.2959 25.3562L21.3344 24.4571ZM20.3347 24.4614L20.2883 23.5626L20.3347 24.4614ZM19.8352 24.4872L19.7888 23.5884L19.8352 24.4872ZM19.3357 24.513L19.3821 25.4118L19.3357 24.513ZM18.3367 24.5533L18.3629 25.4529L18.3367 24.5533ZM17.3377 24.5825L17.3115 23.6828L17.3377 24.5825ZM16.3387 24.5615L16.4025 23.6638L16.3387 24.5615ZM15.3397 24.4905L15.4035 23.5928L15.3397 24.4905ZM14.3407 24.4976L14.2642 23.6009L14.3407 24.4976ZM13.8412 24.5402L13.9177 25.437L13.8412 24.5402ZM12.3427 24.5915L12.4037 23.6936L12.3427 24.5915ZM11.3437 24.5236L11.4047 23.6257L11.3437 24.5236ZM10.3447 24.5091L10.3796 25.4084L10.3447 24.5091ZM9.34569 24.5478L9.38059 25.4471L9.34569 24.5478ZM7.36315 24.4264L7.44824 23.5304L7.36315 24.4264ZM6.54428 24.0457L7.18945 23.4182L6.54428 24.0457ZM5.89524 23.3784L5.25008 24.0059H5.25008L5.89524 23.3784ZM5.40108 21.5654L4.50694 21.668L5.40108 21.5654ZM5.34403 14.5786L4.44463 14.6114L5.34403 14.5786ZM5.49551 12.6455L6.30856 13.0315L5.49551 12.6455ZM5.90766 11.7773L5.09462 11.3913L5.90766 11.7773ZM6.46887 10.991L5.83513 10.3519L6.46887 10.991ZM8.75781 9.06672L8.23719 8.33258L8.75781 9.06672ZM10.3941 7.91617L10.9108 8.65308L10.3941 7.91617ZM11.9082 6.60847L11.2975 5.94743L11.9082 6.60847ZM12.6697 5.96028L13.2246 6.66882L12.6697 5.96028ZM13.0629 5.65228L12.508 4.94374L13.0629 5.65228ZM13.4561 5.34428L14.0111 6.05282L13.4561 5.34428ZM15.2301 4.83945L15.103 3.94846L15.2301 4.83945ZM16.0929 5.0702L16.6264 4.34542L16.0929 5.0702ZM16.898 5.66293L17.4316 4.93814L16.898 5.66293ZM17.6906 6.27135L17.1284 6.97413L17.6906 6.27135ZM18.4708 6.89549L17.9086 7.59826L18.4708 6.89549ZM19.2617 7.50584L18.7243 8.22783L19.2617 7.50584ZM20.0633 8.10242L20.6006 7.38043L20.0633 8.10242ZM20.8414 8.72911L21.4323 8.0502L20.8414 8.72911ZM21.5962 9.38593L21.0053 10.0648L21.5962 9.38593ZM22.3895 9.99355L21.8878 10.7408L22.3895 9.99355ZM23.2213 10.552L23.7229 9.80474L23.2213 10.552ZM23.8644 11.2635L24.6611 10.8448L23.8644 11.2635ZM24.0916 11.6958L24.8883 11.2772L24.0916 11.6958ZM24.3188 12.1282L23.5221 12.5468L24.3188 12.1282ZM24.5617 12.7705L23.6642 12.8377L24.5617 12.7705ZM24.5932 13.1904L25.4906 13.1232L24.5932 13.1904ZM24.6143 13.8999L23.7143 13.9096L24.6143 13.8999ZM11.7974 24.541H12.6974V24.441H11.7974H10.8974V24.541H11.7974ZM11.7974 24.441L12.697 24.4168L12.6715 23.4678L11.7719 23.492L10.8722 23.5162L10.8977 24.4652L11.7974 24.441ZM11.7719 23.492L12.6715 23.4678C12.6547 22.843 12.658 22.393 12.6769 22.1018L11.7788 22.0435L10.8807 21.9852C10.8563 22.3601 10.855 22.8757 10.8722 23.5162L11.7719 23.492ZM11.7788 22.0435L12.6769 22.1018L12.7093 21.6023L11.8112 21.544L10.9131 21.4857L10.8807 21.9852L11.7788 22.0435ZM11.8112 21.544L12.7093 21.6023L12.7417 21.1028L11.8436 21.0445L10.9455 20.9862L10.9131 21.4857L11.8112 21.544ZM11.8436 21.0445L12.7417 21.1028C12.7658 20.7325 12.7667 20.3621 12.7445 19.9917L11.8461 20.0455L10.9477 20.0993C10.9654 20.395 10.9647 20.6905 10.9455 20.9862L11.8436 21.0445ZM11.8461 20.0455L12.7445 19.9917L12.7146 19.4922L11.8162 19.546L10.9178 19.5998L10.9477 20.0993L11.8461 20.0455ZM11.8162 19.546L12.7146 19.4922L12.6847 18.9927L11.7863 19.0465L10.8879 19.1003L10.9178 19.5998L11.8162 19.546ZM11.7863 19.0465L12.6847 18.9927C12.6654 18.6702 12.6517 18.3476 12.6437 18.0251L11.744 18.0475L10.8443 18.0698C10.8528 18.4133 10.8673 18.7569 10.8879 19.1003L11.7863 19.0465ZM11.744 18.0475L12.6437 18.0251L12.6313 17.5255L11.7316 17.5479L10.8318 17.5702L10.8443 18.0698L11.744 18.0475ZM11.7316 17.5479L12.6313 17.5255L12.6189 17.026L11.7192 17.0483L10.8194 17.0707L10.8318 17.5702L11.7316 17.5479ZM11.7192 17.0483L12.6189 17.026C12.6144 16.8469 12.6528 16.719 12.7149 16.6147L11.9415 16.1544L11.1681 15.6941C10.9172 16.1157 10.8073 16.5837 10.8194 17.0707L11.7192 17.0483ZM11.9415 16.1544L12.7149 16.6147L12.9496 16.2203L12.1762 15.76L11.4028 15.2997L11.1681 15.6941L11.9415 16.1544ZM12.1762 15.76L12.9496 16.2203L13.1843 15.8259L12.411 15.3656L11.6376 14.9053L11.4028 15.2997L12.1762 15.76ZM12.411 15.3656L13.1843 15.8259C13.1877 15.8202 13.1863 15.824 13.1779 15.8324C13.1691 15.841 13.1573 15.8501 13.144 15.8574C13.1378 15.8608 13.1324 15.8632 13.1283 15.8647C13.1242 15.8663 13.122 15.8668 13.1221 15.8668C13.1225 15.8667 13.1333 15.8641 13.1579 15.8638L13.1446 14.9639L13.1313 14.064C12.519 14.073 11.97 14.3468 11.6376 14.9053L12.411 15.3656ZM13.1446 14.9639L13.1579 15.8638L13.6568 15.8564L13.6435 14.9565L13.6303 14.0566L13.1313 14.064L13.1446 14.9639ZM13.6435 14.9565L13.6568 15.8564L14.1557 15.8491L14.1425 14.9492L14.1292 14.0492L13.6303 14.0566L13.6435 14.9565ZM14.1425 14.9492L14.1557 15.8491C14.4972 15.844 14.8389 15.8339 15.1807 15.8188L15.1409 14.9197L15.1012 14.0206C14.7769 14.0349 14.4529 14.0445 14.1292 14.0492L14.1425 14.9492ZM15.1409 14.9197L15.1807 15.8188L15.6803 15.7967L15.6405 14.8976L15.6007 13.9985L15.1012 14.0206L15.1409 14.9197ZM15.6405 14.8976L15.6803 15.7967L16.1799 15.7746L16.1401 14.8755L16.1003 13.9764L15.6007 13.9985L15.6405 14.8976ZM16.1401 14.8755L16.1799 15.7746C16.3476 15.7672 16.4652 15.8027 16.5635 15.8632L17.035 15.0966L17.5066 14.33C17.0777 14.0662 16.5986 13.9543 16.1003 13.9764L16.1401 14.8755ZM17.035 15.0966L16.5635 15.8632L16.9589 16.1064L17.4304 15.3398L17.902 14.5732L17.5066 14.33L17.035 15.0966ZM17.4304 15.3398L16.9589 16.1064L17.3542 16.3496L17.8258 15.583L18.2973 14.8164L17.902 14.5732L17.4304 15.3398ZM17.8258 15.583L17.3542 16.3496C17.359 16.3525 17.3525 16.3492 17.341 16.3371C17.3291 16.3243 17.3168 16.3073 17.3071 16.2875C17.2862 16.245 17.2955 16.2293 17.2929 16.2734L18.1913 16.327L19.0897 16.3806C19.107 16.0908 19.0653 15.7842 18.9226 15.4938C18.778 15.1994 18.556 14.9755 18.2973 14.8164L17.8258 15.583ZM18.1913 16.327L17.2929 16.2734L17.263 16.7742L18.1614 16.8278L19.0598 16.8813L19.0897 16.3806L18.1913 16.327ZM18.1614 16.8278L17.263 16.7742L17.2331 17.2749L18.1315 17.3285L19.0299 17.3821L19.0598 16.8813L18.1614 16.8278ZM18.1315 17.3285L17.2331 17.2749C17.2103 17.6569 17.2183 18.0386 17.2569 18.4195L18.1523 18.3288L19.0477 18.2381C19.0188 17.953 19.0129 17.6678 19.0299 17.3821L18.1315 17.3285ZM18.1523 18.3288L17.2569 18.4195L17.3075 18.919L18.2029 18.8283L19.0983 18.7376L19.0477 18.2381L18.1523 18.3288ZM18.2029 18.8283L17.3075 18.919L17.3581 19.4185L18.2535 19.3278L19.1489 19.2371L19.0983 18.7376L18.2029 18.8283ZM18.2535 19.3278L17.3581 19.4185C17.3878 19.7118 17.3978 20.0047 17.3883 20.2974L18.2878 20.3268L19.1873 20.3561C19.1995 19.9829 19.1867 19.6098 19.1489 19.2371L18.2535 19.3278ZM18.2878 20.3268L17.3883 20.2974L17.372 20.7969L18.2715 20.8263L19.171 20.8556L19.1873 20.3561L18.2878 20.3268ZM18.2715 20.8263L17.372 20.7969L17.3557 21.2964L18.2552 21.3258L19.1547 21.3551L19.171 20.8556L18.2715 20.8263ZM18.2552 21.3258L17.3557 21.2964C17.3441 21.6513 17.3454 22.0062 17.3597 22.361L18.259 22.3248L19.1583 22.2885C19.1457 21.9774 19.1445 21.6663 19.1547 21.3551L18.2552 21.3258ZM18.259 22.3248L17.3597 22.361L17.3799 22.8605L18.2792 22.8243L19.1784 22.788L19.1583 22.2885L18.259 22.3248ZM18.2792 22.8243L17.3799 22.8605L17.4 23.36L18.2993 23.3238L19.1986 23.2875L19.1784 22.788L18.2792 22.8243ZM18.2993 23.3238L17.4 23.36C17.4064 23.5172 17.4084 23.6398 17.4072 23.7314C17.4059 23.8313 17.4009 23.8652 17.402 23.8587L18.2904 24.0027L19.1788 24.1467C19.2148 23.9246 19.2116 23.611 19.1986 23.2875L18.2993 23.3238ZM18.2904 24.0027L17.402 23.8587L17.3729 24.0382L18.2613 24.1821L19.1497 24.3261L19.1788 24.1467L18.2904 24.0027ZM18.2613 24.1821L17.3832 23.9849L17.325 24.2437L18.2031 24.441L19.0812 24.6383L19.1394 24.3794L18.2613 24.1821ZM18.2031 24.441H17.3031V24.541H18.2031H19.1031V24.441H18.2031ZM24.6197 14.3994L23.7197 14.4091L23.7251 14.9086L24.6251 14.8989L25.525 14.8892L25.5196 14.3897L24.6197 14.3994ZM24.6251 14.8989L23.7251 14.9086C23.7286 15.2285 23.725 15.5484 23.7145 15.8684L24.6141 15.8979L25.5136 15.9274C25.5249 15.5814 25.5288 15.2353 25.525 14.8892L24.6251 14.8989ZM24.6141 15.8979L23.7145 15.8684L23.6981 16.3679L24.5977 16.3974L25.4972 16.4269L25.5136 15.9274L24.6141 15.8979ZM24.5977 16.3974L23.6981 16.3679L23.6817 16.8674L24.5812 16.8969L25.4808 16.9264L25.4972 16.4269L24.5977 16.3974ZM24.5812 16.8969L23.6817 16.8674C23.6705 17.2107 23.6651 17.554 23.6656 17.8973L24.5656 17.8959L25.4656 17.8945C25.4651 17.5718 25.4702 17.2491 25.4808 16.9264L24.5812 16.8969ZM24.5656 17.8959L23.6656 17.8973L23.6664 18.3968L24.5664 18.3954L25.4664 18.394L25.4656 17.8945L24.5656 17.8959ZM24.5664 18.3954L23.6664 18.3968L23.6672 18.8963L24.5672 18.8949L25.4672 18.8935L25.4664 18.394L24.5664 18.3954ZM24.5672 18.8949L23.6672 18.8963C23.6677 19.2171 23.6616 19.5379 23.6491 19.8588L24.5484 19.894L25.4477 19.9291C25.4612 19.5839 25.4677 19.2387 25.4672 18.8935L24.5672 18.8949ZM24.5484 19.894L23.6491 19.8588L23.6296 20.3584L24.5289 20.3935L25.4282 20.4287L25.4477 19.9291L24.5484 19.894ZM24.5289 20.3935L23.6296 20.3584L23.6101 20.858L24.5094 20.8931L25.4087 20.9282L25.4282 20.4287L24.5289 20.3935ZM24.5094 20.8931L23.6101 20.858C23.5971 21.1882 23.5828 21.5164 23.5669 21.8426L24.4659 21.8863L25.3648 21.9299C25.3809 21.598 25.3956 21.2641 25.4087 20.9282L24.5094 20.8931ZM24.4659 21.8863L23.5669 21.8426L23.543 22.3362L24.4419 22.3799L25.3409 22.4235L25.3648 21.9299L24.4659 21.8863ZM24.4419 22.3799L23.543 22.3362L23.519 22.8298L24.4179 22.8735L25.3169 22.9171L25.3409 22.4235L24.4419 22.3799ZM24.4179 22.8735L23.519 22.8298C23.5167 22.8781 23.5074 22.8943 23.507 22.8951C23.5068 22.8954 23.5009 22.9085 23.4687 22.9324L24.0043 23.6557L24.5399 24.3789C25.0213 24.0224 25.2881 23.5098 25.3169 22.9171L24.4179 22.8735ZM24.0043 23.6557L23.4687 22.9324L23.079 23.221L23.6146 23.9443L24.1502 24.6675L24.5399 24.3789L24.0043 23.6557ZM23.6146 23.9443L23.079 23.221L22.6893 23.5096L23.2249 24.2329L23.7605 24.9561L24.1502 24.6675L23.6146 23.9443ZM23.2249 24.2329L22.6893 23.5096C22.6009 23.5751 22.5084 23.6066 22.3735 23.6008L22.335 24.5L22.2964 25.3992C22.8285 25.422 23.3294 25.2754 23.7605 24.9561L23.2249 24.2329ZM22.335 24.5L22.3735 23.6008L21.8733 23.5794L21.8347 24.4785L21.7961 25.3777L22.2964 25.3992L22.335 24.5ZM21.8347 24.4785L21.8733 23.5794L21.373 23.5579L21.3344 24.4571L21.2959 25.3562L21.7961 25.3777L21.8347 24.4785ZM21.3344 24.4571L21.373 23.5579C21.0112 23.5424 20.6496 23.5439 20.2883 23.5626L20.3347 24.4614L20.3811 25.3602C20.6858 25.3445 20.9907 25.3432 21.2959 25.3562L21.3344 24.4571ZM20.3347 24.4614L20.2883 23.5626L19.7888 23.5884L19.8352 24.4872L19.8816 25.386L20.3811 25.3602L20.3347 24.4614ZM19.8352 24.4872L19.7888 23.5884L19.2893 23.6142L19.3357 24.513L19.3821 25.4118L19.8816 25.386L19.8352 24.4872ZM19.3357 24.513L19.2893 23.6142C18.963 23.631 18.6367 23.6442 18.3105 23.6537L18.3367 24.5533L18.3629 25.4529C18.7027 25.443 19.0424 25.4293 19.3821 25.4118L19.3357 24.513ZM18.3367 24.5533L18.3105 23.6537L17.811 23.6683L17.8372 24.5679L17.8634 25.4675L18.3629 25.4529L18.3367 24.5533ZM17.8372 24.5679L17.811 23.6683L17.3115 23.6828L17.3377 24.5825L17.3639 25.4821L17.8634 25.4675L17.8372 24.5679ZM17.3377 24.5825L17.3115 23.6828C17.0086 23.6917 16.7056 23.6853 16.4025 23.6638L16.3387 24.5615L16.2749 25.4593C16.6378 25.4851 17.0008 25.4927 17.3639 25.4821L17.3377 24.5825ZM16.3387 24.5615L16.4025 23.6638L15.903 23.6283L15.8392 24.526L15.7754 25.4237L16.2749 25.4593L16.3387 24.5615ZM15.8392 24.526L15.903 23.6283L15.4035 23.5928L15.3397 24.4905L15.2759 25.3882L15.7754 25.4237L15.8392 24.526ZM15.3397 24.4905L15.4035 23.5928C15.0237 23.5658 14.6438 23.5685 14.2642 23.6009L14.3407 24.4976L14.4172 25.3943C14.7036 25.3699 14.9897 25.3679 15.2759 25.3882L15.3397 24.4905ZM14.3407 24.4976L14.2642 23.6009L13.7647 23.6435L13.8412 24.5402L13.9177 25.437L14.4172 25.3943L14.3407 24.4976ZM13.8412 24.5402L13.7647 23.6435L13.2652 23.6861L13.3417 24.5828L13.4182 25.4796L13.9177 25.437L13.8412 24.5402ZM13.3417 24.5828L13.2652 23.6861C12.9779 23.7106 12.6908 23.7131 12.4037 23.6936L12.3427 24.5915L12.2817 25.4894C12.6605 25.5152 13.0395 25.5119 13.4182 25.4796L13.3417 24.5828ZM12.3427 24.5915L12.4037 23.6936L11.9042 23.6596L11.8432 24.5576L11.7822 25.4555L12.2817 25.4894L12.3427 24.5915ZM11.8432 24.5576L11.9042 23.6596L11.4047 23.6257L11.3437 24.5236L11.2827 25.4215L11.7822 25.4555L11.8432 24.5576ZM11.3437 24.5236L11.4047 23.6257C11.0398 23.6009 10.6748 23.5956 10.3098 23.6097L10.3447 24.5091L10.3796 25.4084C10.6806 25.3967 10.9815 25.4011 11.2827 25.4215L11.3437 24.5236ZM10.3447 24.5091L10.3098 23.6097L9.8103 23.6291L9.84519 24.5284L9.88009 25.4278L10.3796 25.4084L10.3447 24.5091ZM9.84519 24.5284L9.8103 23.6291L9.3108 23.6485L9.34569 24.5478L9.38059 25.4471L9.88009 25.4278L9.84519 24.5284ZM9.34569 24.5478L9.3108 23.6485C9.01756 23.6599 8.72636 23.6518 8.43694 23.6243L8.35185 24.5203L8.26676 25.4162C8.63646 25.4513 9.00783 25.4616 9.38059 25.4471L9.34569 24.5478ZM8.35185 24.5203L8.43694 23.6243L7.94259 23.5773L7.8575 24.4733L7.77241 25.3693L8.26676 25.4162L8.35185 24.5203ZM7.8575 24.4733L7.94259 23.5773L7.44824 23.5304L7.36315 24.4264L7.27806 25.3223L7.77241 25.3693L7.8575 24.4733ZM7.36315 24.4264L7.44824 23.5304C7.31593 23.5178 7.24645 23.4768 7.18945 23.4182L6.54428 24.0457L5.89912 24.6733C6.27481 25.0595 6.75124 25.2723 7.27806 25.3223L7.36315 24.4264ZM6.54428 24.0457L7.18945 23.4182L6.86493 23.0846L6.21976 23.7121L5.5746 24.3396L5.89912 24.6733L6.54428 24.0457ZM6.21976 23.7121L6.86493 23.0846L6.54041 22.7509L5.89524 23.3784L5.25008 24.0059L5.5746 24.3396L6.21976 23.7121ZM5.89524 23.3784L6.54041 22.7509C6.47234 22.6809 6.42495 22.5942 6.40832 22.4491L5.51418 22.5517L4.62004 22.6542C4.6788 23.1666 4.88545 23.631 5.25008 24.0059L5.89524 23.3784ZM5.51418 22.5517L6.40832 22.4491L6.35177 21.956L5.45763 22.0585L4.56349 22.1611L4.62004 22.6542L5.51418 22.5517ZM5.45763 22.0585L6.35177 21.956L6.29522 21.4629L5.40108 21.5654L4.50694 21.668L4.56349 22.1611L5.45763 22.0585ZM5.40108 21.5654L6.29522 21.4629C6.26241 21.1767 6.24998 20.8885 6.25805 20.5978L5.35839 20.5728L4.45874 20.5478C4.44833 20.9231 4.46436 21.2966 4.50694 21.668L5.40108 21.5654ZM5.35839 20.5728L6.25805 20.5978L6.2719 20.0983L5.37225 20.0733L4.4726 20.0483L4.45874 20.5478L5.35839 20.5728ZM5.37225 20.0733L6.2719 20.0983L6.28576 19.5988L5.38611 19.5738L4.48646 19.5488L4.4726 20.0483L5.37225 20.0733ZM5.38611 19.5738L6.28576 19.5988C6.2953 19.2552 6.2988 18.9117 6.29627 18.5682L5.39629 18.5748L4.49632 18.5814C4.49869 18.9039 4.4954 19.2264 4.48646 19.5488L5.38611 19.5738ZM5.39629 18.5748L6.29627 18.5682L6.29259 18.0687L5.39262 18.0753L4.49264 18.0819L4.49632 18.5814L5.39629 18.5748ZM5.39262 18.0753L6.29259 18.0687L6.28892 17.5692L5.38894 17.5758L4.48897 17.5824L4.49264 18.0819L5.39262 18.0753ZM5.38894 17.5758L6.28892 17.5692C6.28646 17.2349 6.2833 16.9007 6.27945 16.5664L5.37951 16.5768L4.47957 16.5872C4.48339 16.9189 4.48653 17.2507 4.48897 17.5824L5.38894 17.5758ZM5.37951 16.5768L6.27945 16.5664L6.27369 16.0669L5.37375 16.0773L4.47381 16.0877L4.47957 16.5872L5.37951 16.5768ZM5.37375 16.0773L6.27369 16.0669L6.26793 15.5674L5.36799 15.5778L4.46805 15.5882L4.47381 16.0877L5.37375 16.0773ZM5.36799 15.5778L6.26793 15.5674C6.26401 15.227 6.25584 14.8864 6.24344 14.5459L5.34403 14.5786L4.44463 14.6114C4.45649 14.9371 4.4643 15.2627 4.46805 15.5882L5.36799 15.5778ZM5.34403 14.5786L6.24344 14.5459L6.22524 14.0462L5.32583 14.079L4.42643 14.1117L4.44463 14.6114L5.34403 14.5786ZM5.32583 14.079L6.22524 14.0462L6.20704 13.5465L5.30763 13.5793L4.40823 13.6121L4.42643 14.1117L5.32583 14.079ZM5.30763 13.5793L6.20704 13.5465C6.19995 13.3519 6.23571 13.1849 6.30856 13.0315L5.49551 12.6455L4.68247 12.2596C4.48054 12.6849 4.39106 13.1405 4.40823 13.6121L5.30763 13.5793ZM5.49551 12.6455L6.30856 13.0315L6.51463 12.5973L5.70159 12.2114L4.88854 11.8254L4.68247 12.2596L5.49551 12.6455ZM5.70159 12.2114L6.51463 12.5973L6.72071 12.1632L5.90766 11.7773L5.09462 11.3913L4.88854 11.8254L5.70159 12.2114ZM5.90766 11.7773L6.72071 12.1632C6.81161 11.9717 6.93677 11.7945 7.10262 11.63L6.46887 10.991L5.83513 10.3519C5.52747 10.657 5.27848 11.004 5.09462 11.3913L5.90766 11.7773ZM6.46887 10.991L7.10262 11.63L7.45775 11.2778L6.82401 10.6388L6.19027 9.99974L5.83513 10.3519L6.46887 10.991ZM6.82401 10.6388L7.45775 11.2778L7.81288 10.9256L7.17914 10.2866L6.5454 9.64755L6.19027 9.99974L6.82401 10.6388ZM7.17914 10.2866L7.81288 10.9256C8.01461 10.7256 8.23111 10.5436 8.46274 10.3793L7.94212 9.64517L7.4215 8.91103C7.10934 9.1324 6.81718 9.37802 6.5454 9.64755L7.17914 10.2866ZM7.94212 9.64517L8.46274 10.3793L8.87058 10.0901L8.34997 9.35594L7.82935 8.62181L7.4215 8.91103L7.94212 9.64517ZM8.34997 9.35594L8.87058 10.0901L9.27843 9.80086L8.75781 9.06672L8.23719 8.33258L7.82935 8.62181L8.34997 9.35594ZM8.75781 9.06672L9.27843 9.80086C9.54901 9.60897 9.82015 9.41778 10.0918 9.2273L9.57514 8.49039L9.05847 7.75347C8.78416 7.9458 8.5104 8.13884 8.23719 8.33258L8.75781 9.06672ZM9.57514 8.49039L10.0918 9.2273L10.5013 8.94019L9.98464 8.20328L9.46796 7.46636L9.05847 7.75347L9.57514 8.49039ZM9.98464 8.20328L10.5013 8.94019L10.9108 8.65308L10.3941 7.91617L9.87745 7.17925L9.46796 7.46636L9.98464 8.20328ZM10.3941 7.91617L10.9108 8.65308C11.2169 8.43847 11.5076 8.204 11.7826 7.9499L11.1718 7.28886L10.5611 6.62782C10.3451 6.82731 10.1173 7.01106 9.87745 7.17925L10.3941 7.91617ZM11.1718 7.28886L11.7826 7.9499L12.1508 7.60971L11.54 6.94867L10.9293 6.28763L10.5611 6.62782L11.1718 7.28886ZM11.54 6.94867L12.1508 7.60971L12.519 7.26951L11.9082 6.60847L11.2975 5.94743L10.9293 6.28763L11.54 6.94867ZM11.9082 6.60847L12.519 7.26951C12.7466 7.05924 12.9818 6.85903 13.2246 6.66882L12.6697 5.96028L12.1147 5.25174C11.8332 5.47219 11.5608 5.70411 11.2975 5.94743L11.9082 6.60847ZM12.6697 5.96028L13.2246 6.66882L13.6179 6.36082L13.0629 5.65228L12.508 4.94374L12.1147 5.25174L12.6697 5.96028ZM13.0629 5.65228L13.6179 6.36082L14.0111 6.05282L13.4561 5.34428L12.9012 4.63574L12.508 4.94374L13.0629 5.65228ZM13.4561 5.34428L14.0111 6.05282C14.1586 5.93726 14.2976 5.88148 14.4366 5.86166L14.3096 4.97067L14.1826 4.07968C13.708 4.14733 13.278 4.34062 12.9012 4.63574L13.4561 5.34428ZM14.3096 4.97067L14.4366 5.86166L14.8969 5.79605L14.7698 4.90506L14.6428 4.01407L14.1826 4.07968L14.3096 4.97067ZM14.7698 4.90506L14.8969 5.79605L15.3571 5.73044L15.2301 4.83945L15.103 3.94846L14.6428 4.01407L14.7698 4.90506ZM15.2301 4.83945L15.3571 5.73044C15.4117 5.72265 15.4651 5.72561 15.5593 5.79499L16.0929 5.0702L16.6264 4.34542C16.1839 4.01965 15.662 3.86877 15.103 3.94846L15.2301 4.83945ZM16.0929 5.0702L15.5593 5.79499L15.9619 6.09135L16.4954 5.36657L17.029 4.64178L16.6264 4.34542L16.0929 5.0702ZM16.4954 5.36657L15.9619 6.09135L16.3644 6.38771L16.898 5.66293L17.4316 4.93814L17.029 4.64178L16.4954 5.36657ZM16.898 5.66293L16.3644 6.38771C16.6231 6.57814 16.8778 6.77362 17.1284 6.97413L17.6906 6.27135L18.2529 5.56857C17.9834 5.353 17.7096 5.14285 17.4316 4.93814L16.898 5.66293ZM17.6906 6.27135L17.1284 6.97413L17.5185 7.2862L18.0807 6.58342L18.643 5.88064L18.2529 5.56857L17.6906 6.27135ZM18.0807 6.58342L17.5185 7.2862L17.9086 7.59826L18.4708 6.89549L19.033 6.19271L18.643 5.88064L18.0807 6.58342ZM18.4708 6.89549L17.9086 7.59826C18.1768 7.81286 18.4487 8.02272 18.7243 8.22783L19.2617 7.50584L19.799 6.78385C19.5402 6.59125 19.2849 6.3942 19.033 6.19271L18.4708 6.89549ZM19.2617 7.50584L18.7243 8.22783L19.1251 8.52612L19.6625 7.80413L20.1998 7.08214L19.799 6.78385L19.2617 7.50584ZM19.6625 7.80413L19.1251 8.52612L19.5259 8.82441L20.0633 8.10242L20.6006 7.38043L20.1998 7.08214L19.6625 7.80413ZM20.0633 8.10242L19.5259 8.82441C19.7747 9.00958 20.0163 9.2041 20.2506 9.40803L20.8414 8.72911L21.4323 8.0502C21.1634 7.81625 20.8862 7.59298 20.6006 7.38043L20.0633 8.10242ZM20.8414 8.72911L20.2506 9.40803L20.628 9.73643L21.2188 9.05752L21.8096 8.37861L21.4323 8.0502L20.8414 8.72911ZM21.2188 9.05752L20.628 9.73643L21.0053 10.0648L21.5962 9.38593L22.187 8.70702L21.8096 8.37861L21.2188 9.05752ZM21.5962 9.38593L21.0053 10.0648C21.2852 10.3084 21.5795 10.5338 21.8878 10.7408L22.3895 9.99355L22.8911 9.24631C22.6449 9.08104 22.4103 8.90131 22.187 8.70702L21.5962 9.38593ZM22.3895 9.99355L21.8878 10.7408L22.3038 11.02L22.8054 10.2728L23.307 9.52552L22.8911 9.24631L22.3895 9.99355ZM22.8054 10.2728L22.3038 11.02L22.7197 11.2992L23.2213 10.552L23.7229 9.80474L23.307 9.52552L22.8054 10.2728ZM23.2213 10.552L22.7197 11.2992C22.8762 11.4043 22.9877 11.5298 23.0677 11.6822L23.8644 11.2635L24.6611 10.8448C24.4383 10.4208 24.121 10.072 23.7229 9.80474L23.2213 10.552ZM23.8644 11.2635L23.0677 11.6822L23.2949 12.1145L24.0916 11.6958L24.8883 11.2772L24.6611 10.8448L23.8644 11.2635ZM24.0916 11.6958L23.2949 12.1145L23.5221 12.5468L24.3188 12.1282L25.1155 11.7095L24.8883 11.2772L24.0916 11.6958ZM24.3188 12.1282L23.5221 12.5468C23.5873 12.6708 23.628 12.7615 23.6513 12.8233C23.6627 12.8535 23.6677 12.8707 23.6692 12.8766C23.6711 12.8837 23.6666 12.8691 23.6642 12.8377L24.5617 12.7705L25.4592 12.7033C25.4335 12.3599 25.2681 11.9999 25.1155 11.7095L24.3188 12.1282ZM24.5617 12.7705L23.6642 12.8377L23.68 13.0476L24.5774 12.9804L25.4749 12.9132L25.4592 12.7033L24.5617 12.7705ZM24.5774 12.9804L23.68 13.0476L23.6957 13.2576L24.5932 13.1904L25.4906 13.1232L25.4749 12.9132L24.5774 12.9804ZM24.5932 13.1904L23.6957 13.2576C23.7038 13.3661 23.7107 13.577 23.7143 13.9096L24.6143 13.8999L25.5142 13.8902C25.5106 13.5568 25.5035 13.2947 25.4906 13.1232L24.5932 13.1904ZM24.6143 13.8999L23.7143 13.9096L23.7197 14.4091L24.6197 14.3994L25.5196 14.3897L25.5142 13.8902L24.6143 13.8999Z" fill="#B8B8B8"/>
</svg>
