<svg width="180" height="180" viewBox="0 0 180 180" fill="none" xmlns="http://www.w3.org/2000/svg">
<path d="M101.999 36.3426C105.647 36.9203 109.095 37.4198 112.52 38.0197C119.077 39.1624 125.526 40.6973 131.573 43.5872C139.587 47.4171 146.844 52.4234 153.005 58.7681C161.249 67.2636 165.992 77.5746 167.192 89.4076C167.604 93.4735 166.39 97.3105 165.225 101.148C162.882 108.865 158.224 115.076 152.669 120.714C150.165 123.255 147.017 124.854 143.929 126.527C143.288 126.874 142.847 127.232 142.607 128.023C142.409 128.681 141.766 129.316 141.158 129.708C140.534 130.108 139.724 130.346 138.976 130.4C136.538 130.574 134.088 130.739 131.646 130.708C126.817 130.651 122.002 130.527 117.171 130.961C110.852 131.53 104.505 131.918 98.1697 131.141C96.57 130.945 95.6631 131.387 94.6114 132.811C91.1325 137.518 87.9033 142.44 83.7053 146.584C82.8796 147.397 82.044 148.206 81.2435 149.042C77.0481 153.419 71.521 154.911 65.8687 156.127C65.4373 156.22 64.9694 156.204 64.5223 156.169C63.2133 156.065 62.144 155.537 61.6209 154.258C61.0949 152.975 61.5381 151.879 62.3867 150.874C64.6941 148.144 67.0338 145.437 69.2772 142.657C72.5751 138.572 74.508 133.897 75.1522 128.673C75.2632 127.768 75.0085 127.426 74.1618 127.375C71.1741 127.189 68.1865 127.024 65.2024 126.792C62.5061 126.581 59.8128 126.305 57.1246 126.019C54.2105 125.708 51.27 125.519 48.3965 124.974C44.3204 124.2 40.2714 123.253 36.2639 122.18C33.6277 121.475 31.0666 120.456 28.5019 119.503C26.2327 118.659 24.2615 117.316 22.6348 115.522C16.1783 108.39 13.2919 100.126 14.5353 90.4612C15.3052 84.4888 17.4779 79.0258 19.8811 73.5815C21.9275 68.9389 24.4438 64.6401 27.7952 60.8291C29.5174 58.8681 31.2332 56.9025 32.9113 54.9022C36.3502 50.8106 40.4255 47.5093 45.0282 44.8015C51.9714 40.719 59.0984 37.0858 67.0098 35.236C75.7344 33.1954 84.4868 32.9297 93.2871 34.6754C96.2577 35.2644 99.2379 35.8155 102.003 36.3432L101.999 36.3426ZM71.9197 148.538L72.0749 148.76C72.7921 148.382 73.5778 148.093 74.2089 147.601C75.7571 146.399 77.3426 145.21 78.7225 143.823C83.533 138.986 87.5117 133.482 91.1712 127.749C92.0604 126.352 93.238 125.562 94.8806 125.51C95.7798 125.48 96.6818 125.522 97.5837 125.543C101.349 125.629 105.114 125.849 108.873 125.769C112.474 125.689 116.064 125.18 119.665 125.076C123.811 124.956 127.969 125.105 132.119 125.073C134.939 125.049 137.717 125.011 140.178 123.131C142.886 121.068 146.094 119.59 148.556 117.29C153.732 112.458 157.916 106.836 160.107 99.9426C161.261 96.3079 162.492 92.6854 162.006 88.7944C160.691 78.3188 156.514 69.1281 149.017 61.6739C143.717 56.4029 137.56 52.1849 130.882 48.7892C124.39 45.4877 117.35 44.0818 110.226 42.9786C104.816 42.1433 99.3923 41.3489 94.0175 40.3145C85.6447 38.7046 77.3227 38.6112 68.9774 40.4569C61.6742 42.0726 55.1024 45.352 48.6799 49.0501C44.1586 51.6523 40.1581 54.8218 36.8582 58.8744C35.5161 60.5221 34.1041 62.112 32.7139 63.7234C26.3561 71.0948 22.5766 79.74 20.4953 89.1391C18.6862 97.2955 20.7218 104.581 26.1183 110.945C27.392 112.45 28.9109 113.61 30.7556 114.323C35.7815 116.268 40.9158 117.914 46.2064 118.914C49.7737 119.59 53.4184 119.869 57.0353 120.255C60.6207 120.637 64.2078 121.007 67.8055 121.243C70.6637 121.43 73.5184 121.39 76.3484 122.05C79.7195 122.832 81.2241 123.674 80.7289 128.569C80.0515 135.228 77.7212 141.186 73.5345 146.416C72.9796 147.108 72.4529 147.825 71.9138 148.53L71.9197 148.538Z" fill="#CACAC9"/>
<path d="M70.3977 62.6511C82.2734 52.5139 90.1008 65.8119 91.6997 75.2608C94.8997 70.578 107.625 56.8505 119.692 70.4586C132.653 85.0758 94.5173 109.266 81.709 105.373C70.6822 102.022 55.553 75.3226 70.3977 62.6511Z" stroke="#CACAC9" stroke-width="5" stroke-linejoin="round"/>
</svg>
