<svg width="215" height="215" viewBox="0 0 215 215" fill="none" xmlns="http://www.w3.org/2000/svg">
<path d="M97.4646 78.5247C98.8767 75.9577 100.375 73.2549 101.034 70.112C101.318 68.7462 101.026 67.8946 100.441 66.7798C97.6004 61.3578 94.7556 55.9317 92.1372 50.3987C89.7534 45.3675 87.7032 40.1882 86.3651 34.7539C85.4923 31.2037 85.4141 27.6411 86.291 24.0991C87.0733 20.9274 88.8271 18.5578 92.2772 18.0724C93.4176 17.912 94.698 18.0518 95.7972 18.4097C100.717 20.0141 104.669 22.9678 107.559 27.2832C110.804 32.1252 114.023 36.9877 117.255 41.8378C117.395 42.0476 117.556 42.2451 117.811 42.5907C118.095 40.4515 118.243 38.4563 118.651 36.5146C119.194 33.8941 119.758 31.253 120.639 28.7354C121.743 25.5842 123.962 23.1941 126.675 21.2606C128.663 19.8455 130.944 19.3683 133.274 19.5822C134.357 19.6809 135.535 20.3885 136.387 21.1372C140.022 24.3254 141.574 28.5955 142.41 33.2277C143.167 37.4237 142.686 41.5581 142.126 45.7172C141.739 48.5845 141.162 51.3819 140.109 54.0805C139.73 55.0555 139.372 56.0428 139.108 57.0548C138.087 60.9876 136.267 64.5913 134.514 68.2196C134.209 68.8491 134.229 69.2892 134.559 69.8528C136.971 73.9831 139.442 78.0804 141.722 82.2806C142.653 83.9919 143.517 84.8929 145.745 84.9175C150.15 84.9628 153.831 87.0814 156.523 90.5452C158.302 92.8325 159.994 95.2761 161.212 97.8884C164.107 104.084 166.025 110.604 166.367 117.495C166.696 124.097 167.174 130.704 167.203 137.315C167.223 142.309 166.77 147.316 166.284 152.293C165.873 156.522 165.103 160.718 164.51 164.931C164.391 165.778 164.341 166.634 164.308 167.49C164.214 169.95 163.353 172.056 161.579 173.8C160.064 175.294 158.647 176.886 157.136 178.379C156.264 179.243 155.313 180.041 154.353 180.806C151.002 183.488 147.63 186.133 143.744 188.055C141.237 189.293 138.886 190.86 136.35 192.024C127.309 196.175 117.93 198.314 107.909 196.644C105.526 196.245 103.027 196.508 100.655 196.056C94.5456 194.884 88.7324 192.753 82.9851 190.362C78.7816 188.614 75.0351 186.302 71.6139 183.328C68.9667 181.028 66.1506 178.914 63.3675 176.775C60.9467 174.911 58.8676 172.739 57.0685 170.275C51.8811 163.183 49.1474 155.222 48.2993 146.505C47.6611 139.973 48.1799 133.567 49.1186 127.088C50.3578 118.56 52.0334 110.086 52.6057 101.459C52.8445 97.8637 53.3097 94.26 53.9602 90.7139C54.6971 86.6824 56.2904 82.91 58.316 79.3516C60.1933 76.0564 62.8982 73.7527 66.727 73.0328C67.4434 72.897 68.2379 72.8765 68.9461 73.0328C72.6596 73.8514 76.1755 75.0444 78.304 78.7633C78.7528 77.5991 79.0616 76.5953 79.5103 75.6615C82.0629 70.293 86.3528 68.8532 91.5402 70.3341C92.6642 70.655 93.7716 71.7534 94.4468 72.7818C95.6449 74.6084 96.5012 76.657 97.4522 78.5165L97.4646 78.5247ZM55.6687 108.358C55.2323 111.176 54.7342 113.854 54.4172 116.557C54.0343 119.819 54.0013 123.135 53.4744 126.368C52.3298 133.399 52.3175 140.413 52.9762 147.484C53.7255 155.543 56.8256 162.561 61.9554 168.707C63.4005 170.439 65.179 171.92 66.9287 173.368C69.226 175.277 71.7086 176.964 73.9976 178.881C77.4024 181.736 81.0007 184.122 85.2494 185.644C92.5489 188.26 99.8072 190.881 107.712 190.803C108.231 190.799 108.753 190.91 109.272 190.967C112.615 191.346 115.946 191.699 119.322 191.119C125.378 190.079 131.133 188.174 136.593 185.377C138.087 184.611 139.437 183.566 140.944 182.834C144.637 181.045 147.923 178.634 151.08 176.079C153.304 174.282 155.271 172.159 157.322 170.147C157.593 169.884 157.771 169.456 157.853 169.078C158.693 165.174 159.714 161.294 160.286 157.349C161.916 146.036 162.242 134.658 161.579 123.242C161.225 117.149 160.78 111.102 158.759 105.26C157.351 101.196 155.65 97.3165 152.847 94.0214C150.36 91.0965 147.235 89.6361 143.295 90.319C141.751 90.5864 140.187 90.9443 138.631 90.936C133.229 90.899 128.062 92.4869 122.755 93.0834C122.451 93.1164 122.06 93.4743 121.932 93.7746C121.236 95.4283 120.186 95.7615 118.671 94.7989C118.387 94.6179 117.893 94.5356 117.597 94.6508C113.949 96.0947 110.244 97.4441 107.461 100.422C107.16 100.747 106.773 101.003 106.394 101.241C104.385 102.521 103.438 104.462 102.994 106.696C102.384 109.757 104.089 112.978 106.81 113.517C109.182 113.986 111.619 114.265 114.036 114.315C118.004 114.397 121.508 112.673 124.987 111.015C126.271 110.403 127.354 110.39 128.215 111.18C129.038 111.933 129.248 113.101 128.709 114.278C127.062 117.877 125.353 121.448 123.752 125.064C120.849 131.613 119.301 138.459 119.705 145.65C120.026 151.339 121.833 156.712 123.661 162.047C124.443 164.33 125.958 166.227 127.7 167.913C129.215 169.382 130.948 170.439 133.077 170.707C135.37 170.995 137.675 171.192 139.964 171.517C140.475 171.591 141.208 171.933 141.348 172.323C141.492 172.735 141.191 173.512 140.825 173.846C140.298 174.327 139.569 174.759 138.873 174.862C134.205 175.557 129.68 175.339 125.711 172.348C122.043 169.588 119.507 165.988 118.12 161.632C117.09 158.394 116.139 155.124 115.32 151.829C114.274 147.62 114.089 143.334 114.661 139.026C115.555 132.304 117.226 125.829 120.66 119.901C120.956 119.387 121.141 118.807 121.491 117.992C116.567 119.708 111.891 119.609 107.14 118.708C103.076 117.935 100.211 115.878 98.8479 111.916C98.5103 110.933 98.2756 109.913 98.0039 108.946C97.1764 110.514 96.3942 112.077 95.5296 113.599C93.8375 116.577 91.1944 117.82 87.8308 117.326C86.501 117.133 85.163 116.939 83.8249 116.861C81.2559 116.713 79.3662 115.504 78.0405 113.352C77.6577 112.731 77.3201 112.085 76.9001 111.34C76.7684 111.67 76.686 111.871 76.6037 112.073C74.9981 116.026 70.7329 118.33 66.5664 117.417C62.1901 116.458 58.9829 113.862 56.6486 110.11C56.2986 109.551 56.0022 108.959 55.6605 108.346L55.6687 108.358ZM140.619 85.3289C139.73 84.1524 138.948 83.2062 138.268 82.1901C134.616 76.7681 130.985 71.3338 127.354 65.8995C119.466 54.0887 111.615 42.2574 103.669 30.4879C102.471 28.7148 101.018 26.9952 99.3419 25.6912C97.7939 24.4858 95.8219 23.77 93.9569 23.046C92.8124 22.6017 92.0178 23.12 91.6061 24.3131C91.3179 25.1523 91.1532 26.045 91.0256 26.9294C90.4286 30.9897 91.4085 34.8485 92.94 38.5221C95.7231 45.207 98.5185 51.9043 101.722 58.3918C103.813 62.6208 106.625 66.5001 109.14 70.5193C112.628 76.0935 116.152 81.643 119.631 87.2254C120.001 87.8178 120.33 88.044 121.051 87.9042C122.739 87.5751 124.452 87.3858 126.144 87.0814C130.261 86.3368 134.357 85.4318 138.585 85.5758C139.17 85.5963 139.763 85.44 140.627 85.333L140.619 85.3289ZM79.9344 98.1064C80.0167 99.4804 79.992 101.439 80.2884 103.347C80.6425 105.622 81.1859 107.877 81.8158 110.094C82.2399 111.583 83.3268 112.39 84.9942 112.435C86.1799 112.468 87.3614 112.739 88.5389 112.933C89.8852 113.155 90.9062 112.764 91.7255 111.608C93.3435 109.325 94.0557 106.745 94.6815 104.059C95.8384 99.0855 96.4394 94.1407 95.0314 89.1219C94.9244 88.7352 94.8791 88.295 94.945 87.9001C95.0191 87.4352 95.1138 86.8675 95.4225 86.5754C95.9084 86.1106 95.8301 85.6992 95.6737 85.1808C95.3526 84.1112 95.1508 82.9923 94.7309 81.9597C93.8046 79.6889 92.8041 77.4428 91.7543 75.2254C91.5196 74.7277 91.0173 74.2217 90.5151 74.0119C88.0984 73.0081 84.6813 74.2258 83.7714 76.6406C82.6187 79.7013 81.4782 82.836 80.9266 86.0406C80.2802 89.813 80.2678 93.6964 79.9385 98.1023L79.9344 98.1064ZM76.052 108.514C75.8379 106.856 75.5992 105.343 75.4592 103.82C74.854 97.2836 75.9697 90.8579 76.7725 84.4198C76.896 83.4201 76.7643 82.6303 76.2332 81.7952C74.7881 79.512 72.5855 78.5165 70.0865 77.85C68.382 77.3975 66.8711 77.5868 65.5578 78.6851C64.6809 79.4174 63.7545 80.2278 63.2193 81.2028C59.864 87.32 57.8631 93.7663 58.9376 100.859C59.5017 104.573 60.6997 108.033 63.8245 110.378C67.5422 113.167 69.7283 112.747 72.215 110.106C73.2154 109.045 74.4176 108.317 76.0479 108.514H76.052ZM131.496 64.2951C132.101 63.028 132.698 62.0201 133.077 60.9382C135.275 54.677 137.696 48.494 138.206 41.7556C138.425 38.8677 138.569 36.0209 138.075 33.1701C137.498 29.8502 136.51 26.6991 133.95 24.2966C133.637 24.0004 133.184 23.5685 132.858 23.6178C131.549 23.8071 130.112 23.8852 129.009 24.5105C127.012 25.6377 125.37 27.2914 124.468 29.4676C123.686 31.3559 122.969 33.2852 122.422 35.2516C121.541 38.4069 120.862 41.6198 120.005 44.7874C119.812 45.5073 119.828 46.0257 120.223 46.6469C123.344 51.5176 126.432 56.413 129.536 61.2961C130.133 62.2341 130.751 63.1597 131.492 64.2951H131.496ZM99.906 100.793C104.245 95.9631 109.103 91.8493 115.514 89.8664C111.619 83.7081 107.889 77.8089 104.159 71.9056C103.545 74.0612 102.998 75.9783 102.459 77.9035C102.08 79.257 101.685 80.6022 101.355 81.968C100.911 83.8109 100.482 85.6539 100.128 87.5175C99.9348 88.5336 99.6301 89.6443 99.8566 90.6028C100.668 94.0296 100.314 97.4194 99.906 100.797V100.793Z" fill="#CACAC9"/>
</svg>
