<svg width="215" height="215" viewBox="0 0 215 215" fill="none" xmlns="http://www.w3.org/2000/svg">
<mask id="path-1-outside-1_3363_890" maskUnits="userSpaceOnUse" x="62.3748" y="83.5748" width="90" height="121" fill="black">
<rect fill="white" x="62.3748" y="83.5748" width="90" height="121"/>
<path d="M63.3748 158.073C63.7759 156.043 64.7415 154.277 65.9985 152.68C67.0175 151.385 68.205 150.219 69.1786 148.895C70.2457 147.443 71.2112 145.906 72.0965 144.336C72.4121 143.776 72.4683 143.111 73.2573 142.96C73.3883 142.936 73.5301 142.635 73.5622 142.446C73.966 139.88 74.3939 137.317 74.7309 134.743C75.191 131.229 75.9104 127.772 76.8412 124.356C77.6302 121.453 78.2079 118.486 79.1493 115.638C79.9891 113.09 81.2622 110.689 82.2277 108.177C83.458 104.978 85.3597 102.253 87.7614 99.8787C88.9462 98.7101 90.3022 97.7193 91.5593 96.6208C92.5622 95.7431 93.5251 94.8142 94.52 93.9257C98.0478 90.7648 101.808 87.935 106.355 86.4515C108.043 85.8995 109.864 85.7326 111.635 85.4687C113.579 85.1806 115.534 84.9841 117.484 84.7445C117.848 84.6987 118.211 84.6314 118.578 84.5748C119.792 84.5748 121.006 84.5748 122.218 84.5748C122.614 84.6233 123.009 84.7148 123.405 84.7148C125.302 84.7175 127.243 84.5344 128.984 85.466C130.434 86.2441 131.827 87.1434 133.178 88.0912C135.323 89.5935 137.503 91.0717 139.495 92.7679C140.865 93.9338 142.058 95.3634 143.128 96.8254C146.372 101.257 148.642 106.198 150.052 111.499C150.729 114.041 151.149 116.671 151.459 119.288C151.732 121.574 151.806 123.901 151.753 126.203C151.689 128.979 151.574 131.757 150.961 134.501C150.627 135.998 150.68 137.578 150.458 139.108C150.175 141.06 149.838 143.003 149.442 144.934C148.811 148.017 148.271 151.129 147.407 154.145C146.412 157.629 145.16 161.043 143.922 164.454C142.876 167.332 141.606 170.122 139.822 172.628C137.003 176.594 134.213 180.585 131.287 184.467C128.795 187.773 125.925 190.738 122.36 192.903C118.936 194.978 115.336 196.691 111.691 198.349C108.067 199.997 104.306 201.209 100.581 202.541C96.7693 203.907 92.7923 204.308 88.7911 203.95C86.6087 203.753 84.3995 203.357 82.4845 202.062C80.6711 200.834 79.5398 199.041 78.3764 197.264C76.2207 193.971 74.8032 190.364 73.9152 186.54C73.7039 185.628 73.637 184.672 73.5836 183.729C73.4953 182.249 73.3803 180.757 73.4498 179.279C73.5274 177.591 73.7948 175.913 73.9714 174.23C74.0864 173.124 74.2362 172.017 74.2896 170.908C74.4153 168.283 74.5009 165.655 74.5865 163.027C74.6106 162.254 74.311 162.004 73.5755 162.209C73.1235 162.335 72.6715 162.526 72.273 162.779C70.8903 163.66 69.3684 163.956 67.7691 163.937C66.496 163.921 65.4529 163.326 64.8458 162.249C64.236 161.169 63.8562 159.96 63.3748 158.808V158.076L63.3748 158.073ZM76.7743 168.708C77.5098 167.922 78.363 167.077 79.1386 166.158C79.711 165.483 80.3235 164.777 80.6551 163.978C81.0429 163.046 81.4922 162.341 82.5166 162.133C83.3751 161.958 84.2256 161.684 85.0922 161.619C85.9641 161.552 86.4322 162.139 86.4081 163.014C86.3626 164.718 85.5442 166.059 84.3647 167.174C84.0598 167.462 83.4901 167.464 83.0435 167.604C82.7814 167.688 82.4818 167.725 82.2679 167.882C80.5401 169.142 78.8605 170.469 77.0953 171.667C76.6165 171.99 76.3651 172.3 76.3437 172.814C76.234 175.267 76.103 177.717 76.0656 180.173C76.0495 181.252 76.2127 182.34 76.3464 183.42C76.5015 184.682 76.6005 185.969 76.9187 187.192C77.8709 190.845 79.4729 194.203 81.7062 197.248C82.8322 198.783 84.223 199.766 86.1326 200.226C88.2321 200.732 90.321 200.805 92.4365 200.746C93.6053 200.713 94.8142 200.668 95.9268 200.35C99.0293 199.464 102.135 198.562 105.154 197.434C109.773 195.705 114.285 193.718 118.653 191.384C123.092 189.012 126.7 185.738 129.648 181.697C131.638 178.969 133.547 176.18 135.462 173.398C136.706 171.592 138.038 169.823 139.081 167.901C141.341 163.733 142.766 159.212 144.037 154.664C144.922 151.49 145.481 148.221 146.262 145.015C146.853 142.586 147.343 140.155 147.436 137.648C147.479 136.509 147.613 135.37 147.757 134.237C147.955 132.7 148.367 131.173 148.396 129.636C148.461 126.297 148.479 122.942 148.247 119.614C148.073 117.148 147.65 114.668 147.024 112.275C145.802 107.606 143.812 103.247 140.974 99.3321C139.798 97.7059 138.522 96.1308 136.853 94.9623C134.628 93.406 132.368 91.901 130.148 90.3367C128.495 89.1708 126.676 88.6404 124.67 88.6727C123.483 88.6916 122.293 88.6539 121.102 88.6593C120.046 88.662 118.984 88.627 117.933 88.7212C116.529 88.845 115.136 89.0927 113.734 89.2624C112.638 89.3943 111.533 89.4697 110.434 89.6016C108.069 89.887 106.01 91.0044 103.983 92.1379C100.674 93.9903 97.9221 96.5804 95.1485 99.1329C93.7391 100.431 92.3376 101.736 90.8773 102.97C88.8954 104.644 87.2078 106.618 86.0203 108.869C83.7683 113.134 81.6286 117.466 80.4599 122.221C79.7859 124.97 78.6519 127.605 77.9645 130.354C76.9642 134.355 76.1913 138.413 75.298 142.441C75.2097 142.839 75.1428 143.076 75.6617 143.127C75.8008 143.141 76.0174 143.397 76.0201 143.547C76.0308 143.975 75.9933 144.417 75.8971 144.837C75.544 146.383 74.6694 147.664 73.637 148.798C71.8852 150.723 70.0157 152.54 68.2318 154.436C67.5578 155.152 66.9533 155.941 66.3783 156.74C65.5732 157.863 65.5064 159.069 66.29 160.222C66.5709 160.636 67.0068 161.105 67.4508 161.215C68.4912 161.471 69.5637 161.304 70.5105 160.776C71.7488 160.087 73.0032 159.565 74.4635 159.675C75.7633 159.775 76.7663 160.776 76.7663 162.071C76.7663 164.311 76.7663 166.552 76.7663 168.706L76.7743 168.708Z"/>
</mask>
<path d="M63.3748 158.073C63.7759 156.043 64.7415 154.277 65.9985 152.68C67.0175 151.385 68.205 150.219 69.1786 148.895C70.2457 147.443 71.2112 145.906 72.0965 144.336C72.4121 143.776 72.4683 143.111 73.2573 142.96C73.3883 142.936 73.5301 142.635 73.5622 142.446C73.966 139.88 74.3939 137.317 74.7309 134.743C75.191 131.229 75.9104 127.772 76.8412 124.356C77.6302 121.453 78.2079 118.486 79.1493 115.638C79.9891 113.09 81.2622 110.689 82.2277 108.177C83.458 104.978 85.3597 102.253 87.7614 99.8787C88.9462 98.7101 90.3022 97.7193 91.5593 96.6208C92.5622 95.7431 93.5251 94.8142 94.52 93.9257C98.0478 90.7648 101.808 87.935 106.355 86.4515C108.043 85.8995 109.864 85.7326 111.635 85.4687C113.579 85.1806 115.534 84.9841 117.484 84.7445C117.848 84.6987 118.211 84.6314 118.578 84.5748C119.792 84.5748 121.006 84.5748 122.218 84.5748C122.614 84.6233 123.009 84.7148 123.405 84.7148C125.302 84.7175 127.243 84.5344 128.984 85.466C130.434 86.2441 131.827 87.1434 133.178 88.0912C135.323 89.5935 137.503 91.0717 139.495 92.7679C140.865 93.9338 142.058 95.3634 143.128 96.8254C146.372 101.257 148.642 106.198 150.052 111.499C150.729 114.041 151.149 116.671 151.459 119.288C151.732 121.574 151.806 123.901 151.753 126.203C151.689 128.979 151.574 131.757 150.961 134.501C150.627 135.998 150.68 137.578 150.458 139.108C150.175 141.06 149.838 143.003 149.442 144.934C148.811 148.017 148.271 151.129 147.407 154.145C146.412 157.629 145.16 161.043 143.922 164.454C142.876 167.332 141.606 170.122 139.822 172.628C137.003 176.594 134.213 180.585 131.287 184.467C128.795 187.773 125.925 190.738 122.36 192.903C118.936 194.978 115.336 196.691 111.691 198.349C108.067 199.997 104.306 201.209 100.581 202.541C96.7693 203.907 92.7923 204.308 88.7911 203.95C86.6087 203.753 84.3995 203.357 82.4845 202.062C80.6711 200.834 79.5398 199.041 78.3764 197.264C76.2207 193.971 74.8032 190.364 73.9152 186.54C73.7039 185.628 73.637 184.672 73.5836 183.729C73.4953 182.249 73.3803 180.757 73.4498 179.279C73.5274 177.591 73.7948 175.913 73.9714 174.23C74.0864 173.124 74.2362 172.017 74.2896 170.908C74.4153 168.283 74.5009 165.655 74.5865 163.027C74.6106 162.254 74.311 162.004 73.5755 162.209C73.1235 162.335 72.6715 162.526 72.273 162.779C70.8903 163.66 69.3684 163.956 67.7691 163.937C66.496 163.921 65.4529 163.326 64.8458 162.249C64.236 161.169 63.8562 159.96 63.3748 158.808V158.076L63.3748 158.073ZM76.7743 168.708C77.5098 167.922 78.363 167.077 79.1386 166.158C79.711 165.483 80.3235 164.777 80.6551 163.978C81.0429 163.046 81.4922 162.341 82.5166 162.133C83.3751 161.958 84.2256 161.684 85.0922 161.619C85.9641 161.552 86.4322 162.139 86.4081 163.014C86.3626 164.718 85.5442 166.059 84.3647 167.174C84.0598 167.462 83.4901 167.464 83.0435 167.604C82.7814 167.688 82.4818 167.725 82.2679 167.882C80.5401 169.142 78.8605 170.469 77.0953 171.667C76.6165 171.99 76.3651 172.3 76.3437 172.814C76.234 175.267 76.103 177.717 76.0656 180.173C76.0495 181.252 76.2127 182.34 76.3464 183.42C76.5015 184.682 76.6005 185.969 76.9187 187.192C77.8709 190.845 79.4729 194.203 81.7062 197.248C82.8322 198.783 84.223 199.766 86.1326 200.226C88.2321 200.732 90.321 200.805 92.4365 200.746C93.6053 200.713 94.8142 200.668 95.9268 200.35C99.0293 199.464 102.135 198.562 105.154 197.434C109.773 195.705 114.285 193.718 118.653 191.384C123.092 189.012 126.7 185.738 129.648 181.697C131.638 178.969 133.547 176.18 135.462 173.398C136.706 171.592 138.038 169.823 139.081 167.901C141.341 163.733 142.766 159.212 144.037 154.664C144.922 151.49 145.481 148.221 146.262 145.015C146.853 142.586 147.343 140.155 147.436 137.648C147.479 136.509 147.613 135.37 147.757 134.237C147.955 132.7 148.367 131.173 148.396 129.636C148.461 126.297 148.479 122.942 148.247 119.614C148.073 117.148 147.65 114.668 147.024 112.275C145.802 107.606 143.812 103.247 140.974 99.3321C139.798 97.7059 138.522 96.1308 136.853 94.9623C134.628 93.406 132.368 91.901 130.148 90.3367C128.495 89.1708 126.676 88.6404 124.67 88.6727C123.483 88.6916 122.293 88.6539 121.102 88.6593C120.046 88.662 118.984 88.627 117.933 88.7212C116.529 88.845 115.136 89.0927 113.734 89.2624C112.638 89.3943 111.533 89.4697 110.434 89.6016C108.069 89.887 106.01 91.0044 103.983 92.1379C100.674 93.9903 97.9221 96.5804 95.1485 99.1329C93.7391 100.431 92.3376 101.736 90.8773 102.97C88.8954 104.644 87.2078 106.618 86.0203 108.869C83.7683 113.134 81.6286 117.466 80.4599 122.221C79.7859 124.97 78.6519 127.605 77.9645 130.354C76.9642 134.355 76.1913 138.413 75.298 142.441C75.2097 142.839 75.1428 143.076 75.6617 143.127C75.8008 143.141 76.0174 143.397 76.0201 143.547C76.0308 143.975 75.9933 144.417 75.8971 144.837C75.544 146.383 74.6694 147.664 73.637 148.798C71.8852 150.723 70.0157 152.54 68.2318 154.436C67.5578 155.152 66.9533 155.941 66.3783 156.74C65.5732 157.863 65.5064 159.069 66.29 160.222C66.5709 160.636 67.0068 161.105 67.4508 161.215C68.4912 161.471 69.5637 161.304 70.5105 160.776C71.7488 160.087 73.0032 159.565 74.4635 159.675C75.7633 159.775 76.7663 160.776 76.7663 162.071C76.7663 164.311 76.7663 166.552 76.7663 168.706L76.7743 168.708Z" fill="#CACAC9"/>
<path d="M63.3748 158.073C63.7759 156.043 64.7415 154.277 65.9985 152.68C67.0175 151.385 68.205 150.219 69.1786 148.895C70.2457 147.443 71.2112 145.906 72.0965 144.336C72.4121 143.776 72.4683 143.111 73.2573 142.96C73.3883 142.936 73.5301 142.635 73.5622 142.446C73.966 139.88 74.3939 137.317 74.7309 134.743C75.191 131.229 75.9104 127.772 76.8412 124.356C77.6302 121.453 78.2079 118.486 79.1493 115.638C79.9891 113.09 81.2622 110.689 82.2277 108.177C83.458 104.978 85.3597 102.253 87.7614 99.8787C88.9462 98.7101 90.3022 97.7193 91.5593 96.6208C92.5622 95.7431 93.5251 94.8142 94.52 93.9257C98.0478 90.7648 101.808 87.935 106.355 86.4515C108.043 85.8995 109.864 85.7326 111.635 85.4687C113.579 85.1806 115.534 84.9841 117.484 84.7445C117.848 84.6987 118.211 84.6314 118.578 84.5748C119.792 84.5748 121.006 84.5748 122.218 84.5748C122.614 84.6233 123.009 84.7148 123.405 84.7148C125.302 84.7175 127.243 84.5344 128.984 85.466C130.434 86.2441 131.827 87.1434 133.178 88.0912C135.323 89.5935 137.503 91.0717 139.495 92.7679C140.865 93.9338 142.058 95.3634 143.128 96.8254C146.372 101.257 148.642 106.198 150.052 111.499C150.729 114.041 151.149 116.671 151.459 119.288C151.732 121.574 151.806 123.901 151.753 126.203C151.689 128.979 151.574 131.757 150.961 134.501C150.627 135.998 150.68 137.578 150.458 139.108C150.175 141.06 149.838 143.003 149.442 144.934C148.811 148.017 148.271 151.129 147.407 154.145C146.412 157.629 145.16 161.043 143.922 164.454C142.876 167.332 141.606 170.122 139.822 172.628C137.003 176.594 134.213 180.585 131.287 184.467C128.795 187.773 125.925 190.738 122.36 192.903C118.936 194.978 115.336 196.691 111.691 198.349C108.067 199.997 104.306 201.209 100.581 202.541C96.7693 203.907 92.7923 204.308 88.7911 203.95C86.6087 203.753 84.3995 203.357 82.4845 202.062C80.6711 200.834 79.5398 199.041 78.3764 197.264C76.2207 193.971 74.8032 190.364 73.9152 186.54C73.7039 185.628 73.637 184.672 73.5836 183.729C73.4953 182.249 73.3803 180.757 73.4498 179.279C73.5274 177.591 73.7948 175.913 73.9714 174.23C74.0864 173.124 74.2362 172.017 74.2896 170.908C74.4153 168.283 74.5009 165.655 74.5865 163.027C74.6106 162.254 74.311 162.004 73.5755 162.209C73.1235 162.335 72.6715 162.526 72.273 162.779C70.8903 163.66 69.3684 163.956 67.7691 163.937C66.496 163.921 65.4529 163.326 64.8458 162.249C64.236 161.169 63.8562 159.96 63.3748 158.808V158.076L63.3748 158.073ZM76.7743 168.708C77.5098 167.922 78.363 167.077 79.1386 166.158C79.711 165.483 80.3235 164.777 80.6551 163.978C81.0429 163.046 81.4922 162.341 82.5166 162.133C83.3751 161.958 84.2256 161.684 85.0922 161.619C85.9641 161.552 86.4322 162.139 86.4081 163.014C86.3626 164.718 85.5442 166.059 84.3647 167.174C84.0598 167.462 83.4901 167.464 83.0435 167.604C82.7814 167.688 82.4818 167.725 82.2679 167.882C80.5401 169.142 78.8605 170.469 77.0953 171.667C76.6165 171.99 76.3651 172.3 76.3437 172.814C76.234 175.267 76.103 177.717 76.0656 180.173C76.0495 181.252 76.2127 182.34 76.3464 183.42C76.5015 184.682 76.6005 185.969 76.9187 187.192C77.8709 190.845 79.4729 194.203 81.7062 197.248C82.8322 198.783 84.223 199.766 86.1326 200.226C88.2321 200.732 90.321 200.805 92.4365 200.746C93.6053 200.713 94.8142 200.668 95.9268 200.35C99.0293 199.464 102.135 198.562 105.154 197.434C109.773 195.705 114.285 193.718 118.653 191.384C123.092 189.012 126.7 185.738 129.648 181.697C131.638 178.969 133.547 176.18 135.462 173.398C136.706 171.592 138.038 169.823 139.081 167.901C141.341 163.733 142.766 159.212 144.037 154.664C144.922 151.49 145.481 148.221 146.262 145.015C146.853 142.586 147.343 140.155 147.436 137.648C147.479 136.509 147.613 135.37 147.757 134.237C147.955 132.7 148.367 131.173 148.396 129.636C148.461 126.297 148.479 122.942 148.247 119.614C148.073 117.148 147.65 114.668 147.024 112.275C145.802 107.606 143.812 103.247 140.974 99.3321C139.798 97.7059 138.522 96.1308 136.853 94.9623C134.628 93.406 132.368 91.901 130.148 90.3367C128.495 89.1708 126.676 88.6404 124.67 88.6727C123.483 88.6916 122.293 88.6539 121.102 88.6593C120.046 88.662 118.984 88.627 117.933 88.7212C116.529 88.845 115.136 89.0927 113.734 89.2624C112.638 89.3943 111.533 89.4697 110.434 89.6016C108.069 89.887 106.01 91.0044 103.983 92.1379C100.674 93.9903 97.9221 96.5804 95.1485 99.1329C93.7391 100.431 92.3376 101.736 90.8773 102.97C88.8954 104.644 87.2078 106.618 86.0203 108.869C83.7683 113.134 81.6286 117.466 80.4599 122.221C79.7859 124.97 78.6519 127.605 77.9645 130.354C76.9642 134.355 76.1913 138.413 75.298 142.441C75.2097 142.839 75.1428 143.076 75.6617 143.127C75.8008 143.141 76.0174 143.397 76.0201 143.547C76.0308 143.975 75.9933 144.417 75.8971 144.837C75.544 146.383 74.6694 147.664 73.637 148.798C71.8852 150.723 70.0157 152.54 68.2318 154.436C67.5578 155.152 66.9533 155.941 66.3783 156.74C65.5732 157.863 65.5064 159.069 66.29 160.222C66.5709 160.636 67.0068 161.105 67.4508 161.215C68.4912 161.471 69.5637 161.304 70.5105 160.776C71.7488 160.087 73.0032 159.565 74.4635 159.675C75.7633 159.775 76.7663 160.776 76.7663 162.071C76.7663 164.311 76.7663 166.552 76.7663 168.706L76.7743 168.708Z" stroke="#CACAC9" stroke-width="0.857453" mask="url(#path-1-outside-1_3363_890)"/>
<path d="M86.4392 135.887C87.124 135.754 87.7112 135.876 88.1082 136.362C88.4877 136.827 88.6525 137.581 88.6335 138.608L88.6248 139.114L88.5613 139.051C88.323 140.313 87.6773 141.9 86.4734 143.235V143.236C86.107 143.643 85.7468 143.896 85.3386 143.928C84.9319 143.96 84.539 143.767 84.1189 143.442C82.9667 142.55 82.1844 141.377 81.8328 139.95C81.7702 139.696 81.7904 139.399 81.8601 139.104C81.9306 138.805 82.0547 138.49 82.2146 138.193C82.53 137.608 83.0087 137.047 83.5437 136.813C84.4664 136.41 85.4444 136.08 86.4392 135.888V135.887Z" fill="#CACAC9" stroke="#CACAC9" stroke-width="0.428726"/>
<g clip-path="url(#clip0_3363_890)">
<mask id="path-3-outside-2_3363_890" maskUnits="userSpaceOnUse" x="91.0227" y="5.00269" width="45" height="83" fill="black">
<rect fill="white" x="91.0227" y="5.00269" width="45" height="83"/>
<path d="M117.059 87.0303C116.495 86.9424 115.936 86.806 115.369 86.7738C114.017 86.6948 112.972 85.9828 111.969 85.1756C110.79 84.2286 109.583 83.3156 108.46 82.3076C107.42 81.3749 106.365 80.4225 105.509 79.3265C104.059 77.4701 103.14 75.3195 102.492 73.0416C102.139 71.8022 101.963 70.5628 102.009 69.2767C102.023 68.9036 101.881 68.527 101.825 68.1503C101.494 65.9118 102.2 63.9478 103.532 62.2223C105.103 60.1865 107.301 58.9937 109.59 57.9624C109.76 57.8871 109.943 57.844 110.275 57.7346C109.242 57.3705 108.328 57.0996 107.456 56.7302C105.666 55.9714 103.797 55.349 102.285 54.054C101.735 53.5823 101.216 53.0639 100.72 52.533C99.7502 51.4927 98.8088 50.4273 97.8549 49.3726C97.1845 48.63 96.4571 47.9305 95.8598 47.1323C95.357 46.4615 94.9077 45.7118 94.6118 44.9297C94.0983 43.5737 93.6597 42.1801 93.3084 40.7721C92.9643 39.3945 92.7664 37.9812 92.5097 36.5821C92.3421 35.6709 92.1638 34.7633 92.0336 33.8468C91.9766 33.445 92.1388 33.1724 92.6131 33.0594C93.8184 32.7724 95.0093 32.6217 96.2592 32.7652C97.5679 32.9159 98.8801 32.724 100.178 32.4693C101.3 32.2504 102.43 32.0496 103.564 31.9204C104.644 31.7967 105.735 31.7697 106.823 31.7177C107.126 31.7034 107.436 31.7285 107.734 31.7823C108.171 31.8612 108.178 32.2289 108.237 32.5859C108.454 33.8952 108.59 35.2315 108.963 36.496C109.469 38.2161 110.633 39.4448 112.207 40.3272C113.252 40.9138 114.317 41.3783 115.495 41.5559C116.396 41.6922 117.157 41.2922 117.825 40.7541C118.87 39.9147 119.6 38.826 119.797 37.4915C119.935 36.5624 119.876 35.6028 119.879 34.6575C119.879 34.2235 119.821 33.7876 119.787 33.3535C119.721 32.5177 119.649 31.6837 119.589 30.8478C119.578 30.69 119.607 30.5303 119.61 30.4927C118.521 29.4703 117.506 28.4623 116.428 27.526C115.581 26.7906 114.648 26.1538 113.771 25.4525C113.329 25.0992 112.938 24.6848 112.502 24.3261C111.46 23.4723 110.444 22.5755 109.344 21.8024C107.59 20.572 105.766 19.4438 103.992 18.2421C103.063 17.6143 102.22 16.8484 101.257 16.2834C100.629 15.9157 100.185 15.4798 99.8821 14.8395C99.6325 14.3104 99.7626 13.975 100.317 13.8279C101.913 13.401 103.555 13.0997 105.097 12.5221C108.201 11.3616 111.357 10.3823 114.545 9.50878C116.47 8.98145 118.442 8.62451 120.386 8.15816C122.527 7.64339 124.652 7.06404 126.797 6.5672C127.879 6.31788 128.987 6.16721 130.088 6.01655C130.909 5.90534 131.354 6.47572 131.165 7.28107C130.969 8.11511 130.557 8.83796 130.026 9.47649C129.579 10.0146 129.491 10.6549 129.327 11.2827C128.949 12.7356 128.58 14.192 128.183 15.6413C127.418 18.4268 126.583 21.1944 125.879 23.9943C125.312 26.2489 124.627 28.4551 123.67 30.6523C124.9 30.7133 126.079 30.803 127.257 30.8191C127.86 30.8263 128.462 30.6667 129.067 30.6433C130.477 30.5895 131.896 30.6505 133.296 30.5088C134.107 30.4263 134.738 30.7043 135.403 31.0272V32.1016C135.207 32.559 135.093 33.0827 134.792 33.454C134.458 33.8647 134.548 34.2737 134.53 34.7024C134.433 36.9821 134.378 39.2654 134.22 41.5415C134.148 42.5532 133.998 43.5989 133.649 44.5405C133.153 45.8732 132.454 47.1323 131.813 48.4076C130.72 50.5726 129.086 52.3016 127.243 53.8101C125.763 55.0208 124.018 55.8154 122.254 56.5382C121.678 56.775 121.101 57.0082 120.559 57.2288C121.208 57.4709 121.869 57.6593 122.481 57.9552C124.419 58.8915 126.141 60.174 127.895 61.4134C129.306 62.4106 130.593 63.546 131.604 64.9271C132.779 66.5306 133.162 68.457 133.257 70.4157C133.337 72.0784 133.3 73.7537 132.875 75.3751C131.984 78.7813 130.716 81.9955 127.826 84.2429C126.432 85.3263 124.92 86.2106 123.149 86.5478C122.379 86.6948 121.616 86.8688 120.848 87.032H117.062L117.059 87.0303ZM119.735 84.6913L119.756 84.8169C120.983 84.6196 122.258 84.5712 123.429 84.1963C125.982 83.3784 128.092 81.9076 129.464 79.4862C130.766 77.1903 131.545 74.7599 131.509 72.1035C131.497 71.1511 131.476 70.1843 131.301 69.2534C131.067 68.005 130.673 66.8069 129.696 65.876C128.7 64.9271 127.644 64.0751 126.487 63.3308C124.898 62.3102 123.36 61.191 121.571 60.5542C120.698 60.2439 119.751 60.1237 118.829 59.9659C118.214 59.8619 117.579 59.7686 116.963 59.8045C115.973 59.8619 114.984 59.991 114.005 60.1596C112.284 60.4556 110.608 60.9129 109.189 62.0071C108.101 62.8465 106.834 63.4258 105.93 64.5361C105.104 65.5513 104.555 66.6006 104.618 67.9494C104.637 68.3925 104.445 68.8445 104.37 69.2965C104.332 69.5225 104.282 69.7682 104.331 69.9834C104.543 70.9 104.808 71.804 105.02 72.7205C105.657 75.4487 106.921 77.8181 109.032 79.6655C110.473 80.9265 111.979 82.1139 113.472 83.3156C113.837 83.6116 114.226 83.9416 114.659 84.0797C116.305 84.6088 118.02 84.6644 119.733 84.6913H119.735ZM95.0414 36.096C95.1734 36.8476 95.2893 37.5417 95.4194 38.2341C95.6744 39.5847 95.8634 40.9532 96.22 42.2769C96.4874 43.267 96.7798 44.3558 97.4003 45.1253C99.1832 47.3386 101.127 49.4228 103.036 51.534C103.419 51.9573 103.89 52.3321 104.382 52.6209C105.939 53.5357 107.643 54.0971 109.326 54.732C111.148 55.419 112.994 55.6342 114.882 55.5374C116.198 55.4692 117.513 55.2325 118.808 54.9634C122.285 54.2442 125.31 52.6711 127.86 50.1367C129.293 48.7108 130.354 47.0427 131.451 45.371C132.458 43.8356 132.872 42.1388 133.166 40.3811C133.367 39.1793 133.567 37.9776 133.726 36.7704C133.849 35.8306 133.902 34.8817 133.991 33.8791C133.651 33.836 133.371 33.7661 133.093 33.7715C132.076 33.7894 131.062 33.8396 130.047 33.8593C129.293 33.8737 128.537 33.8522 127.781 33.8665C127.348 33.8737 126.91 33.9795 126.483 33.9365C125.121 33.7984 123.764 33.6136 122.408 33.4468C122.408 33.7535 122.402 34.062 122.408 34.3705C122.431 35.375 122.566 36.3902 122.461 37.3803C122.299 38.9031 121.743 40.3362 120.988 41.6635C120.323 42.8312 119.414 43.7567 118.134 44.2769C117.109 44.693 116.069 44.962 114.962 44.797C112.705 44.4616 110.842 43.2742 109.266 41.7388C107.702 40.216 106.798 38.2502 106.577 36.0225C106.532 35.5669 106.475 35.1113 106.422 34.6252C106.267 34.6719 106.165 34.7131 106.06 34.7346C104.018 35.1526 101.982 35.5938 99.9338 35.9776C98.7232 36.2036 97.5019 36.4476 96.2538 36.218C95.8776 36.148 95.4907 36.1391 95.0432 36.0978L95.0414 36.096ZM103.826 15.4996C104.452 15.9767 104.994 16.4628 105.604 16.8376C108.224 18.4537 110.505 20.5056 112.819 22.5127C113.416 23.0311 113.939 23.6356 114.531 24.1593C115.358 24.8911 116.246 25.5548 117.059 26.3027C117.877 27.056 118.608 27.9062 119.43 28.656C120.127 29.2909 120.803 30.0156 121.912 30.012C122.803 26.6256 123.105 23.0508 124.449 19.7326C125.781 16.4448 127.054 13.1302 128.334 9.87289C128.052 9.95899 127.689 10.0684 127.327 10.1814C125.481 10.7643 123.657 11.4244 121.787 11.9087C119.851 12.4091 117.877 12.766 115.911 13.1373C113.472 13.5983 111.068 14.2315 108.577 14.4628C107.014 14.6081 105.484 15.1229 103.826 15.4978V15.4996Z"/>
</mask>
<path d="M117.059 87.0303C116.495 86.9424 115.936 86.806 115.369 86.7738C114.017 86.6948 112.972 85.9828 111.969 85.1756C110.79 84.2286 109.583 83.3156 108.46 82.3076C107.42 81.3749 106.365 80.4225 105.509 79.3265C104.059 77.4701 103.14 75.3195 102.492 73.0416C102.139 71.8022 101.963 70.5628 102.009 69.2767C102.023 68.9036 101.881 68.527 101.825 68.1503C101.494 65.9118 102.2 63.9478 103.532 62.2223C105.103 60.1865 107.301 58.9937 109.59 57.9624C109.76 57.8871 109.943 57.844 110.275 57.7346C109.242 57.3705 108.328 57.0996 107.456 56.7302C105.666 55.9714 103.797 55.349 102.285 54.054C101.735 53.5823 101.216 53.0639 100.72 52.533C99.7502 51.4927 98.8088 50.4273 97.8549 49.3726C97.1845 48.63 96.4571 47.9305 95.8598 47.1323C95.357 46.4615 94.9077 45.7118 94.6118 44.9297C94.0983 43.5737 93.6597 42.1801 93.3084 40.7721C92.9643 39.3945 92.7664 37.9812 92.5097 36.5821C92.3421 35.6709 92.1638 34.7633 92.0336 33.8468C91.9766 33.445 92.1388 33.1724 92.6131 33.0594C93.8184 32.7724 95.0093 32.6217 96.2592 32.7652C97.5679 32.9159 98.8801 32.724 100.178 32.4693C101.3 32.2504 102.43 32.0496 103.564 31.9204C104.644 31.7967 105.735 31.7697 106.823 31.7177C107.126 31.7034 107.436 31.7285 107.734 31.7823C108.171 31.8612 108.178 32.2289 108.237 32.5859C108.454 33.8952 108.59 35.2315 108.963 36.496C109.469 38.2161 110.633 39.4448 112.207 40.3272C113.252 40.9138 114.317 41.3783 115.495 41.5559C116.396 41.6922 117.157 41.2922 117.825 40.7541C118.87 39.9147 119.6 38.826 119.797 37.4915C119.935 36.5624 119.876 35.6028 119.879 34.6575C119.879 34.2235 119.821 33.7876 119.787 33.3535C119.721 32.5177 119.649 31.6837 119.589 30.8478C119.578 30.69 119.607 30.5303 119.61 30.4927C118.521 29.4703 117.506 28.4623 116.428 27.526C115.581 26.7906 114.648 26.1538 113.771 25.4525C113.329 25.0992 112.938 24.6848 112.502 24.3261C111.46 23.4723 110.444 22.5755 109.344 21.8024C107.59 20.572 105.766 19.4438 103.992 18.2421C103.063 17.6143 102.22 16.8484 101.257 16.2834C100.629 15.9157 100.185 15.4798 99.8821 14.8395C99.6325 14.3104 99.7626 13.975 100.317 13.8279C101.913 13.401 103.555 13.0997 105.097 12.5221C108.201 11.3616 111.357 10.3823 114.545 9.50878C116.47 8.98145 118.442 8.62451 120.386 8.15816C122.527 7.64339 124.652 7.06404 126.797 6.5672C127.879 6.31788 128.987 6.16721 130.088 6.01655C130.909 5.90534 131.354 6.47572 131.165 7.28107C130.969 8.11511 130.557 8.83796 130.026 9.47649C129.579 10.0146 129.491 10.6549 129.327 11.2827C128.949 12.7356 128.58 14.192 128.183 15.6413C127.418 18.4268 126.583 21.1944 125.879 23.9943C125.312 26.2489 124.627 28.4551 123.67 30.6523C124.9 30.7133 126.079 30.803 127.257 30.8191C127.86 30.8263 128.462 30.6667 129.067 30.6433C130.477 30.5895 131.896 30.6505 133.296 30.5088C134.107 30.4263 134.738 30.7043 135.403 31.0272V32.1016C135.207 32.559 135.093 33.0827 134.792 33.454C134.458 33.8647 134.548 34.2737 134.53 34.7024C134.433 36.9821 134.378 39.2654 134.22 41.5415C134.148 42.5532 133.998 43.5989 133.649 44.5405C133.153 45.8732 132.454 47.1323 131.813 48.4076C130.72 50.5726 129.086 52.3016 127.243 53.8101C125.763 55.0208 124.018 55.8154 122.254 56.5382C121.678 56.775 121.101 57.0082 120.559 57.2288C121.208 57.4709 121.869 57.6593 122.481 57.9552C124.419 58.8915 126.141 60.174 127.895 61.4134C129.306 62.4106 130.593 63.546 131.604 64.9271C132.779 66.5306 133.162 68.457 133.257 70.4157C133.337 72.0784 133.3 73.7537 132.875 75.3751C131.984 78.7813 130.716 81.9955 127.826 84.2429C126.432 85.3263 124.92 86.2106 123.149 86.5478C122.379 86.6948 121.616 86.8688 120.848 87.032H117.062L117.059 87.0303ZM119.735 84.6913L119.756 84.8169C120.983 84.6196 122.258 84.5712 123.429 84.1963C125.982 83.3784 128.092 81.9076 129.464 79.4862C130.766 77.1903 131.545 74.7599 131.509 72.1035C131.497 71.1511 131.476 70.1843 131.301 69.2534C131.067 68.005 130.673 66.8069 129.696 65.876C128.7 64.9271 127.644 64.0751 126.487 63.3308C124.898 62.3102 123.36 61.191 121.571 60.5542C120.698 60.2439 119.751 60.1237 118.829 59.9659C118.214 59.8619 117.579 59.7686 116.963 59.8045C115.973 59.8619 114.984 59.991 114.005 60.1596C112.284 60.4556 110.608 60.9129 109.189 62.0071C108.101 62.8465 106.834 63.4258 105.93 64.5361C105.104 65.5513 104.555 66.6006 104.618 67.9494C104.637 68.3925 104.445 68.8445 104.37 69.2965C104.332 69.5225 104.282 69.7682 104.331 69.9834C104.543 70.9 104.808 71.804 105.02 72.7205C105.657 75.4487 106.921 77.8181 109.032 79.6655C110.473 80.9265 111.979 82.1139 113.472 83.3156C113.837 83.6116 114.226 83.9416 114.659 84.0797C116.305 84.6088 118.02 84.6644 119.733 84.6913H119.735ZM95.0414 36.096C95.1734 36.8476 95.2893 37.5417 95.4194 38.2341C95.6744 39.5847 95.8634 40.9532 96.22 42.2769C96.4874 43.267 96.7798 44.3558 97.4003 45.1253C99.1832 47.3386 101.127 49.4228 103.036 51.534C103.419 51.9573 103.89 52.3321 104.382 52.6209C105.939 53.5357 107.643 54.0971 109.326 54.732C111.148 55.419 112.994 55.6342 114.882 55.5374C116.198 55.4692 117.513 55.2325 118.808 54.9634C122.285 54.2442 125.31 52.6711 127.86 50.1367C129.293 48.7108 130.354 47.0427 131.451 45.371C132.458 43.8356 132.872 42.1388 133.166 40.3811C133.367 39.1793 133.567 37.9776 133.726 36.7704C133.849 35.8306 133.902 34.8817 133.991 33.8791C133.651 33.836 133.371 33.7661 133.093 33.7715C132.076 33.7894 131.062 33.8396 130.047 33.8593C129.293 33.8737 128.537 33.8522 127.781 33.8665C127.348 33.8737 126.91 33.9795 126.483 33.9365C125.121 33.7984 123.764 33.6136 122.408 33.4468C122.408 33.7535 122.402 34.062 122.408 34.3705C122.431 35.375 122.566 36.3902 122.461 37.3803C122.299 38.9031 121.743 40.3362 120.988 41.6635C120.323 42.8312 119.414 43.7567 118.134 44.2769C117.109 44.693 116.069 44.962 114.962 44.797C112.705 44.4616 110.842 43.2742 109.266 41.7388C107.702 40.216 106.798 38.2502 106.577 36.0225C106.532 35.5669 106.475 35.1113 106.422 34.6252C106.267 34.6719 106.165 34.7131 106.06 34.7346C104.018 35.1526 101.982 35.5938 99.9338 35.9776C98.7232 36.2036 97.5019 36.4476 96.2538 36.218C95.8776 36.148 95.4907 36.1391 95.0432 36.0978L95.0414 36.096ZM103.826 15.4996C104.452 15.9767 104.994 16.4628 105.604 16.8376C108.224 18.4537 110.505 20.5056 112.819 22.5127C113.416 23.0311 113.939 23.6356 114.531 24.1593C115.358 24.8911 116.246 25.5548 117.059 26.3027C117.877 27.056 118.608 27.9062 119.43 28.656C120.127 29.2909 120.803 30.0156 121.912 30.012C122.803 26.6256 123.105 23.0508 124.449 19.7326C125.781 16.4448 127.054 13.1302 128.334 9.87289C128.052 9.95899 127.689 10.0684 127.327 10.1814C125.481 10.7643 123.657 11.4244 121.787 11.9087C119.851 12.4091 117.877 12.766 115.911 13.1373C113.472 13.5983 111.068 14.2315 108.577 14.4628C107.014 14.6081 105.484 15.1229 103.826 15.4978V15.4996Z" fill="#CACAC9"/>
<path d="M117.059 87.0303C116.495 86.9424 115.936 86.806 115.369 86.7738C114.017 86.6948 112.972 85.9828 111.969 85.1756C110.79 84.2286 109.583 83.3156 108.46 82.3076C107.42 81.3749 106.365 80.4225 105.509 79.3265C104.059 77.4701 103.14 75.3195 102.492 73.0416C102.139 71.8022 101.963 70.5628 102.009 69.2767C102.023 68.9036 101.881 68.527 101.825 68.1503C101.494 65.9118 102.2 63.9478 103.532 62.2223C105.103 60.1865 107.301 58.9937 109.59 57.9624C109.76 57.8871 109.943 57.844 110.275 57.7346C109.242 57.3705 108.328 57.0996 107.456 56.7302C105.666 55.9714 103.797 55.349 102.285 54.054C101.735 53.5823 101.216 53.0639 100.72 52.533C99.7502 51.4927 98.8088 50.4273 97.8549 49.3726C97.1845 48.63 96.4571 47.9305 95.8598 47.1323C95.357 46.4615 94.9077 45.7118 94.6118 44.9297C94.0983 43.5737 93.6597 42.1801 93.3084 40.7721C92.9643 39.3945 92.7664 37.9812 92.5097 36.5821C92.3421 35.6709 92.1638 34.7633 92.0336 33.8468C91.9766 33.445 92.1388 33.1724 92.6131 33.0594C93.8184 32.7724 95.0093 32.6217 96.2592 32.7652C97.5679 32.9159 98.8801 32.724 100.178 32.4693C101.3 32.2504 102.43 32.0496 103.564 31.9204C104.644 31.7967 105.735 31.7697 106.823 31.7177C107.126 31.7034 107.436 31.7285 107.734 31.7823C108.171 31.8612 108.178 32.2289 108.237 32.5859C108.454 33.8952 108.59 35.2315 108.963 36.496C109.469 38.2161 110.633 39.4448 112.207 40.3272C113.252 40.9138 114.317 41.3783 115.495 41.5559C116.396 41.6922 117.157 41.2922 117.825 40.7541C118.87 39.9147 119.6 38.826 119.797 37.4915C119.935 36.5624 119.876 35.6028 119.879 34.6575C119.879 34.2235 119.821 33.7876 119.787 33.3535C119.721 32.5177 119.649 31.6837 119.589 30.8478C119.578 30.69 119.607 30.5303 119.61 30.4927C118.521 29.4703 117.506 28.4623 116.428 27.526C115.581 26.7906 114.648 26.1538 113.771 25.4525C113.329 25.0992 112.938 24.6848 112.502 24.3261C111.46 23.4723 110.444 22.5755 109.344 21.8024C107.59 20.572 105.766 19.4438 103.992 18.2421C103.063 17.6143 102.22 16.8484 101.257 16.2834C100.629 15.9157 100.185 15.4798 99.8821 14.8395C99.6325 14.3104 99.7626 13.975 100.317 13.8279C101.913 13.401 103.555 13.0997 105.097 12.5221C108.201 11.3616 111.357 10.3823 114.545 9.50878C116.47 8.98145 118.442 8.62451 120.386 8.15816C122.527 7.64339 124.652 7.06404 126.797 6.5672C127.879 6.31788 128.987 6.16721 130.088 6.01655C130.909 5.90534 131.354 6.47572 131.165 7.28107C130.969 8.11511 130.557 8.83796 130.026 9.47649C129.579 10.0146 129.491 10.6549 129.327 11.2827C128.949 12.7356 128.58 14.192 128.183 15.6413C127.418 18.4268 126.583 21.1944 125.879 23.9943C125.312 26.2489 124.627 28.4551 123.67 30.6523C124.9 30.7133 126.079 30.803 127.257 30.8191C127.86 30.8263 128.462 30.6667 129.067 30.6433C130.477 30.5895 131.896 30.6505 133.296 30.5088C134.107 30.4263 134.738 30.7043 135.403 31.0272V32.1016C135.207 32.559 135.093 33.0827 134.792 33.454C134.458 33.8647 134.548 34.2737 134.53 34.7024C134.433 36.9821 134.378 39.2654 134.22 41.5415C134.148 42.5532 133.998 43.5989 133.649 44.5405C133.153 45.8732 132.454 47.1323 131.813 48.4076C130.72 50.5726 129.086 52.3016 127.243 53.8101C125.763 55.0208 124.018 55.8154 122.254 56.5382C121.678 56.775 121.101 57.0082 120.559 57.2288C121.208 57.4709 121.869 57.6593 122.481 57.9552C124.419 58.8915 126.141 60.174 127.895 61.4134C129.306 62.4106 130.593 63.546 131.604 64.9271C132.779 66.5306 133.162 68.457 133.257 70.4157C133.337 72.0784 133.3 73.7537 132.875 75.3751C131.984 78.7813 130.716 81.9955 127.826 84.2429C126.432 85.3263 124.92 86.2106 123.149 86.5478C122.379 86.6948 121.616 86.8688 120.848 87.032H117.062L117.059 87.0303ZM119.735 84.6913L119.756 84.8169C120.983 84.6196 122.258 84.5712 123.429 84.1963C125.982 83.3784 128.092 81.9076 129.464 79.4862C130.766 77.1903 131.545 74.7599 131.509 72.1035C131.497 71.1511 131.476 70.1843 131.301 69.2534C131.067 68.005 130.673 66.8069 129.696 65.876C128.7 64.9271 127.644 64.0751 126.487 63.3308C124.898 62.3102 123.36 61.191 121.571 60.5542C120.698 60.2439 119.751 60.1237 118.829 59.9659C118.214 59.8619 117.579 59.7686 116.963 59.8045C115.973 59.8619 114.984 59.991 114.005 60.1596C112.284 60.4556 110.608 60.9129 109.189 62.0071C108.101 62.8465 106.834 63.4258 105.93 64.5361C105.104 65.5513 104.555 66.6006 104.618 67.9494C104.637 68.3925 104.445 68.8445 104.37 69.2965C104.332 69.5225 104.282 69.7682 104.331 69.9834C104.543 70.9 104.808 71.804 105.02 72.7205C105.657 75.4487 106.921 77.8181 109.032 79.6655C110.473 80.9265 111.979 82.1139 113.472 83.3156C113.837 83.6116 114.226 83.9416 114.659 84.0797C116.305 84.6088 118.02 84.6644 119.733 84.6913H119.735ZM95.0414 36.096C95.1734 36.8476 95.2893 37.5417 95.4194 38.2341C95.6744 39.5847 95.8634 40.9532 96.22 42.2769C96.4874 43.267 96.7798 44.3558 97.4003 45.1253C99.1832 47.3386 101.127 49.4228 103.036 51.534C103.419 51.9573 103.89 52.3321 104.382 52.6209C105.939 53.5357 107.643 54.0971 109.326 54.732C111.148 55.419 112.994 55.6342 114.882 55.5374C116.198 55.4692 117.513 55.2325 118.808 54.9634C122.285 54.2442 125.31 52.6711 127.86 50.1367C129.293 48.7108 130.354 47.0427 131.451 45.371C132.458 43.8356 132.872 42.1388 133.166 40.3811C133.367 39.1793 133.567 37.9776 133.726 36.7704C133.849 35.8306 133.902 34.8817 133.991 33.8791C133.651 33.836 133.371 33.7661 133.093 33.7715C132.076 33.7894 131.062 33.8396 130.047 33.8593C129.293 33.8737 128.537 33.8522 127.781 33.8665C127.348 33.8737 126.91 33.9795 126.483 33.9365C125.121 33.7984 123.764 33.6136 122.408 33.4468C122.408 33.7535 122.402 34.062 122.408 34.3705C122.431 35.375 122.566 36.3902 122.461 37.3803C122.299 38.9031 121.743 40.3362 120.988 41.6635C120.323 42.8312 119.414 43.7567 118.134 44.2769C117.109 44.693 116.069 44.962 114.962 44.797C112.705 44.4616 110.842 43.2742 109.266 41.7388C107.702 40.216 106.798 38.2502 106.577 36.0225C106.532 35.5669 106.475 35.1113 106.422 34.6252C106.267 34.6719 106.165 34.7131 106.06 34.7346C104.018 35.1526 101.982 35.5938 99.9338 35.9776C98.7232 36.2036 97.5019 36.4476 96.2538 36.218C95.8776 36.148 95.4907 36.1391 95.0432 36.0978L95.0414 36.096ZM103.826 15.4996C104.452 15.9767 104.994 16.4628 105.604 16.8376C108.224 18.4537 110.505 20.5056 112.819 22.5127C113.416 23.0311 113.939 23.6356 114.531 24.1593C115.358 24.8911 116.246 25.5548 117.059 26.3027C117.877 27.056 118.608 27.9062 119.43 28.656C120.127 29.2909 120.803 30.0156 121.912 30.012C122.803 26.6256 123.105 23.0508 124.449 19.7326C125.781 16.4448 127.054 13.1302 128.334 9.87289C128.052 9.95899 127.689 10.0684 127.327 10.1814C125.481 10.7643 123.657 11.4244 121.787 11.9087C119.851 12.4091 117.877 12.766 115.911 13.1373C113.472 13.5983 111.068 14.2315 108.577 14.4628C107.014 14.6081 105.484 15.1229 103.826 15.4978V15.4996Z" stroke="#CACAC9" stroke-width="0.857453" mask="url(#path-3-outside-2_3363_890)"/>
</g>
<defs>
<clipPath id="clip0_3363_890">
<rect width="43.3787" height="81.0281" fill="white" transform="translate(92.021 6.0022)"/>
</clipPath>
</defs>
</svg>
