<svg width="38" height="38" viewBox="0 0 38 38" fill="none" xmlns="http://www.w3.org/2000/svg">
<path d="M14.25 33.1497H15.675V33.123L15.674 33.0964L14.25 33.1497ZM14.2327 32.6867L15.6567 32.6334L14.2327 32.6867ZM14.2374 31.9672L15.6572 32.0889L14.2374 31.9672ZM14.2594 31.7107L15.6792 31.8324L14.2594 31.7107ZM14.2814 31.4542L12.8616 31.3324L14.2814 31.4542ZM14.2831 30.9412L12.8625 31.0536L14.2831 30.9412ZM14.2425 30.4282L15.6631 30.3158L14.2425 30.4282ZM14.2138 29.9152L12.7895 29.9619L14.2138 29.9152ZM14.1969 29.4022L12.7727 29.4489L14.1969 29.4022ZM14.2048 28.8892L12.7826 28.7991L14.2048 28.8892ZM14.2373 28.3762L12.8151 28.2861V28.2861L14.2373 28.3762ZM14.2542 27.8632L12.8292 27.8592L14.2542 27.8632ZM14.2557 27.3502L15.6807 27.3542L14.2557 27.3502ZM14.2414 26.8372L12.8188 26.9204L14.2414 26.8372ZM14.2114 26.3242L15.6339 26.2409L14.2114 26.3242ZM14.2023 25.8112L12.7776 25.7784L14.2023 25.8112ZM14.214 25.2982L15.6387 25.3309L14.214 25.2982ZM14.2447 24.7852L15.6631 24.9219L14.2447 24.7852ZM14.2941 24.2722L12.8757 24.1354L14.2941 24.2722ZM14.2845 23.7592L15.6969 23.5701L14.2845 23.7592ZM14.2158 23.2462L12.8034 23.4353L14.2158 23.2462ZM14.1925 22.7332L15.6162 22.7946L14.1925 22.7332ZM14.2147 22.2202L12.791 22.1587L14.2147 22.2202ZM14.2128 21.7068L15.636 21.635L14.2128 21.7068ZM14.1869 21.1931L12.7637 21.2649L14.1869 21.1931ZM14.2339 20.6864L12.8484 20.3536L14.2339 20.6864ZM14.294 20.4365L12.9084 20.1037L14.294 20.4365ZM14.354 20.1866L15.7396 20.5194L14.354 20.1866ZM14.912 19.3741L13.845 18.4296L14.912 19.3741ZM15.3281 19.1333L15.0313 17.7395L15.3281 19.1333ZM15.8282 19.0267L16.125 20.4205L15.8282 19.0267ZM16.3349 18.9592L16.4139 20.3821L16.3349 18.9592ZM16.8484 18.9307L16.7694 17.5079L16.8484 18.9307ZM17.3616 18.9535L17.1583 20.3639L17.3616 18.9535ZM17.8746 19.0274L18.0778 17.6169L17.8746 19.0274ZM18.3876 19.0277L18.5894 20.4383L18.3876 19.0277ZM18.9006 18.9543L18.6988 17.5436L18.9006 18.9543ZM19.4136 18.9373L19.3045 20.3581V20.3581L19.4136 18.9373ZM19.6701 18.957L19.7792 17.5362L19.6701 18.957ZM19.9266 18.9767L19.8175 20.3975L19.9266 18.9767ZM20.4396 18.9851L20.5023 20.4087L20.4396 18.9851ZM20.6961 18.9738L20.6334 17.5502L20.6961 18.9738ZM20.9526 18.9625L20.8899 17.5389L20.9526 18.9625ZM21.7193 19.0209L21.5265 20.4328L21.7193 19.0209ZM21.9744 19.0557L22.1672 17.6438L21.9744 19.0557ZM22.4804 19.1433L22.7736 17.7488L22.4804 19.1433ZM22.7314 19.1961L22.4382 20.5906L22.7314 19.1961ZM23.3587 19.5315L22.1074 20.2135L23.3587 19.5315ZM23.484 19.7614L22.2327 20.4434L23.484 19.7614ZM23.6093 19.9913L24.8605 19.3094L23.6093 19.9913ZM23.7439 20.4788L22.3199 20.5306L23.7439 20.4788ZM23.7533 20.7364L22.3292 20.7881L23.7533 20.7364ZM23.7627 20.9939L25.1867 20.9422L23.7627 20.9939ZM23.7756 21.5081L25.2004 21.4885L23.7756 21.5081ZM23.7826 22.0213L22.3578 22.0409L23.7826 22.0213ZM23.7602 22.5344L25.1779 22.6779L23.7602 22.5344ZM23.7083 23.0474L22.2905 22.9038L23.7083 23.0474ZM23.7014 23.5604L25.1224 23.4545L23.7014 23.5604ZM23.7205 23.8169L22.2994 23.9227L23.7205 23.8169ZM23.7396 24.0734L25.1607 23.9675L23.7396 24.0734ZM23.7603 24.5864L22.3353 24.5952L23.7603 24.5864ZM23.7635 25.0994L22.3385 25.1082L23.7635 25.0994ZM23.7414 25.6124L22.3224 25.4814L23.7414 25.6124ZM23.7177 25.8689L25.1367 25.9998L23.7177 25.8689ZM23.6941 26.1254L25.1131 26.2563L23.6941 26.1254ZM23.7018 26.6384L22.2874 26.8116L23.7018 26.6384ZM23.7332 26.8949L25.1477 26.7216L23.7332 26.8949ZM23.7647 27.1514L22.3502 27.3246L23.7647 27.1514ZM23.7858 27.6644L22.362 27.6075L23.7858 27.6644ZM23.7756 27.9209L25.1995 27.9777L23.7756 27.9209ZM23.7654 28.1774L22.3415 28.1205L23.7654 28.1774ZM23.7432 28.6904L25.1666 28.7566L23.7432 28.6904ZM23.7193 29.2034L22.2959 29.1372L23.7193 29.2034ZM23.7243 29.7164L22.3024 29.81L23.7243 29.7164ZM23.7412 29.9729L22.3193 30.0665L23.7412 29.9729ZM23.7581 30.2294L25.18 30.1357L23.7581 30.2294ZM23.7764 30.7424L25.2013 30.7345L23.7764 30.7424ZM23.7792 31.2554L22.3542 31.2632L23.7792 31.2554ZM23.7523 31.7684L22.3359 31.6118L23.7523 31.7684ZM23.6956 32.2814L25.112 32.4379L23.6956 32.2814ZM23.705 32.7158L25.0989 32.4196L23.705 32.7158ZM23.7429 32.8938L22.349 33.1899L23.7429 32.8938ZM23.7807 33.0717L22.3868 33.3679L23.7807 33.0717ZM23.7842 33.2497L22.4361 33.7112L22.7659 34.6747H23.7842V33.2497ZM23.75 33.1497L25.0982 32.6881L22.325 33.1497H23.75ZM33.2785 17.2407L34.7013 17.1617L33.2785 17.2407ZM33.2927 17.4972L31.8699 17.5762L33.2927 17.4972ZM33.3081 18.0102L34.7331 18.0038L33.3081 18.0102ZM33.3104 18.5232L34.7354 18.5168L33.3104 18.5232ZM33.2996 19.0362L34.723 19.1026L33.2996 19.0362ZM33.2876 19.2927L34.7111 19.3591L33.2876 19.2927ZM33.2756 19.5492L31.8522 19.4827L33.2756 19.5492ZM33.2718 20.0622L34.6961 20.0173L33.2718 20.0622ZM33.288 20.5752L31.8637 20.6201L33.288 20.5752ZM33.2914 21.0882L34.7162 21.114L33.2914 21.0882ZM33.2821 21.6012L34.7069 21.627L33.2821 21.6012ZM33.2847 22.1142L31.8602 22.1542L33.2847 22.1142ZM33.2876 23.1402L34.7088 23.2438L33.2876 23.1402ZM33.2502 23.6532L31.829 23.5496L33.2502 23.6532ZM33.2553 24.1662L31.8365 24.2981L33.2553 24.1662ZM33.303 24.6792L34.7219 24.5473L33.303 24.6792ZM33.3 25.1922L34.7173 25.3407L33.3 25.1922ZM33.2463 25.7052L31.829 25.5567L33.2463 25.7052ZM33.2247 26.2182L31.8 26.2478L33.2247 26.2182ZM33.2354 26.7312L34.6601 26.7015L33.2354 26.7312ZM33.2401 27.2442L31.8151 27.2406L33.2401 27.2442ZM33.2394 27.5007L34.6644 27.5043L33.2394 27.5007ZM33.2388 27.7572L34.6638 27.7608L33.2388 27.7572ZM33.2583 28.2705L34.6789 28.1585L33.2583 28.2705ZM33.2988 28.784L34.7194 28.672L33.2988 28.784ZM33.2741 29.2957L34.6775 29.5429L33.2741 29.2957ZM33.1843 29.8056L31.7809 29.5583L33.1843 29.8056ZM33.1131 30.3123L31.6958 30.1647L33.1131 30.3123ZM33.0869 30.5642L34.5042 30.7118L33.0869 30.5642ZM33.0606 30.816L34.478 30.9637L33.0606 30.816ZM32.9217 31.2924L34.1952 31.9318L32.9217 31.2924ZM32.6962 31.7415L31.4227 31.1022L32.6962 31.7415ZM32.415 32.1609L31.337 31.229L32.415 32.1609ZM32.2466 32.3558L33.3247 33.2877L32.2466 32.3558ZM32.0782 32.5506L31.0001 31.6187L32.0782 32.5506ZM31.6668 32.8302L31.1976 31.4846L31.6668 32.8302ZM31.1808 32.9996L31.65 34.3452L31.1808 32.9996ZM30.6852 33.1282L30.9291 34.5322L30.6852 33.1282ZM30.4326 33.1721L30.1887 31.7681L30.4326 33.1721ZM30.18 33.216L29.9361 31.812L30.18 33.216ZM29.6706 33.2589L29.6758 31.8339L29.6706 33.2589ZM29.1571 33.2571L29.1519 34.6821L29.1571 33.2571ZM28.6437 33.2383L28.5447 34.6598L28.6437 33.2383ZM28.3871 33.2204L28.4861 31.7988L28.3871 33.2204ZM28.1304 33.2025L28.0314 34.6241L28.1304 33.2025ZM27.6173 33.1919L27.6573 34.6163L27.6173 33.1919ZM27.3608 33.1991L27.3207 31.7746L27.3608 33.1991ZM27.1043 33.2063L27.0642 31.7818L27.1043 33.2063ZM26.0783 33.2772L25.9607 31.857L26.0783 33.2772ZM25.5653 33.2788L25.4564 34.6996L25.5653 33.2788ZM25.3088 33.2591L25.1999 34.6799L25.3088 33.2591ZM25.0523 33.2394L25.1612 31.8186L25.0523 33.2394ZM24.5393 33.2288L24.5895 34.6529L24.5393 33.2288ZM24.0263 33.2469L23.976 31.8228L24.0263 33.2469ZM23.5133 33.2704L23.4331 31.8477L23.5133 33.2704ZM22.4873 33.3152L22.4949 34.7402L22.4873 33.3152ZM21.9743 33.318L21.9666 31.893L21.9743 33.318ZM20.4353 33.3266L20.4394 31.9016L20.4353 33.3266ZM19.9223 33.3251L19.9264 31.9001V31.9001L19.9223 33.3251ZM19.4093 33.285L19.193 34.6935L19.4093 33.285ZM19.1528 33.2456L19.3691 31.8371L19.1528 33.2456ZM18.8963 33.2062L19.1126 31.7977L18.8963 33.2062ZM18.3833 33.1841L18.2876 31.7623L18.3833 33.1841ZM18.1268 33.2014L18.2225 34.6232L18.1268 33.2014ZM17.8703 33.2186L17.7746 31.7969L17.8703 33.2186ZM17.3573 33.2413L17.387 34.666L17.3573 33.2413ZM16.8443 33.252L16.8145 31.8273L16.8443 33.252ZM16.3313 33.256L16.3386 31.831L16.3313 33.256ZM16.0748 33.2547L16.0674 34.6797L16.0748 33.2547ZM15.8183 33.2534L15.8109 34.6783L15.8183 33.2534ZM15.3053 33.2645L15.3745 34.6878L15.3053 33.2645ZM14.7923 33.2895L14.7231 31.8661L14.7923 33.2895ZM14.2793 33.2769L14.1407 34.6951L14.2793 33.2769ZM13.7663 33.2268L13.6277 34.645L13.7663 33.2268ZM13.2533 33.2236L13.3742 34.6434L13.2533 33.2236ZM12.9968 33.2454L12.8759 31.8255L12.9968 33.2454ZM12.7403 33.2672L12.6194 31.8474L12.7403 33.2672ZM12.2273 33.2835L12.196 34.7081L12.2273 33.2835ZM11.9708 33.2778L12.002 31.8532L11.9708 33.2778ZM11.7143 33.2722L11.683 34.6969L11.7143 33.2722ZM11.2013 33.2594L11.2412 31.8349L11.2013 33.2594ZM10.6883 33.245L10.6484 34.6695L10.6883 33.245ZM10.1751 33.2468L10.2247 34.6709L10.1751 33.2468ZM9.91847 33.2557L9.86892 31.8316L9.91847 33.2557ZM9.66181 33.2646L9.61226 31.8405L9.66181 33.2646ZM9.14927 33.2466L9.2983 31.8295L9.14927 33.2466ZM8.63751 33.1928L8.48848 34.61L8.63751 33.1928ZM7.61382 33.1604L7.60358 34.5854L7.61382 33.1604ZM7.1184 33.076L7.58299 31.7288L7.1184 33.076ZM6.87892 32.9934L6.41434 34.3405L6.87892 32.9934ZM6.63943 32.9108L6.17485 34.2579L6.63943 32.9108ZM6.20598 32.6674L7.11551 31.5704L6.20598 32.6674ZM6.01201 32.5066L5.10248 33.6035L6.01201 32.5066ZM5.81805 32.3457L6.72758 31.2488L5.81805 32.3457ZM5.47783 31.9791L6.63939 31.1536L5.47783 31.9791ZM5.18533 31.5675L4.02377 32.393L5.18533 31.5675ZM4.98102 31.1137L6.36853 30.7889L4.98102 31.1137ZM4.92297 30.8657L3.53547 31.1904L4.92297 30.8657ZM4.86492 30.6176L3.47742 30.9424V30.9424L4.86492 30.6176ZM4.78328 29.0883L3.3666 29.2421L4.78328 29.0883ZM4.75546 28.8321L6.17214 28.6783L4.75546 28.8321ZM4.72765 28.5759L6.14433 28.4221L4.72765 28.5759ZM4.68229 27.5499L3.25766 27.5823L4.68229 27.5499ZM4.70677 27.0368L3.29163 26.8695L4.70677 27.0368ZM4.7845 26.0108L3.3614 26.0842L4.7845 26.0108ZM4.71953 24.7283L3.29625 24.7983L4.71953 24.7283ZM4.69893 22.9328L3.27447 22.8934L4.69893 22.9328ZM4.73102 21.9068L3.30729 21.8467L4.73102 21.9068ZM4.75267 21.3938L6.1764 21.4538L4.75267 21.3938ZM4.78738 19.8548L6.21027 19.7772L4.78738 19.8548ZM4.77339 19.5983L3.35051 19.6758L4.77339 19.5983ZM4.76826 17.8028L6.18836 17.6848L4.76826 17.8028ZM4.74694 17.5463L3.32684 17.6643L4.74694 17.5463ZM4.72563 17.2898L3.30553 17.4078L4.72563 17.2898ZM4.74764 15.757L6.12901 16.1069L4.74764 15.757ZM4.87381 15.2589L3.49244 14.909L4.87381 15.2589ZM5.03679 14.7821L6.34186 15.3542L5.03679 14.7821ZM5.23658 14.3264L3.9315 13.7542L5.23658 14.3264ZM5.50175 13.9096L6.57425 14.8479L5.50175 13.9096ZM5.66704 13.7207L4.59454 12.7824L5.66704 13.7207ZM5.83232 13.5318L4.75982 12.5935L5.83232 13.5318ZM6.18927 13.172L7.13737 14.2358L6.18927 13.172ZM6.57262 12.8304L5.62453 11.7665L6.57262 12.8304ZM6.97434 12.5118L6.1545 11.3463L6.97434 12.5118ZM7.18438 12.3641L6.36454 11.1985L7.18438 12.3641ZM7.39442 12.2163L8.21425 13.3819L7.39442 12.2163ZM7.79054 11.89L8.77712 12.9183L7.79054 11.89ZM8.16271 11.533L7.17613 10.5047L8.16271 11.533ZM8.5635 11.2127L7.77844 10.0234L8.5635 11.2127ZM8.77821 11.0709L9.56327 12.2602L8.77821 11.0709ZM8.99292 10.9292L8.20786 9.73996L8.99292 10.9292ZM9.39724 10.6135L10.3607 11.6634L9.39724 10.6135ZM9.77646 10.2654L10.74 11.3153L9.77646 10.2654ZM10.1806 9.94944L9.39397 8.76121L10.1806 9.94944ZM10.3951 9.80744L11.1817 10.9957L10.3951 9.80744ZM10.6096 9.66543L9.82298 8.47721L10.6096 9.66543ZM11.2057 9.17842L10.2499 8.12144L11.2057 9.17842ZM11.3964 9.00592L12.3522 10.0629L11.3964 9.00592ZM11.8053 8.69599L11.0456 7.4904L11.8053 8.69599ZM12.2414 8.42116L13.0011 9.62675L12.2414 8.42116ZM12.647 8.10704L13.6243 9.14416L12.647 8.10704ZM12.8345 7.93035L11.8573 6.89323L12.8345 7.93035ZM13.4345 7.44838L14.1417 8.68554L13.4345 7.44838ZM13.6595 7.3198L12.9523 6.08264L13.6595 7.3198ZM13.8844 7.19123L13.1773 5.95406L13.8844 7.19123ZM14.3091 6.90165L13.4148 5.79221L14.3091 6.90165ZM14.7085 6.57966L15.6028 7.68911L14.7085 6.57966ZM15.0987 6.24569L16.0569 7.30044L15.0987 6.24569ZM15.2891 6.07271L16.2473 7.12747L15.2891 6.07271ZM15.4795 5.89973L14.5213 4.84498L15.4795 5.89973ZM16.105 5.45055L16.8687 6.6536L16.105 5.45055ZM16.3225 5.31245L15.5588 4.1094L16.3225 5.31245ZM16.7415 5.01551L15.8591 3.89658L16.7415 5.01551ZM16.9429 4.85668L16.0605 3.73774L16.9429 4.85668ZM17.1443 4.69785L18.0267 5.81679L17.1443 4.69785ZM17.54 4.3711L18.4717 5.44932L17.54 4.3711ZM17.7344 4.20318L16.8027 3.12496L17.7344 4.20318ZM18.8458 3.7138L18.5497 2.3199L18.8458 3.7138ZM19.3246 3.73571L19.7433 2.3736L19.3246 3.73571ZM19.8002 3.8819L19.3816 5.24402L19.8002 3.8819ZM20.2383 4.11565L19.3466 5.22718L20.2383 4.11565ZM20.6388 4.43694L21.5305 3.3254L20.6388 4.43694ZM21.0354 4.76298L20.1173 5.85279L21.0354 4.76298ZM21.428 5.09375L20.5099 6.18356L21.428 5.09375ZM21.8326 5.40924L22.6659 4.25328L21.8326 5.40924ZM22.249 5.70942L23.0823 4.55347L22.249 5.70942ZM22.6698 6.00391L21.8693 7.18282L22.6698 6.00391ZM23.0951 6.29269L23.8956 5.11378L23.0951 6.29269ZM23.4961 6.61278L22.5239 7.65465L23.4961 6.61278ZM23.6844 6.78848L22.7122 7.83035L23.6844 6.78848ZM23.8727 6.96418L24.8448 5.92231L23.8727 6.96418ZM24.2784 7.27805L25.0426 6.07529L24.2784 7.27805ZM24.7134 7.55441L23.9492 8.75717L24.7134 7.55441ZM25.1103 7.87974L24.0815 8.86579L25.1103 7.87974ZM25.469 8.25406L26.4978 7.26801L25.469 8.25406ZM25.8614 8.5852L26.6595 7.40471L25.8614 8.5852ZM26.2873 8.87318L25.4891 10.0537L26.2873 8.87318ZM26.7173 9.15594L27.4849 7.95538L26.7173 9.15594ZM27.1513 9.43347L26.3836 10.634L27.1513 9.43347ZM27.548 9.75905L26.5209 10.7468L27.548 9.75905ZM27.7276 9.94586L28.7547 8.95811L27.7276 9.94586ZM27.9073 10.1327L26.8802 11.1204L27.9073 10.1327ZM28.6886 10.7992L29.577 9.68502L28.6886 10.7992ZM29.0937 11.114L29.9539 9.9779L29.0937 11.114ZM29.5028 11.4237L28.6426 12.5598L29.5028 11.4237ZM29.9192 11.7239L29.1131 12.899L29.9192 11.7239ZM30.1311 11.8692L30.9372 10.6942L30.1311 11.8692ZM30.343 12.0146L29.5369 13.1897L30.343 12.0146ZM30.7545 12.3211L29.8593 13.4299L30.7545 12.3211ZM30.9541 12.4823L31.8493 11.3735L30.9541 12.4823ZM31.1538 12.6435L30.2586 13.7522L31.1538 12.6435ZM31.5468 12.9722L30.6136 14.0492L31.5468 12.9722ZM31.7401 13.1398L32.6733 12.0628L31.7401 13.1398ZM31.9335 13.3073L31.0004 14.3843L31.9335 13.3073ZM32.3186 13.6487L31.3614 14.7043L32.3186 13.6487ZM32.5103 13.8225L31.5531 14.8782L32.5103 13.8225ZM32.702 13.9963L31.7448 15.052L32.702 13.9963ZM32.9807 14.4165L31.637 14.8911L32.9807 14.4165ZM33.1547 14.9094L34.4984 14.4348L33.1547 14.9094ZM33.2235 15.4143L34.6449 15.5149L33.2235 15.4143ZM33.1873 16.3242L34.5987 16.1281L33.1873 16.3242ZM33.2246 16.5932L31.8132 16.7893L33.2246 16.5932ZM33.2642 16.9842L34.6871 16.9052L33.2642 16.9842ZM14.25 33.2497H15.675V33.1497H14.25H12.825V33.2497H14.25ZM14.25 33.1497L15.674 33.0964L15.6567 32.6334L14.2327 32.6867L12.8087 32.7399L12.826 33.2029L14.25 33.1497ZM14.2327 32.6867L15.6567 32.6334C15.6459 32.3449 15.6499 32.1732 15.6572 32.0889L14.2374 31.9672L12.8176 31.8454C12.7955 32.1032 12.7964 32.4111 12.8087 32.7399L14.2327 32.6867ZM14.2374 31.9672L15.6572 32.0889L15.6792 31.8324L14.2594 31.7107L12.8396 31.5889L12.8176 31.8454L14.2374 31.9672ZM14.2594 31.7107L15.6792 31.8324L15.7012 31.5759L14.2814 31.4542L12.8616 31.3324L12.8396 31.5889L14.2594 31.7107ZM14.2814 31.4542L15.7012 31.5759C15.7225 31.3271 15.7233 31.0778 15.7036 30.8288L14.2831 30.9412L12.8625 31.0536C12.8699 31.1466 12.8696 31.2393 12.8616 31.3324L14.2814 31.4542ZM14.2831 30.9412L15.7036 30.8288L15.6833 30.5723L14.2628 30.6847L12.8422 30.7971L12.8625 31.0536L14.2831 30.9412ZM14.2628 30.6847L15.6833 30.5723L15.6631 30.3158L14.2425 30.4282L12.8219 30.5406L12.8422 30.7971L14.2628 30.6847ZM14.2425 30.4282L15.6631 30.3158C15.6512 30.1666 15.6429 30.0174 15.638 29.8684L14.2138 29.9152L12.7895 29.9619C12.7959 30.1549 12.8067 30.3478 12.8219 30.5406L14.2425 30.4282ZM14.2138 29.9152L15.638 29.8684L15.6296 29.6119L14.2053 29.6587L12.7811 29.7054L12.7895 29.9619L14.2138 29.9152ZM14.2053 29.6587L15.6296 29.6119L15.6212 29.3554L14.1969 29.4022L12.7727 29.4489L12.7811 29.7054L14.2053 29.6587ZM14.1969 29.4022L15.6212 29.3554C15.617 29.2301 15.6189 29.1048 15.6269 28.9793L14.2048 28.8892L12.7826 28.7991C12.7689 29.0156 12.7656 29.2322 12.7727 29.4489L14.1969 29.4022ZM14.2048 28.8892L15.6269 28.9793L15.6431 28.7228L14.221 28.6327L12.7989 28.5426L12.7826 28.7991L14.2048 28.8892ZM14.221 28.6327L15.6431 28.7228L15.6594 28.4663L14.2373 28.3762L12.8151 28.2861L12.7989 28.5426L14.221 28.6327ZM14.2373 28.3762L15.6594 28.4663C15.672 28.2667 15.6787 28.067 15.6792 27.8672L14.2542 27.8632L12.8292 27.8592C12.8288 28.0014 12.8241 28.1437 12.8151 28.2861L14.2373 28.3762ZM14.2542 27.8632L15.6792 27.8672L15.6799 27.6107L14.2549 27.6067L12.83 27.6027L12.8292 27.8592L14.2542 27.8632ZM14.2549 27.6067L15.6799 27.6107L15.6807 27.3542L14.2557 27.3502L12.8307 27.3462L12.83 27.6027L14.2549 27.6067ZM14.2557 27.3502L15.6807 27.3542C15.6812 27.154 15.6757 26.9539 15.664 26.7539L14.2414 26.8372L12.8188 26.9204C12.8271 27.0624 12.8311 27.2043 12.8307 27.3462L14.2557 27.3502ZM14.2414 26.8372L15.664 26.7539L15.6489 26.4974L14.2264 26.5807L12.8038 26.6639L12.8188 26.9204L14.2414 26.8372ZM14.2264 26.5807L15.6489 26.4974L15.6339 26.2409L14.2114 26.3242L12.7888 26.4074L12.8038 26.6639L14.2264 26.5807ZM14.2114 26.3242L15.6339 26.2409C15.6262 26.1085 15.6238 25.9762 15.6269 25.8439L14.2023 25.8112L12.7776 25.7784C12.7728 25.9882 12.7765 26.1978 12.7888 26.4074L14.2114 26.3242ZM14.2023 25.8112L15.6269 25.8439L15.6328 25.5874L14.2081 25.5547L12.7835 25.5219L12.7776 25.7784L14.2023 25.8112ZM14.2081 25.5547L15.6328 25.5874L15.6387 25.3309L14.214 25.2982L12.7894 25.2654L12.7835 25.5219L14.2081 25.5547ZM14.214 25.2982L15.6387 25.3309C15.6418 25.1948 15.6499 25.0585 15.6631 24.9219L14.2447 24.7852L12.8262 24.6484C12.8064 24.8539 12.7941 25.0596 12.7894 25.2654L14.214 25.2982ZM14.2447 24.7852L15.6631 24.9219L15.6878 24.6654L14.2694 24.5287L12.851 24.3919L12.8262 24.6484L14.2447 24.7852ZM14.2694 24.5287L15.6878 24.6654L15.7125 24.4089L14.2941 24.2722L12.8757 24.1354L12.851 24.3919L14.2694 24.5287ZM14.2941 24.2722L15.7125 24.4089C15.7395 24.129 15.7342 23.8486 15.6969 23.5701L14.2845 23.7592L12.8721 23.9483C12.8806 24.0117 12.8817 24.0734 12.8757 24.1354L14.2941 24.2722ZM14.2845 23.7592L15.6969 23.5701L15.6626 23.3136L14.2502 23.5027L12.8378 23.6918L12.8721 23.9483L14.2845 23.7592ZM14.2502 23.5027L15.6626 23.3136L15.6282 23.0571L14.2158 23.2462L12.8034 23.4353L12.8378 23.6918L14.2502 23.5027ZM14.2158 23.2462L15.6282 23.0571C15.6163 22.9684 15.6125 22.8812 15.6162 22.7946L14.1925 22.7332L12.7689 22.6717C12.7579 22.9271 12.7695 23.1819 12.8034 23.4353L14.2158 23.2462ZM14.1925 22.7332L15.6162 22.7946L15.6273 22.5381L14.2036 22.4767L12.7799 22.4152L12.7689 22.6717L14.1925 22.7332ZM14.2036 22.4767L15.6273 22.5381L15.6384 22.2816L14.2147 22.2202L12.791 22.1587L12.7799 22.4152L14.2036 22.4767ZM14.2147 22.2202L15.6384 22.2816C15.6476 22.0661 15.6468 21.8506 15.636 21.635L14.2128 21.7068L12.7896 21.7786C12.796 21.9056 12.7965 22.0322 12.791 22.1587L14.2147 22.2202ZM14.2128 21.7068L15.636 21.635L15.623 21.3782L14.1998 21.45L12.7766 21.5218L12.7896 21.7786L14.2128 21.7068ZM14.1998 21.45L15.623 21.3782L15.6101 21.1213L14.1869 21.1931L12.7637 21.2649L12.7766 21.5218L14.1998 21.45ZM14.1869 21.1931L15.6101 21.1213C15.6083 21.086 15.6113 21.0533 15.6195 21.0192L14.2339 20.6864L12.8484 20.3536C12.7765 20.6526 12.7482 20.9578 12.7637 21.2649L14.1869 21.1931ZM14.2339 20.6864L15.6195 21.0192L15.6795 20.7693L14.294 20.4365L12.9084 20.1037L12.8484 20.3536L14.2339 20.6864ZM14.294 20.4365L15.6795 20.7693L15.7396 20.5194L14.354 20.1866L12.9684 19.8538L12.9084 20.1037L14.294 20.4365ZM14.354 20.1866L15.7396 20.5194C15.734 20.5428 15.7237 20.5731 15.7065 20.6065C15.6892 20.64 15.6684 20.6695 15.6471 20.6936L14.58 19.7492L13.513 18.8047C13.2435 19.1091 13.0614 19.4664 12.9684 19.8538L14.354 20.1866ZM14.58 19.7492L15.6471 20.6936L15.8131 20.5061L14.746 19.5616L13.679 18.6171L13.513 18.8047L14.58 19.7492ZM14.746 19.5616L15.8131 20.5061L15.9791 20.3185L14.912 19.3741L13.845 18.4296L13.679 18.6171L14.746 19.5616ZM14.912 19.3741L15.9791 20.3185C15.9373 20.3658 15.8815 20.4137 15.8129 20.4534C15.7445 20.493 15.6788 20.5155 15.6249 20.527L15.3281 19.1333L15.0313 17.7395C14.573 17.8371 14.1622 18.0712 13.845 18.4296L14.912 19.3741ZM15.3281 19.1333L15.6249 20.527L15.875 20.4737L15.5781 19.08L15.2813 17.6863L15.0313 17.7395L15.3281 19.1333ZM15.5781 19.08L15.875 20.4737L16.125 20.4205L15.8282 19.0267L15.5314 17.633L15.2813 17.6863L15.5781 19.08ZM15.8282 19.0267L16.125 20.4205C16.2195 20.4004 16.3156 20.3875 16.4139 20.3821L16.3349 18.9592L16.256 17.5364C16.012 17.55 15.7702 17.5821 15.5314 17.633L15.8282 19.0267ZM16.3349 18.9592L16.4139 20.3821L16.6706 20.3678L16.5917 18.945L16.5127 17.5222L16.256 17.5364L16.3349 18.9592ZM16.5917 18.945L16.6706 20.3678L16.9274 20.3535L16.8484 18.9307L16.7694 17.5079L16.5127 17.5222L16.5917 18.945ZM16.8484 18.9307L16.9274 20.3535C17.0035 20.3493 17.08 20.3526 17.1583 20.3639L17.3616 18.9535L17.5648 17.543C17.3012 17.505 17.0355 17.4932 16.7694 17.5079L16.8484 18.9307ZM17.3616 18.9535L17.1583 20.3639L17.4148 20.4008L17.6181 18.9904L17.8213 17.58L17.5648 17.543L17.3616 18.9535ZM17.6181 18.9904L17.4148 20.4008L17.6713 20.4378L17.8746 19.0274L18.0778 17.6169L17.8213 17.58L17.6181 18.9904ZM17.8746 19.0274L17.6713 20.4378C17.9766 20.4818 18.284 20.482 18.5894 20.4383L18.3876 19.0277L18.1858 17.617C18.1492 17.6223 18.1146 17.6222 18.0778 17.6169L17.8746 19.0274ZM18.3876 19.0277L18.5894 20.4383L18.8459 20.4016L18.6441 18.991L18.4423 17.5803L18.1858 17.617L18.3876 19.0277ZM18.6441 18.991L18.8459 20.4016L19.1024 20.3649L18.9006 18.9543L18.6988 17.5436L18.4423 17.5803L18.6441 18.991ZM18.9006 18.9543L19.1024 20.3649C19.1712 20.3551 19.2379 20.353 19.3045 20.3581L19.4136 18.9373L19.5227 17.5165C19.2473 17.4953 18.972 17.5046 18.6988 17.5436L18.9006 18.9543ZM19.4136 18.9373L19.3045 20.3581L19.561 20.3778L19.6701 18.957L19.7792 17.5362L19.5227 17.5165L19.4136 18.9373ZM19.6701 18.957L19.561 20.3778L19.8175 20.3975L19.9266 18.9767L20.0357 17.5559L19.7792 17.5362L19.6701 18.957ZM19.9266 18.9767L19.8175 20.3975C20.0455 20.415 20.2739 20.4188 20.5023 20.4087L20.4396 18.9851L20.3769 17.5615C20.2633 17.5665 20.1497 17.5646 20.0357 17.5559L19.9266 18.9767ZM20.4396 18.9851L20.5023 20.4087L20.7588 20.3974L20.6961 18.9738L20.6334 17.5502L20.3769 17.5615L20.4396 18.9851ZM20.6961 18.9738L20.7588 20.3974L21.0153 20.3862L20.9526 18.9625L20.8899 17.5389L20.6334 17.5502L20.6961 18.9738ZM20.9526 18.9625L21.0153 20.3862C21.1007 20.3824 21.1857 20.3863 21.2714 20.398L21.4642 18.9861L21.657 17.5742C21.4025 17.5394 21.1465 17.5276 20.8899 17.5389L20.9526 18.9625ZM21.4642 18.9861L21.2714 20.398L21.5265 20.4328L21.7193 19.0209L21.9121 17.609L21.657 17.5742L21.4642 18.9861ZM21.7193 19.0209L21.5265 20.4328L21.7816 20.4676L21.9744 19.0557L22.1672 17.6438L21.9121 17.609L21.7193 19.0209ZM21.9744 19.0557L21.7816 20.4676C21.9181 20.4863 22.0533 20.5097 22.1872 20.5379L22.4804 19.1433L22.7736 17.7488C22.5729 17.7066 22.3708 17.6716 22.1672 17.6438L21.9744 19.0557ZM22.4804 19.1433L22.1872 20.5379L22.4382 20.5906L22.7314 19.1961L23.0246 17.8016L22.7736 17.7488L22.4804 19.1433ZM22.7314 19.1961L22.4382 20.5906L22.6892 20.6434L22.9824 19.2489L23.2756 17.8544L23.0246 17.8016L22.7314 19.1961ZM22.9824 19.2489L22.6892 20.6434C22.5874 20.622 22.4645 20.5743 22.346 20.4853C22.2283 20.3968 22.1522 20.2956 22.1074 20.2135L23.3587 19.5315L24.6099 18.8496C24.3315 18.3388 23.8609 17.9774 23.2756 17.8544L22.9824 19.2489ZM23.3587 19.5315L22.1074 20.2135L22.2327 20.4434L23.484 19.7614L24.7352 19.0795L24.6099 18.8496L23.3587 19.5315ZM23.484 19.7614L22.2327 20.4434L22.358 20.6733L23.6093 19.9913L24.8605 19.3094L24.7352 19.0795L23.484 19.7614ZM23.6093 19.9913L22.358 20.6733C22.3494 20.6575 22.3397 20.6352 22.332 20.6076C22.3244 20.5799 22.3207 20.5534 22.3199 20.5306L23.7439 20.4788L25.168 20.427C25.1536 20.0311 25.0479 19.6533 24.8605 19.3094L23.6093 19.9913ZM23.7439 20.4788L22.3199 20.5306L22.3292 20.7881L23.7533 20.7364L25.1774 20.6846L25.168 20.427L23.7439 20.4788ZM23.7533 20.7364L22.3292 20.7881L22.3386 21.0457L23.7627 20.9939L25.1867 20.9422L25.1774 20.6846L23.7533 20.7364ZM23.7627 20.9939L22.3386 21.0457C22.3445 21.2068 22.3485 21.3674 22.3507 21.5277L23.7756 21.5081L25.2004 21.4885C25.1979 21.3066 25.1933 21.1245 25.1867 20.9422L23.7627 20.9939ZM23.7756 21.5081L22.3507 21.5277L22.3542 21.7843L23.7791 21.7647L25.204 21.745L25.2004 21.4885L23.7756 21.5081ZM23.7791 21.7647L22.3542 21.7843L22.3578 22.0409L23.7826 22.0213L25.2075 22.0016L25.204 21.745L23.7791 21.7647ZM23.7826 22.0213L22.3578 22.0409C22.3594 22.1572 22.3543 22.2738 22.3424 22.3908L23.7602 22.5344L25.1779 22.6779C25.2007 22.453 25.2106 22.2274 25.2075 22.0016L23.7826 22.0213ZM23.7602 22.5344L22.3424 22.3908L22.3165 22.6473L23.7342 22.7909L25.152 22.9344L25.1779 22.6779L23.7602 22.5344ZM23.7342 22.7909L22.3165 22.6473L22.2905 22.9038L23.7083 23.0474L25.126 23.1909L25.152 22.9344L23.7342 22.7909ZM23.7083 23.0474L22.2905 22.9038C22.2648 23.1575 22.2614 23.4119 22.2803 23.6662L23.7014 23.5604L25.1224 23.4545C25.1159 23.3668 25.1171 23.2792 25.126 23.1909L23.7083 23.0474ZM23.7014 23.5604L22.2803 23.6662L22.2994 23.9227L23.7205 23.8169L25.1415 23.711L25.1224 23.4545L23.7014 23.5604ZM23.7205 23.8169L22.2994 23.9227L22.3185 24.1792L23.7396 24.0734L25.1607 23.9675L25.1415 23.711L23.7205 23.8169ZM23.7396 24.0734L22.3185 24.1792C22.3289 24.318 22.3344 24.4567 22.3353 24.5952L23.7603 24.5864L25.1853 24.5775C25.184 24.374 25.1758 24.1707 25.1607 23.9675L23.7396 24.0734ZM23.7603 24.5864L22.3353 24.5952L22.3369 24.8517L23.7619 24.8429L25.1869 24.834L25.1853 24.5775L23.7603 24.5864ZM23.7619 24.8429L22.3369 24.8517L22.3385 25.1082L23.7635 25.0994L25.1885 25.0905L25.1869 24.834L23.7619 24.8429ZM23.7635 25.0994L22.3385 25.1082C22.3393 25.2324 22.3339 25.3567 22.3224 25.4814L23.7414 25.6124L25.1604 25.7433C25.1804 25.526 25.1898 25.3083 25.1885 25.0905L23.7635 25.0994ZM23.7414 25.6124L22.3224 25.4814L22.2988 25.7379L23.7177 25.8689L25.1367 25.9998L25.1604 25.7433L23.7414 25.6124ZM23.7177 25.8689L22.2988 25.7379L22.2751 25.9944L23.6941 26.1254L25.1131 26.2563L25.1367 25.9998L23.7177 25.8689ZM23.6941 26.1254L22.2751 25.9944C22.25 26.267 22.2541 26.54 22.2874 26.8116L23.7018 26.6384L25.1163 26.4651C25.1076 26.3947 25.1066 26.3257 25.1131 26.2563L23.6941 26.1254ZM23.7018 26.6384L22.2874 26.8116L22.3188 27.0681L23.7332 26.8949L25.1477 26.7216L25.1163 26.4651L23.7018 26.6384ZM23.7332 26.8949L22.3188 27.0681L22.3502 27.3246L23.7647 27.1514L25.1791 26.9781L25.1477 26.7216L23.7332 26.8949ZM23.7647 27.1514L22.3502 27.3246C22.3619 27.4198 22.3657 27.5138 22.362 27.6075L23.7858 27.6644L25.2097 27.7212C25.2196 27.4729 25.2093 27.2249 25.1791 26.9781L23.7647 27.1514ZM23.7858 27.6644L22.362 27.6075L22.3517 27.864L23.7756 27.9209L25.1995 27.9777L25.2097 27.7212L23.7858 27.6644ZM23.7756 27.9209L22.3517 27.864L22.3415 28.1205L23.7654 28.1774L25.1892 28.2342L25.1995 27.9777L23.7756 27.9209ZM23.7654 28.1774L22.3415 28.1205C22.3348 28.2884 22.3275 28.4563 22.3197 28.6242L23.7432 28.6904L25.1666 28.7566C25.1747 28.5824 25.1823 28.4083 25.1892 28.2342L23.7654 28.1774ZM23.7432 28.6904L22.3197 28.6242L22.3078 28.8807L23.7313 28.9469L25.1547 29.0131L25.1666 28.7566L23.7432 28.6904ZM23.7313 28.9469L22.3078 28.8807L22.2959 29.1372L23.7193 29.2034L25.1428 29.2696L25.1547 29.0131L23.7313 28.9469ZM23.7193 29.2034L22.2959 29.1372C22.2854 29.3615 22.2876 29.5858 22.3024 29.81L23.7243 29.7164L25.1462 29.6227C25.1384 29.5049 25.1373 29.3872 25.1428 29.2696L23.7193 29.2034ZM23.7243 29.7164L22.3024 29.81L22.3193 30.0665L23.7412 29.9729L25.1631 29.8792L25.1462 29.6227L23.7243 29.7164ZM23.7412 29.9729L22.3193 30.0665L22.3361 30.323L23.7581 30.2294L25.18 30.1357L25.1631 29.8792L23.7412 29.9729ZM23.7581 30.2294L22.3361 30.323C22.3455 30.4655 22.3506 30.6079 22.3514 30.7502L23.7764 30.7424L25.2013 30.7345C25.2003 30.5348 25.1931 30.3352 25.18 30.1357L23.7581 30.2294ZM23.7764 30.7424L22.3514 30.7502L22.3528 31.0067L23.7778 30.9989L25.2028 30.991L25.2013 30.7345L23.7764 30.7424ZM23.7778 30.9989L22.3528 31.0067L22.3542 31.2632L23.7792 31.2554L25.2042 31.2475L25.2028 30.991L23.7778 30.9989ZM23.7792 31.2554L22.3542 31.2632C22.3549 31.379 22.3488 31.4951 22.3359 31.6118L23.7523 31.7684L25.1686 31.9249C25.1935 31.6996 25.2054 31.4738 25.2042 31.2475L23.7792 31.2554ZM23.7523 31.7684L22.3359 31.6118L22.3075 31.8683L23.7239 32.0249L25.1403 32.1814L25.1686 31.9249L23.7523 31.7684ZM23.7239 32.0249L22.3075 31.8683L22.2792 32.1248L23.6956 32.2814L25.112 32.4379L25.1403 32.1814L23.7239 32.0249ZM23.6956 32.2814L22.2792 32.1248C22.25 32.3891 22.2442 32.6967 22.3112 33.012L23.705 32.7158L25.0989 32.4196C25.1036 32.4415 25.1059 32.4585 25.1071 32.4694C25.1083 32.4804 25.1084 32.4865 25.1084 32.4872C25.1084 32.4879 25.1083 32.4842 25.1088 32.4756C25.1092 32.4671 25.1101 32.4546 25.112 32.4379L23.6956 32.2814ZM23.705 32.7158L22.3112 33.012L22.349 33.1899L23.7429 32.8938L25.1367 32.5976L25.0989 32.4196L23.705 32.7158ZM23.7429 32.8938L22.349 33.1899L22.3868 33.3679L23.7807 33.0717L25.1745 32.7755L25.1367 32.5976L23.7429 32.8938ZM23.7807 33.0717L22.3868 33.3679C22.3975 33.4184 22.3939 33.4093 22.3893 33.3698C22.3888 33.3653 22.3754 33.2649 22.3856 33.1304C22.3894 33.0804 22.4044 32.8809 22.5106 32.6504C22.568 32.526 22.6836 32.3227 22.9046 32.1431C23.1497 31.9439 23.4642 31.8247 23.8014 31.8247V33.2497V34.6747C24.5907 34.6747 24.9812 34.0989 25.0989 33.8434C25.2069 33.6092 25.223 33.4041 25.2274 33.3467C25.2387 33.1974 25.2242 33.0747 25.2202 33.0406C25.2087 32.9418 25.189 32.8437 25.1745 32.7755L23.7807 33.0717ZM23.8014 33.2497V31.8247H23.7842V33.2497V34.6747H23.8014V33.2497ZM23.7842 33.2497L25.1324 32.7881L25.0982 32.6881L23.75 33.1497L22.4018 33.6112L22.4361 33.7112L23.7842 33.2497ZM23.75 33.1497H22.325V33.2497H23.75H25.175V33.1497H23.75ZM33.2785 17.2407L31.8557 17.3197L31.8699 17.5762L33.2927 17.4972L34.7155 17.4182L34.7013 17.1617L33.2785 17.2407ZM33.2927 17.4972L31.8699 17.5762C31.8781 17.723 31.8825 17.8698 31.8831 18.0166L33.3081 18.0102L34.7331 18.0038C34.7322 17.8086 34.7264 17.6133 34.7155 17.4182L33.2927 17.4972ZM33.3081 18.0102L31.8831 18.0166L31.8843 18.2731L33.3093 18.2667L34.7343 18.2603L34.7331 18.0038L33.3081 18.0102ZM33.3093 18.2667L31.8843 18.2731L31.8854 18.5296L33.3104 18.5232L34.7354 18.5168L34.7343 18.2603L33.3093 18.2667ZM33.3104 18.5232L31.8854 18.5296C31.8861 18.6763 31.883 18.823 31.8761 18.9697L33.2996 19.0362L34.723 19.1026C34.7322 18.9074 34.7363 18.7121 34.7354 18.5168L33.3104 18.5232ZM33.2996 19.0362L31.8761 18.9697L31.8642 19.2262L33.2876 19.2927L34.7111 19.3591L34.723 19.1026L33.2996 19.0362ZM33.2876 19.2927L31.8642 19.2262L31.8522 19.4827L33.2756 19.5492L34.6991 19.6156L34.7111 19.3591L33.2876 19.2927ZM33.2756 19.5492L31.8522 19.4827C31.8425 19.6908 31.8409 19.899 31.8475 20.1071L33.2718 20.0622L34.6961 20.0173C34.6918 19.8834 34.6928 19.7496 34.6991 19.6156L33.2756 19.5492ZM33.2718 20.0622L31.8475 20.1071L31.8556 20.3636L33.2799 20.3187L34.7041 20.2737L34.6961 20.0173L33.2718 20.0622ZM33.2799 20.3187L31.8556 20.3636L31.8637 20.6201L33.288 20.5752L34.7122 20.5302L34.7041 20.2737L33.2799 20.3187ZM33.288 20.5752L31.8637 20.6201C31.8683 20.7676 31.8693 20.915 31.8666 21.0624L33.2914 21.0882L34.7162 21.114C34.7197 20.9194 34.7184 20.7248 34.7122 20.5302L33.288 20.5752ZM33.2914 21.0882L31.8666 21.0624L31.862 21.3189L33.2868 21.3447L34.7115 21.3705L34.7162 21.114L33.2914 21.0882ZM33.2868 21.3447L31.862 21.3189L31.8573 21.5754L33.2821 21.6012L34.7069 21.627L34.7115 21.3705L33.2868 21.3447ZM33.2821 21.6012L31.8573 21.5754C31.8538 21.7683 31.8548 21.9613 31.8602 22.1542L33.2847 22.1142L34.7091 22.0742C34.7049 21.9251 34.7042 21.7761 34.7069 21.627L33.2821 21.6012ZM33.2847 22.1142L31.8602 22.1542L31.8674 22.4107L33.2919 22.3707L34.7163 22.3307L34.7091 22.0742L33.2847 22.1142ZM33.2919 22.3707L31.8674 22.4107L31.8746 22.6672L33.2991 22.6272L34.7235 22.5872L34.7163 22.3307L33.2919 22.3707ZM33.2991 22.6272L31.8746 22.6672C31.8781 22.7902 31.8753 22.9133 31.8663 23.0366L33.2876 23.1402L34.7088 23.2438C34.7247 23.0251 34.7296 22.8062 34.7235 22.5872L33.2991 22.6272ZM33.2876 23.1402L31.8663 23.0366L31.8476 23.2931L33.2689 23.3967L34.6901 23.5003L34.7088 23.2438L33.2876 23.1402ZM33.2689 23.3967L31.8476 23.2931L31.829 23.5496L33.2502 23.6532L34.6714 23.7568L34.6901 23.5003L33.2689 23.3967ZM33.2502 23.6532L31.829 23.5496C31.8108 23.7992 31.8133 24.049 31.8365 24.2981L33.2553 24.1662L34.6742 24.0343C34.6656 23.9414 34.6647 23.8492 34.6714 23.7568L33.2502 23.6532ZM33.2553 24.1662L31.8365 24.2981L31.8603 24.5546L33.2792 24.4227L34.6981 24.2908L34.6742 24.0343L33.2553 24.1662ZM33.2792 24.4227L31.8603 24.5546L31.8842 24.8111L33.303 24.6792L34.7219 24.5473L34.6981 24.2908L33.2792 24.4227ZM33.303 24.6792L31.8842 24.8111C31.8914 24.8887 31.8909 24.9658 31.8828 25.0437L33.3 25.1922L34.7173 25.3407C34.7449 25.0766 34.7465 24.8117 34.7219 24.5473L33.303 24.6792ZM33.3 25.1922L31.8828 25.0437L31.8559 25.3002L33.2731 25.4487L34.6904 25.5972L34.7173 25.3407L33.3 25.1922ZM33.2731 25.4487L31.8559 25.3002L31.829 25.5567L33.2463 25.7052L34.6635 25.8537L34.6904 25.5972L33.2731 25.4487ZM33.2463 25.7052L31.829 25.5567C31.8049 25.7865 31.7952 26.017 31.8 26.2478L33.2247 26.2182L34.6494 26.1885C34.6471 26.0773 34.6517 25.9658 34.6635 25.8537L33.2463 25.7052ZM33.2247 26.2182L31.8 26.2478L31.8054 26.5043L33.2301 26.4747L34.6547 26.445L34.6494 26.1885L33.2247 26.2182ZM33.2301 26.4747L31.8054 26.5043L31.8107 26.7608L33.2354 26.7312L34.6601 26.7015L34.6547 26.445L33.2301 26.4747ZM33.2354 26.7312L31.8107 26.7608C31.814 26.9207 31.8155 27.0807 31.8151 27.2406L33.2401 27.2442L34.6651 27.2478C34.6655 27.0657 34.6639 26.8836 34.6601 26.7015L33.2354 26.7312ZM33.2401 27.2442L31.8151 27.2406L31.8144 27.4971L33.2394 27.5007L34.6644 27.5043L34.6651 27.2478L33.2401 27.2442ZM33.2394 27.5007L31.8144 27.4971L31.8138 27.7536L33.2388 27.7572L34.6638 27.7608L34.6644 27.5043L33.2394 27.5007ZM33.2388 27.7572L31.8138 27.7536C31.8132 27.9633 31.8212 28.1729 31.8377 28.3824L33.2583 28.2705L34.6789 28.1585C34.6685 28.0256 34.6634 27.8931 34.6638 27.7608L33.2388 27.7572ZM33.2583 28.2705L31.8377 28.3824L31.858 28.6392L33.2786 28.5272L34.6992 28.4153L34.6789 28.1585L33.2583 28.2705ZM33.2786 28.5272L31.858 28.6392L31.8782 28.8959L33.2988 28.784L34.7194 28.672L34.6992 28.4153L33.2786 28.5272ZM33.2988 28.784L31.8782 28.8959C31.8822 28.9465 31.8799 28.9964 31.8707 29.0484L33.2741 29.2957L34.6775 29.5429C34.7282 29.2551 34.7424 28.9638 34.7194 28.672L33.2988 28.784ZM33.2741 29.2957L31.8707 29.0484L31.8258 29.3033L33.2292 29.5506L34.6326 29.7979L34.6775 29.5429L33.2741 29.2957ZM33.2292 29.5506L31.8258 29.3033L31.7809 29.5583L33.1843 29.8056L34.5877 30.0528L34.6326 29.7979L33.2292 29.5506ZM33.1843 29.8056L31.7809 29.5583C31.7453 29.7605 31.7168 29.9627 31.6958 30.1647L33.1131 30.3123L34.5305 30.46C34.5444 30.3262 34.5634 30.1905 34.5877 30.0528L33.1843 29.8056ZM33.1131 30.3123L31.6958 30.1647L31.6696 30.4165L33.0869 30.5642L34.5042 30.7118L34.5305 30.46L33.1131 30.3123ZM33.0869 30.5642L31.6696 30.4165L31.6433 30.6684L33.0606 30.816L34.478 30.9637L34.5042 30.7118L33.0869 30.5642ZM33.0606 30.816L31.6433 30.6684C31.6433 30.6689 31.6435 30.6664 31.6448 30.662C31.6461 30.6575 31.6475 30.6543 31.6482 30.6531L32.9217 31.2924L34.1952 31.9318C34.3482 31.627 34.4428 31.3015 34.478 30.9637L33.0606 30.816ZM32.9217 31.2924L31.6482 30.6531L31.5354 30.8776L32.8089 31.517L34.0825 32.1563L34.1952 31.9318L32.9217 31.2924ZM32.8089 31.517L31.5354 30.8776L31.4227 31.1022L32.6962 31.7415L33.9697 32.3809L34.0825 32.1563L32.8089 31.517ZM32.6962 31.7415L31.4227 31.1022C31.4017 31.144 31.3742 31.186 31.337 31.229L32.415 32.1609L33.4931 33.0928C33.6804 32.8761 33.8404 32.6384 33.9697 32.3809L32.6962 31.7415ZM32.415 32.1609L31.337 31.229L31.1685 31.4239L32.2466 32.3558L33.3247 33.2877L33.4931 33.0928L32.415 32.1609ZM32.2466 32.3558L31.1685 31.4239L31.0001 31.6187L32.0782 32.5506L33.1562 33.4825L33.3247 33.2877L32.2466 32.3558ZM32.0782 32.5506L31.0001 31.6187C31.0223 31.5931 31.0524 31.565 31.0902 31.5393C31.128 31.5136 31.1653 31.4959 31.1976 31.4846L31.6668 32.8302L32.1359 34.1758C32.5338 34.037 32.8809 33.8011 33.1562 33.4825L32.0782 32.5506ZM31.6668 32.8302L31.1976 31.4846L30.9547 31.5693L31.4238 32.9149L31.8929 34.2605L32.1359 34.1758L31.6668 32.8302ZM31.4238 32.9149L30.9547 31.5693L30.7117 31.6541L31.1808 32.9996L31.65 34.3452L31.8929 34.2605L31.4238 32.9149ZM31.1808 32.9996L30.7117 31.6541C30.6228 31.685 30.5329 31.7083 30.4413 31.7242L30.6852 33.1282L30.9291 34.5322C31.1743 34.4896 31.4149 34.4271 31.65 34.3452L31.1808 32.9996ZM30.6852 33.1282L30.4413 31.7242L30.1887 31.7681L30.4326 33.1721L30.6765 34.5761L30.9291 34.5322L30.6852 33.1282ZM30.4326 33.1721L30.1887 31.7681L29.9361 31.812L30.18 33.216L30.4239 34.62L30.6765 34.5761L30.4326 33.1721ZM30.18 33.216L29.9361 31.812C29.85 31.827 29.7636 31.8343 29.6758 31.8339L29.6706 33.2589L29.6654 34.6839C29.9199 34.6849 30.1731 34.6635 30.4239 34.62L30.18 33.216ZM29.6706 33.2589L29.6758 31.8339L29.4191 31.833L29.4138 33.258L29.4086 34.683L29.6654 34.6839L29.6706 33.2589ZM29.4138 33.258L29.4191 31.833L29.1623 31.8321L29.1571 33.2571L29.1519 34.6821L29.4086 34.683L29.4138 33.258ZM29.1571 33.2571L29.1623 31.8321C29.0225 31.8316 28.8826 31.8264 28.7427 31.8167L28.6437 33.2383L28.5447 34.6598C28.747 34.6739 28.9494 34.6813 29.1519 34.6821L29.1571 33.2571ZM28.6437 33.2383L28.7427 31.8167L28.4861 31.7988L28.3871 33.2204L28.2881 34.6419L28.5447 34.6598L28.6437 33.2383ZM28.3871 33.2204L28.4861 31.7988L28.2294 31.781L28.1304 33.2025L28.0314 34.6241L28.2881 34.6419L28.3871 33.2204ZM28.1304 33.2025L28.2294 31.781C28.0122 31.7658 27.7947 31.7613 27.5772 31.7674L27.6173 33.1919L27.6573 34.6163C27.7819 34.6128 27.9065 34.6154 28.0314 34.6241L28.1304 33.2025ZM27.6173 33.1919L27.5772 31.7674L27.3207 31.7746L27.3608 33.1991L27.4008 34.6235L27.6573 34.6163L27.6173 33.1919ZM27.3608 33.1991L27.3207 31.7746L27.0642 31.7818L27.1043 33.2063L27.1443 34.6307L27.4008 34.6235L27.3608 33.1991ZM27.1043 33.2063L27.0642 31.7818C26.8673 31.7874 26.6704 31.7983 26.4737 31.8146L26.5913 33.2347L26.7088 34.6549C26.8541 34.6428 26.9993 34.6348 27.1443 34.6307L27.1043 33.2063ZM26.5913 33.2347L26.4737 31.8146L26.2172 31.8358L26.3348 33.256L26.4523 34.6761L26.7088 34.6549L26.5913 33.2347ZM26.3348 33.256L26.2172 31.8358L25.9607 31.857L26.0783 33.2772L26.1958 34.6973L26.4523 34.6761L26.3348 33.256ZM26.0783 33.2772L25.9607 31.857C25.865 31.865 25.7698 31.8653 25.6742 31.8579L25.5653 33.2788L25.4564 34.6996C25.7028 34.7185 25.9495 34.7177 26.1958 34.6973L26.0783 33.2772ZM25.5653 33.2788L25.6742 31.8579L25.4177 31.8383L25.3088 33.2591L25.1999 34.6799L25.4564 34.6996L25.5653 33.2788ZM25.3088 33.2591L25.4177 31.8383L25.1612 31.8186L25.0523 33.2394L24.9434 34.6603L25.1999 34.6799L25.3088 33.2591ZM25.0523 33.2394L25.1612 31.8186C24.9374 31.8014 24.7132 31.7968 24.489 31.8047L24.5393 33.2288L24.5895 34.6529C24.7073 34.6488 24.8252 34.6512 24.9434 34.6603L25.0523 33.2394ZM24.5393 33.2288L24.489 31.8047L24.2325 31.8138L24.2828 33.2379L24.333 34.662L24.5895 34.6529L24.5393 33.2288ZM24.2828 33.2379L24.2325 31.8138L23.976 31.8228L24.0263 33.2469L24.0765 34.671L24.333 34.662L24.2828 33.2379ZM24.0263 33.2469L23.976 31.8228C23.795 31.8292 23.614 31.8375 23.4331 31.8477L23.5133 33.2704L23.5935 34.6932C23.7545 34.6841 23.9155 34.6767 24.0765 34.671L24.0263 33.2469ZM23.5133 33.2704L23.4331 31.8477L23.1766 31.8622L23.2568 33.2849L23.337 34.7076L23.5935 34.6932L23.5133 33.2704ZM23.2568 33.2849L23.1766 31.8622L22.9201 31.8766L23.0003 33.2994L23.0805 34.7221L23.337 34.7076L23.2568 33.2849ZM23.0003 33.2994L22.9201 31.8766C22.7732 31.8849 22.6264 31.8894 22.4796 31.8902L22.4873 33.3152L22.4949 34.7402C22.6902 34.7391 22.8854 34.7331 23.0805 34.7221L23.0003 33.2994ZM22.4873 33.3152L22.4796 31.8902L22.2231 31.8916L22.2308 33.3166L22.2384 34.7416L22.4949 34.7402L22.4873 33.3152ZM22.2308 33.3166L22.2231 31.8916L21.9666 31.893L21.9743 33.318L21.9819 34.7429L22.2384 34.7416L22.2308 33.3166ZM21.9743 33.318L21.9666 31.893C21.7945 31.8939 21.6223 31.895 21.4501 31.8964L21.4613 33.3213L21.4724 34.7463C21.6423 34.745 21.8121 34.7438 21.9819 34.7429L21.9743 33.318ZM21.4613 33.3213L21.4501 31.8964L21.1936 31.8984L21.2048 33.3234L21.2159 34.7483L21.4724 34.7463L21.4613 33.3213ZM21.2048 33.3234L21.1936 31.8984L20.9371 31.9004L20.9483 33.3254L20.9594 34.7503L21.2159 34.7483L21.2048 33.3234ZM20.9483 33.3254L20.9371 31.9004C20.7712 31.9017 20.6053 31.9021 20.4394 31.9016L20.4353 33.3266L20.4311 34.7516C20.6072 34.7521 20.7833 34.7517 20.9594 34.7503L20.9483 33.3254ZM20.4353 33.3266L20.4394 31.9016L20.1829 31.9009L20.1788 33.3259L20.1746 34.7509L20.4311 34.7516L20.4353 33.3266ZM20.1788 33.3259L20.1829 31.9009L19.9264 31.9001L19.9223 33.3251L19.9181 34.7501L20.1746 34.7509L20.1788 33.3259ZM19.9223 33.3251L19.9264 31.9001C19.8273 31.8999 19.7272 31.8921 19.6256 31.8765L19.4093 33.285L19.193 34.6935C19.4334 34.7304 19.6753 34.7494 19.9181 34.7501L19.9223 33.3251ZM19.4093 33.285L19.6256 31.8765L19.3691 31.8371L19.1528 33.2456L18.9365 34.6541L19.193 34.6935L19.4093 33.285ZM19.1528 33.2456L19.3691 31.8371L19.1126 31.7977L18.8963 33.2062L18.68 34.6147L18.9365 34.6541L19.1528 33.2456ZM18.8963 33.2062L19.1126 31.7977C18.8393 31.7558 18.5637 31.7437 18.2876 31.7623L18.3833 33.1841L18.479 34.6059C18.5448 34.6015 18.6112 34.6042 18.68 34.6147L18.8963 33.2062ZM18.3833 33.1841L18.2876 31.7623L18.0311 31.7796L18.1268 33.2014L18.2225 34.6232L18.479 34.6059L18.3833 33.1841ZM18.1268 33.2014L18.0311 31.7796L17.7746 31.7969L17.8703 33.2186L17.966 34.6404L18.2225 34.6232L18.1268 33.2014ZM17.8703 33.2186L17.7746 31.7969C17.6255 31.8069 17.4765 31.8135 17.3275 31.8166L17.3573 33.2413L17.387 34.666C17.5801 34.6619 17.7731 34.6534 17.966 34.6404L17.8703 33.2186ZM17.3573 33.2413L17.3275 31.8166L17.071 31.8219L17.1008 33.2466L17.1305 34.6713L17.387 34.666L17.3573 33.2413ZM17.1008 33.2466L17.071 31.8219L16.8145 31.8273L16.8443 33.252L16.874 34.6767L17.1305 34.6713L17.1008 33.2466ZM16.8443 33.252L16.8145 31.8273C16.6559 31.8306 16.4973 31.8318 16.3386 31.831L16.3313 33.256L16.3239 34.681C16.5073 34.6819 16.6907 34.6805 16.874 34.6767L16.8443 33.252ZM16.3313 33.256L16.3386 31.831L16.0821 31.8297L16.0748 33.2547L16.0674 34.6797L16.3239 34.681L16.3313 33.256ZM16.0748 33.2547L16.0821 31.8297L15.8256 31.8284L15.8183 33.2534L15.8109 34.6783L16.0674 34.6797L16.0748 33.2547ZM15.8183 33.2534L15.8256 31.8284C15.6291 31.8274 15.4325 31.8316 15.2361 31.8412L15.3053 33.2645L15.3745 34.6878C15.52 34.6808 15.6655 34.6776 15.8109 34.6783L15.8183 33.2534ZM15.3053 33.2645L15.2361 31.8412L14.9796 31.8537L15.0488 33.277L15.118 34.7003L15.3745 34.6878L15.3053 33.2645ZM15.0488 33.277L14.9796 31.8537L14.7231 31.8661L14.7923 33.2895L14.8615 34.7128L15.118 34.7003L15.0488 33.277ZM14.7923 33.2895L14.7231 31.8661C14.6216 31.8711 14.52 31.8686 14.4178 31.8586L14.2793 33.2769L14.1407 34.6951C14.3805 34.7186 14.621 34.7245 14.8615 34.7128L14.7923 33.2895ZM14.2793 33.2769L14.4178 31.8586L14.1613 31.8336L14.0228 33.2518L13.8842 34.6701L14.1407 34.6951L14.2793 33.2769ZM14.0228 33.2518L14.1613 31.8336L13.9048 31.8085L13.7663 33.2268L13.6277 34.645L13.8842 34.6701L14.0228 33.2518ZM13.7663 33.2268L13.9048 31.8085C13.6477 31.7834 13.3898 31.7818 13.1324 31.8037L13.2533 33.2236L13.3742 34.6434C13.4587 34.6362 13.5429 34.6367 13.6277 34.645L13.7663 33.2268ZM13.2533 33.2236L13.1324 31.8037L12.8759 31.8255L12.9968 33.2454L13.1177 34.6653L13.3742 34.6434L13.2533 33.2236ZM12.9968 33.2454L12.8759 31.8255L12.6194 31.8474L12.7403 33.2672L12.8612 34.6871L13.1177 34.6653L12.9968 33.2454ZM12.7403 33.2672L12.6194 31.8474C12.4988 31.8577 12.3786 31.8614 12.2585 31.8588L12.2273 33.2835L12.196 34.7081C12.418 34.713 12.6398 34.706 12.8612 34.6871L12.7403 33.2672ZM12.2273 33.2835L12.2585 31.8588L12.002 31.8532L11.9708 33.2778L11.9395 34.7025L12.196 34.7081L12.2273 33.2835ZM11.9708 33.2778L12.002 31.8532L11.7455 31.8475L11.7143 33.2722L11.683 34.6969L11.9395 34.7025L11.9708 33.2778ZM11.7143 33.2722L11.7455 31.8475C11.5774 31.8439 11.4093 31.8397 11.2412 31.8349L11.2013 33.2594L11.1614 34.6838C11.3353 34.6887 11.5091 34.693 11.683 34.6969L11.7143 33.2722ZM11.2013 33.2594L11.2412 31.8349L10.9847 31.8278L10.9448 33.2522L10.9049 34.6766L11.1614 34.6838L11.2013 33.2594ZM10.9448 33.2522L10.9847 31.8278L10.7282 31.8206L10.6883 33.245L10.6484 34.6695L10.9049 34.6766L10.9448 33.2522ZM10.6883 33.245L10.7282 31.8206C10.5273 31.815 10.3265 31.8156 10.1256 31.8226L10.1751 33.2468L10.2247 34.6709C10.366 34.666 10.5072 34.6655 10.6484 34.6695L10.6883 33.245ZM10.1751 33.2468L10.1256 31.8226L9.86892 31.8316L9.91847 33.2557L9.96802 34.6798L10.2247 34.6709L10.1751 33.2468ZM9.91847 33.2557L9.86892 31.8316L9.61226 31.8405L9.66181 33.2646L9.71136 34.6888L9.96802 34.6798L9.91847 33.2557ZM9.66181 33.2646L9.61226 31.8405C9.50755 31.8441 9.40306 31.8405 9.2983 31.8295L9.14927 33.2466L9.00025 34.6638C9.23666 34.6887 9.47386 34.697 9.71136 34.6888L9.66181 33.2646ZM9.14927 33.2466L9.2983 31.8295L9.04242 31.8026L8.89339 33.2197L8.74436 34.6369L9.00025 34.6638L9.14927 33.2466ZM8.89339 33.2197L9.04242 31.8026L8.78654 31.7756L8.63751 33.1928L8.48848 34.61L8.74436 34.6369L8.89339 33.2197ZM8.63751 33.1928L8.78654 31.7756C8.57009 31.7529 8.35317 31.7407 8.13594 31.7391L8.1257 33.1641L8.11545 34.589C8.23947 34.5899 8.36376 34.5969 8.48848 34.61L8.63751 33.1928ZM8.1257 33.1641L8.13594 31.7391L7.88 31.7373L7.86976 33.1622L7.85952 34.5872L8.11545 34.589L8.1257 33.1641ZM7.86976 33.1622L7.88 31.7373L7.62407 31.7354L7.61382 33.1604L7.60358 34.5854L7.85952 34.5872L7.86976 33.1622ZM7.61382 33.1604L7.62407 31.7354C7.60648 31.7353 7.59489 31.7329 7.58299 31.7288L7.1184 33.076L6.65382 34.4231C6.96123 34.5291 7.27992 34.583 7.60358 34.5854L7.61382 33.1604ZM7.1184 33.076L7.58299 31.7288L7.3435 31.6462L6.87892 32.9934L6.41434 34.3405L6.65382 34.4231L7.1184 33.076ZM6.87892 32.9934L7.3435 31.6462L7.10402 31.5637L6.63943 32.9108L6.17485 34.2579L6.41434 34.3405L6.87892 32.9934ZM6.63943 32.9108L7.10402 31.5637C7.10334 31.5634 7.10547 31.5641 7.10907 31.5662C7.11268 31.5682 7.11501 31.57 7.11551 31.5704L6.20598 32.6674L5.29645 33.7644C5.55854 33.9817 5.85393 34.1473 6.17485 34.2579L6.63943 32.9108ZM6.20598 32.6674L7.11551 31.5704L6.92155 31.4096L6.01201 32.5066L5.10248 33.6035L5.29645 33.7644L6.20598 32.6674ZM6.01201 32.5066L6.92155 31.4096L6.72758 31.2488L5.81805 32.3457L4.90851 33.4427L5.10248 33.6035L6.01201 32.5066ZM5.81805 32.3457L6.72758 31.2488C6.69393 31.2208 6.6652 31.19 6.63939 31.1536L5.47783 31.9791L4.31627 32.8046C4.48546 33.0427 4.68354 33.2562 4.90851 33.4427L5.81805 32.3457ZM5.47783 31.9791L6.63939 31.1536L6.49314 30.9479L5.33158 31.7733L4.17002 32.5988L4.31627 32.8046L5.47783 31.9791ZM5.33158 31.7733L6.49314 30.9479L6.34689 30.7421L5.18533 31.5675L4.02377 32.393L4.17002 32.5988L5.33158 31.7733ZM5.18533 31.5675L6.34689 30.7421C6.35101 30.7479 6.35601 30.7562 6.36053 30.7662C6.36504 30.7762 6.36746 30.7844 6.36853 30.7889L4.98102 31.1137L3.59352 31.4384C3.67396 31.7821 3.81821 32.1037 4.02377 32.393L5.18533 31.5675ZM4.98102 31.1137L6.36853 30.7889L6.31047 30.5409L4.92297 30.8657L3.53547 31.1904L3.59352 31.4384L4.98102 31.1137ZM4.92297 30.8657L6.31047 30.5409L6.25242 30.2929L4.86492 30.6176L3.47742 30.9424L3.53547 31.1904L4.92297 30.8657ZM4.86492 30.6176L6.25242 30.2929C6.23924 30.2365 6.23266 30.1794 6.23291 30.1192L4.80792 30.1133L3.38294 30.1075C3.38178 30.3889 3.4132 30.668 3.47742 30.9424L4.86492 30.6176ZM4.80792 30.1133L6.23291 30.1192L6.23397 29.863L4.80898 29.8571L3.38399 29.8512L3.38294 30.1075L4.80792 30.1133ZM4.80898 29.8571L6.23397 29.863L6.23503 29.6067L4.81004 29.6008L3.38505 29.5949L3.38399 29.8512L4.80898 29.8571ZM4.81004 29.6008L6.23503 29.6067C6.23595 29.3822 6.22422 29.1581 6.19996 28.9345L4.78328 29.0883L3.3666 29.2421C3.37942 29.3602 3.38553 29.4777 3.38505 29.5949L4.81004 29.6008ZM4.78328 29.0883L6.19996 28.9345L6.17214 28.6783L4.75546 28.8321L3.33879 28.9859L3.3666 29.2421L4.78328 29.0883ZM4.75546 28.8321L6.17214 28.6783L6.14433 28.4221L4.72765 28.5759L3.31097 28.7296L3.33879 28.9859L4.75546 28.8321ZM4.72765 28.5759L6.14433 28.4221C6.13014 28.2914 6.12159 28.1609 6.11862 28.0306L4.69399 28.063L3.26936 28.0955C3.27418 28.3073 3.28807 28.5187 3.31097 28.7296L4.72765 28.5759ZM4.69399 28.063L6.11862 28.0306L6.11277 27.774L4.68814 27.8064L3.26351 27.8389L3.26936 28.0955L4.69399 28.063ZM4.68814 27.8064L6.11277 27.774L6.10692 27.5174L4.68229 27.5499L3.25766 27.5823L3.26351 27.8389L4.68814 27.8064ZM4.68229 27.5499L6.10692 27.5174C6.10456 27.4135 6.10949 27.3092 6.12191 27.2041L4.70677 27.0368L3.29163 26.8695C3.26362 27.1063 3.25223 27.3441 3.25766 27.5823L4.68229 27.5499ZM4.70677 27.0368L6.12191 27.2041L6.15224 26.9476L4.73709 26.7803L3.32195 26.613L3.29163 26.8695L4.70677 27.0368ZM4.73709 26.7803L6.15224 26.9476L6.18256 26.6911L4.76742 26.5238L3.35227 26.3565L3.32195 26.613L4.73709 26.7803ZM4.76742 26.5238L6.18256 26.6911C6.21217 26.4406 6.2206 26.1891 6.20761 25.9373L4.7845 26.0108L3.3614 26.0842C3.36605 26.1744 3.3631 26.2649 3.35227 26.3565L4.76742 26.5238ZM4.7845 26.0108L6.20761 25.9373L6.19437 25.6808L4.77126 25.7543L3.34816 25.8277L3.3614 26.0842L4.7845 26.0108ZM4.77126 25.7543L6.19437 25.6808L6.18113 25.4243L4.75802 25.4978L3.33492 25.5712L3.34816 25.8277L4.77126 25.7543ZM4.75802 25.4978L6.18113 25.4243C6.17236 25.2544 6.1638 25.0846 6.15543 24.9147L4.73216 24.9848L3.30888 25.0548C3.31735 25.227 3.32603 25.3991 3.33492 25.5712L4.75802 25.4978ZM4.73216 24.9848L6.15543 24.9147L6.1428 24.6582L4.71953 24.7283L3.29625 24.7983L3.30888 25.0548L4.73216 24.9848ZM4.71953 24.7283L6.1428 24.6582L6.13018 24.4017L4.7069 24.4718L3.28362 24.5418L3.29625 24.7983L4.71953 24.7283ZM4.7069 24.4718L6.13018 24.4017C6.12285 24.2529 6.11901 24.1041 6.11866 23.9554L4.69366 23.9588L3.26867 23.9621C3.26913 24.1554 3.27411 24.3486 3.28362 24.5418L4.7069 24.4718ZM4.69366 23.9588L6.11866 23.9554L6.11805 23.6989L4.69306 23.7023L3.26806 23.7056L3.26867 23.9621L4.69366 23.9588ZM4.69306 23.7023L6.11805 23.6989L6.11744 23.4424L4.69245 23.4458L3.26745 23.4491L3.26806 23.7056L4.69306 23.7023ZM4.69245 23.4458L6.11744 23.4424C6.11707 23.2856 6.11905 23.1289 6.12338 22.9721L4.69893 22.9328L3.27447 22.8934C3.26935 23.0786 3.26701 23.2639 3.26745 23.4491L4.69245 23.4458ZM4.69893 22.9328L6.12338 22.9721L6.13047 22.7156L4.70601 22.6763L3.28156 22.6369L3.27447 22.8934L4.69893 22.9328ZM4.70601 22.6763L6.13047 22.7156L6.13756 22.4591L4.7131 22.4198L3.28865 22.3804L3.28156 22.6369L4.70601 22.6763ZM4.7131 22.4198L6.13756 22.4591C6.14209 22.295 6.14782 22.1309 6.15475 21.9669L4.73102 21.9068L3.30729 21.8467C3.29978 22.0246 3.29356 22.2025 3.28865 22.3804L4.7131 22.4198ZM4.73102 21.9068L6.15475 21.9669L6.16558 21.7104L4.74184 21.6503L3.31811 21.5902L3.30729 21.8467L4.73102 21.9068ZM4.74184 21.6503L6.16558 21.7104L6.1764 21.4538L4.75267 21.3938L3.32894 21.3337L3.31811 21.5902L4.74184 21.6503ZM4.75267 21.3938L6.1764 21.4538C6.18373 21.2803 6.19059 21.1068 6.19699 20.9333L4.77296 20.8808L3.34893 20.8282C3.34271 20.9967 3.33605 21.1652 3.32894 21.3337L4.75267 21.3938ZM4.77296 20.8808L6.19699 20.9333L6.20646 20.6768L4.78243 20.6243L3.3584 20.5717L3.34893 20.8282L4.77296 20.8808ZM4.78243 20.6243L6.20646 20.6768L6.21593 20.4203L4.7919 20.3678L3.36787 20.3152L3.3584 20.5717L4.78243 20.6243ZM4.7919 20.3678L6.21593 20.4203C6.22384 20.2059 6.22195 19.9915 6.21027 19.7772L4.78738 19.8548L3.36449 19.9323C3.37146 20.06 3.37258 20.1876 3.36787 20.3152L4.7919 20.3678ZM4.78738 19.8548L6.21027 19.7772L6.19628 19.5207L4.77339 19.5983L3.35051 19.6758L3.36449 19.9323L4.78738 19.8548ZM4.77339 19.5983L6.19628 19.5207L6.18229 19.2642L4.75941 19.3418L3.33652 19.4193L3.35051 19.6758L4.77339 19.5983ZM4.75941 19.3418L6.18229 19.2642C6.17549 19.1394 6.17477 19.0147 6.18014 18.89L4.75646 18.8288L3.33278 18.7675C3.32343 18.9848 3.32468 19.2021 3.33652 19.4193L4.75941 19.3418ZM4.75646 18.8288L6.18014 18.89L6.19118 18.6335L4.76749 18.5723L3.34381 18.511L3.33278 18.7675L4.75646 18.8288ZM4.76749 18.5723L6.19118 18.6335L6.20221 18.377L4.77853 18.3158L3.35485 18.2545L3.34381 18.511L4.76749 18.5723ZM4.77853 18.3158L6.20221 18.377C6.21215 18.1461 6.20751 17.9152 6.18836 17.6848L4.76826 17.8028L3.34815 17.9208C3.35742 18.0323 3.35963 18.1434 3.35485 18.2545L4.77853 18.3158ZM4.76826 17.8028L6.18836 17.6848L6.16705 17.4283L4.74694 17.5463L3.32684 17.6643L3.34815 17.9208L4.76826 17.8028ZM4.74694 17.5463L6.16705 17.4283L6.14574 17.1718L4.72563 17.2898L3.30553 17.4078L3.32684 17.6643L4.74694 17.5463ZM4.72563 17.2898L6.14574 17.1718C6.13403 17.0308 6.12683 16.8899 6.12412 16.749L4.69938 16.7764L3.27464 16.8038C3.27852 17.0054 3.28882 17.2067 3.30553 17.4078L4.72563 17.2898ZM4.69938 16.7764L6.12412 16.749L6.11918 16.4922L4.69444 16.5196L3.2697 16.547L3.27464 16.8038L4.69938 16.7764ZM4.69444 16.5196L6.11918 16.4922L6.11424 16.2354L4.6895 16.2628L3.26476 16.2902L3.2697 16.547L4.69444 16.5196ZM4.6895 16.2628L6.11424 16.2354C6.11339 16.1914 6.11818 16.1497 6.12901 16.1069L4.74764 15.757L3.36628 15.407C3.29299 15.6963 3.25902 15.9918 3.26476 16.2902L4.6895 16.2628ZM4.74764 15.757L6.12901 16.1069L6.19209 15.8579L4.81073 15.5079L3.42936 15.158L3.36628 15.407L4.74764 15.757ZM4.81073 15.5079L6.19209 15.8579L6.25518 15.6089L4.87381 15.2589L3.49244 14.909L3.42936 15.158L4.81073 15.5079ZM4.87381 15.2589L6.25518 15.6089C6.27859 15.5164 6.30778 15.432 6.34186 15.3542L5.03679 14.7821L3.73171 14.2099C3.6326 14.4359 3.55314 14.6694 3.49244 14.909L4.87381 15.2589ZM5.03679 14.7821L6.34186 15.3542L6.44176 15.1264L5.13668 14.5542L3.83161 13.982L3.73171 14.2099L5.03679 14.7821ZM5.13668 14.5542L6.44176 15.1264L6.54165 14.8986L5.23658 14.3264L3.9315 13.7542L3.83161 13.982L5.13668 14.5542ZM5.23658 14.3264L6.54165 14.8986C6.54932 14.8811 6.55894 14.8654 6.57425 14.8479L5.50175 13.9096L4.42926 12.9713C4.22419 13.2057 4.05702 13.4679 3.9315 13.7542L5.23658 14.3264ZM5.50175 13.9096L6.57425 14.8479L6.73953 14.659L5.66704 13.7207L4.59454 12.7824L4.42926 12.9713L5.50175 13.9096ZM5.66704 13.7207L6.73953 14.659L6.90481 14.47L5.83232 13.5318L4.75982 12.5935L4.59454 12.7824L5.66704 13.7207ZM5.83232 13.5318L6.90481 14.47C6.9753 14.3895 7.05261 14.3114 7.13737 14.2358L6.18927 13.172L5.24118 12.1082C5.07037 12.2604 4.90971 12.4221 4.75982 12.5935L5.83232 13.5318ZM6.18927 13.172L7.13737 14.2358L7.32904 14.065L6.38095 13.0012L5.43285 11.9374L5.24118 12.1082L6.18927 13.172ZM6.38095 13.0012L7.32904 14.065L7.52072 13.8942L6.57262 12.8304L5.62453 11.7665L5.43285 11.9374L6.38095 13.0012ZM6.57262 12.8304L7.52072 13.8942C7.60772 13.8167 7.6988 13.7444 7.79417 13.6774L6.97434 12.5118L6.1545 11.3463C5.96982 11.4762 5.79309 11.6163 5.62453 11.7665L6.57262 12.8304ZM6.97434 12.5118L7.79417 13.6774L8.00421 13.5296L7.18438 12.3641L6.36454 11.1985L6.1545 11.3463L6.97434 12.5118ZM7.18438 12.3641L8.00421 13.5296L8.21425 13.3819L7.39442 12.2163L6.57458 11.0508L6.36454 11.1985L7.18438 12.3641ZM7.39442 12.2163L8.21425 13.3819C8.4135 13.2417 8.60126 13.087 8.77712 12.9183L7.79054 11.89L6.80396 10.8618C6.73171 10.9311 6.65538 10.9939 6.57458 11.0508L7.39442 12.2163ZM7.79054 11.89L8.77712 12.9183L8.9632 12.7397L7.97662 11.7115L6.99005 10.6833L6.80396 10.8618L7.79054 11.89ZM7.97662 11.7115L8.9632 12.7397L9.14929 12.5612L8.16271 11.533L7.17613 10.5047L6.99005 10.6833L7.97662 11.7115ZM8.16271 11.533L9.14929 12.5612C9.21132 12.5017 9.27749 12.4488 9.34856 12.4019L8.5635 11.2127L7.77844 10.0234C7.56323 10.1655 7.3622 10.3262 7.17613 10.5047L8.16271 11.533ZM8.5635 11.2127L9.34856 12.4019L9.56327 12.2602L8.77821 11.0709L7.99315 9.8817L7.77844 10.0234L8.5635 11.2127ZM8.77821 11.0709L9.56327 12.2602L9.77798 12.1185L8.99292 10.9292L8.20786 9.73996L7.99315 9.8817L8.77821 11.0709ZM8.99292 10.9292L9.77798 12.1185C9.98422 11.9823 10.1787 11.8305 10.3607 11.6634L9.39724 10.6135L8.43374 9.56356C8.36301 9.62847 8.2879 9.68712 8.20786 9.73996L8.99292 10.9292ZM9.39724 10.6135L10.3607 11.6634L10.5504 11.4894L9.58685 10.4395L8.62335 9.38955L8.43374 9.56356L9.39724 10.6135ZM9.58685 10.4395L10.5504 11.4894L10.74 11.3153L9.77646 10.2654L8.81296 9.21555L8.62335 9.38955L9.58685 10.4395ZM9.77646 10.2654L10.74 11.3153C10.8112 11.25 10.8867 11.1909 10.9672 11.1377L10.1806 9.94944L9.39397 8.76121C9.18843 8.89728 8.99458 9.04887 8.81296 9.21555L9.77646 10.2654ZM10.1806 9.94944L10.9672 11.1377L11.1817 10.9957L10.3951 9.80744L9.60848 8.61921L9.39397 8.76121L10.1806 9.94944ZM10.3951 9.80744L11.1817 10.9957L11.3962 10.8537L10.6096 9.66543L9.82298 8.47721L9.60848 8.61921L10.3951 9.80744ZM10.6096 9.66543L11.3962 10.8537C11.5988 10.7196 11.7904 10.5708 11.9706 10.4079L11.0149 9.35093L10.0591 8.29395C9.98497 8.36102 9.90641 8.42198 9.82298 8.47721L10.6096 9.66543ZM11.0149 9.35093L11.9706 10.4079L12.1614 10.2354L11.2057 9.17842L10.2499 8.12144L10.0591 8.29395L11.0149 9.35093ZM11.2057 9.17842L12.1614 10.2354L12.3522 10.0629L11.3964 9.00592L10.4407 7.94894L10.2499 8.12144L11.2057 9.17842ZM11.3964 9.00592L12.3522 10.0629C12.4183 10.0031 12.489 9.9495 12.565 9.90159L11.8053 8.69599L11.0456 7.4904C10.8308 7.62572 10.6289 7.77872 10.4407 7.94894L11.3964 9.00592ZM11.8053 8.69599L12.565 9.90159L12.7831 9.76417L12.0233 8.55858L11.2636 7.35298L11.0456 7.4904L11.8053 8.69599ZM12.0233 8.55858L12.7831 9.76417L13.0011 9.62675L12.2414 8.42116L11.4817 7.21557L11.2636 7.35298L12.0233 8.55858ZM12.2414 8.42116L13.0011 9.62675C13.2243 9.48614 13.4323 9.32502 13.6243 9.14416L12.647 8.10704L11.6698 7.06993C11.6117 7.12466 11.5493 7.17294 11.4817 7.21557L12.2414 8.42116ZM12.647 8.10704L13.6243 9.14416L13.8118 8.96746L12.8345 7.93035L11.8573 6.89323L11.6698 7.06993L12.647 8.10704ZM12.8345 7.93035L13.8118 8.96746L13.9993 8.79076L13.022 7.75365L12.0448 6.71654L11.8573 6.89323L12.8345 7.93035ZM13.022 7.75365L13.9993 8.79076C14.042 8.75051 14.0887 8.71578 14.1417 8.68554L13.4345 7.44838L12.7274 6.21121C12.4803 6.35241 12.2521 6.5212 12.0448 6.71654L13.022 7.75365ZM13.4345 7.44838L14.1417 8.68554L14.3666 8.55697L13.6595 7.3198L12.9523 6.08264L12.7274 6.21121L13.4345 7.44838ZM13.6595 7.3198L14.3666 8.55697L14.5915 8.42839L13.8844 7.19123L13.1773 5.95406L12.9523 6.08264L13.6595 7.3198ZM13.8844 7.19123L14.5915 8.42839C14.8065 8.30551 15.0107 8.16638 15.2034 8.0111L14.3091 6.90165L13.4148 5.79221C13.3411 5.85159 13.2622 5.90551 13.1773 5.95406L13.8844 7.19123ZM14.3091 6.90165L15.2034 8.0111L15.4031 7.85011L14.5088 6.74066L13.6145 5.63121L13.4148 5.79221L14.3091 6.90165ZM14.5088 6.74066L15.4031 7.85011L15.6028 7.68911L14.7085 6.57966L13.8143 5.47021L13.6145 5.63121L14.5088 6.74066ZM14.7085 6.57966L15.6028 7.68911C15.7579 7.56413 15.9092 7.43457 16.0569 7.30044L15.0987 6.24569L14.1405 5.19093C14.0343 5.28745 13.9255 5.38053 13.8143 5.47021L14.7085 6.57966ZM15.0987 6.24569L16.0569 7.30044L16.2473 7.12747L15.2891 6.07271L14.3309 5.01796L14.1405 5.19093L15.0987 6.24569ZM15.2891 6.07271L16.2473 7.12747L16.4377 6.95449L15.4795 5.89973L14.5213 4.84498L14.3309 5.01796L15.2891 6.07271ZM15.4795 5.89973L16.4377 6.95449C16.5041 6.89417 16.575 6.84007 16.6512 6.7917L15.8875 5.58865L15.1237 4.38561C14.9099 4.52137 14.7088 4.67466 14.5213 4.84498L15.4795 5.89973ZM15.8875 5.58865L16.6512 6.7917L16.8687 6.6536L16.105 5.45055L15.3412 4.24751L15.1237 4.38561L15.8875 5.58865ZM16.105 5.45055L16.8687 6.6536L17.0863 6.51549L16.3225 5.31245L15.5588 4.1094L15.3412 4.24751L16.105 5.45055ZM16.3225 5.31245L17.0863 6.51549C17.2721 6.39755 17.4513 6.27051 17.6239 6.13445L16.7415 5.01551L15.8591 3.89658C15.7631 3.97229 15.663 4.04322 15.5588 4.1094L16.3225 5.31245ZM16.7415 5.01551L17.6239 6.13445L17.8253 5.97562L16.9429 4.85668L16.0605 3.73774L15.8591 3.89658L16.7415 5.01551ZM16.9429 4.85668L17.8253 5.97562L18.0267 5.81679L17.1443 4.69785L16.2619 3.57891L16.0605 3.73774L16.9429 4.85668ZM17.1443 4.69785L18.0267 5.81679C18.1777 5.69768 18.3261 5.57519 18.4717 5.44932L17.54 4.3711L16.6083 3.29288C16.4949 3.3909 16.3794 3.48624 16.2619 3.57891L17.1443 4.69785ZM17.54 4.3711L18.4717 5.44932L18.6661 5.2814L17.7344 4.20318L16.8027 3.12496L16.6083 3.29288L17.54 4.3711ZM17.7344 4.20318L18.6661 5.2814L18.8604 5.11349L17.9287 4.03526L16.997 2.95704L16.8027 3.12496L17.7344 4.20318ZM17.9287 4.03526L18.8604 5.11349C18.8413 5.12997 18.813 5.15045 18.7754 5.16937C18.7375 5.18843 18.698 5.202 18.6601 5.21006L18.364 3.81617L18.0679 2.42227C17.6619 2.5085 17.3003 2.69491 16.997 2.95704L17.9287 4.03526ZM18.364 3.81617L18.6601 5.21006L18.901 5.15888L18.6049 3.76498L18.3088 2.37109L18.0679 2.42227L18.364 3.81617ZM18.6049 3.76498L18.901 5.15888L19.1419 5.1077L18.8458 3.7138L18.5497 2.3199L18.3088 2.37109L18.6049 3.76498ZM18.8458 3.7138L19.1419 5.1077C19.1069 5.11514 19.0656 5.11925 19.0209 5.1172C18.9762 5.11515 18.9371 5.10739 18.906 5.09783L19.3246 3.73571L19.7433 2.3736C19.3555 2.25442 18.9499 2.23489 18.5497 2.3199L18.8458 3.7138ZM19.3246 3.73571L18.906 5.09783L19.1438 5.17092L19.5624 3.80881L19.9811 2.44669L19.7433 2.3736L19.3246 3.73571ZM19.5624 3.80881L19.1438 5.17092L19.3816 5.24402L19.8002 3.8819L20.2189 2.51979L19.9811 2.44669L19.5624 3.80881ZM19.8002 3.8819L19.3816 5.24402C19.3738 5.24163 19.3655 5.23821 19.3579 5.23412C19.3503 5.23007 19.3465 5.22706 19.3466 5.22718L20.2383 4.11565L21.13 3.00411C20.8606 2.78801 20.555 2.6231 20.2189 2.51979L19.8002 3.8819ZM20.2383 4.11565L19.3466 5.22718L19.5469 5.38783L20.4386 4.27629L21.3303 3.16476L21.13 3.00411L20.2383 4.11565ZM20.4386 4.27629L19.5469 5.38783L19.7471 5.54848L20.6388 4.43694L21.5305 3.3254L21.3303 3.16476L20.4386 4.27629ZM20.6388 4.43694L19.7471 5.54848C19.8718 5.64844 19.9951 5.74988 20.1173 5.85279L21.0354 4.76298L21.9535 3.67317C21.8139 3.55556 21.6729 3.43964 21.5305 3.3254L20.6388 4.43694ZM21.0354 4.76298L20.1173 5.85279L20.3136 6.01817L21.2317 4.92837L22.1498 3.83856L21.9535 3.67317L21.0354 4.76298ZM21.2317 4.92837L20.3136 6.01817L20.5099 6.18356L21.428 5.09375L22.3462 4.00394L22.1498 3.83856L21.2317 4.92837ZM21.428 5.09375L20.5099 6.18356C20.6682 6.31693 20.8314 6.44415 20.9993 6.56519L21.8326 5.40924L22.6659 4.25328C22.5562 4.17419 22.4496 4.0911 22.3462 4.00394L21.428 5.09375ZM21.8326 5.40924L20.9993 6.56519L21.2075 6.71528L22.0408 5.55933L22.8741 4.40337L22.6659 4.25328L21.8326 5.40924ZM22.0408 5.55933L21.2075 6.71528L21.4157 6.86538L22.249 5.70942L23.0823 4.55347L22.8741 4.40337L22.0408 5.55933ZM22.249 5.70942L21.4157 6.86538C21.5653 6.97326 21.7166 7.07907 21.8693 7.18282L22.6698 6.00391L23.4703 4.825C23.3396 4.73622 23.2102 4.64572 23.0823 4.55347L22.249 5.70942ZM22.6698 6.00391L21.8693 7.18282L22.082 7.32721L22.8825 6.1483L23.683 4.96939L23.4703 4.825L22.6698 6.00391ZM22.8825 6.1483L22.082 7.32721L22.2946 7.4716L23.0951 6.29269L23.8956 5.11378L23.683 4.96939L22.8825 6.1483ZM23.0951 6.29269L22.2946 7.4716C22.3756 7.52658 22.4519 7.58745 22.5239 7.65465L23.4961 6.61278L24.4683 5.57091C24.2892 5.40384 24.0982 5.25131 23.8956 5.11378L23.0951 6.29269ZM23.4961 6.61278L22.5239 7.65465L22.7122 7.83035L23.6844 6.78848L24.6565 5.74661L24.4683 5.57091L23.4961 6.61278ZM23.6844 6.78848L22.7122 7.83035L22.9005 8.00605L23.8727 6.96418L24.8448 5.92231L24.6565 5.74661L23.6844 6.78848ZM23.8727 6.96418L22.9005 8.00605C23.0903 8.18314 23.2952 8.34161 23.5142 8.48082L24.2784 7.27805L25.0426 6.07529C24.9717 6.03026 24.9061 5.97949 24.8448 5.92231L23.8727 6.96418ZM24.2784 7.27805L23.5142 8.48082L23.7317 8.61899L24.4959 7.41623L25.2601 6.21347L25.0426 6.07529L24.2784 7.27805ZM24.4959 7.41623L23.7317 8.61899L23.9492 8.75717L24.7134 7.55441L25.4776 6.35165L25.2601 6.21347L24.4959 7.41623ZM24.7134 7.55441L23.9492 8.75717C23.997 8.78756 24.0406 8.8231 24.0815 8.86579L25.1103 7.87974L26.139 6.8937C25.9407 6.68684 25.7197 6.5055 25.4776 6.35165L24.7134 7.55441ZM25.1103 7.87974L24.0815 8.86579L24.2609 9.05294L25.2896 8.0669L26.3184 7.08086L26.139 6.8937L25.1103 7.87974ZM25.2896 8.0669L24.2609 9.05294L24.4403 9.2401L25.469 8.25406L26.4978 7.26801L26.3184 7.08086L25.2896 8.0669ZM25.469 8.25406L24.4403 9.2401C24.629 9.43704 24.837 9.61274 25.0632 9.76569L25.8614 8.5852L26.6595 7.40471C26.6018 7.36567 26.5482 7.32061 26.4978 7.26801L25.469 8.25406ZM25.8614 8.5852L25.0632 9.76569L25.2762 9.90968L26.0743 8.72919L26.8725 7.5487L26.6595 7.40471L25.8614 8.5852ZM26.0743 8.72919L25.2762 9.90968L25.4891 10.0537L26.2873 8.87318L27.0855 7.69269L26.8725 7.5487L26.0743 8.72919ZM26.2873 8.87318L25.4891 10.0537C25.6412 10.1565 25.7947 10.2574 25.9496 10.3565L26.7173 9.15594L27.4849 7.95538C27.3505 7.86942 27.2173 7.78185 27.0855 7.69269L26.2873 8.87318ZM26.7173 9.15594L25.9496 10.3565L26.1666 10.4953L26.9343 9.2947L27.7019 8.09415L27.4849 7.95538L26.7173 9.15594ZM26.9343 9.2947L26.1666 10.4953L26.3836 10.634L27.1513 9.43347L27.919 8.23292L27.7019 8.09415L26.9343 9.2947ZM27.1513 9.43347L26.3836 10.634C26.4332 10.6657 26.4784 10.7027 26.5209 10.7468L27.548 9.75905L28.5751 8.7713C28.378 8.56636 28.1588 8.38627 27.919 8.23292L27.1513 9.43347ZM27.548 9.75905L26.5209 10.7468L26.7005 10.9336L27.7276 9.94586L28.7547 8.95811L28.5751 8.7713L27.548 9.75905ZM27.7276 9.94586L26.7005 10.9336L26.8802 11.1204L27.9073 10.1327L28.9344 9.14493L28.7547 8.95811L27.7276 9.94586ZM27.9073 10.1327L26.8802 11.1204C27.0429 11.2897 27.2159 11.4475 27.3992 11.5936L28.2875 10.4794L29.1758 9.36519C29.0916 9.29804 29.0112 9.22478 28.9344 9.14493L27.9073 10.1327ZM28.2875 10.4794L27.3992 11.5936L27.5997 11.7535L28.4881 10.6393L29.3764 9.5251L29.1758 9.36519L28.2875 10.4794ZM28.4881 10.6393L27.5997 11.7535L27.8003 11.9134L28.6886 10.7992L29.577 9.68502L29.3764 9.5251L28.4881 10.6393ZM28.6886 10.7992L27.8003 11.9134C27.9433 12.0275 28.0877 12.1397 28.2335 12.2501L29.0937 11.114L29.9539 9.9779C29.8271 9.88185 29.7014 9.78422 29.577 9.68502L28.6886 10.7992ZM29.0937 11.114L28.2335 12.2501L28.4381 12.4049L29.2982 11.2688L30.1584 10.1328L29.9539 9.9779L29.0937 11.114ZM29.2982 11.2688L28.4381 12.4049L28.6426 12.5598L29.5028 11.4237L30.3629 10.2876L30.1584 10.1328L29.2982 11.2688ZM29.5028 11.4237L28.6426 12.5598C28.7967 12.6764 28.9535 12.7895 29.1131 12.899L29.9192 11.7239L30.7253 10.5488C30.6023 10.4644 30.4815 10.3774 30.3629 10.2876L29.5028 11.4237ZM29.9192 11.7239L29.1131 12.899L29.325 13.0443L30.1311 11.8692L30.9372 10.6942L30.7253 10.5488L29.9192 11.7239ZM30.1311 11.8692L29.325 13.0443L29.5369 13.1897L30.343 12.0146L31.149 10.8395L30.9372 10.6942L30.1311 11.8692ZM30.343 12.0146L29.5369 13.1897C29.6476 13.2657 29.7551 13.3457 29.8593 13.4299L30.7545 12.3211L31.6496 11.2124C31.4877 11.0816 31.3208 10.9573 31.149 10.8395L30.343 12.0146ZM30.7545 12.3211L29.8593 13.4299L30.059 13.5911L30.9541 12.4823L31.8493 11.3735L31.6496 11.2124L30.7545 12.3211ZM30.9541 12.4823L30.059 13.5911L30.2586 13.7522L31.1538 12.6435L32.0489 11.5347L31.8493 11.3735L30.9541 12.4823ZM31.1538 12.6435L30.2586 13.7522C30.3789 13.8493 30.4972 13.9483 30.6136 14.0492L31.5468 12.9722L32.4799 11.8952C32.3385 11.7727 32.1948 11.6525 32.0489 11.5347L31.1538 12.6435ZM31.5468 12.9722L30.6136 14.0492L30.807 14.2167L31.7401 13.1398L32.6733 12.0628L32.4799 11.8952L31.5468 12.9722ZM31.7401 13.1398L30.807 14.2167L31.0004 14.3843L31.9335 13.3073L32.8667 12.2304L32.6733 12.0628L31.7401 13.1398ZM31.9335 13.3073L31.0004 14.3843C31.1211 14.4889 31.2414 14.5956 31.3614 14.7043L32.3186 13.6487L33.2758 12.593C33.1402 12.4701 33.0038 12.3492 32.8667 12.2304L31.9335 13.3073ZM32.3186 13.6487L31.3614 14.7043L31.5531 14.8782L32.5103 13.8225L33.4675 12.7669L33.2758 12.593L32.3186 13.6487ZM32.5103 13.8225L31.5531 14.8782L31.7448 15.052L32.702 13.9963L33.6592 12.9407L33.4675 12.7669L32.5103 13.8225ZM32.702 13.9963L31.7448 15.052C31.7234 15.0326 31.7006 15.007 31.68 14.9759C31.6594 14.9449 31.6456 14.9153 31.637 14.8911L32.9807 14.4165L34.3244 13.942C34.1885 13.5573 33.9638 13.2169 33.6592 12.9407L32.702 13.9963ZM32.9807 14.4165L31.637 14.8911L31.724 15.1375L33.0677 14.663L34.4114 14.1884L34.3244 13.942L32.9807 14.4165ZM33.0677 14.663L31.724 15.1375L31.8111 15.3839L33.1547 14.9094L34.4984 14.4348L34.4114 14.1884L33.0677 14.663ZM33.1547 14.9094L31.8111 15.3839C31.8086 15.3769 31.8054 15.3655 31.8035 15.351C31.8015 15.3365 31.8013 15.3235 31.802 15.3136L33.2235 15.4143L34.6449 15.5149C34.671 15.1458 34.621 14.7818 34.4984 14.4348L33.1547 14.9094ZM33.2235 15.4143L31.802 15.3136L31.7837 15.5721L33.2052 15.6727L34.6266 15.7733L34.6449 15.5149L33.2235 15.4143ZM33.2052 15.6727L31.7837 15.5721L31.7654 15.8306L33.1869 15.9312L34.6083 16.0318L34.6266 15.7733L33.2052 15.6727ZM33.1869 15.9312L31.7654 15.8306C31.7513 16.0299 31.7425 16.2801 31.7758 16.5203L33.1873 16.3242L34.5987 16.1281C34.6019 16.1511 34.6028 16.1652 34.6029 16.168C34.6031 16.1713 34.6028 16.1681 34.6028 16.1573C34.6028 16.1346 34.6039 16.094 34.6083 16.0318L33.1869 15.9312ZM33.1873 16.3242L31.7758 16.5203L31.7945 16.6548L33.2059 16.4587L34.6174 16.2626L34.5987 16.1281L33.1873 16.3242ZM33.2059 16.4587L31.7945 16.6548L31.8132 16.7893L33.2246 16.5932L34.6361 16.3971L34.6174 16.2626L33.2059 16.4587ZM33.2246 16.5932L31.8132 16.7893C31.8196 16.8354 31.8254 16.876 31.8301 16.9073C31.8322 16.9211 31.8356 16.9434 31.8397 16.9665C31.8411 16.9745 31.8463 17.0038 31.8543 17.0395C31.8569 17.051 31.8686 17.1033 31.8896 17.1679C31.8971 17.1911 31.9264 17.2816 31.9826 17.3889C32.0078 17.4369 32.0753 17.5612 32.1969 17.6932C32.2853 17.7891 32.6409 18.1527 33.245 18.1527V16.7277V15.3027C33.8491 15.3027 34.2046 15.6663 34.2929 15.7621C34.4145 15.894 34.482 16.0183 34.5071 16.0662C34.5633 16.1734 34.5924 16.2636 34.5999 16.2865C34.6206 16.3504 34.632 16.4016 34.6343 16.4117C34.6417 16.4445 34.6461 16.4696 34.6465 16.472C34.6486 16.484 34.6493 16.4895 34.648 16.4808C34.646 16.4673 34.6421 16.4407 34.6361 16.3971L33.2246 16.5932ZM33.245 16.7277V18.1527H33.2467V16.7277V15.3027H33.245V16.7277ZM33.2467 16.7277V18.1527H33.2483V16.7277V15.3027H33.2467V16.7277ZM33.2483 16.7277V18.1527C32.6485 18.1527 32.2912 17.7966 32.18 17.6707C32.0499 17.5233 31.9819 17.3837 31.9566 17.3294C31.9006 17.2091 31.8749 17.1082 31.8684 17.0832C31.8502 17.0123 31.8417 16.9557 31.84 16.9445C31.8344 16.9078 31.8316 16.8793 31.8312 16.8751C31.8302 16.8653 31.8296 16.8582 31.8294 16.8556C31.8291 16.8525 31.829 16.8506 31.8289 16.8504C31.8289 16.8502 31.8291 16.8524 31.8295 16.8581C31.8298 16.8636 31.8303 16.8708 31.8309 16.8801C31.8332 16.918 31.8367 16.9784 31.8414 17.0632L33.2642 16.9842L34.6871 16.9052C34.6823 16.819 34.6784 16.7511 34.6754 16.7036C34.674 16.6808 34.6725 16.6573 34.671 16.6371C34.6703 16.629 34.6689 16.61 34.6667 16.5883C34.666 16.5815 34.663 16.5509 34.6572 16.5129C34.6553 16.5011 34.6468 16.4439 34.6285 16.3727C34.622 16.3475 34.5962 16.2465 34.5401 16.1261C34.5148 16.0718 34.4469 15.9322 34.3168 15.7848C34.2055 15.6587 33.8482 15.3027 33.2483 15.3027V16.7277ZM33.2642 16.9842L31.8414 17.0632L31.8557 17.3197L33.2785 17.2407L34.7013 17.1617L34.6871 16.9052L33.2642 16.9842Z" fill="#7F7F7F"/>
</svg>
