<svg width="45" height="31" viewBox="0 0 45 31" fill="none" xmlns="http://www.w3.org/2000/svg">
<path d="M20.8389 29.4756C20.9956 29.3777 21.2147 29.1694 21.4746 28.8574C21.746 28.5315 22.0207 28.1491 22.2676 27.7969C22.502 27.4623 22.7314 27.1262 22.8867 26.9414V26.9404C25.3318 24.02 26.9024 23.303 29.6777 21.6396C33.0959 19.5917 36.6558 19.3561 40.1348 19.3408V19.3418C41.046 19.3365 41.8486 19.3842 42.6553 19.2422H42.6582C42.9301 19.1954 43.1687 19.0673 43.3516 18.832C43.5155 18.6211 43.6561 18.295 43.71 17.8037L43.7275 17.583C43.7858 16.4122 43.3378 15.8067 42.8965 15.6416C40.7135 14.8254 38.6498 13.8991 36.5371 13.54C33.4919 13.0241 30.8415 11.2724 28.4854 8.58203C26.7914 6.64775 25.1824 4.46978 23.5713 2.41211L22.8799 1.53809C22.7128 1.32909 22.5651 1.13697 22.4102 0.960937C22.2556 0.785298 22.1213 0.657859 22.001 0.580078C21.8857 0.505609 21.8137 0.495982 21.7656 0.500977C21.7166 0.506099 21.6102 0.535711 21.4443 0.700195C21.3265 0.817604 21.2035 1.12821 21.2217 1.73926C21.239 2.32048 21.3812 3.0617 21.6426 3.89062C22.4917 6.5881 23.9174 8.42654 25.4014 10.3359L25.4277 10.3711H25.4287C25.6523 10.6597 25.8746 10.9522 26.2939 11.4961L26.915 12.3018H25.8984C25.2152 12.3018 24.6398 12.3155 24.1006 12.3096L23.5703 12.2959C15.6666 11.9518 14.4837 12.0138 13.3066 12.0801C12.0783 12.1493 10.8543 12.2245 2.9668 11.9092C2.492 11.9387 2.01728 12.0216 1.56543 12.1748C1.25389 12.2819 1.0099 12.4167 0.834961 12.6299C0.66394 12.8384 0.513629 13.1782 0.500977 13.7822C0.482457 14.6637 0.876296 15.2007 1.36621 15.5674C1.85263 15.9315 2.41026 16.1125 2.79687 16.25C5.16737 16.3596 9.2502 16.6552 13.3193 16.9443C17.441 17.2372 21.548 17.5229 23.8867 17.6035H23.8896C24.154 17.6142 24.4683 17.6602 24.8115 17.6914L25.5342 17.7568L25.2158 18.4092C24.9982 18.8543 24.8807 19.0501 24.7773 19.3076C24.3697 20.3227 23.6138 21.7004 22.8945 23.0391C22.1616 24.4031 21.4657 25.7278 21.127 26.7002C20.7514 27.7807 20.5359 28.4951 20.8389 29.4756Z" fill="#FFFFFF" stroke="#FFFFFF"/>
</svg>
