<svg width="38" height="38" viewBox="0 0 38 38" fill="none" xmlns="http://www.w3.org/2000/svg">
<path d="M13.9301 33.2497V21.3622C13.9301 20.4755 13.9301 20.0321 14.1027 19.6934C14.2545 19.3955 14.4967 19.1532 14.7946 19.0014C15.1333 18.8289 15.5767 18.8289 16.4634 18.8289H21.5899C22.4766 18.8289 22.92 18.8289 23.2587 19.0014C23.5566 19.1532 23.7988 19.3955 23.9506 19.6934C24.1232 20.0321 24.1232 20.4755 24.1232 21.3622V33.2497" fill="#FFFFFF"/>
<path fill-rule="evenodd" clip-rule="evenodd" d="M13.9301 33.2497H24.1232V21.3622C24.1232 20.4755 24.1232 20.0321 23.9506 19.6934C23.7988 19.3955 23.5566 19.1532 23.2587 19.0014C22.92 18.8289 22.4766 18.8289 21.5899 18.8289H16.4634C15.5767 18.8289 15.1333 18.8289 14.7946 19.0014C14.4967 19.1532 14.2545 19.3955 14.1027 19.6934C13.9301 20.0321 13.9301 20.4755 13.9301 21.3622V33.2497Z" fill="#FFFFFF"/>
<path d="M33.25 28.183V16.7277C33.25 15.8183 33.25 15.3636 33.1328 14.9449C33.029 14.5739 32.8583 14.2251 32.6293 13.9154C32.3707 13.5658 32.0118 13.2866 31.294 12.7283L20.5553 4.37603C19.9991 3.94338 19.7209 3.72705 19.4138 3.6439C19.1428 3.57052 18.8572 3.57052 18.5862 3.6439C18.2791 3.72705 18.0009 3.94338 17.4447 4.37603L6.70603 12.7283C5.9882 13.2866 5.62928 13.5658 5.37071 13.9154C5.14166 14.2251 4.97104 14.5739 4.86721 14.9449C4.75 15.3636 4.75 15.8183 4.75 16.7277V28.183C4.75 29.9565 4.75 30.8433 5.09515 31.5206C5.39875 32.1165 5.88318 32.6009 6.47903 32.9045C7.15642 33.2497 8.04317 33.2497 9.81667 33.2497H13.9301V21.3622C13.9301 20.4755 13.9301 20.0321 14.1027 19.6934C14.2545 19.3955 14.4967 19.1532 14.7946 19.0014C15.1333 18.8289 15.5767 18.8289 16.4634 18.8289H21.5899C22.4766 18.8289 22.92 18.8289 23.2587 19.0014C23.5566 19.1532 23.7988 19.3955 23.9506 19.6934C24.1232 20.0321 24.1232 20.4755 24.1232 21.3622V33.2497H28.1833C28.1833 33.2497 30.8436 33.2497 31.521 32.9045C32.1168 32.6009 32.6013 32.1165 32.9049 31.5206C33.25 30.8433 33.25 29.9565 33.25 28.183Z" fill="#B9372E"/>
<path d="M28.1833 33.2497V34.6747H28.9528L29.3748 34.0313L28.1833 33.2497ZM28.0833 33.2497V31.8247H28.0567L28.0301 31.8257L28.0833 33.2497ZM27.6203 33.267L27.6736 34.691L27.6203 33.267ZM26.9008 33.2623L27.0226 31.8425L26.9008 33.2623ZM26.6443 33.2403L26.5226 34.6601L26.6443 33.2403ZM26.3878 33.2183L26.5096 31.7985L26.3878 33.2183ZM25.8748 33.2166L25.7624 31.796L25.8748 33.2166ZM25.3618 33.2572L25.4742 34.6777L25.3618 33.2572ZM24.3358 33.3027L24.2891 31.8785L24.3358 33.3027ZM22.7968 33.2454L22.7928 34.6704V34.6704L22.7968 33.2454ZM22.2838 33.244L22.2878 31.819V31.819L22.2838 33.244ZM21.2578 33.2883L21.1746 31.8657L21.2578 33.2883ZM20.7448 33.2974L20.7776 31.8728L20.7448 33.2974ZM20.4883 33.2915L20.4556 34.7161L20.4883 33.2915ZM20.2318 33.2856L20.1991 34.7103L20.2318 33.2856ZM19.7188 33.255L19.5821 34.6734L19.7188 33.255ZM19.2058 33.2056L19.0691 34.624L19.2058 33.2056ZM18.6928 33.2152L18.8819 34.6276L18.6928 33.2152ZM18.1798 33.2839L17.9907 31.8715L18.1798 33.2839ZM17.6668 33.3071L17.6054 34.7308L17.6668 33.3071ZM17.1538 33.285L17.2153 31.8613L17.1538 33.285ZM16.6408 33.2876L16.7167 34.7106L16.6408 33.2876ZM16.1278 33.3149L16.052 31.892L16.1278 33.3149ZM15.6148 33.3031L15.7558 31.8851L15.6148 33.3031ZM15.1018 33.2521L14.9608 34.6701L15.1018 33.2521ZM14.5888 33.2334L14.6269 34.6579L14.5888 33.2334ZM14.0758 33.2471L14.0378 31.8227L14.0758 33.2471ZM13.5628 33.2607L13.6002 34.6852L13.5628 33.2607ZM12.5368 33.2939L12.4648 31.8707L12.5368 33.2939ZM12.2803 33.3069L12.2083 31.8837L12.2803 33.3069ZM12.0238 33.3199L12.0959 34.743L12.0238 33.3199ZM11.5108 33.2959L11.7141 31.8855L11.5108 33.2959ZM11.2543 33.2589L11.0511 34.6694L11.2543 33.2589ZM10.9978 33.222L10.7946 34.6324L10.9978 33.222ZM10.5102 33.2217L10.7335 34.6291L10.5102 33.2217ZM10.0478 33.2951L9.82447 31.8877L10.0478 33.2951ZM9.81667 33.2907L9.27562 31.9724L8.39167 32.3352V33.2907H9.81667ZM9.91667 33.2497L9.92621 31.8247H9.91667V33.2497ZM9.81667 33.2497L8.62572 34.0322L9.04787 34.6747H9.81667V33.2497ZM9.76176 33.1661L10.9527 32.3836L10.526 31.7342L9.74906 31.7412L9.76176 33.1661ZM9.27649 33.1704L9.28919 34.5954L9.27649 33.1704ZM8.53476 33.1829L8.4896 31.7586L8.53476 33.1829ZM8.02181 33.1991L8.06697 34.6234L8.02181 33.1991ZM7.51066 33.1704L7.30626 34.5806L7.51066 33.1704ZM7.25597 33.1334L7.46037 31.7232L7.25597 33.1334ZM7.00129 33.0965L6.79689 34.5068L7.00129 33.0965ZM6.53911 32.9103L5.70677 34.0669L6.53911 32.9103ZM6.12411 32.6117L5.29177 33.7683L6.12411 32.6117ZM5.72857 32.2873L4.75755 33.3302L5.72857 32.2873ZM5.35248 31.9371L6.3235 30.8942L5.35248 31.9371ZM5.09623 31.5143L3.72235 31.8925L5.09623 31.5143ZM4.95983 31.0188L6.33372 30.6406L4.95983 31.0188ZM4.85555 30.5176L6.26634 30.3168L4.85555 30.5176ZM4.81947 30.264L3.40869 30.4648L4.81947 30.264ZM4.7834 30.0105L6.19418 29.8097L4.7834 30.0105ZM4.7558 29.5004L3.33157 29.4533L4.7558 29.5004ZM4.74627 25.9086L3.32223 25.8564V25.8564L4.74627 25.9086ZM4.71763 23.3436L3.2943 23.4127L4.71763 23.3436ZM4.79293 21.2916L3.38273 21.4965L4.79293 21.2916ZM4.7184 20.7786L6.12859 20.5738L4.7184 20.7786ZM4.75791 19.2396L3.33596 19.1465L4.75791 19.2396ZM4.72186 17.7006L3.30577 17.8598L4.72186 17.7006ZM4.70921 16.1613L3.28877 16.0474L4.70921 16.1613ZM4.83513 15.1419L6.21524 15.4968L4.83513 15.1419ZM4.96352 14.6426L3.58341 14.2877L4.96352 14.6426ZM5.18208 14.1858L4.03945 13.3343L5.18208 14.1858ZM5.49079 13.7715L4.34816 12.92L5.49079 13.7715ZM5.83806 13.3939L6.78182 14.4615L5.83806 13.3939ZM6.22388 13.0528L7.16764 14.1205L6.22388 13.0528ZM6.63074 12.7395L5.83966 11.5542L6.63074 12.7395ZM6.84468 12.5967L6.0536 11.4115L6.84468 12.5967ZM7.05862 12.4539L7.8497 13.6392L7.05862 12.4539ZM7.46039 12.1348L8.43564 13.1738L7.46039 12.1348ZM7.83604 11.7822L6.8608 10.7432L7.83604 11.7822ZM8.24284 11.4697L7.48996 10.2598L8.24284 11.4697ZM9.09894 10.8992L8.20087 9.79281L9.09894 10.8992ZM9.29814 10.7375L8.40006 9.63112L9.29814 10.7375ZM9.49733 10.5758L10.3954 11.6822L9.49733 10.5758ZM9.89939 10.2572L10.7714 11.3842L9.89939 10.2572ZM10.3051 9.94325L9.43314 8.81619L10.3051 9.94325ZM10.6978 9.61248L9.73524 8.56168L10.6978 9.61248ZM11.4929 8.96362L10.7928 7.72247L11.4929 8.96362ZM11.9446 8.70881L12.6447 9.94995L11.9446 8.70881ZM12.3668 8.41608L11.4491 7.32598L12.3668 8.41608ZM12.7596 8.08543L11.8418 6.99533L12.7596 8.08543ZM13.1576 7.76165L12.2773 6.64108L13.1576 7.76165ZM13.3593 7.60319L14.2397 8.72375L13.3593 7.60319ZM13.9501 7.10931L14.9287 8.14515L13.9501 7.10931ZM14.3247 6.75538L13.3461 5.71954L14.3247 6.75538ZM14.7278 6.43811L13.9511 5.24341L14.7278 6.43811ZM14.9436 6.29779L15.7204 7.49249L14.9436 6.29779ZM15.1594 6.15748L15.9362 7.35217L15.1594 6.15748ZM15.569 5.84842L14.6329 4.77394L15.569 5.84842ZM15.9564 5.51093L15.0204 4.43646L15.9564 5.51093ZM16.3563 5.18958L17.2039 6.33511L16.3563 5.18958ZM16.5626 5.03697L15.715 3.89144L16.5626 5.03697ZM16.7688 4.88436L15.9213 3.73883L16.7688 4.88436ZM17.4025 4.44621L16.611 3.26128L17.4025 4.44621ZM17.6163 4.30344L18.4078 5.48837L17.6163 4.30344ZM18.0449 4.03463L17.3239 2.80548L18.0449 4.03463ZM18.2597 3.9086L18.9807 5.13776L18.2597 3.9086ZM18.9427 3.6694L18.8704 5.09256L18.9427 3.6694ZM19.4492 3.69513L19.3769 5.11829L19.4492 3.69513ZM19.901 3.87307L18.99 4.96881L19.901 3.87307ZM20.2981 4.20322L21.2092 3.10748L20.2981 4.20322ZM20.7047 4.51866L21.5394 3.36368L20.7047 4.51866ZM21.1209 4.81937L20.2862 5.97434L21.1209 4.81937ZM21.5403 5.11579L20.7301 6.28808L21.5403 5.11579ZM21.7516 5.26185L20.9415 6.43414L21.7516 5.26185ZM21.963 5.40791L22.7731 4.23561L21.963 5.40791ZM22.3776 5.71036L21.5088 6.83987L22.3776 5.71036ZM22.7843 6.02313L23.6531 4.89362L22.7843 6.02313ZM23.1913 6.33541L22.3252 7.46705L23.1913 6.33541ZM23.5987 6.64719L24.4647 5.51555L23.5987 6.64719ZM24.0044 6.96114L24.8825 5.83886L24.0044 6.96114ZM24.4084 7.27727L23.5303 8.39955L24.4084 7.27727ZM25.1453 8.00103L24.1098 8.98005L25.1453 8.00103ZM25.5366 8.33344L24.7393 9.51449L25.5366 8.33344ZM25.7497 8.47729L24.9524 9.65833L25.7497 8.47729ZM25.9628 8.62113L26.7601 7.44009L25.9628 8.62113ZM26.3816 8.91823L27.2328 7.77539L26.3816 8.91823ZM26.7931 9.22473L25.9419 10.3676L26.7931 9.22473ZM27.2005 9.5365L26.3199 10.6568L27.2005 9.5365ZM27.6038 9.85354L28.4845 8.73325L27.6038 9.85354ZM28.0156 10.1597L28.8348 8.99369L28.0156 10.1597ZM28.4359 10.4549L27.6167 11.6209L28.4359 10.4549ZM28.8331 10.7798L27.853 11.8143L28.8331 10.7798ZM29.0202 10.9571L30.0003 9.92264L29.0202 10.9571ZM29.2073 11.1343L28.2272 12.1688L29.2073 11.1343ZM29.6102 11.4518L30.3865 10.2568L29.6102 11.4518ZM29.8261 11.5921L30.6024 10.3971L29.8261 11.5921ZM30.042 11.7323L29.2657 12.9273L30.042 11.7323ZM30.4569 12.0344L29.5576 13.1398V13.1398L30.4569 12.0344ZM30.6559 12.1964L29.7566 13.3017L30.6559 12.1964ZM30.8549 12.3583L31.7542 11.2529L30.8549 12.3583ZM31.2515 12.684L32.1609 11.5869L31.2515 12.684ZM31.4491 12.8478L32.3585 11.7507L31.4491 12.8478ZM31.6466 13.0115L30.7372 14.1086L31.6466 13.0115ZM32.0366 13.3453L32.98 12.2773L32.0366 13.3453ZM32.4213 13.6851L31.4779 14.7531L32.4213 13.6851ZM32.8115 14.3242L34.1246 13.7706L32.8115 14.3242ZM32.9104 14.5588L31.5973 15.1124L32.9104 14.5588ZM33.0658 15.0396L31.6768 15.358L33.0658 15.0396ZM33.1222 15.2858L34.5112 14.9674L33.1222 15.2858ZM33.1787 15.5321L31.7897 15.8505L33.1787 15.5321ZM33.2313 16.0348L34.6561 16.0563L33.2313 16.0348ZM33.2235 16.5477L31.7987 16.5263L33.2235 16.5477ZM33.2132 17.0607L31.7886 17.0246L33.2132 17.0607ZM33.2001 17.5737L31.7756 17.5376L33.2001 17.5737ZM33.2241 18.5997L31.8002 18.6561L33.2241 18.5997ZM33.2372 19.1127L34.6621 19.0967L33.2372 19.1127ZM33.24 19.3692L31.8151 19.3852L33.24 19.3692ZM33.2429 19.6257L31.818 19.6417L33.2429 19.6257ZM33.2329 20.1387L31.8097 20.067L33.2329 20.1387ZM33.207 20.6517L34.6302 20.7234L33.207 20.6517ZM33.2206 21.1647L31.8032 21.3113L33.2206 21.1647ZM33.2471 21.4212L34.6646 21.2747L33.2471 21.4212ZM33.2737 21.6777L31.8562 21.8243L33.2737 21.6777ZM33.306 22.1907L34.7306 22.1583L33.306 22.1907ZM33.3177 22.7037L31.8931 22.7362L33.3177 22.7037ZM33.2932 23.2167L31.8781 23.0494L33.2932 23.2167ZM33.2155 24.2427L34.6386 24.1693L33.2155 24.2427ZM33.2287 24.4992L34.6518 24.4258L33.2287 24.4992ZM33.242 24.7557L31.8189 24.8292L33.242 24.7557ZM33.2678 25.2687L31.8446 25.3388L33.2678 25.2687ZM33.2805 25.5252L34.7037 25.4551L33.2805 25.5252ZM33.2931 25.7817L31.8698 25.8518L33.2931 25.7817ZM33.3063 26.2947L31.8813 26.2981L33.3063 26.2947ZM33.3076 26.8077L34.7325 26.8043L33.3076 26.8077ZM33.3011 27.3207L31.8766 27.2814L33.3011 27.3207ZM33.2869 27.8337L31.8624 27.7944L33.2869 27.8337ZM33.2684 28.3468L31.8448 28.2832L33.2684 28.3468ZM33.2455 28.8599L34.669 28.9234L33.2455 28.8599ZM33.2167 29.3719L31.7949 29.2753L33.2167 29.3719ZM33.1819 29.8829L34.6037 29.9795L33.1819 29.8829ZM33.1378 30.3923L31.7207 30.2427V30.2427L33.1378 30.3923ZM33.0842 30.8999L34.5013 31.0495V31.0495L33.0842 30.8999ZM32.9268 31.3714L34.1486 32.1047L32.9268 31.3714ZM32.6656 31.8066L31.4438 31.0732L32.6656 31.8066ZM32.3602 32.2119L31.3172 31.241L32.3602 32.2119ZM32.0107 32.5874L33.0537 33.5583L32.0107 32.5874ZM31.5937 32.869L31.0789 31.5402L31.5937 32.869ZM31.1094 33.0567L31.6242 34.3854L31.1094 33.0567ZM30.6079 33.1398L30.6669 31.716L30.6079 33.1398ZM30.0893 33.1182L30.0303 34.542L30.0893 33.1182ZM29.5747 33.1213L29.6515 34.5442L29.5747 33.1213ZM29.0641 33.1488L28.9873 31.7259L29.0641 33.1488ZM28.6524 33.1844L28.4559 31.773L28.6524 33.1844ZM28.496 33.2061L28.2771 34.6142L28.4846 34.6465L28.6925 34.6175L28.496 33.2061ZM28.2382 33.1661L28.4571 31.758L27.5501 31.617L27.0467 32.3844L28.2382 33.1661ZM10.3797 33.2528L10.3701 34.6777L10.3797 33.2528ZM11.0992 33.2369L11.2044 34.658L11.0992 33.2369ZM11.3557 33.2179L11.2504 31.7968L11.3557 33.2179ZM12.1252 33.2119L12.3013 31.7978L12.1252 33.2119ZM12.6382 33.2758L12.462 34.6898L12.6382 33.2758ZM13.1512 33.2951L13.2211 34.7184L13.1512 33.2951ZM13.4077 33.2825L13.3377 31.8592L13.4077 33.2825ZM13.6642 33.2699L13.5942 31.8466L13.6642 33.2699ZM13.9254 33.2535L14.8215 34.3615L17.7649 31.981L13.9824 31.8296L13.9254 33.2535ZM13.8301 33.2497V31.8247L13.7731 34.6735L13.8301 33.2497ZM24.1232 33.2497V34.6747H24.1535L24.1838 34.6734L24.1232 33.2497ZM24.6362 33.2278L24.5756 31.8041L24.6362 33.2278ZM25.4057 33.2311L25.5444 31.8129L25.4057 33.2311ZM25.9187 33.2813L25.78 34.6995L25.9187 33.2813ZM26.4317 33.2842L26.5545 34.7039L26.4317 33.2842ZM27.4468 33.2206L27.4636 31.7957L27.4468 33.2206ZM27.9378 33.2264L27.9209 34.6513L27.9378 33.2264ZM13.9301 33.1497L12.5065 33.087L12.5051 33.1183V33.1497H13.9301ZM13.9505 32.6867L15.3741 32.7493L13.9505 32.6867ZM13.9563 31.9672L12.5336 32.048L13.9563 31.9672ZM13.9271 31.4542L15.3498 31.3734L13.9271 31.4542ZM13.9066 30.9412L12.482 30.9745L13.9066 30.9412ZM13.9006 30.6847L15.3252 30.6514L13.9006 30.6847ZM13.8946 30.4282L12.47 30.4615L13.8946 30.4282ZM13.8828 29.9152L12.4581 29.9475L13.8828 29.9152ZM13.8711 29.4022L12.4465 29.4345L13.8711 29.4022ZM13.8982 28.8892L15.3116 29.0707L13.8982 28.8892ZM13.9641 28.3762L15.3775 28.5577L13.9641 28.3762ZM13.9638 27.8632L15.377 27.68L13.9638 27.8632ZM13.8973 27.3502L12.4841 27.5333L13.8973 27.3502ZM13.8731 26.8372L12.4489 26.7872L13.8731 26.8372ZM13.8821 26.5807L12.4579 26.5307L13.8821 26.5807ZM13.8911 26.3242L15.3152 26.3742L13.8911 26.3242ZM13.8989 25.8112L15.3238 25.8045L13.8989 25.8112ZM13.8965 25.2982L15.3214 25.2915L13.8965 25.2982ZM13.9063 24.7852L15.33 24.8467L13.9063 24.7852ZM13.9285 24.2722L12.5048 24.2107L13.9285 24.2722ZM13.9307 23.7592L12.5066 23.8082L13.9307 23.7592ZM13.9131 23.2462L15.3372 23.1971L13.9131 23.2462ZM13.9196 22.7332L12.4971 22.648L13.9196 22.7332ZM13.9349 22.4767L12.5125 22.3915L13.9349 22.4767ZM13.9503 22.2202L15.3727 22.3053L13.9503 22.2202ZM13.9547 21.7071L15.3785 21.6466L13.9547 21.7071ZM13.9329 21.1939L12.5092 21.2544V21.2544L13.9329 21.1939ZM13.9647 20.6877L15.3693 20.9277L13.9647 20.6877ZM14.0073 20.438L12.6027 20.198L14.0073 20.438ZM14.05 20.1884L12.6454 19.9484L14.05 20.1884ZM14.2146 19.7189L15.4608 20.4101L14.2146 19.7189ZM14.3366 19.499L13.0904 18.8078L14.3366 19.499ZM14.4586 19.2791L15.7047 19.9703L14.4586 19.2791ZM14.8335 19.0247L15.026 20.4367L14.8335 19.0247ZM15.3393 18.9558L15.5318 20.3677L15.3393 18.9558ZM15.8478 18.9148L15.8841 20.3393L15.8478 18.9148ZM16.1033 18.9083L16.1396 20.3328L16.1033 18.9083ZM16.3589 18.9017L16.3226 17.4772L16.3589 18.9017ZM16.8709 18.8584L17.0734 20.2689L16.8709 18.8584ZM17.1274 18.8216L16.9249 17.411V17.411L17.1274 18.8216ZM17.8969 18.754L17.8632 20.1786L17.8969 18.754ZM18.4099 18.7661L18.4436 17.3415L18.4099 18.7661ZM19.9489 18.8495L19.8465 20.2708L19.9489 18.8495ZM20.2054 18.868L20.3078 17.4466L20.2054 18.868ZM20.9749 18.888L21.0688 20.3099L20.9749 18.888ZM21.488 18.8541L21.3941 17.4322L21.488 18.8541ZM21.9999 18.8498L22.0702 17.4265L21.9999 18.8498ZM22.2554 18.8624L22.1851 20.2857L22.2554 18.8624ZM22.5109 18.875L22.5811 17.4518L22.5109 18.875ZM22.9909 18.9938L22.3822 20.2822L22.9909 18.9938ZM23.7747 19.5383L25.0564 18.9156L23.7747 19.5383ZM23.9944 19.9905L25.2761 19.3678L23.9944 19.9905ZM24.1008 20.4731L22.6759 20.4542L24.1008 20.4731ZM24.094 20.9863L25.5189 21.0053L24.094 20.9863ZM24.0743 22.5256L25.4981 22.5845L24.0743 22.5256ZM24.0531 23.0386L22.6293 22.9798L24.0531 23.0386ZM24.0652 23.5516L25.4847 23.4259L24.0652 23.5516ZM24.1107 24.0646L22.6912 24.1904L24.1107 24.0646ZM24.1129 24.5776L25.5334 24.691L24.1129 24.5776ZM24.0924 24.8341L22.6719 24.7208L24.0924 24.8341ZM24.0611 25.8601L25.4859 25.8333L24.0611 25.8601ZM24.066 26.1166L22.6412 26.1434L24.066 26.1166ZM24.0673 26.6296L25.4922 26.6488L24.0673 26.6296ZM24.0639 26.8861L22.639 26.867L24.0639 26.8861ZM24.0604 27.1426L22.6356 27.1235L24.0604 27.1426ZM24.1009 28.1686L22.6783 28.2499L24.1009 28.1686ZM24.1337 28.6816L22.7122 28.782L24.1337 28.6816ZM24.1518 28.9381L25.5733 28.8378V28.8378L24.1518 28.9381ZM24.1699 29.1946L25.5914 29.0943L24.1699 29.1946ZM24.1316 31.2466L22.7105 31.1408L24.1316 31.2466ZM24.1264 31.7596L25.5493 31.6826L24.1264 31.7596ZM24.1541 32.2726L22.7312 32.3497L24.1541 32.2726ZM24.1125 33.2497V34.6747H25.3927L25.5294 33.4017L24.1125 33.2497ZM24.1232 33.1497H25.5482L22.7064 32.9976L24.1232 33.1497ZM14.0301 33.2497V34.6747H14.0716L14.113 34.6723L14.0301 33.2497ZM14.4931 33.2227L14.576 34.6453L14.4931 33.2227ZM15.2126 33.2102L15.1323 34.6329L15.2126 33.2102ZM15.7256 33.2391L15.8059 31.8164L15.7256 33.2391ZM16.4951 33.2644L16.4652 34.6891L16.4951 33.2644ZM16.7516 33.2698L16.7815 31.8451L16.7516 33.2698ZM17.2646 33.2599L17.349 34.6824L17.2646 33.2599ZM17.7776 33.2295L17.6932 31.807L17.7776 33.2295ZM18.2906 33.219L18.3167 31.7942L18.2906 33.219ZM18.8036 33.2284L18.7775 34.6532L18.8036 33.2284ZM19.3166 33.2556L19.4408 31.836L19.3166 33.2556ZM19.5731 33.278L19.4489 34.6976L19.5731 33.278ZM19.8296 33.3005L19.7054 34.72L19.8296 33.3005ZM20.3426 33.2984L20.207 31.8798L20.3426 33.2984ZM20.8556 33.2493L20.9912 34.6678L20.8556 33.2493ZM21.3686 33.2269L21.3801 31.8019L21.3686 33.2269ZM21.6251 33.2289L21.6366 31.804L21.6251 33.2289ZM21.8816 33.231L21.8701 34.6559L21.8816 33.231ZM22.3946 33.2559L22.5211 31.8365L22.3946 33.2559ZM22.9076 33.3016L22.7811 34.721L22.9076 33.3016ZM23.4039 33.3253L23.399 34.7503L23.4039 33.3253ZM23.6437 33.3262L23.6486 31.9012L23.6437 33.3262ZM24.1232 33.2887H25.5482V32.3156L24.6418 31.9614L24.1232 33.2887ZM24.0232 33.2497V31.8247L23.5047 34.577L24.0232 33.2497ZM28.1833 33.2497V31.8247H28.0833V33.2497V34.6747H28.1833V33.2497ZM28.0833 33.2497L28.0301 31.8257L27.5671 31.843L27.6203 33.267L27.6736 34.691L28.1366 34.6737L28.0833 33.2497ZM27.6203 33.267L27.5671 31.843C27.2786 31.8538 27.1068 31.8497 27.0226 31.8425L26.9008 33.2623L26.7791 34.6821C27.0368 34.7042 27.3447 34.7033 27.6736 34.691L27.6203 33.267ZM26.9008 33.2623L27.0226 31.8425L26.7661 31.8205L26.6443 33.2403L26.5226 34.6601L26.7791 34.6821L26.9008 33.2623ZM26.6443 33.2403L26.7661 31.8205L26.5096 31.7985L26.3878 33.2183L26.2661 34.6381L26.5226 34.6601L26.6443 33.2403ZM26.3878 33.2183L26.5096 31.7985C26.2607 31.7772 26.0114 31.7763 25.7624 31.796L25.8748 33.2166L25.9872 34.6371C26.0802 34.6298 26.1729 34.6301 26.2661 34.6381L26.3878 33.2183ZM25.8748 33.2166L25.7624 31.796L25.5059 31.8163L25.6183 33.2369L25.7307 34.6574L25.9872 34.6371L25.8748 33.2166ZM25.6183 33.2369L25.5059 31.8163L25.2494 31.8366L25.3618 33.2572L25.4742 34.6777L25.7307 34.6574L25.6183 33.2369ZM25.3618 33.2572L25.2494 31.8366C25.1002 31.8484 24.9511 31.8568 24.8021 31.8617L24.8488 33.2859L24.8956 34.7101C25.0886 34.7038 25.2815 34.693 25.4742 34.6777L25.3618 33.2572ZM24.8488 33.2859L24.8021 31.8617L24.5456 31.8701L24.5923 33.2943L24.6391 34.7186L24.8956 34.7101L24.8488 33.2859ZM24.5923 33.2943L24.5456 31.8701L24.2891 31.8785L24.3358 33.3027L24.3826 34.727L24.6391 34.7186L24.5923 33.2943ZM24.3358 33.3027L24.2891 31.8785C24.1638 31.8826 24.0384 31.8807 23.9129 31.8728L23.8228 33.2949L23.7327 34.7171C23.9492 34.7308 24.1659 34.7341 24.3826 34.727L24.3358 33.3027ZM23.8228 33.2949L23.9129 31.8728L23.6564 31.8565L23.5663 33.2787L23.4762 34.7008L23.7327 34.7171L23.8228 33.2949ZM23.5663 33.2787L23.6564 31.8565L23.3999 31.8403L23.3098 33.2624L23.2197 34.6846L23.4762 34.7008L23.5663 33.2787ZM23.3098 33.2624L23.3999 31.8403C23.2003 31.8276 23.0006 31.821 22.8008 31.8205L22.7968 33.2454L22.7928 34.6704C22.935 34.6708 23.0773 34.6755 23.2197 34.6846L23.3098 33.2624ZM22.7968 33.2454L22.8008 31.8205L22.5443 31.8197L22.5403 33.2447L22.5363 34.6697L22.7928 34.6704L22.7968 33.2454ZM22.5403 33.2447L22.5443 31.8197L22.2878 31.819L22.2838 33.244L22.2798 34.669L22.5363 34.6697L22.5403 33.2447ZM22.2838 33.244L22.2878 31.819C22.0877 31.8184 21.8876 31.824 21.6876 31.8357L21.7708 33.2583L21.8541 34.6809C21.9961 34.6725 22.138 34.6686 22.2798 34.669L22.2838 33.244ZM21.7708 33.2583L21.6876 31.8357L21.4311 31.8507L21.5143 33.2733L21.5976 34.6959L21.8541 34.6809L21.7708 33.2583ZM21.5143 33.2733L21.4311 31.8507L21.1746 31.8657L21.2578 33.2883L21.3411 34.7109L21.5976 34.6959L21.5143 33.2733ZM21.2578 33.2883L21.1746 31.8657C21.0422 31.8735 20.9098 31.8758 20.7776 31.8728L20.7448 33.2974L20.7121 34.722C20.9218 34.7269 21.1315 34.7231 21.3411 34.7109L21.2578 33.2883ZM20.7448 33.2974L20.7776 31.8728L20.5211 31.8669L20.4883 33.2915L20.4556 34.7161L20.7121 34.722L20.7448 33.2974ZM20.4883 33.2915L20.5211 31.8669L20.2646 31.861L20.2318 33.2856L20.1991 34.7103L20.4556 34.7161L20.4883 33.2915ZM20.2318 33.2856L20.2646 31.861C20.1284 31.8579 19.9921 31.8498 19.8556 31.8366L19.7188 33.255L19.5821 34.6734C19.7875 34.6932 19.9932 34.7055 20.1991 34.7103L20.2318 33.2856ZM19.7188 33.255L19.8556 31.8366L19.5991 31.8119L19.4623 33.2303L19.3256 34.6487L19.5821 34.6734L19.7188 33.255ZM19.4623 33.2303L19.5991 31.8119L19.3426 31.7871L19.2058 33.2056L19.0691 34.624L19.3256 34.6487L19.4623 33.2303ZM19.2058 33.2056L19.3426 31.7871C19.0626 31.7601 18.7823 31.7655 18.5037 31.8028L18.6928 33.2152L18.8819 34.6276C18.9454 34.6191 19.007 34.618 19.0691 34.624L19.2058 33.2056ZM18.6928 33.2152L18.5037 31.8028L18.2472 31.8371L18.4363 33.2495L18.6254 34.6619L18.8819 34.6276L18.6928 33.2152ZM18.4363 33.2495L18.2472 31.8371L17.9907 31.8715L18.1798 33.2839L18.3689 34.6962L18.6254 34.6619L18.4363 33.2495ZM18.1798 33.2839L17.9907 31.8715C17.9021 31.8833 17.8149 31.8872 17.7283 31.8835L17.6668 33.3071L17.6054 34.7308C17.8608 34.7418 18.1156 34.7302 18.3689 34.6962L18.1798 33.2839ZM17.6668 33.3071L17.7283 31.8835L17.4718 31.8724L17.4103 33.2961L17.3489 34.7197L17.6054 34.7308L17.6668 33.3071ZM17.4103 33.2961L17.4718 31.8724L17.2153 31.8613L17.1538 33.285L17.0924 34.7087L17.3489 34.7197L17.4103 33.2961ZM17.1538 33.285L17.2153 31.8613C16.9985 31.852 16.7817 31.8531 16.565 31.8646L16.6408 33.2876L16.7167 34.7106C16.842 34.7039 16.9672 34.7033 17.0924 34.7087L17.1538 33.285ZM16.6408 33.2876L16.565 31.8646L16.3085 31.8783L16.3843 33.3013L16.4602 34.7242L16.7167 34.7106L16.6408 33.2876ZM16.3843 33.3013L16.3085 31.8783L16.052 31.892L16.1278 33.3149L16.2037 34.7379L16.4602 34.7242L16.3843 33.3013ZM16.1278 33.3149L16.052 31.892C15.9536 31.8972 15.855 31.895 15.7558 31.8851L15.6148 33.3031L15.4738 34.7211C15.7166 34.7452 15.9601 34.7509 16.2037 34.7379L16.1278 33.3149ZM15.6148 33.3031L15.7558 31.8851L15.4993 31.8596L15.3583 33.2776L15.2173 34.6956L15.4738 34.7211L15.6148 33.3031ZM15.3583 33.2776L15.4993 31.8596L15.2428 31.8341L15.1018 33.2521L14.9608 34.6701L15.2173 34.6956L15.3583 33.2776ZM15.1018 33.2521L15.2428 31.8341C15.0126 31.8112 14.7818 31.8028 14.5508 31.8089L14.5888 33.2334L14.6269 34.6579C14.7379 34.655 14.8491 34.659 14.9608 34.6701L15.1018 33.2521ZM14.5888 33.2334L14.5508 31.8089L14.2943 31.8158L14.3323 33.2403L14.3704 34.6648L14.6269 34.6579L14.5888 33.2334ZM14.3323 33.2403L14.2943 31.8158L14.0378 31.8227L14.0758 33.2471L14.1139 34.6716L14.3704 34.6648L14.3323 33.2403ZM14.0758 33.2471L14.0378 31.8227C13.867 31.8272 13.6962 31.8317 13.5254 31.8362L13.5628 33.2607L13.6002 34.6852C13.7715 34.6807 13.9427 34.6762 14.1139 34.6716L14.0758 33.2471ZM13.5628 33.2607L13.5254 31.8362L13.2689 31.843L13.3063 33.2675L13.3437 34.692L13.6002 34.6852L13.5628 33.2607ZM13.3063 33.2675L13.2689 31.843L13.0124 31.8497L13.0498 33.2742L13.0872 34.6987L13.3437 34.692L13.3063 33.2675ZM13.0498 33.2742L13.0124 31.8497C12.8299 31.8545 12.6473 31.8615 12.4648 31.8707L12.5368 33.2939L12.6089 34.7171C12.7683 34.709 12.9278 34.7029 13.0872 34.6987L13.0498 33.2742ZM12.5368 33.2939L12.4648 31.8707L12.2083 31.8837L12.2803 33.3069L12.3524 34.7301L12.6089 34.7171L12.5368 33.2939ZM12.2803 33.3069L12.2083 31.8837L11.9518 31.8967L12.0238 33.3199L12.0959 34.743L12.3524 34.7301L12.2803 33.3069ZM12.0238 33.3199L11.9518 31.8967C11.8736 31.9006 11.7948 31.8971 11.7141 31.8855L11.5108 33.2959L11.3076 34.7063C11.5689 34.744 11.8321 34.7564 12.0959 34.743L12.0238 33.3199ZM11.5108 33.2959L11.7141 31.8855L11.4576 31.8485L11.2543 33.2589L11.0511 34.6694L11.3076 34.7063L11.5108 33.2959ZM11.2543 33.2589L11.4576 31.8485L11.2011 31.8115L10.9978 33.222L10.7946 34.6324L11.0511 34.6694L11.2543 33.2589ZM10.9978 33.222L11.2011 31.8115C10.9036 31.7687 10.5964 31.7652 10.2868 31.8143L10.5102 33.2217L10.7335 34.6291C10.7336 34.6291 10.7346 34.6289 10.7367 34.6287C10.7388 34.6286 10.7421 34.6284 10.7469 34.6284C10.7563 34.6284 10.772 34.6291 10.7946 34.6324L10.9978 33.222ZM10.5102 33.2217L10.2868 31.8143L10.0556 31.851L10.279 33.2584L10.5024 34.6658L10.7335 34.6291L10.5102 33.2217ZM10.279 33.2584L10.0556 31.851L9.82447 31.8877L10.0478 33.2951L10.2712 34.7024L10.5024 34.6658L10.279 33.2584ZM10.0478 33.2951L9.82447 31.8877C9.75601 31.8985 9.74873 31.8978 9.77504 31.8959C9.78475 31.8952 9.8055 31.894 9.83384 31.8937C9.8583 31.8934 9.91279 31.8935 9.98356 31.9011C10.0278 31.9059 10.2085 31.9249 10.4186 32.0222C10.61 32.1107 11.2417 32.4822 11.2417 33.3112H9.81667H8.39167C8.39167 34.1437 9.02573 34.518 9.22191 34.6087C9.4369 34.7082 9.62483 34.7289 9.67867 34.7347C9.81852 34.7498 9.93599 34.7416 9.97388 34.739C10.0772 34.7317 10.1855 34.716 10.2712 34.7024L10.0478 33.2951ZM9.81667 33.3112H11.2417V33.2907H9.81667H8.39167V33.3112H9.81667ZM9.81667 33.2907L10.3577 34.609L10.4577 34.568L9.91667 33.2497L9.37563 31.9314L9.27562 31.9724L9.81667 33.2907ZM9.91667 33.2497V31.8247H9.81667V33.2497V34.6747H9.91667V33.2497ZM9.81667 33.2497L11.0076 32.4672L10.9527 32.3836L9.76176 33.1661L8.57081 33.9486L8.62572 34.0322L9.81667 33.2497ZM9.76176 33.1661L9.74906 31.7412L9.2638 31.7455L9.27649 33.1704L9.28919 34.5954L9.77445 34.591L9.76176 33.1661ZM9.27649 33.1704L9.2638 31.7455C8.93717 31.7484 8.67704 31.7526 8.4896 31.7586L8.53476 33.1829L8.57991 34.6072C8.73443 34.6023 8.9688 34.5982 9.28919 34.5954L9.27649 33.1704ZM8.53476 33.1829L8.4896 31.7586L8.23313 31.7667L8.27828 33.191L8.32344 34.6153L8.57991 34.6072L8.53476 33.1829ZM8.27828 33.191L8.23313 31.7667L7.97666 31.7749L8.02181 33.1991L8.06697 34.6234L8.32344 34.6153L8.27828 33.191ZM8.02181 33.1991L7.97666 31.7749C7.88935 31.7776 7.80247 31.7728 7.71505 31.7601L7.51066 33.1704L7.30626 34.5806C7.55842 34.6172 7.81231 34.6315 8.06697 34.6234L8.02181 33.1991ZM7.51066 33.1704L7.71505 31.7601L7.46037 31.7232L7.25597 33.1334L7.05158 34.5437L7.30626 34.5806L7.51066 33.1704ZM7.25597 33.1334L7.46037 31.7232L7.20569 31.6863L7.00129 33.0965L6.79689 34.5068L7.05158 34.5437L7.25597 33.1334ZM7.00129 33.0965L7.20569 31.6863C7.22962 31.6897 7.25912 31.6969 7.29098 31.7098C7.32289 31.7226 7.35012 31.7383 7.37145 31.7536L6.53911 32.9103L5.70677 34.0669C6.03229 34.3012 6.40203 34.4496 6.79689 34.5068L7.00129 33.0965ZM6.53911 32.9103L7.37145 31.7536L7.16395 31.6043L6.33161 32.761L5.49927 33.9176L5.70677 34.0669L6.53911 32.9103ZM6.33161 32.761L7.16395 31.6043L6.95645 31.455L6.12411 32.6117L5.29177 33.7683L5.49927 33.9176L6.33161 32.761ZM6.12411 32.6117L6.95645 31.455C6.86693 31.3906 6.78138 31.3205 6.69959 31.2443L5.72857 32.2873L4.75755 33.3302C4.92648 33.4875 5.10463 33.6336 5.29177 33.7683L6.12411 32.6117ZM5.72857 32.2873L6.69959 31.2443L6.51155 31.0692L5.54052 32.1122L4.5695 33.1551L4.75755 33.3302L5.72857 32.2873ZM5.54052 32.1122L6.51155 31.0692L6.3235 30.8942L5.35248 31.9371L4.38146 32.9801L4.5695 33.1551L5.54052 32.1122ZM5.35248 31.9371L6.3235 30.8942C6.35321 30.9218 6.38501 30.959 6.41306 31.0053C6.44111 31.0516 6.45936 31.097 6.47012 31.1361L5.09623 31.5143L3.72235 31.8925C3.8379 32.3123 4.06278 32.6834 4.38146 32.9801L5.35248 31.9371ZM5.09623 31.5143L6.47012 31.1361L6.40192 30.8883L5.02803 31.2666L3.65414 31.6448L3.72235 31.8925L5.09623 31.5143ZM5.02803 31.2666L6.40192 30.8883L6.33372 30.6406L4.95983 31.0188L3.58594 31.3971L3.65414 31.6448L5.02803 31.2666ZM4.95983 31.0188L6.33372 30.6406C6.30425 30.5335 6.28184 30.4257 6.26634 30.3168L4.85555 30.5176L3.44476 30.7183C3.47736 30.9474 3.52447 31.1738 3.58594 31.3971L4.95983 31.0188ZM4.85555 30.5176L6.26634 30.3168L6.23026 30.0633L4.81947 30.264L3.40869 30.4648L3.44476 30.7183L4.85555 30.5176ZM4.81947 30.264L6.23026 30.0633L6.19418 29.8097L4.7834 30.0105L3.37261 30.2113L3.40869 30.4648L4.81947 30.264ZM4.7834 30.0105L6.19418 29.8097C6.18184 29.723 6.1771 29.6359 6.18002 29.5475L4.7558 29.5004L3.33157 29.4533C3.32319 29.707 3.33685 29.96 3.37261 30.2113L4.7834 30.0105ZM4.7558 29.5004L6.18002 29.5475L6.1885 29.2909L4.76428 29.2438L3.34005 29.1968L3.33157 29.4533L4.7558 29.5004ZM4.76428 29.2438L6.1885 29.2909L6.19698 29.0343L4.77275 28.9872L3.34853 28.9402L3.34005 29.1968L4.76428 29.2438ZM4.77275 28.9872L6.19698 29.0343C6.20293 28.8542 6.20717 28.6742 6.2097 28.4941L4.78484 28.474L3.35998 28.454C3.3577 28.6161 3.35389 28.7781 3.34853 28.9402L4.77275 28.9872ZM4.78484 28.474L6.2097 28.4941L6.21331 28.2374L4.78845 28.2174L3.36359 28.1974L3.35998 28.454L4.78484 28.474ZM4.78845 28.2174L6.21331 28.2374L6.21691 27.9808L4.79205 27.9608L3.36719 27.9407L3.36359 28.1974L4.78845 28.2174ZM4.79205 27.9608L6.21691 27.9808C6.21992 27.7671 6.21334 27.5535 6.1972 27.3402L4.77626 27.4476L3.35532 27.5551C3.36505 27.6838 3.369 27.8123 3.36719 27.9407L4.79205 27.9608ZM4.77626 27.4476L6.1972 27.3402L6.1778 27.0837L4.75686 27.1911L3.33592 27.2986L3.35532 27.5551L4.77626 27.4476ZM4.75686 27.1911L6.1778 27.0837L6.1584 26.8272L4.73746 26.9346L3.31652 27.0421L3.33592 27.2986L4.75686 27.1911ZM4.73746 26.9346L6.1584 26.8272C6.14948 26.7092 6.14719 26.5915 6.15151 26.4739L4.72746 26.4216L3.30342 26.3694C3.2952 26.5938 3.29958 26.8181 3.31652 27.0421L4.73746 26.9346ZM4.72746 26.4216L6.15151 26.4739L6.16091 26.2174L4.73687 26.1651L3.31283 26.1129L3.30342 26.3694L4.72746 26.4216ZM4.73687 26.1651L6.16091 26.2174L6.17032 25.9609L4.74627 25.9086L3.32223 25.8564L3.31283 26.1129L4.73687 26.1651ZM4.74627 25.9086L6.17032 25.9609C6.17739 25.7679 6.17999 25.5748 6.17812 25.3818L4.75318 25.3956L3.32825 25.4095C3.3297 25.5585 3.32769 25.7074 3.32223 25.8564L4.74627 25.9086ZM4.75318 25.3956L6.17812 25.3818L6.17562 25.1253L4.75069 25.1391L3.32576 25.153L3.32825 25.4095L4.75318 25.3956ZM4.75069 25.1391L6.17562 25.1253L6.17313 24.8688L4.7482 24.8826L3.32326 24.8965L3.32576 25.153L4.75069 25.1391ZM4.7482 24.8826L6.17313 24.8688C6.17144 24.6952 6.16927 24.5216 6.16663 24.3479L4.74179 24.3696L3.31696 24.3913C3.31953 24.5597 3.32163 24.7281 3.32326 24.8965L4.7482 24.8826ZM4.74179 24.3696L6.16663 24.3479L6.16272 24.0914L4.73789 24.1131L3.31305 24.1348L3.31696 24.3913L4.74179 24.3696ZM4.73789 24.1131L6.16272 24.0914L6.15881 23.8349L4.73398 23.8566L3.30914 23.8783L3.31305 24.1348L4.73789 24.1131ZM4.73398 23.8566L6.15881 23.8349C6.15597 23.6481 6.15001 23.4613 6.14095 23.2746L4.71763 23.3436L3.2943 23.4127C3.30183 23.5679 3.30678 23.7232 3.30914 23.8783L4.73398 23.8566ZM4.71763 23.3436L6.14095 23.2746L6.12851 23.0181L4.70518 23.0871L3.28186 23.1562L3.2943 23.4127L4.71763 23.3436ZM4.70518 23.0871L6.12851 23.0181L6.11607 22.7616L4.69274 22.8306L3.26941 22.8997L3.28186 23.1562L4.70518 23.0871ZM4.69274 22.8306L6.11607 22.7616C6.11227 22.6834 6.11599 22.6045 6.1278 22.5236L4.71777 22.3176L3.30774 22.1116C3.26958 22.3728 3.25662 22.6359 3.26941 22.8997L4.69274 22.8306ZM4.71777 22.3176L6.1278 22.5236L6.16528 22.2671L4.75524 22.0611L3.34521 21.8551L3.30774 22.1116L4.71777 22.3176ZM4.75524 22.0611L6.16528 22.2671L6.20275 22.0106L4.79272 21.8046L3.38269 21.5986L3.34521 21.8551L4.75524 22.0611ZM4.79272 21.8046L6.20275 22.0106C6.24763 21.7034 6.24776 21.394 6.20312 21.0868L4.79293 21.2916L3.38273 21.4965C3.38778 21.5313 3.38777 21.5639 3.38269 21.5986L4.79272 21.8046ZM4.79293 21.2916L6.20312 21.0868L6.16586 20.8303L4.75566 21.0351L3.34547 21.24L3.38273 21.4965L4.79293 21.2916ZM4.75566 21.0351L6.16586 20.8303L6.12859 20.5738L4.7184 20.7786L3.3082 20.9835L3.34547 21.24L4.75566 21.0351ZM4.7184 20.7786L6.12859 20.5738C6.11748 20.4973 6.11437 20.4228 6.11869 20.3488L4.69612 20.2656L3.27355 20.1825C3.25789 20.4505 3.26963 20.718 3.3082 20.9835L4.7184 20.7786ZM4.69612 20.2656L6.11869 20.3488L6.13369 20.0923L4.71111 20.0091L3.28854 19.926L3.27355 20.1825L4.69612 20.2656ZM4.71111 20.0091L6.13369 20.0923L6.14868 19.8358L4.7261 19.7526L3.30353 19.6695L3.28854 19.926L4.71111 20.0091ZM4.7261 19.7526L6.14868 19.8358C6.15847 19.6681 6.16887 19.5005 6.17985 19.3328L4.75791 19.2396L3.33596 19.1465C3.32453 19.3208 3.31372 19.4952 3.30353 19.6695L4.7261 19.7526ZM4.75791 19.2396L6.17985 19.3328L6.19666 19.0763L4.77472 18.9831L3.35277 18.89L3.33596 19.1465L4.75791 19.2396ZM4.77472 18.9831L6.19666 19.0763L6.21347 18.8198L4.79153 18.7266L3.36958 18.6335L3.35277 18.89L4.77472 18.9831ZM4.79153 18.7266L6.21347 18.8198C6.23022 18.5644 6.22419 18.3089 6.19559 18.0545L4.77951 18.2136L3.36342 18.3728C3.37327 18.4604 3.37525 18.5469 3.36958 18.6335L4.79153 18.7266ZM4.77951 18.2136L6.19559 18.0545L6.16677 17.798L4.75068 17.9571L3.3346 18.1163L3.36342 18.3728L4.77951 18.2136ZM4.75068 17.9571L6.16677 17.798L6.13794 17.5415L4.72186 17.7006L3.30577 17.8598L3.3346 18.1163L4.75068 17.9571ZM4.72186 17.7006L6.13794 17.5415C6.1244 17.421 6.11743 17.3011 6.11692 17.1815L4.69193 17.1876L3.26695 17.1937C3.2679 17.4162 3.28088 17.6383 3.30577 17.8598L4.72186 17.7006ZM4.69193 17.1876L6.11692 17.1815L6.11582 16.9249L4.69084 16.931L3.26585 16.9371L3.26695 17.1937L4.69193 17.1876ZM4.69084 16.931L6.11582 16.9249L6.11473 16.6683L4.68974 16.6744L3.26475 16.6805L3.26585 16.9371L4.69084 16.931ZM4.68974 16.6744L6.11473 16.6683C6.11417 16.5375 6.11913 16.4065 6.12965 16.2752L4.70921 16.1613L3.28877 16.0474C3.27187 16.2582 3.26385 16.4693 3.26475 16.6805L4.68974 16.6744ZM4.70921 16.1613L6.12965 16.2752L6.15023 16.0186L4.72979 15.9047L3.30934 15.7908L3.28877 16.0474L4.70921 16.1613ZM4.72979 15.9047L6.15023 16.0186L6.1708 15.7621L4.75036 15.6482L3.32992 15.5343L3.30934 15.7908L4.72979 15.9047ZM4.75036 15.6482L6.1708 15.7621C6.17798 15.6725 6.19272 15.5843 6.21524 15.4968L4.83513 15.1419L3.45502 14.7871C3.39194 15.0324 3.35016 15.2818 3.32992 15.5343L4.75036 15.6482ZM4.83513 15.1419L6.21524 15.4968L6.27943 15.2471L4.89932 14.8923L3.51922 14.5374L3.45502 14.7871L4.83513 15.1419ZM4.89932 14.8923L6.27943 15.2471L6.34363 14.9974L4.96352 14.6426L3.58341 14.2877L3.51922 14.5374L4.89932 14.8923ZM4.96352 14.6426L6.34363 14.9974C6.34241 15.0022 6.33993 15.0097 6.33571 15.0186C6.3315 15.0274 6.32729 15.0338 6.3247 15.0373L5.18208 14.1858L4.03945 13.3343C3.82609 13.6206 3.67244 13.9415 3.58341 14.2877L4.96352 14.6426ZM5.18208 14.1858L6.3247 15.0373L6.47906 14.8301L5.33643 13.9786L4.19381 13.1272L4.03945 13.3343L5.18208 14.1858ZM5.33643 13.9786L6.47906 14.8301L6.63342 14.623L5.49079 13.7715L4.34816 12.92L4.19381 13.1272L5.33643 13.9786ZM5.49079 13.7715L6.63342 14.623C6.67785 14.5634 6.72701 14.51 6.78182 14.4615L5.83806 13.3939L4.8943 12.3262C4.69189 12.5051 4.50954 12.7035 4.34816 12.92L5.49079 13.7715ZM5.83806 13.3939L6.78182 14.4615L6.97473 14.291L6.03097 13.2233L5.08721 12.1557L4.8943 12.3262L5.83806 13.3939ZM6.03097 13.2233L6.97473 14.291L7.16764 14.1205L6.22388 13.0528L5.28013 11.9851L5.08721 12.1557L6.03097 13.2233ZM6.22388 13.0528L7.16764 14.1205C7.24812 14.0494 7.33273 13.9842 7.42181 13.9248L6.63074 12.7395L5.83966 11.5542C5.64349 11.6852 5.45687 11.8289 5.28013 11.9851L6.22388 13.0528ZM6.63074 12.7395L7.42181 13.9248L7.63576 13.782L6.84468 12.5967L6.0536 11.4115L5.83966 11.5542L6.63074 12.7395ZM6.84468 12.5967L7.63576 13.782L7.8497 13.6392L7.05862 12.4539L6.26755 11.2687L6.0536 11.4115L6.84468 12.5967ZM7.05862 12.4539L7.8497 13.6392C8.05774 13.5003 8.25325 13.345 8.43564 13.1738L7.46039 12.1348L6.48514 11.0958C6.41709 11.1597 6.34476 11.2171 6.26755 11.2687L7.05862 12.4539ZM7.46039 12.1348L8.43564 13.1738L8.62346 12.9975L7.64822 11.9585L6.67297 10.9195L6.48514 11.0958L7.46039 12.1348ZM7.64822 11.9585L8.62346 12.9975L8.81129 12.8212L7.83604 11.7822L6.8608 10.7432L6.67297 10.9195L7.64822 11.9585ZM7.83604 11.7822L8.81129 12.8212C8.8681 12.7679 8.9292 12.7209 8.99572 12.6795L8.24284 11.4697L7.48996 10.2598C7.26452 10.4001 7.05442 10.5615 6.8608 10.7432L7.83604 11.7822ZM8.24284 11.4697L8.99572 12.6795L9.21469 12.5433L8.46181 11.3334L7.70893 10.1235L7.48996 10.2598L8.24284 11.4697ZM8.46181 11.3334L9.21469 12.5433L9.43366 12.407L8.68078 11.1971L7.9279 9.98726L7.70893 10.1235L8.46181 11.3334ZM8.68078 11.1971L9.43366 12.407C9.62988 12.2849 9.81779 12.1511 9.99702 12.0056L9.09894 10.8992L8.20087 9.79281C8.11451 9.86291 8.02364 9.92769 7.9279 9.98726L8.68078 11.1971ZM9.09894 10.8992L9.99702 12.0056L10.1962 11.8439L9.29814 10.7375L8.40006 9.63112L8.20087 9.79281L9.09894 10.8992ZM9.29814 10.7375L10.1962 11.8439L10.3954 11.6822L9.49733 10.5758L8.59925 9.46943L8.40006 9.63112L9.29814 10.7375ZM9.49733 10.5758L10.3954 11.6822C10.5196 11.5814 10.6449 11.4821 10.7714 11.3842L9.89939 10.2572L9.0274 9.13011C8.88338 9.24154 8.74066 9.35465 8.59925 9.46943L9.49733 10.5758ZM9.89939 10.2572L10.7714 11.3842L10.9743 11.2273L10.1023 10.1002L9.23027 8.97315L9.0274 9.13011L9.89939 10.2572ZM10.1023 10.1002L10.9743 11.2273L11.1771 11.0703L10.3051 9.94325L9.43314 8.81619L9.23027 8.97315L10.1023 10.1002ZM10.3051 9.94325L11.1771 11.0703C11.3437 10.9414 11.5048 10.8057 11.6603 10.6633L10.6978 9.61248L9.73524 8.56168C9.63775 8.65098 9.53707 8.73579 9.43314 8.81619L10.3051 9.94325ZM10.6978 9.61248L11.6603 10.6633L11.85 10.4895L10.8875 9.43866L9.925 8.38786L9.73524 8.56168L10.6978 9.61248ZM10.8875 9.43866L11.85 10.4895L12.0398 10.3156L11.0773 9.26484L10.1148 8.21404L9.925 8.38786L10.8875 9.43866ZM11.0773 9.26484L12.0398 10.3156C12.0858 10.2735 12.1361 10.2369 12.193 10.2048L11.4929 8.96362L10.7928 7.72247C10.5485 7.86026 10.3218 8.02438 10.1148 8.21404L11.0773 9.26484ZM11.4929 8.96362L12.193 10.2048L12.4189 10.0774L11.7188 8.83621L11.0186 7.59507L10.7928 7.72247L11.4929 8.96362ZM11.7188 8.83621L12.4189 10.0774L12.6447 9.94995L11.9446 8.70881L11.2445 7.46766L11.0186 7.59507L11.7188 8.83621ZM11.9446 8.70881L12.6447 9.94995C12.8716 9.82198 13.0853 9.67397 13.2846 9.50617L12.3668 8.41608L11.4491 7.32598C11.3865 7.37862 11.3188 7.42576 11.2445 7.46766L11.9446 8.70881ZM12.3668 8.41608L13.2846 9.50617L13.481 9.34085L12.5632 8.25075L11.6454 7.16066L11.4491 7.32598L12.3668 8.41608ZM12.5632 8.25075L13.481 9.34085L13.6773 9.17553L12.7596 8.08543L11.8418 6.99533L11.6454 7.16066L12.5632 8.25075ZM12.7596 8.08543L13.6773 9.17553C13.7959 9.07567 13.9161 8.9779 14.0379 8.88221L13.1576 7.76165L12.2773 6.64108C12.1302 6.75667 11.985 6.87476 11.8418 6.99533L12.7596 8.08543ZM13.1576 7.76165L14.0379 8.88221L14.2397 8.72375L13.3593 7.60319L12.479 6.48262L12.2773 6.64108L13.1576 7.76165ZM13.3593 7.60319L14.2397 8.72375L14.4414 8.56529L13.561 7.44473L12.6807 6.32416L12.479 6.48262L13.3593 7.60319ZM13.561 7.44473L14.4414 8.56529C14.61 8.4328 14.7725 8.2927 14.9287 8.14515L13.9501 7.10931L12.9715 6.07347C12.8779 6.16186 12.781 6.24538 12.6807 6.32416L13.561 7.44473ZM13.9501 7.10931L14.9287 8.14515L15.116 7.96818L14.1374 6.93234L13.1588 5.89651L12.9715 6.07347L13.9501 7.10931ZM14.1374 6.93234L15.116 7.96818L15.3033 7.79122L14.3247 6.75538L13.3461 5.71954L13.1588 5.89651L14.1374 6.93234ZM14.3247 6.75538L15.3033 7.79122C15.3659 7.73211 15.4327 7.67953 15.5045 7.6328L14.7278 6.43811L13.9511 5.24341C13.7352 5.38377 13.5333 5.54271 13.3461 5.71954L14.3247 6.75538ZM14.7278 6.43811L15.5045 7.6328L15.7204 7.49249L14.9436 6.29779L14.1669 5.10309L13.9511 5.24341L14.7278 6.43811ZM14.9436 6.29779L15.7204 7.49249L15.9362 7.35217L15.1594 6.15748L14.3827 4.96278L14.1669 5.10309L14.9436 6.29779ZM15.1594 6.15748L15.9362 7.35217C16.1358 7.2224 16.3255 7.07923 16.505 6.92289L15.569 5.84842L14.6329 4.77394C14.5541 4.8426 14.4709 4.90547 14.3827 4.96278L15.1594 6.15748ZM15.569 5.84842L16.505 6.92289L16.6987 6.75415L15.7627 5.67967L14.8266 4.6052L14.6329 4.77394L15.569 5.84842ZM15.7627 5.67967L16.6987 6.75415L16.8924 6.5854L15.9564 5.51093L15.0204 4.43646L14.8266 4.6052L15.7627 5.67967ZM15.9564 5.51093L16.8924 6.5854C16.993 6.49773 17.0969 6.41432 17.2039 6.33511L16.3563 5.18958L15.5088 4.04405C15.3408 4.16832 15.178 4.29914 15.0204 4.43646L15.9564 5.51093ZM16.3563 5.18958L17.2039 6.33511L17.4102 6.1825L16.5626 5.03697L15.715 3.89144L15.5088 4.04405L16.3563 5.18958ZM16.5626 5.03697L17.4102 6.1825L17.6164 6.0299L16.7688 4.88436L15.9213 3.73883L15.715 3.89144L16.5626 5.03697ZM16.7688 4.88436L17.6164 6.0299C17.7355 5.94176 17.8569 5.85643 17.9804 5.77391L17.1888 4.58898L16.3973 3.40406C16.2358 3.5119 16.0772 3.62349 15.9213 3.73883L16.7688 4.88436ZM17.1888 4.58898L17.9804 5.77391L18.1941 5.63114L17.4025 4.44621L16.611 3.26128L16.3973 3.40406L17.1888 4.58898ZM17.4025 4.44621L18.1941 5.63114L18.4078 5.48837L17.6163 4.30344L16.8247 3.11851L16.611 3.26128L17.4025 4.44621ZM17.6163 4.30344L18.4078 5.48837C18.5279 5.40813 18.6473 5.33332 18.7658 5.26379L18.0449 4.03463L17.3239 2.80548C17.1559 2.90399 16.9896 3.00839 16.8247 3.11851L17.6163 4.30344ZM18.0449 4.03463L18.7658 5.26379L18.9807 5.13776L18.2597 3.9086L17.5388 2.67944L17.3239 2.80548L18.0449 4.03463ZM18.2597 3.9086L18.9807 5.13776L19.1956 5.01172L18.4746 3.78257L17.7536 2.55341L17.5388 2.67944L18.2597 3.9086ZM18.4746 3.78257L19.1956 5.01172C19.151 5.03787 19.0962 5.06131 19.0339 5.07636C18.9719 5.09136 18.9156 5.09485 18.8704 5.09256L18.9427 3.6694L19.015 2.24623C18.5738 2.22382 18.1412 2.32605 17.7536 2.55341L18.4746 3.78257ZM18.9427 3.6694L18.8704 5.09256L19.1237 5.10543L19.196 3.68226L19.2683 2.2591L19.015 2.24623L18.9427 3.6694ZM19.196 3.68226L19.1237 5.10543L19.3769 5.11829L19.4492 3.69513L19.5215 2.27196L19.2683 2.2591L19.196 3.68226ZM19.4492 3.69513L19.3769 5.11829C19.314 5.1151 19.2413 5.10134 19.1666 5.07192C19.0922 5.0426 19.033 5.00451 18.99 4.96881L19.901 3.87307L20.8121 2.77733C20.4475 2.47423 20.004 2.29647 19.5215 2.27196L19.4492 3.69513ZM19.901 3.87307L18.99 4.96881L19.1886 5.13389L20.0996 4.03815L21.0106 2.94241L20.8121 2.77733L19.901 3.87307ZM20.0996 4.03815L19.1886 5.13389L19.3871 5.29896L20.2981 4.20322L21.2092 3.10748L21.0106 2.94241L20.0996 4.03815ZM20.2981 4.20322L19.3871 5.29896C19.5441 5.42949 19.7051 5.55441 19.8701 5.67363L20.7047 4.51866L21.5394 3.36368C21.427 3.28243 21.3169 3.19705 21.2092 3.10748L20.2981 4.20322ZM20.7047 4.51866L19.8701 5.67363L20.0781 5.82399L20.9128 4.66901L21.7475 3.51404L21.5394 3.36368L20.7047 4.51866ZM20.9128 4.66901L20.0781 5.82399L20.2862 5.97434L21.1209 4.81937L21.9555 3.6644L21.7475 3.51404L20.9128 4.66901ZM21.1209 4.81937L20.2862 5.97434C20.433 6.08045 20.581 6.18503 20.7301 6.28808L21.5403 5.11579L22.3504 3.94349C22.2177 3.8518 22.0861 3.75877 21.9555 3.6644L21.1209 4.81937ZM21.5403 5.11579L20.7301 6.28808L20.9415 6.43414L21.7516 5.26185L22.5618 4.08955L22.3504 3.94349L21.5403 5.11579ZM21.7516 5.26185L20.9415 6.43414L21.1528 6.5802L21.963 5.40791L22.7731 4.23561L22.5618 4.08955L21.7516 5.26185ZM21.963 5.40791L21.1528 6.5802C21.2738 6.66384 21.3925 6.75039 21.5088 6.83987L22.3776 5.71036L23.2464 4.58084C23.0917 4.46181 22.9339 4.34673 22.7731 4.23561L21.963 5.40791ZM22.3776 5.71036L21.5088 6.83987L21.7121 6.99625L22.5809 5.86674L23.4497 4.73723L23.2464 4.58084L22.3776 5.71036ZM22.5809 5.86674L21.7121 6.99625L21.9154 7.15264L22.7843 6.02313L23.6531 4.89362L23.4497 4.73723L22.5809 5.86674ZM22.7843 6.02313L21.9154 7.15264C22.0519 7.25761 22.1885 7.36242 22.3252 7.46705L23.1913 6.33541L24.0573 5.20377C23.9224 5.10055 23.7877 4.99717 23.6531 4.89362L22.7843 6.02313ZM23.1913 6.33541L22.3252 7.46705L22.5289 7.62294L23.395 6.4913L24.261 5.35966L24.0573 5.20377L23.1913 6.33541ZM23.395 6.4913L22.5289 7.62294L22.7326 7.77883L23.5987 6.64719L24.4647 5.51555L24.261 5.35966L23.395 6.4913ZM23.5987 6.64719L22.7326 7.77883C22.8644 7.87966 22.9956 7.98119 23.1263 8.08343L24.0044 6.96114L24.8825 5.83886C24.7438 5.73035 24.6046 5.62257 24.4647 5.51555L23.5987 6.64719ZM24.0044 6.96114L23.1263 8.08343L23.3283 8.24149L24.2064 7.11921L25.0845 5.99693L24.8825 5.83886L24.0044 6.96114ZM24.2064 7.11921L23.3283 8.24149L23.5303 8.39955L24.4084 7.27727L25.2865 6.15499L25.0845 5.99693L24.2064 7.11921ZM24.4084 7.27727L23.5303 8.39955C23.6084 8.46065 23.6826 8.52821 23.7533 8.60292L24.7887 7.6239L25.8242 6.64488C25.6571 6.46817 25.4778 6.30464 25.2865 6.15499L24.4084 7.27727ZM24.7887 7.6239L23.7533 8.60292L23.9316 8.79148L24.967 7.81247L26.0024 6.83345L25.8242 6.64488L24.7887 7.6239ZM24.967 7.81247L23.9316 8.79148L24.1098 8.98005L25.1453 8.00103L26.1807 7.02201L26.0024 6.83345L24.967 7.81247ZM25.1453 8.00103L24.1098 8.98005C24.2997 9.1809 24.5099 9.35962 24.7393 9.51449L25.5366 8.33344L26.334 7.1524C26.2793 7.11547 26.2285 7.07258 26.1807 7.02201L25.1453 8.00103ZM25.5366 8.33344L24.7393 9.51449L24.9524 9.65833L25.7497 8.47729L26.5471 7.29624L26.334 7.1524L25.5366 8.33344ZM25.7497 8.47729L24.9524 9.65833L25.1654 9.80218L25.9628 8.62113L26.7601 7.44009L26.5471 7.29624L25.7497 8.47729ZM25.9628 8.62113L25.1654 9.80218C25.2893 9.88579 25.4109 9.97208 25.5304 10.0611L26.3816 8.91823L27.2328 7.77539C27.0779 7.66005 26.9204 7.54828 26.7601 7.44009L25.9628 8.62113ZM26.3816 8.91823L25.5304 10.0611L25.7362 10.2143L26.5874 9.07148L27.4386 7.92863L27.2328 7.77539L26.3816 8.91823ZM26.5874 9.07148L25.7362 10.2143L25.9419 10.3676L26.7931 9.22473L27.6443 8.08188L27.4386 7.92863L26.5874 9.07148ZM26.7931 9.22473L25.9419 10.3676C26.0692 10.4623 26.1952 10.5588 26.3199 10.6568L27.2005 9.5365L28.0812 8.4162C27.937 8.30288 27.7914 8.19143 27.6443 8.08188L26.7931 9.22473ZM27.2005 9.5365L26.3199 10.6568L26.5215 10.8153L27.4022 9.69502L28.2829 8.57473L28.0812 8.4162L27.2005 9.5365ZM27.4022 9.69502L26.5215 10.8153L26.7232 10.9738L27.6038 9.85354L28.4845 8.73325L28.2829 8.57473L27.4022 9.69502ZM27.6038 9.85354L26.7232 10.9738C26.8777 11.0953 27.0355 11.2126 27.1964 11.3257L28.0156 10.1597L28.8348 8.99369C28.7156 8.90994 28.5988 8.82313 28.4845 8.73325L27.6038 9.85354ZM28.0156 10.1597L27.1964 11.3257L27.4066 11.4733L28.2258 10.3073L29.0449 9.14132L28.8348 8.99369L28.0156 10.1597ZM28.2258 10.3073L27.4066 11.4733L27.6167 11.6209L28.4359 10.4549L29.2551 9.28895L29.0449 9.14132L28.2258 10.3073ZM28.4359 10.4549L27.6167 11.6209C27.6998 11.6793 27.7785 11.7436 27.853 11.8143L28.8331 10.7798L29.8132 9.74538C29.6383 9.57968 29.4521 9.42739 29.2551 9.28895L28.4359 10.4549ZM28.8331 10.7798L27.853 11.8143L28.0401 11.9915L29.0202 10.9571L30.0003 9.92264L29.8132 9.74538L28.8331 10.7798ZM29.0202 10.9571L28.0401 11.9915L28.2272 12.1688L29.2073 11.1343L30.1873 10.0999L30.0003 9.92264L29.0202 10.9571ZM29.2073 11.1343L28.2272 12.1688C28.4148 12.3465 28.6173 12.5061 28.834 12.6468L29.6102 11.4518L30.3865 10.2568C30.3153 10.2106 30.2492 10.1585 30.1873 10.0999L29.2073 11.1343ZM29.6102 11.4518L28.834 12.6468L29.0498 12.7871L29.8261 11.5921L30.6024 10.3971L30.3865 10.2568L29.6102 11.4518ZM29.8261 11.5921L29.0498 12.7871L29.2657 12.9273L30.042 11.7323L30.8183 10.5373L30.6024 10.3971L29.8261 11.5921ZM30.042 11.7323L29.2657 12.9273C29.3672 12.9932 29.4644 13.064 29.5576 13.1398L30.4569 12.0344L31.3562 10.9291C31.184 10.789 31.0046 10.6583 30.8183 10.5373L30.042 11.7323ZM30.4569 12.0344L29.5576 13.1398L29.7566 13.3017L30.6559 12.1964L31.5552 11.091L31.3562 10.9291L30.4569 12.0344ZM30.6559 12.1964L29.7566 13.3017L29.9556 13.4636L30.8549 12.3583L31.7542 11.2529L31.5552 11.091L30.6559 12.1964ZM30.8549 12.3583L29.9556 13.4636C30.0849 13.5688 30.2137 13.6746 30.3421 13.781L31.2515 12.684L32.1609 11.5869C32.0259 11.4749 31.8903 11.3636 31.7542 11.2529L30.8549 12.3583ZM31.2515 12.684L30.3421 13.781L30.5396 13.9448L31.4491 12.8478L32.3585 11.7507L32.1609 11.5869L31.2515 12.684ZM31.4491 12.8478L30.5396 13.9448L30.7372 14.1086L31.6466 13.0115L32.5561 11.9145L32.3585 11.7507L31.4491 12.8478ZM31.6466 13.0115L30.7372 14.1086C30.8574 14.2083 30.9761 14.3098 31.0932 14.4132L32.0366 13.3453L32.98 12.2773C32.8406 12.1541 32.6993 12.0332 32.5561 11.9145L31.6466 13.0115ZM32.0366 13.3453L31.0932 14.4132L31.2856 14.5832L32.229 13.5152L33.1724 12.4472L32.98 12.2773L32.0366 13.3453ZM32.229 13.5152L31.2856 14.5832L31.4779 14.7531L32.4213 13.6851L33.3648 12.6171L33.1724 12.4472L32.229 13.5152ZM32.4213 13.6851L31.4779 14.7531C31.4649 14.7416 31.4493 14.7252 31.434 14.7039C31.4186 14.6826 31.4073 14.6615 31.3995 14.6432L32.7126 14.0896L34.0257 13.536C33.876 13.1809 33.6519 12.8708 33.3648 12.6171L32.4213 13.6851ZM32.7126 14.0896L31.3995 14.6432L31.4984 14.8778L32.8115 14.3242L34.1246 13.7706L34.0257 13.536L32.7126 14.0896ZM32.8115 14.3242L31.4984 14.8778L31.5973 15.1124L32.9104 14.5588L34.2235 14.0052L34.1246 13.7706L32.8115 14.3242ZM32.9104 14.5588L31.5973 15.1124C31.6314 15.1933 31.6577 15.2749 31.6768 15.358L33.0658 15.0396L34.4547 14.7211C34.3985 14.4759 34.3212 14.237 34.2235 14.0052L32.9104 14.5588ZM33.0658 15.0396L31.6768 15.358L31.7332 15.6043L33.1222 15.2858L34.5112 14.9674L34.4547 14.7211L33.0658 15.0396ZM33.1222 15.2858L31.7332 15.6043L31.7897 15.8505L33.1787 15.5321L34.5676 15.2136L34.5112 14.9674L33.1222 15.2858ZM33.1787 15.5321L31.7897 15.8505C31.8014 15.9015 31.8073 15.9549 31.8064 16.0133L33.2313 16.0348L34.6561 16.0563C34.6604 15.7727 34.6312 15.491 34.5676 15.2136L33.1787 15.5321ZM33.2313 16.0348L31.8064 16.0133L31.8026 16.2698L33.2274 16.2913L34.6522 16.3128L34.6561 16.0563L33.2313 16.0348ZM33.2274 16.2913L31.8026 16.2698L31.7987 16.5263L33.2235 16.5477L34.6484 16.5692L34.6522 16.3128L33.2274 16.2913ZM33.2235 16.5477L31.7987 16.5263C31.7962 16.6924 31.7928 16.8585 31.7886 17.0246L33.2132 17.0607L34.6377 17.0969C34.6422 16.921 34.6457 16.7451 34.6484 16.5692L33.2235 16.5477ZM33.2132 17.0607L31.7886 17.0246L31.7821 17.2811L33.2066 17.3172L34.6312 17.3534L34.6377 17.0969L33.2132 17.0607ZM33.2066 17.3172L31.7821 17.2811L31.7756 17.5376L33.2001 17.5737L34.6247 17.6099L34.6312 17.3534L33.2066 17.3172ZM33.2001 17.5737L31.7756 17.5376C31.7705 17.7394 31.7719 17.9413 31.7799 18.1431L33.2038 18.0867L34.6277 18.0303C34.6221 17.8901 34.6211 17.75 34.6247 17.6099L33.2001 17.5737ZM33.2038 18.0867L31.7799 18.1431L31.7901 18.3996L33.214 18.3432L34.6378 18.2868L34.6277 18.0303L33.2038 18.0867ZM33.214 18.3432L31.7901 18.3996L31.8002 18.6561L33.2241 18.5997L34.648 18.5433L34.6378 18.2868L33.214 18.3432ZM33.2241 18.5997L31.8002 18.6561C31.8065 18.8137 31.8105 18.9712 31.8122 19.1287L33.2372 19.1127L34.6621 19.0967C34.66 18.9122 34.6553 18.7278 34.648 18.5433L33.2241 18.5997ZM33.2372 19.1127L31.8122 19.1287L31.8151 19.3852L33.24 19.3692L34.6649 19.3532L34.6621 19.0967L33.2372 19.1127ZM33.24 19.3692L31.8151 19.3852L31.818 19.6417L33.2429 19.6257L34.6678 19.6097L34.6649 19.3532L33.24 19.3692ZM33.2429 19.6257L31.818 19.6417C31.8196 19.7834 31.8168 19.9252 31.8097 20.067L33.2329 20.1387L34.6561 20.2104C34.6662 20.0102 34.6701 19.81 34.6678 19.6097L33.2429 19.6257ZM33.2329 20.1387L31.8097 20.067L31.7968 20.3235L33.2199 20.3952L34.6431 20.4669L34.6561 20.2104L33.2329 20.1387ZM33.2199 20.3952L31.7968 20.3235L31.7838 20.58L33.207 20.6517L34.6302 20.7234L34.6431 20.4669L33.2199 20.3952ZM33.207 20.6517L31.7838 20.58C31.7715 20.8241 31.778 21.0681 31.8032 21.3113L33.2206 21.1647L34.6381 21.0182C34.6279 20.9194 34.6253 20.8213 34.6302 20.7234L33.207 20.6517ZM33.2206 21.1647L31.8032 21.3113L31.8297 21.5678L33.2471 21.4212L34.6646 21.2747L34.6381 21.0182L33.2206 21.1647ZM33.2471 21.4212L31.8297 21.5678L31.8562 21.8243L33.2737 21.6777L34.6911 21.5312L34.6646 21.2747L33.2471 21.4212ZM33.2737 21.6777L31.8562 21.8243C31.87 21.9575 31.8784 22.0905 31.8814 22.2232L33.306 22.1907L34.7306 22.1583C34.7259 21.949 34.7127 21.7399 34.6911 21.5312L33.2737 21.6777ZM33.306 22.1907L31.8814 22.2232L31.8872 22.4797L33.3119 22.4472L34.7365 22.4148L34.7306 22.1583L33.306 22.1907ZM33.3119 22.4472L31.8872 22.4797L31.8931 22.7362L33.3177 22.7037L34.7423 22.6713L34.7365 22.4148L33.3119 22.4472ZM33.3177 22.7037L31.8931 22.7362C31.8954 22.84 31.8905 22.9443 31.8781 23.0494L33.2932 23.2167L34.7084 23.384C34.7364 23.1472 34.7478 22.9094 34.7423 22.6713L33.3177 22.7037ZM33.2932 23.2167L31.8781 23.0494L31.8478 23.3059L33.2629 23.4732L34.6781 23.6405L34.7084 23.384L33.2932 23.2167ZM33.2629 23.4732L31.8478 23.3059L31.8174 23.5624L33.2326 23.7297L34.6477 23.897L34.6781 23.6405L33.2629 23.4732ZM33.2326 23.7297L31.8174 23.5624C31.7878 23.8128 31.7794 24.0644 31.7924 24.3162L33.2155 24.2427L34.6386 24.1693C34.6339 24.079 34.6369 23.9886 34.6477 23.897L33.2326 23.7297ZM33.2155 24.2427L31.7924 24.3162L31.8056 24.5727L33.2287 24.4992L34.6518 24.4258L34.6386 24.1693L33.2155 24.2427ZM33.2287 24.4992L31.8056 24.5727L31.8189 24.8292L33.242 24.7557L34.6651 24.6823L34.6518 24.4258L33.2287 24.4992ZM33.242 24.7557L31.8189 24.8292C31.8276 24.999 31.8362 25.1689 31.8446 25.3388L33.2678 25.2687L34.6911 25.1986C34.6826 25.0265 34.674 24.8544 34.6651 24.6823L33.242 24.7557ZM33.2678 25.2687L31.8446 25.3388L31.8572 25.5953L33.2805 25.5252L34.7037 25.4551L34.6911 25.1986L33.2678 25.2687ZM33.2805 25.5252L31.8572 25.5953L31.8698 25.8518L33.2931 25.7817L34.7164 25.7116L34.7037 25.4551L33.2805 25.5252ZM33.2931 25.7817L31.8698 25.8518C31.8771 26.0006 31.881 26.1494 31.8813 26.2981L33.3063 26.2947L34.7313 26.2913C34.7309 26.0981 34.7259 25.9048 34.7164 25.7116L33.2931 25.7817ZM33.3063 26.2947L31.8813 26.2981L31.8819 26.5546L33.3069 26.5512L34.7319 26.5478L34.7313 26.2913L33.3063 26.2947ZM33.3069 26.5512L31.8819 26.5546L31.8826 26.8111L33.3076 26.8077L34.7325 26.8043L34.7319 26.5478L33.3069 26.5512ZM33.3076 26.8077L31.8826 26.8111C31.8829 26.9678 31.881 27.1246 31.8766 27.2814L33.3011 27.3207L34.7255 27.3601C34.7306 27.1748 34.733 26.9896 34.7325 26.8043L33.3076 26.8077ZM33.3011 27.3207L31.8766 27.2814L31.8695 27.5379L33.294 27.5772L34.7184 27.6166L34.7255 27.3601L33.3011 27.3207ZM33.294 27.5772L31.8695 27.5379L31.8624 27.7944L33.2869 27.8337L34.7114 27.8731L34.7184 27.6166L33.294 27.5772ZM33.2869 27.8337L31.8624 27.7944C31.8579 27.9573 31.852 28.1203 31.8448 28.2832L33.2684 28.3468L34.6919 28.4103C34.6999 28.2312 34.7064 28.0521 34.7114 27.8731L33.2869 27.8337ZM33.2684 28.3468L31.8448 28.2832L31.8333 28.5398L33.2569 28.6033L34.6805 28.6668L34.6919 28.4103L33.2684 28.3468ZM33.2569 28.6033L31.8333 28.5398L31.8219 28.7963L33.2455 28.8599L34.669 28.9234L34.6805 28.6668L33.2569 28.6033ZM33.2455 28.8599L31.8219 28.7963C31.8147 28.9564 31.8058 29.1161 31.7949 29.2753L33.2167 29.3719L34.6384 29.4685C34.6507 29.2871 34.6609 29.1054 34.669 28.9234L33.2455 28.8599ZM33.2167 29.3719L31.7949 29.2753L31.7776 29.5308L33.1993 29.6274L34.621 29.724L34.6384 29.4685L33.2167 29.3719ZM33.1993 29.6274L31.7776 29.5308L31.7602 29.7863L33.1819 29.8829L34.6037 29.9795L34.621 29.724L33.1993 29.6274ZM33.1819 29.8829L31.7602 29.7863C31.7499 29.939 31.7367 30.0911 31.7207 30.2427L33.1378 30.3923L34.5549 30.5418C34.5747 30.3549 34.5909 30.1675 34.6037 29.9795L33.1819 29.8829ZM33.1378 30.3923L31.7207 30.2427L31.6939 30.4965L33.111 30.6461L34.5281 30.7957L34.5549 30.5418L33.1378 30.3923ZM33.111 30.6461L31.6939 30.4965L31.6671 30.7504L33.0842 30.8999L34.5013 31.0495L34.5281 30.7957L33.111 30.6461ZM33.0842 30.8999L31.6671 30.7504C31.6687 30.7351 31.6725 30.7154 31.6798 30.6935C31.6871 30.6715 31.6962 30.6526 31.705 30.638L32.9268 31.3714L34.1486 32.1047C34.3432 31.7806 34.4618 31.424 34.5013 31.0495L33.0842 30.8999ZM32.9268 31.3714L31.705 30.638L31.5744 30.8556L32.7962 31.589L34.018 32.3223L34.1486 32.1047L32.9268 31.3714ZM32.7962 31.589L31.5744 30.8556L31.4438 31.0732L32.6656 31.8066L33.8874 32.5399L34.018 32.3223L32.7962 31.589ZM32.6656 31.8066L31.4438 31.0732C31.4084 31.1322 31.3667 31.1878 31.3172 31.241L32.3602 32.2119L33.4033 33.1828C33.5868 32.9857 33.7486 32.7711 33.8874 32.5399L32.6656 31.8066ZM32.3602 32.2119L31.3172 31.241L31.1424 31.4287L32.1855 32.3996L33.2285 33.3706L33.4033 33.1828L32.3602 32.2119ZM32.1855 32.3996L31.1424 31.4287L30.9677 31.6165L32.0107 32.5874L33.0537 33.5583L33.2285 33.3706L32.1855 32.3996ZM32.0107 32.5874L30.9677 31.6165C30.9816 31.6015 30.9998 31.5854 31.0216 31.5707C31.0433 31.5561 31.0634 31.5462 31.0789 31.5402L31.5937 32.869L32.1086 34.1977C32.4683 34.0584 32.7886 33.8432 33.0537 33.5583L32.0107 32.5874ZM31.5937 32.869L31.0789 31.5402L30.8367 31.6341L31.3516 32.9628L31.8664 34.2916L32.1086 34.1977L31.5937 32.869ZM31.3516 32.9628L30.8367 31.6341L30.5945 31.7279L31.1094 33.0567L31.6242 34.3854L31.8664 34.2916L31.3516 32.9628ZM31.1094 33.0567L30.5945 31.7279C30.6028 31.7247 30.6151 31.721 30.6299 31.7185C30.6448 31.7161 30.6577 31.7156 30.6669 31.716L30.6079 33.1398L30.5488 34.5635C30.9177 34.5788 31.2802 34.5187 31.6242 34.3854L31.1094 33.0567ZM30.6079 33.1398L30.6669 31.716L30.4077 31.7052L30.3486 33.129L30.2896 34.5528L30.5488 34.5635L30.6079 33.1398ZM30.3486 33.129L30.4077 31.7052L30.1484 31.6945L30.0893 33.1182L30.0303 34.542L30.2896 34.5528L30.3486 33.129ZM30.0893 33.1182L30.1484 31.6945C29.931 31.6855 29.7141 31.6867 29.4979 31.6983L29.5747 33.1213L29.6515 34.5442C29.7759 34.5375 29.9021 34.5367 30.0303 34.542L30.0893 33.1182ZM29.5747 33.1213L29.4979 31.6983L29.2426 31.7121L29.3194 33.1351L29.3962 34.558L29.6515 34.5442L29.5747 33.1213ZM29.3194 33.1351L29.2426 31.7121L28.9873 31.7259L29.0641 33.1488L29.1409 34.5718L29.3962 34.558L29.3194 33.1351ZM29.0641 33.1488L28.9873 31.7259C28.7982 31.7361 28.6165 31.7506 28.4559 31.773L28.6524 33.1844L28.8488 34.5958C28.8968 34.5891 28.9895 34.5799 29.1409 34.5718L29.0641 33.1488ZM28.6524 33.1844L28.4559 31.773L28.2996 31.7948L28.496 33.2061L28.6925 34.6175L28.8488 34.5958L28.6524 33.1844ZM28.496 33.2061L28.715 31.7981L28.4571 31.758L28.2382 33.1661L28.0193 34.5741L28.2771 34.6142L28.496 33.2061ZM28.2382 33.1661L27.0467 32.3844L26.9918 32.468L28.1833 33.2497L29.3748 34.0313L29.4297 33.9477L28.2382 33.1661ZM9.81667 33.2497V34.6747H9.91667V33.2497V31.8247H9.81667V33.2497ZM9.91667 33.2497L9.90712 34.6746L10.3701 34.6777L10.3797 33.2528L10.3892 31.8278L9.92621 31.8247L9.91667 33.2497ZM10.3797 33.2528L10.3701 34.6777C10.692 34.6799 10.9765 34.6749 11.2044 34.658L11.0992 33.2369L10.9939 31.8158C10.8799 31.8242 10.6846 31.8298 10.3892 31.8278L10.3797 33.2528ZM11.0992 33.2369L11.2044 34.658L11.4609 34.639L11.3557 33.2179L11.2504 31.7968L10.9939 31.8158L11.0992 33.2369ZM11.3557 33.2179L11.4609 34.639L11.7174 34.62L11.6122 33.1989L11.5069 31.7778L11.2504 31.7968L11.3557 33.2179ZM11.6122 33.1989L11.7174 34.62C11.7941 34.6143 11.8709 34.6162 11.949 34.6259L12.1252 33.2119L12.3013 31.7978C12.0375 31.7649 11.7722 31.7581 11.5069 31.7778L11.6122 33.1989ZM12.1252 33.2119L11.949 34.6259L12.2055 34.6579L12.3817 33.2438L12.5578 31.8297L12.3013 31.7978L12.1252 33.2119ZM12.3817 33.2438L12.2055 34.6579L12.462 34.6898L12.6382 33.2758L12.8143 31.8617L12.5578 31.8297L12.3817 33.2438ZM12.6382 33.2758L12.462 34.6898C12.7141 34.7212 12.9674 34.7309 13.2211 34.7184L13.1512 33.2951L13.0812 31.8718C12.9929 31.8762 12.9042 31.8729 12.8143 31.8617L12.6382 33.2758ZM13.1512 33.2951L13.2211 34.7184L13.4776 34.7058L13.4077 33.2825L13.3377 31.8592L13.0812 31.8718L13.1512 33.2951ZM13.4077 33.2825L13.4776 34.7058L13.7341 34.6932L13.6642 33.2699L13.5942 31.8466L13.3377 31.8592L13.4077 33.2825ZM13.6642 33.2699L13.7341 34.6932C13.8204 34.6889 13.8887 34.6854 13.9369 34.6827C13.96 34.6814 13.984 34.68 14.0048 34.6786C14.0135 34.678 14.0321 34.6767 14.0533 34.6746C14.0614 34.6739 14.0878 34.6713 14.1209 34.6667C14.1346 34.6648 14.1748 34.659 14.2256 34.6479C14.2493 34.6428 14.3017 34.6309 14.3666 34.6096C14.3816 34.6047 14.6007 34.54 14.8191 34.3634L13.923 33.2554L13.0269 32.1474C13.1567 32.0424 13.2755 31.9846 13.3294 31.9599C13.3929 31.9308 13.4464 31.912 13.4792 31.9013C13.5439 31.8801 13.5962 31.8682 13.6197 31.8631C13.67 31.8521 13.7097 31.8465 13.7225 31.8447C13.7541 31.8402 13.7784 31.8379 13.7836 31.8374C13.7928 31.8366 13.7995 31.836 13.802 31.8358C13.8051 31.8356 13.807 31.8355 13.8071 31.8354C13.8073 31.8354 13.805 31.8356 13.7993 31.8359C13.7939 31.8363 13.7866 31.8367 13.7774 31.8372C13.7393 31.8393 13.6789 31.8425 13.5942 31.8466L13.6642 33.2699ZM13.923 33.2554L14.8191 34.3634L14.8215 34.3615L13.9254 33.2535L13.0293 32.1455L13.0269 32.1474L13.923 33.2554ZM13.9254 33.2535L13.9824 31.8296L13.8871 31.8258L13.8301 33.2497L13.7731 34.6735L13.8684 34.6773L13.9254 33.2535ZM13.8301 33.2497V34.6747H13.9301V33.2497V31.8247H13.8301V33.2497ZM24.1232 33.2497L24.1838 34.6734L24.6968 34.6515L24.6362 33.2278L24.5756 31.8041L24.0626 31.826L24.1232 33.2497ZM24.6362 33.2278L24.6968 34.6515C25.0239 34.6376 25.199 34.6427 25.267 34.6493L25.4057 33.2311L25.5444 31.8129C25.2704 31.7861 24.9325 31.7889 24.5756 31.8041L24.6362 33.2278ZM25.4057 33.2311L25.267 34.6493L25.5235 34.6744L25.6622 33.2562L25.8009 31.8379L25.5444 31.8129L25.4057 33.2311ZM25.6622 33.2562L25.5235 34.6744L25.78 34.6995L25.9187 33.2813L26.0574 31.863L25.8009 31.8379L25.6622 33.2562ZM25.9187 33.2813L25.78 34.6995C26.0378 34.7247 26.2964 34.7262 26.5545 34.7039L26.4317 33.2842L26.309 31.8645C26.2251 31.8717 26.1416 31.8713 26.0574 31.863L25.9187 33.2813ZM26.4317 33.2842L26.5545 34.7039L26.811 34.6817L26.6882 33.262L26.5655 31.8423L26.309 31.8645L26.4317 33.2842ZM26.6882 33.262L26.811 34.6817L27.0675 34.6595L26.9447 33.2398L26.822 31.8201L26.5655 31.8423L26.6882 33.262ZM26.9447 33.2398L27.0675 34.6595C27.1943 34.6486 27.315 34.6441 27.4299 34.6455L27.4468 33.2206L27.4636 31.7957C27.2512 31.7931 27.0372 31.8015 26.822 31.8201L26.9447 33.2398ZM27.4468 33.2206L27.4299 34.6455L27.6754 34.6484L27.6923 33.2235L27.7091 31.7986L27.4636 31.7957L27.4468 33.2206ZM27.6923 33.2235L27.6754 34.6484L27.9209 34.6513L27.9378 33.2264L27.9547 31.8015L27.7091 31.7986L27.6923 33.2235ZM27.9378 33.2264L27.9209 34.6513C28.0006 34.6522 28.0499 34.6532 28.0755 34.6541C28.0916 34.6546 28.0829 34.6546 28.0626 34.6531C28.0587 34.6528 28.0153 34.6498 27.9582 34.6408C27.9401 34.638 27.8522 34.6246 27.744 34.5896C27.6999 34.5754 27.5592 34.529 27.4018 34.4258C27.3146 34.3686 26.7583 33.9971 26.7583 33.2344H28.1833H29.6083C29.6083 32.4715 29.0519 32.0997 28.9644 32.0423C28.8067 31.9389 28.6655 31.8923 28.6208 31.8779C28.5113 31.8425 28.4215 31.8287 28.4008 31.8254C28.3386 31.8156 28.2875 31.8119 28.2733 31.8109C28.2326 31.8078 28.1933 31.8064 28.1684 31.8056C28.1121 31.8037 28.0387 31.8025 27.9547 31.8015L27.9378 33.2264ZM28.1833 33.2344H26.7583V33.2395H28.1833H29.6083V33.2344H28.1833ZM28.1833 33.2395H26.7583V33.2497H28.1833H29.6083V33.2395H28.1833ZM13.9301 33.2497H15.3551V33.1497H13.9301H12.5051V33.2497H13.9301ZM13.9301 33.1497L15.3537 33.2123L15.3741 32.7493L13.9505 32.6867L12.5268 32.624L12.5065 33.087L13.9301 33.1497ZM13.9505 32.6867L15.3741 32.7493C15.3884 32.4242 15.3927 32.1286 15.379 31.8864L13.9563 31.9672L12.5336 32.048C12.5392 32.1477 12.5397 32.3318 12.5268 32.624L13.9505 32.6867ZM13.9563 31.9672L15.379 31.8864L15.3644 31.6299L13.9417 31.7107L12.519 31.7915L12.5336 32.048L13.9563 31.9672ZM13.9417 31.7107L15.3644 31.6299L15.3498 31.3734L13.9271 31.4542L12.5044 31.535L12.519 31.7915L13.9417 31.7107ZM13.9271 31.4542L15.3498 31.3734C15.341 31.2182 15.3348 31.063 15.3312 30.9079L13.9066 30.9412L12.482 30.9745C12.4863 31.1613 12.4938 31.3482 12.5044 31.535L13.9271 31.4542ZM13.9066 30.9412L15.3312 30.9079L15.3252 30.6514L13.9006 30.6847L12.476 30.718L12.482 30.9745L13.9066 30.9412ZM13.9006 30.6847L15.3252 30.6514L15.3192 30.3949L13.8946 30.4282L12.47 30.4615L12.476 30.718L13.9006 30.6847ZM13.8946 30.4282L15.3192 30.3949C15.3152 30.2242 15.3113 30.0535 15.3074 29.8828L13.8828 29.9152L12.4581 29.9475C12.462 30.1188 12.466 30.2902 12.47 30.4615L13.8946 30.4282ZM13.8828 29.9152L15.3074 29.8828L15.3016 29.6263L13.8769 29.6587L12.4523 29.691L12.4581 29.9475L13.8828 29.9152ZM13.8769 29.6587L15.3016 29.6263L15.2958 29.3698L13.8711 29.4022L12.4465 29.4345L12.4523 29.691L13.8769 29.6587ZM13.8711 29.4022L15.2958 29.3698C15.2935 29.2709 15.2987 29.1713 15.3116 29.0707L13.8982 28.8892L12.4848 28.7077C12.4538 28.949 12.441 29.1915 12.4465 29.4345L13.8711 29.4022ZM13.8982 28.8892L15.3116 29.0707L15.3446 28.8142L13.9312 28.6327L12.5178 28.4512L12.4848 28.7077L13.8982 28.8892ZM13.9312 28.6327L15.3446 28.8142L15.3775 28.5577L13.9641 28.3762L12.5507 28.1947L12.5178 28.4512L13.9312 28.6327ZM13.9641 28.3762L15.3775 28.5577C15.415 28.2656 15.4148 27.972 15.377 27.68L13.9638 27.8632L12.5506 28.0463C12.5571 28.0963 12.5571 28.1448 12.5507 28.1947L13.9641 28.3762ZM13.9638 27.8632L15.377 27.68L15.3437 27.4235L13.9306 27.6067L12.5174 27.7898L12.5506 28.0463L13.9638 27.8632ZM13.9306 27.6067L15.3437 27.4235L15.3105 27.167L13.8973 27.3502L12.4841 27.5333L12.5174 27.7898L13.9306 27.6067ZM13.8973 27.3502L15.3105 27.167C15.2983 27.0727 15.2939 26.9797 15.2972 26.8872L13.8731 26.8372L12.4489 26.7872C12.4402 27.0367 12.452 27.2857 12.4841 27.5333L13.8973 27.3502ZM13.8731 26.8372L15.2972 26.8872L15.3062 26.6307L13.8821 26.5807L12.4579 26.5307L12.4489 26.7872L13.8731 26.8372ZM13.8821 26.5807L15.3062 26.6307L15.3152 26.3742L13.8911 26.3242L12.4669 26.2742L12.4579 26.5307L13.8821 26.5807ZM13.8911 26.3242L15.3152 26.3742C15.3219 26.1843 15.3247 25.9944 15.3238 25.8045L13.8989 25.8112L12.4739 25.8179C12.4746 25.97 12.4723 26.1221 12.4669 26.2742L13.8911 26.3242ZM13.8989 25.8112L15.3238 25.8045L15.3226 25.548L13.8977 25.5547L12.4727 25.5614L12.4739 25.8179L13.8989 25.8112ZM13.8977 25.5547L15.3226 25.548L15.3214 25.2915L13.8965 25.2982L12.4715 25.3049L12.4727 25.5614L13.8977 25.5547ZM13.8965 25.2982L15.3214 25.2915C15.3207 25.1432 15.3236 24.995 15.33 24.8467L13.9063 24.7852L12.4827 24.7237C12.4743 24.9174 12.4706 25.1111 12.4715 25.3049L13.8965 25.2982ZM13.9063 24.7852L15.33 24.8467L15.3411 24.5902L13.9174 24.5287L12.4937 24.4672L12.4827 24.7237L13.9063 24.7852ZM13.9174 24.5287L15.3411 24.5902L15.3522 24.3337L13.9285 24.2722L12.5048 24.2107L12.4937 24.4672L13.9174 24.5287ZM13.9285 24.2722L15.3522 24.3337C15.3611 24.1258 15.362 23.918 15.3549 23.7101L13.9307 23.7592L12.5066 23.8082C12.5112 23.9424 12.5106 24.0765 12.5048 24.2107L13.9285 24.2722ZM13.9307 23.7592L15.3549 23.7101L15.3461 23.4536L13.9219 23.5027L12.4977 23.5517L12.5066 23.8082L13.9307 23.7592ZM13.9219 23.5027L15.3461 23.4536L15.3372 23.1971L13.9131 23.2462L12.4889 23.2952L12.4977 23.5517L13.9219 23.5027ZM13.9131 23.2462L15.3372 23.1971C15.3329 23.0709 15.3345 22.9447 15.342 22.8183L13.9196 22.7332L12.4971 22.648C12.4842 22.8636 12.4815 23.0794 12.4889 23.2952L13.9131 23.2462ZM13.9196 22.7332L15.342 22.8183L15.3574 22.5618L13.9349 22.4767L12.5125 22.3915L12.4971 22.648L13.9196 22.7332ZM13.9349 22.4767L15.3574 22.5618L15.3727 22.3053L13.9503 22.2202L12.5278 22.135L12.5125 22.3915L13.9349 22.4767ZM13.9503 22.2202L15.3727 22.3053C15.3859 22.0858 15.3878 21.8662 15.3785 21.6466L13.9547 21.7071L12.531 21.7676C12.5362 21.8901 12.5352 22.0125 12.5278 22.135L13.9503 22.2202ZM13.9547 21.7071L15.3785 21.6466L15.3676 21.39L13.9438 21.4505L12.5201 21.511L12.531 21.7676L13.9547 21.7071ZM13.9438 21.4505L15.3676 21.39L15.3567 21.1334L13.9329 21.1939L12.5092 21.2544L12.5201 21.511L13.9438 21.4505ZM13.9329 21.1939L15.3567 21.1334C15.3536 21.0615 15.3581 20.9935 15.3693 20.9277L13.9647 20.6877L12.5601 20.4477C12.5144 20.7147 12.4977 20.9842 12.5092 21.2544L13.9329 21.1939ZM13.9647 20.6877L15.3693 20.9277L15.412 20.6781L14.0073 20.438L12.6027 20.198L12.5601 20.4477L13.9647 20.6877ZM14.0073 20.438L15.412 20.6781L15.4546 20.4284L14.05 20.1884L12.6454 19.9484L12.6027 20.198L14.0073 20.438ZM14.05 20.1884L15.4546 20.4284C15.4562 20.4191 15.4579 20.4152 15.4608 20.4101L14.2146 19.7189L12.9685 19.0277C12.8087 19.3157 12.7006 19.6249 12.6454 19.9484L14.05 20.1884ZM14.2146 19.7189L15.4608 20.4101L15.5827 20.1902L14.3366 19.499L13.0904 18.8078L12.9685 19.0277L14.2146 19.7189ZM14.3366 19.499L15.5827 20.1902L15.7047 19.9703L14.4586 19.2791L13.2124 18.5879L13.0904 18.8078L14.3366 19.499ZM14.4586 19.2791L15.7047 19.9703C15.6491 20.0706 15.5553 20.1884 15.4133 20.2848C15.272 20.3806 15.1315 20.4223 15.026 20.4367L14.8335 19.0247L14.641 17.6128C14.0351 17.6954 13.5155 18.0414 13.2124 18.5879L14.4586 19.2791ZM14.8335 19.0247L15.026 20.4367L15.2789 20.4022L15.0864 18.9902L14.8939 17.5783L14.641 17.6128L14.8335 19.0247ZM15.0864 18.9902L15.2789 20.4022L15.5318 20.3677L15.3393 18.9558L15.1468 17.5438L14.8939 17.5783L15.0864 18.9902ZM15.3393 18.9558L15.5318 20.3677C15.6486 20.3518 15.7659 20.3423 15.8841 20.3393L15.8478 18.9148L15.8115 17.4902C15.589 17.4959 15.3673 17.5138 15.1468 17.5438L15.3393 18.9558ZM15.8478 18.9148L15.8841 20.3393L16.1396 20.3328L16.1033 18.9083L16.067 17.4837L15.8115 17.4902L15.8478 18.9148ZM16.1033 18.9083L16.1396 20.3328L16.3952 20.3263L16.3589 18.9017L16.3226 17.4772L16.067 17.4837L16.1033 18.9083ZM16.3589 18.9017L16.3952 20.3263C16.6219 20.3205 16.8481 20.3013 17.0734 20.2689L16.8709 18.8584L16.6684 17.4479C16.5517 17.4646 16.4365 17.4743 16.3226 17.4772L16.3589 18.9017ZM16.8709 18.8584L17.0734 20.2689L17.3299 20.2321L17.1274 18.8216L16.9249 17.411L16.6684 17.4479L16.8709 18.8584ZM17.1274 18.8216L17.3299 20.2321L17.5864 20.1953L17.3839 18.7847L17.1814 17.3742L16.9249 17.411L17.1274 18.8216ZM17.3839 18.7847L17.5864 20.1953C17.68 20.1818 17.772 20.1764 17.8632 20.1786L17.8969 18.754L17.9306 17.3294C17.6798 17.3234 17.4298 17.3385 17.1814 17.3742L17.3839 18.7847ZM17.8969 18.754L17.8632 20.1786L18.1197 20.1847L18.1534 18.7601L18.1871 17.3355L17.9306 17.3294L17.8969 18.754ZM18.1534 18.7601L18.1197 20.1847L18.3762 20.1907L18.4099 18.7661L18.4436 17.3415L18.1871 17.3355L18.1534 18.7601ZM18.4099 18.7661L18.3762 20.1907C18.5312 20.1944 18.6863 20.2007 18.8414 20.2096L18.9229 18.7869L19.0044 17.3642C18.8175 17.3535 18.6306 17.346 18.4436 17.3415L18.4099 18.7661ZM18.9229 18.7869L18.8414 20.2096L19.0979 20.2243L19.1794 18.8016L19.2609 17.3789L19.0044 17.3642L18.9229 18.7869ZM19.1794 18.8016L19.0979 20.2243L19.3544 20.239L19.4359 18.8163L19.5174 17.3936L19.2609 17.3789L19.1794 18.8016ZM19.4359 18.8163L19.3544 20.239C19.5184 20.2484 19.6824 20.259 19.8465 20.2708L19.9489 18.8495L20.0513 17.4282C19.8733 17.4153 19.6954 17.4038 19.5174 17.3936L19.4359 18.8163ZM19.9489 18.8495L19.8465 20.2708L20.103 20.2893L20.2054 18.868L20.3078 17.4466L20.0513 17.4282L19.9489 18.8495ZM20.2054 18.868L20.103 20.2893L20.3595 20.3078L20.4619 18.8864L20.5643 17.4651L20.3078 17.4466L20.2054 18.868ZM20.4619 18.8864L20.3595 20.3078C20.5958 20.3248 20.8324 20.3255 21.0688 20.3099L20.9749 18.888L20.881 17.4661C20.7754 17.4731 20.67 17.4727 20.5643 17.4651L20.4619 18.8864ZM20.9749 18.888L21.0688 20.3099L21.3253 20.293L21.2314 18.871L21.1376 17.4491L20.881 17.4661L20.9749 18.888ZM21.2314 18.871L21.3253 20.293L21.5818 20.276L21.488 18.8541L21.3941 17.4322L21.1376 17.4491L21.2314 18.871ZM21.488 18.8541L21.5818 20.276C21.6985 20.2683 21.8143 20.2674 21.9297 20.2731L21.9999 18.8498L22.0702 17.4265C21.8449 17.4154 21.6195 17.4173 21.3941 17.4322L21.488 18.8541ZM21.9999 18.8498L21.9297 20.2731L22.1851 20.2857L22.2554 18.8624L22.3257 17.4391L22.0702 17.4265L21.9999 18.8498ZM22.2554 18.8624L22.1851 20.2857L22.4406 20.2983L22.5109 18.875L22.5811 17.4518L22.3257 17.4391L22.2554 18.8624ZM22.5109 18.875L22.4406 20.2983C22.4372 20.2981 22.4286 20.2973 22.4165 20.2943C22.4042 20.2913 22.3924 20.287 22.3822 20.2822L22.9909 18.9938L23.5997 17.7053C23.276 17.5524 22.9324 17.4691 22.5811 17.4518L22.5109 18.875ZM22.9909 18.9938L22.3822 20.2822L22.6068 20.3883L23.2156 19.0999L23.8243 17.8115L23.5997 17.7053L22.9909 18.9938ZM23.2156 19.0999L22.6068 20.3883L22.8315 20.4945L23.4402 19.206L24.049 17.9176L23.8243 17.8115L23.2156 19.0999ZM23.4402 19.206L22.8315 20.4945C22.7677 20.4643 22.6973 20.4182 22.6319 20.3532C22.5666 20.2883 22.5217 20.2201 22.4929 20.161L23.7747 19.5383L25.0564 18.9156C24.8431 18.4765 24.4961 18.1289 24.049 17.9176L23.4402 19.206ZM23.7747 19.5383L22.4929 20.161L22.6028 20.3871L23.8845 19.7644L25.1663 19.1417L25.0564 18.9156L23.7747 19.5383ZM23.8845 19.7644L22.6028 20.3871L22.7126 20.6132L23.9944 19.9905L25.2761 19.3678L25.1663 19.1417L23.8845 19.7644ZM23.9944 19.9905L22.7126 20.6132C22.7012 20.5897 22.6911 20.5617 22.6843 20.531C22.6776 20.5005 22.6757 20.474 22.6759 20.4542L24.1008 20.4731L25.5257 20.4921C25.5309 20.1037 25.4485 19.7226 25.2761 19.3678L23.9944 19.9905ZM24.1008 20.4731L22.6759 20.4542L22.6725 20.7107L24.0974 20.7297L25.5223 20.7487L25.5257 20.4921L24.1008 20.4731ZM24.0974 20.7297L22.6725 20.7107L22.6691 20.9673L24.094 20.9863L25.5189 21.0053L25.5223 20.7487L24.0974 20.7297ZM24.094 20.9863L22.6691 20.9673C22.6668 21.142 22.6651 21.3168 22.6642 21.4915L24.0891 21.4994L25.5141 21.5073C25.515 21.3399 25.5166 21.1726 25.5189 21.0053L24.094 20.9863ZM24.0891 21.4994L22.6642 21.4915L22.6628 21.7481L24.0877 21.756L25.5127 21.7639L25.5141 21.5073L24.0891 21.4994ZM24.0877 21.756L22.6628 21.7481L22.6613 22.0047L24.0863 22.0126L25.5113 22.0204L25.5127 21.7639L24.0877 21.756ZM24.0863 22.0126L22.6613 22.0047C22.6605 22.1587 22.6569 22.3128 22.6505 22.4668L24.0743 22.5256L25.4981 22.5845C25.5058 22.3965 25.5103 22.2085 25.5113 22.0204L24.0863 22.0126ZM24.0743 22.5256L22.6505 22.4668L22.6399 22.7233L24.0637 22.7821L25.4875 22.841L25.4981 22.5845L24.0743 22.5256ZM24.0637 22.7821L22.6399 22.7233L22.6293 22.9798L24.0531 23.0386L25.4769 23.0975L25.4875 22.841L24.0637 22.7821ZM24.0531 23.0386L22.6293 22.9798C22.6197 23.2125 22.6252 23.4452 22.6458 23.6774L24.0652 23.5516L25.4847 23.4259C25.4749 23.3161 25.4724 23.2067 25.4769 23.0975L24.0531 23.0386ZM24.0652 23.5516L22.6458 23.6774L22.6685 23.9339L24.0879 23.8081L25.5074 23.6824L25.4847 23.4259L24.0652 23.5516ZM24.0879 23.8081L22.6685 23.9339L22.6912 24.1904L24.1107 24.0646L25.5301 23.9389L25.5074 23.6824L24.0879 23.8081ZM24.1107 24.0646L22.6912 24.1904C22.6993 24.2819 22.6997 24.3729 22.6924 24.4643L24.1129 24.5776L25.5334 24.691C25.5534 24.4404 25.5523 24.1894 25.5301 23.9389L24.1107 24.0646ZM24.1129 24.5776L22.6924 24.4643L22.6719 24.7208L24.0924 24.8341L25.5129 24.9475L25.5334 24.691L24.1129 24.5776ZM24.0924 24.8341L22.6719 24.7208L22.6515 24.9773L24.072 25.0906L25.4924 25.204L25.5129 24.9475L24.0924 24.8341ZM24.072 25.0906L22.6515 24.9773C22.6341 25.1948 22.6275 25.4125 22.6316 25.6304L24.0563 25.6036L25.4811 25.5768C25.4787 25.4527 25.4825 25.3285 25.4924 25.204L24.072 25.0906ZM24.0563 25.6036L22.6316 25.6304L22.6364 25.8869L24.0611 25.8601L25.4859 25.8333L25.4811 25.5768L24.0563 25.6036ZM24.0611 25.8601L22.6364 25.8869L22.6412 26.1434L24.066 26.1166L25.4907 26.0898L25.4859 25.8333L24.0611 25.8601ZM24.066 26.1166L22.6412 26.1434C22.6441 26.2991 22.6446 26.4548 22.6425 26.6105L24.0673 26.6296L25.4922 26.6488C25.4947 26.4625 25.4942 26.2762 25.4907 26.0898L24.066 26.1166ZM24.0673 26.6296L22.6425 26.6105L22.639 26.867L24.0639 26.8861L25.4888 26.9053L25.4922 26.6488L24.0673 26.6296ZM24.0639 26.8861L22.639 26.867L22.6356 27.1235L24.0604 27.1426L25.4853 27.1618L25.4888 26.9053L24.0639 26.8861ZM24.0604 27.1426L22.6356 27.1235C22.6328 27.328 22.6373 27.5325 22.649 27.7369L24.0716 27.6556L25.4943 27.5744C25.4865 27.4368 25.4835 27.2993 25.4853 27.1618L24.0604 27.1426ZM24.0716 27.6556L22.649 27.7369L22.6636 27.9934L24.0863 27.9121L25.509 27.8309L25.4943 27.5744L24.0716 27.6556ZM24.0863 27.9121L22.6636 27.9934L22.6783 28.2499L24.1009 28.1686L25.5236 28.0874L25.509 27.8309L24.0863 27.9121ZM24.1009 28.1686L22.6783 28.2499C22.6884 28.4273 22.6997 28.6047 22.7122 28.782L24.1337 28.6816L25.5552 28.5813C25.5435 28.4166 25.533 28.252 25.5236 28.0874L24.1009 28.1686ZM24.1337 28.6816L22.7122 28.782L22.7304 29.0385L24.1518 28.9381L25.5733 28.8378L25.5552 28.5813L24.1337 28.6816ZM24.1518 28.9381L22.7304 29.0385L22.7485 29.295L24.1699 29.1946L25.5914 29.0943L25.5733 28.8378L24.1518 28.9381ZM24.1699 29.1946L22.7485 29.295C22.7582 29.4331 22.7631 29.571 22.7633 29.7088L24.1883 29.7076L25.6133 29.7065C25.6131 29.5023 25.6058 29.2982 25.5914 29.0943L24.1699 29.1946ZM24.1883 29.7076L22.7633 29.7088L22.7635 29.9653L24.1885 29.9641L25.6135 29.963L25.6133 29.7065L24.1883 29.7076ZM24.1885 29.9641L22.7635 29.9653L22.7637 30.2218L24.1887 30.2206L25.6137 30.2195L25.6135 29.963L24.1885 29.9641ZM24.1887 30.2206L22.7637 30.2218C22.7638 30.357 22.7588 30.4923 22.7487 30.6278L24.1698 30.7336L25.5908 30.8394C25.6062 30.6329 25.6138 30.4263 25.6137 30.2195L24.1887 30.2206ZM24.1698 30.7336L22.7487 30.6278L22.7296 30.8843L24.1507 30.9901L25.5717 31.0959L25.5908 30.8394L24.1698 30.7336ZM24.1507 30.9901L22.7296 30.8843L22.7105 31.1408L24.1316 31.2466L25.5527 31.3524L25.5717 31.0959L24.1507 30.9901ZM24.1316 31.2466L22.7105 31.1408C22.6933 31.3726 22.6909 31.6047 22.7035 31.8367L24.1264 31.7596L25.5493 31.6826C25.5433 31.5726 25.5444 31.4627 25.5527 31.3524L24.1316 31.2466ZM24.1264 31.7596L22.7035 31.8367L22.7173 32.0932L24.1403 32.0161L25.5632 31.9391L25.5493 31.6826L24.1264 31.7596ZM24.1403 32.0161L22.7173 32.0932L22.7312 32.3497L24.1541 32.2726L25.5771 32.1956L25.5632 31.9391L24.1403 32.0161ZM24.1541 32.2726L22.7312 32.3497C22.7381 32.4777 22.7351 32.5496 22.7324 32.5788L24.1515 32.7093L25.5705 32.8398C25.5899 32.6287 25.5886 32.4096 25.5771 32.1956L24.1541 32.2726ZM24.1515 32.7093L22.7324 32.5788L22.7159 32.7589L24.1349 32.8894L25.5539 33.0199L25.5705 32.8398L24.1515 32.7093ZM24.1349 32.8894L22.7159 32.7589L22.6993 32.939L24.1183 33.0695L25.5373 33.2L25.5539 33.0199L24.1349 32.8894ZM24.1183 33.0695L22.6993 32.939C22.6935 33.0022 22.6882 33.0643 22.685 33.1162C22.6837 33.1374 22.6809 33.1832 22.6808 33.2347C22.6808 33.2514 22.6804 33.323 22.6907 33.4119C22.6943 33.4424 22.7088 33.571 22.7636 33.7256C22.789 33.797 22.8573 33.9756 23.0111 34.1606C23.1778 34.3611 23.544 34.6747 24.1071 34.6747V33.2497V31.8247C24.6701 31.8247 25.036 32.1382 25.2025 32.3384C25.3562 32.5232 25.4243 32.7014 25.4495 32.7724C25.504 32.926 25.5182 33.0532 25.5215 33.0819C25.5315 33.1669 25.5308 33.233 25.5308 33.2421C25.5307 33.2786 25.5289 33.3019 25.5295 33.2931C25.53 33.2849 25.5321 33.257 25.5373 33.2L24.1183 33.0695ZM24.1071 33.2497V34.6747H24.1125V33.2497V31.8247H24.1071V33.2497ZM24.1125 33.2497L25.5294 33.4017L25.5401 33.3017L24.1232 33.1497L22.7064 32.9976L22.6956 33.0976L24.1125 33.2497ZM24.1232 33.1497H22.6982V33.2497H24.1232H25.5482V33.1497H24.1232ZM13.9301 33.2497V34.6747H14.0301V33.2497V31.8247H13.9301V33.2497ZM14.0301 33.2497L14.113 34.6723L14.576 34.6453L14.4931 33.2227L14.4102 31.8001L13.9472 31.8271L14.0301 33.2497ZM14.4931 33.2227L14.576 34.6453C14.8661 34.6284 15.0425 34.6278 15.1323 34.6329L15.2126 33.2102L15.2929 31.7874C15.0407 31.7732 14.7374 31.781 14.4102 31.8001L14.4931 33.2227ZM15.2126 33.2102L15.1323 34.6329L15.3888 34.6474L15.4691 33.2246L15.5494 31.8019L15.2929 31.7874L15.2126 33.2102ZM15.4691 33.2246L15.3888 34.6474L15.6453 34.6619L15.7256 33.2391L15.8059 31.8164L15.5494 31.8019L15.4691 33.2246ZM15.7256 33.2391L15.6453 34.6619C15.833 34.6725 16.0208 34.6797 16.2087 34.6837L16.2386 33.259L16.2685 31.8343C16.1144 31.8311 15.9601 31.8251 15.8059 31.8164L15.7256 33.2391ZM16.2386 33.259L16.2087 34.6837L16.4652 34.6891L16.4951 33.2644L16.525 31.8397L16.2685 31.8343L16.2386 33.259ZM16.4951 33.2644L16.4652 34.6891L16.7217 34.6945L16.7516 33.2698L16.7815 31.8451L16.525 31.8397L16.4951 33.2644ZM16.7516 33.2698L16.7217 34.6945C16.9308 34.6989 17.14 34.6948 17.349 34.6824L17.2646 33.2599L17.1802 31.8374C17.0472 31.8453 16.9144 31.8479 16.7815 31.8451L16.7516 33.2698ZM17.2646 33.2599L17.349 34.6824L17.6055 34.6672L17.5211 33.2447L17.4367 31.8222L17.1802 31.8374L17.2646 33.2599ZM17.5211 33.2447L17.6055 34.6672L17.862 34.652L17.7776 33.2295L17.6932 31.807L17.4367 31.8222L17.5211 33.2447ZM17.7776 33.2295L17.862 34.652C17.9962 34.644 18.1304 34.6413 18.2645 34.6438L18.2906 33.219L18.3167 31.7942C18.1088 31.7904 17.9009 31.7947 17.6932 31.807L17.7776 33.2295ZM18.2906 33.219L18.2645 34.6438L18.521 34.6485L18.5471 33.2237L18.5732 31.7989L18.3167 31.7942L18.2906 33.219ZM18.5471 33.2237L18.521 34.6485L18.7775 34.6532L18.8036 33.2284L18.8297 31.8037L18.5732 31.7989L18.5471 33.2237ZM18.8036 33.2284L18.7775 34.6532C18.9156 34.6557 19.0539 34.663 19.1924 34.6751L19.3166 33.2556L19.4408 31.836C19.2373 31.8182 19.0336 31.8074 18.8297 31.8037L18.8036 33.2284ZM19.3166 33.2556L19.1924 34.6751L19.4489 34.6976L19.5731 33.278L19.6973 31.8584L19.4408 31.836L19.3166 33.2556ZM19.5731 33.278L19.4489 34.6976L19.7054 34.72L19.8296 33.3005L19.9538 31.8809L19.6973 31.8584L19.5731 33.278ZM19.8296 33.3005L19.7054 34.72C19.9629 34.7426 20.2209 34.7415 20.4782 34.7169L20.3426 33.2984L20.207 31.8798C20.1223 31.8879 20.0383 31.8883 19.9538 31.8809L19.8296 33.3005ZM20.3426 33.2984L20.4782 34.7169L20.7347 34.6924L20.5991 33.2738L20.4635 31.8553L20.207 31.8798L20.3426 33.2984ZM20.5991 33.2738L20.7347 34.6924L20.9912 34.6678L20.8556 33.2493L20.72 31.8308L20.4635 31.8553L20.5991 33.2738ZM20.8556 33.2493L20.9912 34.6678C21.1136 34.6561 21.2355 34.6508 21.3571 34.6518L21.3686 33.2269L21.3801 31.8019C21.1597 31.8001 20.9396 31.8098 20.72 31.8308L20.8556 33.2493ZM21.3686 33.2269L21.3571 34.6518L21.6136 34.6539L21.6251 33.2289L21.6366 31.804L21.3801 31.8019L21.3686 33.2269ZM21.6251 33.2289L21.6136 34.6539L21.8701 34.6559L21.8816 33.231L21.8931 31.806L21.6366 31.804L21.6251 33.2289ZM21.8816 33.231L21.8701 34.6559C22.0026 34.657 22.1352 34.6634 22.2681 34.6753L22.3946 33.2559L22.5211 31.8365C22.312 31.8179 22.1026 31.8077 21.8931 31.806L21.8816 33.231ZM22.3946 33.2559L22.2681 34.6753L22.5246 34.6981L22.6511 33.2788L22.7776 31.8594L22.5211 31.8365L22.3946 33.2559ZM22.6511 33.2788L22.5246 34.6981L22.7811 34.721L22.9076 33.3016L23.0341 31.8823L22.7776 31.8594L22.6511 33.2788ZM22.9076 33.3016L22.7811 34.721C22.9896 34.7396 23.1957 34.7496 23.399 34.7503L23.4039 33.3253L23.4088 31.9003C23.2924 31.8999 23.1676 31.8942 23.0341 31.8823L22.9076 33.3016ZM23.4039 33.3253L23.399 34.7503L23.6388 34.7511L23.6437 33.3262L23.6486 31.9012L23.4088 31.9003L23.4039 33.3253ZM23.6437 33.3262L23.6388 34.7511L23.8785 34.752L23.8834 33.327L23.8883 31.902L23.6486 31.9012L23.6437 33.3262ZM23.8834 33.327L23.8785 34.752C23.9672 34.7523 24.0743 34.7512 24.1741 34.7434C24.2128 34.7404 24.319 34.7318 24.442 34.7021C24.4916 34.6902 24.6471 34.6517 24.8222 34.5525C24.9252 34.4941 25.5482 34.1246 25.5482 33.3083H24.1232H22.6982C22.6982 32.4952 23.3187 32.1287 23.4168 32.0731C23.5868 31.9768 23.7349 31.9409 23.7744 31.9314C23.8346 31.9169 23.8813 31.9102 23.9026 31.9074C23.9269 31.9041 23.9446 31.9026 23.9524 31.902C23.9723 31.9005 23.9596 31.9022 23.8883 31.902L23.8834 33.327ZM24.1232 33.3083H25.5482V33.2887H24.1232H22.6982V33.3083H24.1232ZM24.1232 33.2887L24.6418 31.9614L24.5418 31.9224L24.0232 33.2497L23.5047 34.577L23.6047 34.616L24.1232 33.2887ZM24.0232 33.2497V34.6747H24.1232V33.2497V31.8247H24.0232V33.2497Z" fill="#B9372E"/>
</svg>
