<svg width="28" height="28" viewBox="0 0 28 28" fill="none" xmlns="http://www.w3.org/2000/svg">
  <path
    d="M6.45 11.78L14 5.7L21.55 11.78V21.12C21.55 21.5758 21.3689 22.0129 21.0465 22.3353C20.7241 22.6577 20.287 22.8388 19.8312 22.8388H8.16875C7.71299 22.8388 7.27592 22.6577 6.95349 22.3353C6.63106 22.0129 6.45 21.5758 6.45 21.12V11.78Z"
    fill="#B9372E"
  />
  <path
    d="M11.15 22.8388V15.35H16.85V22.8388"
    fill="white"
  />
  <path
    d="M5.5 11.6L14 4.75L22.5 11.6V21.25C22.5 21.7804 22.2893 22.2891 21.9142 22.6642C21.5391 23.0393 21.0304 23.25 20.5 23.25H7.5C6.96957 23.25 6.46086 23.0393 6.08579 22.6642C5.71071 22.2891 5.5 21.7804 5.5 21.25V11.6Z"
    stroke="#B9372E"
    stroke-width="2.2"
    stroke-linecap="round"
    stroke-linejoin="round"
  />
  <path
    d="M11.25 23.25V15.25H16.75V23.25"
    stroke="#B9372E"
    stroke-width="2.2"
    stroke-linecap="round"
    stroke-linejoin="round"
  />
</svg>
