<svg width="163" height="230" viewBox="0 0 163 230" fill="none" xmlns="http://www.w3.org/2000/svg">
<path d="M155.935 144.184C171.615 88.3442 154.473 42.3041 136.638 31.0905C136.257 30.8506 135.773 31.0833 135.686 31.5258L115.741 133.192C115.702 133.395 115.756 133.598 115.888 133.756C119.91 138.571 125.212 153.832 115.678 178.619C104.07 208.801 116.913 227.425 123.136 228.957C123.54 229.056 123.847 228.68 123.743 228.278C122.592 223.808 119.468 217.882 127.414 192.524C127.64 191.802 128.767 191.978 128.793 192.734C129.699 219.277 145.028 227.759 154.273 228.924C154.866 228.999 155.17 228.302 154.742 227.885C144.189 217.607 136.765 212.448 155.935 144.184Z" fill="#323231"/>
<path d="M21.0171 170.427C-7.95519 115.612 -5.15076 70.1532 18.3013 36.2977C30.6608 18.4553 51.7738 -5.94157 70.8448 7.38667C70.877 7.40919 70.9087 7.43549 70.9355 7.46423C75.4325 12.2827 55.0714 36.7529 35.2314 60.8159C35.1735 60.8861 35.1311 60.9663 35.1067 61.0539C30.4879 77.6469 40.5046 104.221 40.5046 122.844C40.5046 126.645 51.8105 112.33 51.8105 173.544C51.8105 185.315 42.5652 210.6 17.369 213.124C16.678 213.193 16.4121 212.267 16.9979 211.894C34.9888 200.44 27.8685 183.389 21.0171 170.427Z" fill="#323231"/>
<path d="M137.292 91.5694C127.591 134.666 116.269 175.715 78.0921 175.715C49.618 175.715 35.5589 155.142 29.3423 133.162C24.7925 117.075 25.3924 103.181 22.877 81.3234L61.5531 27.1387L95.9491 33.2496C116.231 52.1659 129.894 60.6336 137.292 91.5694Z" fill="#FAF9F6" stroke="#323231" stroke-width="3.95418"/>
<path d="M76.3558 41.7074C74.58 52.7617 77.1973 67.3999 81.9203 78.4736C82.1686 79.0557 81.5581 79.6107 81.0317 79.2593C67.8346 70.4508 62.5385 45.4718 61.3446 32.0646C48.2664 34.9578 33.09 22.9084 77.0112 3.93445C120.852 -15.0048 150.608 39.3678 156.541 62.1352C156.563 62.2212 156.567 62.3038 156.553 62.3917C152.417 89.3189 134.804 126.241 136.207 111.157C137.913 92.8212 129.486 84.2057 118.945 72.0633C118.573 71.6351 117.885 71.8488 117.882 72.4159C117.851 77.3896 121.555 79.6309 123.903 85.33C124.091 85.7857 123.704 86.2605 123.217 86.1854C97.2045 82.1718 81.5454 58.9019 77.6145 41.7173C77.4545 41.0179 76.4696 40.999 76.3558 41.7074Z" fill="#323231"/>
<path d="M46.3438 78.5807C46.3438 78.5807 58.7777 75.317 63.6601 77.409C68.5424 79.501 79.1794 83.9931 76.2348 110.059C75.0667 120.398 74.1735 127.393 80.3578 128.762" stroke="#323231" stroke-width="2.63612" stroke-linecap="round"/>
<path d="M33.1506 82.8023C57.338 66.0478 61.2082 42.4747 66.0137 25.5814C66.1496 25.1036 65.7473 24.6527 65.2661 24.7758C39.3793 31.3992 1.59352 87.5672 18.6237 112.082C18.9756 112.589 19.7332 112.327 19.739 111.71C19.8622 98.6142 21.5274 90.8535 33.1506 82.8023Z" fill="#323231"/>
<path d="M56.711 105.858C63.8191 105.163 62.9665 92.282 54.662 94.543C45.4724 97.045 49.603 106.553 56.711 105.858Z" fill="#323231"/>
<path d="M105 94.5211C98.0896 96.7031 96.9667 106.821 104.727 106.114C113.559 105.308 111.911 92.339 105 94.5211Z" fill="#323231"/>
<path d="M94.1309 100.652C98.4228 94.7507 107.261 92.2545 118.408 97.0317" stroke="#323231" stroke-width="2.63612" stroke-linecap="round"/>
<path d="M41.2305 98.5559C47.5997 94.6475 57.5143 90.7269 67.3058 100.385" stroke="#323231" stroke-width="2.63612" stroke-linecap="round"/>
<path d="M94.2969 80.6674C96.6596 78.762 103.854 75.4085 113.731 77.2377" stroke="#323231" stroke-width="2.63612" stroke-linecap="round"/>
<path d="M65.6738 149.942C69.167 151.026 85.9802 152.067 94.9953 142.787" stroke="#323231" stroke-width="2.63612" stroke-linecap="round"/>
<path d="M142.456 111.545C145.851 98.9787 134.29 98.0707 129.301 101.79L119.011 109.441C119.739 116.136 120.077 124.846 124.143 124.632C126.299 124.519 137.972 128.148 142.456 111.545Z" fill="#FAF9F6"/>
<path d="M131.041 116.972C133.665 117.512 136.852 115.952 138.551 112.297" stroke="#323231" stroke-width="2.63612" stroke-linecap="round"/>
<path d="M32.1045 85.3457C20.7958 93.7764 16.0566 104.36 16.0566 116.302" stroke="#FAF9F6" stroke-width="2.63612" stroke-linecap="round"/>
<path d="M142.544 130.24C140.616 134.245 133.943 145.623 133.943 155.59" stroke="#FAF9F6" stroke-width="2.63612" stroke-linecap="round"/>
</svg>
