<svg width="1008" height="463" viewBox="0 0 1008 463" fill="none" xmlns="http://www.w3.org/2000/svg">
<g clip-path="url(#clip0_1855_1291)">
<path d="M85.6107 153.253C85.9704 149.678 87.7801 147.668 91.0396 147.224L115.593 145.937C120.518 145.952 123.002 148.968 123.043 154.985C122.466 170.061 120.273 183.034 116.466 193.902C120.557 198.886 124.088 203.625 127.059 208.12C128.868 211.308 128.465 214.065 125.851 216.39C122.936 218.184 120.179 217.782 117.581 215.182C116.978 214.12 115.945 212.669 114.48 210.831C113.275 208.706 112.241 207.255 111.38 206.479C107.674 214.06 103.127 221.274 97.7414 228.122C94.5963 230.749 91.7245 230.763 89.1262 228.163C87.0449 224.99 87.2897 221.831 89.8606 218.687C96.7692 209.571 101.423 201.803 103.822 195.386C99.0856 188.521 94.0617 181.398 88.7506 174.017C86.9707 171.374 87.3877 168.89 90.0015 166.565C92.6439 164.785 95.2642 165.195 97.8626 167.794C99.054 169.647 101.121 172.548 104.064 176.497C105.844 179.139 107.178 181.121 108.068 182.442C109.649 176.067 110.785 169.032 111.476 161.336C111.62 158.866 110.465 157.695 108.009 157.824L91.6401 158.682C88.352 158.581 86.3422 156.771 85.6107 153.253ZM130.435 233.385C127.003 235.753 123.844 235.508 120.958 232.65C118.576 228.945 118.957 225.779 122.102 223.152C137.138 212.516 145.074 199.516 145.91 184.152C145.882 183.607 145.961 182.508 146.148 180.857C146.436 175.918 146.516 172.22 146.387 169.765C147.006 165.902 148.808 163.756 151.795 163.326C155.629 163.399 157.782 165.338 158.255 169.143C158.284 169.689 158.341 170.78 158.427 172.417C158.24 174.068 158.168 175.303 158.21 176.121C161.968 195.621 171.47 209.896 186.717 218.945C189.589 221.531 190.169 224.783 188.46 228.702C186.147 231.559 182.888 232.004 178.681 230.036C167.584 221.863 159.502 211.207 154.436 198.068C151.289 211.09 143.289 222.863 130.435 233.385ZM127.238 180.207C124.122 178.181 123.161 175.496 124.353 172.151C129.238 160.952 132.758 149.825 134.915 138.769C135.82 135.165 138.204 133.672 142.066 134.291C145.656 134.923 147.134 137.034 146.502 140.624C146.099 143.381 145.553 146.008 144.863 148.506L176.783 146.834C180.358 147.193 182.497 148.859 183.2 151.832C183.343 154.56 183.091 157.582 182.444 160.899L178.198 173.843C177.279 177.174 174.895 178.666 171.047 178.321C167.701 177.128 166.345 174.737 166.978 171.148L170.964 161.09C171.151 159.439 170.283 158.527 168.359 158.355L141.35 159.77C140.876 161.163 140.294 163.108 139.604 165.606C137.707 171.177 136.271 175.082 135.294 177.322C133.268 180.438 130.583 181.399 127.238 180.207ZM259.001 212.285C255.425 211.925 253.408 209.979 252.95 206.446L249.668 143.834C250 139.714 252.333 137.266 256.67 136.492L277.541 135.398C281.934 135.715 284.511 137.905 285.271 141.969L287.63 186.984C288.031 194.623 285.108 198.879 278.862 199.754C276.133 199.897 273.678 200.026 271.496 200.14C267.949 200.326 265.817 198.796 265.1 195.551C264.627 191.746 265.482 189.786 267.664 189.672C269.574 189.571 271.211 189.486 272.575 189.414C275.03 189.286 276.194 187.994 276.065 185.538L274.092 147.889C274.279 146.238 273.561 145.592 271.938 145.95L263.345 146.401C261.966 146.199 261.32 146.917 261.406 148.554L264.408 205.846C264.336 209.68 262.533 211.826 259.001 212.285ZM285.899 224.417C278.806 224.788 269.114 225.16 256.822 225.53C246.728 226.059 239.362 226.445 234.724 226.688C225.721 227.16 218.743 224.516 213.791 218.758C212.614 217.178 211.386 217.242 210.108 218.951C208.571 220.946 206.912 223.222 205.131 225.777C202.072 230.041 198.841 231.031 195.438 228.747C193.17 227.225 193.027 224.496 195.009 220.563C195.526 219.988 196.158 218.998 196.905 217.591C199.95 213.054 202.241 209.788 203.778 207.792L202.298 179.556C202.241 178.464 201.53 177.954 200.166 178.026L196.483 178.219C193.468 178.103 191.86 176.136 191.66 172.316C191.747 168.756 193.42 166.753 196.68 166.308L205.683 165.837C210.335 165.866 212.919 168.193 213.435 172.817L215.043 203.509C215.043 203.509 215.187 203.638 215.474 203.897C219.722 211.881 226.901 215.745 237.01 215.489C250.665 215.047 266.898 214.196 285.708 212.937C290.346 212.694 292.901 214.475 293.374 218.28C293.029 222.128 290.537 224.174 285.899 224.417ZM234.751 203.707C228.834 205.659 225.554 203.095 224.91 196.016L222.314 146.499C222.086 142.134 223.831 138.897 227.55 136.787C228.627 136.457 230.638 135.667 233.582 134.419C236.525 133.17 238.399 132.388 239.204 132.072C242.664 130.25 245.694 130.638 248.292 133.237C249.555 136.454 248.743 139.232 245.857 141.572C242.64 142.835 239.423 144.098 236.207 145.361C234.584 145.719 233.837 147.126 233.966 149.582L236.003 188.458C236.061 189.55 236.491 189.937 237.295 189.622C238.1 189.306 239.162 188.703 240.483 187.813C241.819 187.196 242.752 186.737 243.284 186.435C245.696 185.488 247.512 186.214 248.732 188.612C249.751 192.389 248.81 195.31 245.909 197.377C245.105 197.693 244.042 198.296 242.721 199.186C238.987 201.023 236.33 202.53 234.751 203.707ZM211.306 155.693C208.104 157.229 205.333 156.554 202.993 153.667C201.816 152.087 199.749 149.186 196.792 144.964C195.615 143.384 194.876 142.329 194.574 141.798C192.78 138.882 193.326 136.255 196.213 133.915C199.128 132.121 201.892 132.66 204.505 135.532C205.093 136.322 206.263 137.765 208.015 139.862C210.383 143.294 212.149 145.664 213.311 146.971C215.134 150.432 214.466 153.339 211.306 155.693ZM306.183 149.49C302.622 149.403 300.612 147.593 300.154 144.061C300.255 140.773 302.072 138.9 305.604 138.441L337.933 136.747L337.59 130.199C337.648 126.092 339.717 123.795 343.794 123.308C347.628 123.381 349.789 125.456 350.276 129.534L350.619 136.082L383.767 134.345C387.055 134.446 388.921 136.126 389.366 139.386C389.279 142.947 387.605 144.949 384.346 145.394L351.198 147.131L352.442 170.866L390.091 168.893C393.652 168.98 395.662 170.79 396.121 174.322C396.019 177.61 394.203 179.484 390.67 179.942L358.75 181.615C369.905 190.879 381.886 197.637 394.693 201.89C397.78 203.37 398.878 206.048 397.987 209.925C395.99 213.586 392.766 214.712 388.315 213.304C374.044 207.213 362.429 199.615 353.472 190.509L354.909 217.927C354.563 221.776 352.631 224.065 349.113 224.797C345.28 224.724 342.983 222.656 342.222 218.592L340.807 191.583C333.109 201.288 322.359 210.195 308.559 218.305C304.825 220.142 301.645 219.488 299.018 216.343C297.468 212.868 298.143 210.096 301.044 208.029C314.112 201.6 325.436 193.21 335.015 182.859L303.095 184.532C299.534 184.445 297.532 182.772 297.087 179.512C297.174 175.951 298.984 173.941 302.516 173.483L339.756 171.531L338.512 147.796L306.183 149.49ZM364.547 166.949C361.935 164.077 361.648 161.219 363.688 158.377C364.463 157.515 365.756 156.08 367.566 154.07C369.103 152.074 370.259 150.646 371.034 149.785C373.074 146.942 375.795 146.663 379.197 148.946C381.767 151 382.039 153.585 380.014 156.7C379.253 157.834 377.716 159.83 375.404 162.687C374.384 164.108 373.615 165.106 373.098 165.68C370.485 168.006 367.634 168.429 364.547 166.949ZM327.717 168.879C324.543 170.96 321.664 170.838 319.08 168.511C318.492 167.721 317.185 166.285 315.161 164.203C313.424 162.379 312.125 161.079 311.264 160.303C308.665 157.704 308.666 155.105 311.265 152.507C313.879 150.181 316.615 150.174 319.471 152.487C323.491 156.106 326.226 158.699 327.676 160.264C330.288 163.136 330.302 166.008 327.717 168.879ZM451.722 123.397C455.283 123.484 457.293 125.293 457.751 128.826C457.65 132.114 455.833 133.987 452.301 134.446L429.793 135.626C429.549 136.186 429.176 136.889 428.673 137.736C424.68 145.058 421.656 150.004 419.602 152.574C419.099 153.421 418.992 153.974 419.279 154.232C419.293 154.505 419.709 154.62 420.528 154.577C424.347 154.377 430.881 153.761 440.128 152.729C438.377 150.632 436.905 148.658 435.714 146.805C434.48 144.134 434.911 141.923 437.008 140.172C439.65 138.392 442.134 138.809 444.46 141.423C445.637 143.002 447.696 145.767 450.639 149.716C453.596 153.938 455.663 156.839 456.84 158.419C458.634 161.334 458.217 163.818 455.589 165.871C452.674 167.665 450.054 167.255 447.728 164.641C447.412 163.837 446.96 163.04 446.372 162.25C433.865 163.727 422.162 164.887 411.264 165.732C407.717 165.918 405.327 164.675 404.093 162.004C403.117 159.046 403.792 156.275 406.119 153.691C410.715 147.431 414.242 141.638 416.698 136.312L404.83 136.934C401.542 136.833 399.676 135.152 399.232 131.893C399.319 128.332 400.992 126.329 404.251 125.885L451.722 123.397ZM402.983 211.304C402.769 207.212 404.428 204.937 407.96 204.478C408.506 204.449 409.453 204.263 410.803 203.919C417.336 203.303 422.362 202.629 425.88 201.897L425.151 187.984L408.782 188.842C405.494 188.74 403.62 186.924 403.162 183.391C403.263 180.103 404.943 178.237 408.203 177.792L424.572 176.935L424.293 171.615C424.38 168.054 426.326 166.037 430.131 165.564C433.707 165.923 435.724 167.869 436.182 171.402L436.44 176.313L452.399 175.476C455.688 175.577 457.554 177.258 457.998 180.517C457.911 184.078 456.238 186.081 452.979 186.525L437.019 187.362L437.705 200.457C441.496 199.711 447.06 198.872 454.398 197.941C454.943 197.912 455.352 197.891 455.625 197.876C459.172 197.691 461.311 199.357 462.042 202.875C461.955 206.436 460.146 208.445 456.613 208.904C451.459 209.721 442.915 211.127 430.982 213.12C421.749 214.425 414.965 215.464 410.628 216.238C406.536 216.453 403.987 214.808 402.983 211.304ZM487.477 116.599C491.31 116.671 493.464 118.61 493.937 122.416L497.926 198.532C499.015 208.871 494.778 214.154 485.215 214.381C484.396 214.424 482.623 214.517 479.895 214.66C476.908 215.09 474.869 215.334 473.778 215.391C469.126 215.361 466.556 213.307 466.069 209.229C466.141 205.396 468.087 203.379 471.907 203.178C474.635 203.035 477.227 202.9 479.682 202.771C484.334 202.801 486.395 200.367 485.865 195.471L482.069 123.037C482.142 119.204 483.944 117.057 487.477 116.599ZM466.281 127.148C469.569 127.249 471.442 129.066 471.901 132.598L474.753 187.026C474.666 190.586 472.993 192.589 469.734 193.034C466.173 192.947 464.163 191.137 463.704 187.605L460.852 133.177C460.939 129.616 462.748 127.606 466.281 127.148ZM510.464 187.206L510.485 187.615C512.812 185.031 515.683 185.017 519.1 187.574C524.01 192.514 530.018 194.935 537.126 194.836C549.389 193.92 555.427 189.09 555.243 180.345C554.584 172.993 547.513 168.576 534.031 167.094C517.203 164.42 508.359 157.497 507.5 146.326C507.848 132.082 516.867 124.086 534.558 122.338C545.47 121.767 553.669 124.209 559.152 129.667C560.875 131.218 561.779 132.812 561.865 134.449C561.98 136.631 561.103 138.182 559.237 139.101C557.125 140.579 554.498 140.033 551.354 137.462C547.349 134.115 541.936 132.621 535.115 132.978C524.777 134.067 519.391 138.316 518.959 145.725C519.001 151.742 526.452 155.591 541.313 157.275C557.064 160.279 565.526 167.769 566.701 179.745C566.971 195.324 557.291 203.765 537.662 205.067C525.63 205.15 516.276 201.537 509.6 194.227C508.395 192.102 508.683 189.761 510.464 187.206ZM613.069 195.37L611.697 169.179C611.009 161.282 606.975 157.39 599.595 157.503C591.439 158.478 587.31 163.208 587.207 171.694L588.516 196.657C588.73 200.749 586.92 202.759 583.087 202.686C579.281 203.159 577.272 201.35 577.057 197.257L573.347 126.461C573.132 122.369 574.935 120.222 578.754 120.022C582.574 119.822 584.591 121.768 584.805 125.86L586.156 151.642C590.077 148.153 594.636 146.41 599.834 146.411C614.308 145.926 622.082 153.315 623.155 168.579L624.528 194.77C624.742 198.862 622.932 200.872 619.099 200.799C615.294 201.272 613.284 199.462 613.069 195.37ZM639.238 193.588L636.987 150.619C636.758 146.254 638.56 144.108 642.394 144.181C646.458 143.42 648.475 145.367 648.445 150.019L650.697 192.988C650.911 197.08 649.109 199.226 645.289 199.426C641.47 199.627 639.453 197.681 639.238 193.588ZM634.795 124.472C634.825 119.819 636.879 117.25 640.957 116.762C645.336 116.806 647.784 119.14 648.3 123.764C648.27 128.416 646.216 130.986 642.138 131.473C637.759 131.429 635.311 129.095 634.795 124.472ZM665.86 192.603L663.586 149.225C663.372 145.133 665.174 142.987 668.994 142.787C672.268 142.615 674.112 143.886 674.528 146.6C678.75 143.643 683.317 142.036 688.228 141.779C702.974 141.279 710.848 147.979 711.85 161.879L713.352 190.525C713.538 194.072 711.721 195.945 707.901 196.145C704.082 196.345 702.079 194.672 701.893 191.125L700.413 162.889C699.74 155.264 695.304 151.53 687.105 151.686C679.768 152.618 676.012 156.644 675.838 163.766L677.318 192.003C677.533 196.095 675.723 198.105 671.889 198.032C668.084 198.505 666.074 196.696 665.86 192.603ZM723.561 189.579L721.288 146.201C721.073 142.109 722.876 139.963 726.695 139.763C729.969 139.591 731.814 140.862 732.23 143.576C736.452 140.619 741.018 139.012 745.929 138.755C760.675 138.255 768.55 144.955 769.552 158.855L771.053 187.501C771.239 191.048 769.422 192.921 765.602 193.121C761.783 193.321 759.78 191.648 759.594 188.101L758.115 159.865C757.442 152.24 753.005 148.506 744.807 148.662C737.469 149.594 733.713 153.62 733.54 160.742L735.019 188.979C735.234 193.071 733.424 195.081 729.59 195.008C725.785 195.481 723.775 193.672 723.561 189.579ZM801.25 184.277L777.868 145.288C775.428 140.491 776.922 137.677 782.35 136.846C784.533 136.731 786.37 137.866 787.863 140.25L806.745 171.678L820.235 139.374C821.7 136.015 823.668 134.407 826.138 134.551C831.364 135.098 833.015 137.884 831.089 142.909L802.58 209.649L802.558 209.24C801.337 212.04 799.635 213.497 797.453 213.611C791.695 213.366 789.779 210.73 791.704 205.705L801.25 184.277ZM851.712 191.891C847.333 191.847 844.749 189.52 843.96 184.911L840.657 121.89C840.96 117.223 843.286 114.639 847.637 114.138L851.32 113.945C852.499 110.327 853.26 106.593 853.606 102.745C854.741 98.3088 857.24 96.3996 861.102 97.0179C865.223 97.3491 866.982 99.5822 866.378 103.717C866.176 105.096 865.637 107.86 864.761 112.009C864.516 112.569 864.401 112.986 864.416 113.258L873.828 112.765C878.48 112.795 881.064 115.122 881.58 119.745L884.883 182.766C884.853 187.419 882.526 190.003 877.903 190.519L851.712 191.891ZM887.801 136.654C884.413 134.643 883.315 131.965 884.507 128.62C888.443 120.206 891.906 110.587 894.895 99.7608C896.346 96.1283 898.859 94.492 902.434 94.8518C906.325 96.0157 907.955 98.3924 907.322 101.982C906.834 103.102 906.244 104.911 905.555 107.409C905.095 109.075 904.75 110.324 904.52 111.157L925.391 110.063C930.057 110.365 932.505 112.699 932.734 117.064C933.22 126.34 933.748 141.632 934.317 162.941C934.259 167.047 934.273 169.919 934.358 171.556C935.289 184.091 929.623 190.817 917.36 191.733C913.541 191.934 909.585 192.141 905.493 192.355C900.855 192.598 898.141 190.415 897.353 185.806C897.454 182.518 899.134 180.652 902.394 180.207C905.682 180.308 908.963 180.273 912.237 180.102C919.057 179.744 922.289 176.155 921.931 169.335C921.662 153.756 921.148 138.736 920.391 124.277C920.305 122.64 919.444 121.864 917.807 121.95L900.21 122.872C898.787 127.05 897.2 130.69 895.447 133.791C893.954 136.605 891.405 137.559 887.801 136.654ZM852.868 127.816L853.897 147.459L871.085 146.558L870.056 126.915C869.711 125.565 868.85 124.789 867.472 124.588L855.195 125.231C853.558 125.317 852.782 126.179 852.868 127.816ZM870.345 179.425C871.695 179.08 872.471 178.219 872.672 176.841L871.643 157.198L854.455 158.098L855.484 177.741C855.57 179.378 856.432 180.154 858.069 180.068L870.345 179.425ZM912.09 161.644C908.931 163.998 906.038 163.602 903.411 160.457C899.564 154.914 896.054 150.584 892.881 147.467C890.814 144.566 891.224 141.946 894.111 139.606C897.04 138.085 899.79 138.351 902.36 140.405C906.135 144.584 909.638 148.778 912.867 152.985C914.949 156.159 914.69 159.045 912.09 161.644Z" fill="#323231"/>
<path d="M315.214 345.298L312.983 302.739C312.468 298.115 314.263 295.832 318.37 295.891C322.448 295.403 324.472 297.486 324.442 302.138L326.672 344.698C327.746 359.961 334.565 367.401 347.129 367.016C359.391 366.1 365.258 357.995 364.731 342.703L362.5 300.144C362.271 295.778 364.067 293.496 367.886 293.296C371.706 293.095 373.73 295.178 373.959 299.543L376.189 342.103C377.074 364.215 367.566 375.93 347.665 377.247C327.462 378.032 316.645 367.382 315.214 345.298ZM397.657 368.061L394.032 298.901C393.502 294.005 395.29 291.586 399.397 291.644C403.475 291.157 405.506 293.376 405.491 298.301L409.115 367.461C409.344 371.826 407.549 374.108 403.729 374.308C399.651 374.796 397.627 372.713 397.657 368.061ZM453.363 326.979C450.248 324.953 449.545 321.981 451.255 318.062C457.575 308.155 462.337 297.237 465.542 285.305C466.978 281.4 469.621 279.62 473.469 279.966C477.073 280.871 478.566 283.255 477.947 287.117C477.717 287.95 477.372 289.199 476.913 290.865C476.18 292.544 475.699 293.801 475.469 294.633L515.164 292.553C518.725 292.64 520.735 294.45 521.193 297.982C521.106 301.543 519.297 303.553 515.764 304.012L487.118 305.513L487.869 319.836L511.195 318.613C514.483 318.715 516.349 320.395 516.794 323.655C516.707 327.215 515.034 329.218 511.774 329.663L488.448 330.885L489.199 345.208L515.389 343.835C518.95 343.922 520.96 345.732 521.419 349.264C521.059 352.84 519.249 354.849 515.99 355.294L489.799 356.666L490.657 373.036C490.584 376.869 488.646 379.023 484.84 379.496C481.279 379.409 479.126 377.47 478.38 373.679L474.842 306.156L471.568 306.328L470.749 306.371C468.091 313.076 465.254 318.969 462.238 324.052C459.997 328.273 457.039 329.248 453.363 326.979ZM423.983 337.957C422.303 337.224 421.399 335.63 421.27 333.175C421.184 331.538 421.508 329.879 422.241 328.199C429.71 314.13 435.27 300.16 438.92 286.29C440.099 282.672 442.612 281.036 446.46 281.381C450.078 282.559 451.714 285.072 451.369 288.921C449.731 294.204 447.963 299.631 446.067 305.202L449.756 375.589C449.669 379.15 447.723 381.167 443.918 381.64C440.084 381.568 437.938 379.765 437.479 376.233L435.012 329.172C434.021 331.138 432.901 333.249 431.651 335.503C429.899 338.604 427.343 339.422 423.983 337.957ZM548.111 318.32C542.914 318.319 540.186 315.863 539.929 310.952L538.77 288.854C538.499 283.67 540.955 280.943 546.138 280.671L603.021 277.69C607.932 277.433 610.516 279.759 610.773 284.67L611.953 307.178C611.937 312.103 609.481 314.83 604.585 315.36L548.111 318.32ZM597.049 304.676C598.413 304.604 599.059 303.887 598.988 302.522L598.387 291.064C598.302 289.427 597.577 288.644 596.213 288.716L553.653 290.946C552.289 291.018 551.65 291.872 551.735 293.509L552.336 304.967C552.407 306.331 553.125 306.978 554.489 306.906L597.049 304.676ZM540.669 372.056C536.835 371.983 534.531 369.779 533.757 365.442L532.169 335.159C532.214 330.78 534.275 328.347 538.353 327.859L564.952 326.465C568.786 326.538 571.09 328.742 571.865 333.079L573.452 363.362C573.408 367.741 571.347 370.175 567.269 370.662L540.669 372.056ZM559.754 360.387C561.391 360.301 562.167 359.439 562.081 357.803L561.116 339.387C561.044 338.023 560.19 337.384 558.553 337.47L545.867 338.135C544.23 338.22 543.455 339.082 543.54 340.719L544.484 358.725C544.57 360.362 545.295 361.144 546.659 361.073L559.754 360.387ZM590.595 369.439C586.761 369.367 584.457 367.162 583.682 362.826L582.095 332.543C582.139 328.163 584.2 325.73 588.278 325.243L615.287 323.827C619.408 324.158 621.849 326.356 622.609 330.42L624.196 360.702C624.152 365.082 621.955 367.522 617.604 368.024L590.595 369.439ZM610.498 357.727C611.863 357.656 612.502 356.801 612.416 355.165L611.472 337.158C611.386 335.522 610.525 334.746 608.888 334.832L595.793 335.518C594.156 335.604 593.373 336.329 593.445 337.693L594.41 356.108C594.496 357.745 595.357 358.521 596.994 358.435L610.498 357.727ZM639.457 307.378C636.297 309.732 633.562 309.738 631.251 307.397C629.442 304.209 629.96 301.036 632.804 297.878C640.042 289.838 645.249 282.179 648.424 274.9C650.651 270.406 653.566 268.612 657.17 269.518C660.529 270.983 661.491 273.668 660.054 277.573C659.795 277.861 659.551 278.42 659.321 279.253C658.804 279.827 658.424 280.395 658.179 280.954L681.096 279.753C680.795 279.222 680.343 278.425 679.74 277.362C679.151 276.573 678.706 275.912 678.405 275.381C677.156 272.437 678.27 270.19 681.745 268.64C684.689 267.391 687.323 268.074 689.649 270.688C689.95 271.219 690.546 272.145 691.436 273.467C692.613 275.046 693.367 276.375 693.697 277.452C693.697 277.452 693.704 277.588 693.718 277.861C694.019 278.392 694.177 278.794 694.192 279.067L721.201 277.652C723.67 277.796 725.099 278.952 725.486 281.12C725.615 283.576 724.322 285.011 721.608 285.427L691.325 287.014L691.647 293.153L717.838 291.78C720.307 291.924 721.728 292.944 722.101 294.839C721.943 297.036 720.643 298.335 718.202 298.737L692.012 300.109L692.333 306.248L718.933 304.854C721.13 305.012 722.422 306.176 722.809 308.344C722.924 310.526 721.753 311.682 719.298 311.811L692.698 313.205L693.02 319.343L723.712 317.735C726.44 317.592 727.875 318.884 728.018 321.612C727.874 324.082 726.582 325.518 724.141 325.919L656.618 329.458C655.684 332.516 653.853 334.117 651.125 334.26C647.564 334.173 645.554 332.363 645.095 328.831L643.723 302.64C642.157 304.09 640.735 305.669 639.457 307.378ZM638.651 346.814C635.636 346.698 633.92 345.283 633.505 342.569C633.62 339.554 635.171 337.831 638.158 337.401L676.216 335.407L676.173 334.588C676.26 331.027 678.206 329.01 682.011 328.537C685.572 328.624 687.582 330.434 688.041 333.966L688.084 334.785L726.551 332.769C729.567 332.884 731.289 334.436 731.719 337.422C731.59 340.165 730.031 341.751 727.045 342.181L697.171 343.747C704.794 348.271 714.816 351.576 727.236 353.661C731.371 354.265 733.115 356.225 732.468 359.542C731.549 362.873 729.014 364.1 724.865 363.223C709.659 360.19 697.642 355.349 688.813 348.699L689.542 362.612C689.47 366.446 687.667 368.592 684.135 369.051C680.574 368.964 678.42 367.025 677.675 363.234L676.967 349.73C668.594 357.008 657.156 363.215 642.652 368.353C638.33 369.4 635.545 368.452 634.296 365.508C633.579 362.262 634.829 360.008 638.045 358.746C650.998 355.331 661.158 350.832 668.525 345.248L638.651 346.814ZM655.867 315.135L656.189 321.273L681.152 319.965L680.83 313.827L655.867 315.135ZM654.495 288.944L654.816 295.083L679.779 293.774L679.458 287.636L654.495 288.944ZM655.181 302.04L655.503 308.178L680.466 306.87L680.144 300.731L655.181 302.04Z" fill="#A34339"/>
<path d="M54.3385 67.9969C53.2678 66.0259 50.802 65.2959 48.8309 66.3666C46.8598 67.4373 46.1299 69.9031 47.2006 71.8742L50.7695 69.9355L54.3385 67.9969ZM50.8173 70.0234L47.2483 71.962L47.2923 72.043L47.3399 72.1218L50.8173 70.0234ZM55.7275 78.8898L52.0129 80.5323L55.7275 78.8898ZM55.9582 79.4116L52.2436 81.0541L55.9582 79.4116ZM56.9977 81.4353L53.4217 83.3609L56.9977 81.4353ZM57.3429 82.0655L53.8344 84.1116L57.3429 82.0655ZM57.4185 82.1952L53.91 84.2412L53.9255 84.2678L53.9414 84.2941L57.4185 82.1952ZM57.5219 82.3665L61.0909 80.4279L61.0468 80.3467L60.999 80.2676L57.5219 82.3665ZM54.0007 84.393C55.0714 86.3641 57.5372 87.094 59.5083 86.0234C61.4794 84.9527 62.2093 82.4869 61.1386 80.5158L57.5697 82.4544L54.0007 84.393ZM50.7695 69.9355L47.2006 71.8742L47.2483 71.962L50.8173 70.0234L54.3862 68.0848L54.3385 67.9969L50.7695 69.9355ZM50.8173 70.0234L47.3399 72.1218L47.9022 73.0537L51.3796 70.9552L54.857 68.8568L54.2947 67.925L50.8173 70.0234ZM51.3796 70.9552L47.9022 73.0537C48.0631 73.3203 48.1838 73.5327 48.2709 73.6962C48.314 73.7771 48.3455 73.8397 48.3676 73.8858C48.3902 73.9328 48.3989 73.9539 48.3982 73.9524L52.1582 72.4166L55.9181 70.8809C55.6525 70.2306 55.2621 69.5281 54.857 68.8568L51.3796 70.9552ZM52.1582 72.4166L48.3982 73.9524L48.6145 74.4819L52.3745 72.9462L56.1344 71.4105L55.9181 70.8809L52.1582 72.4166ZM52.3745 72.9462L48.6145 74.4819L48.8308 75.0115L52.5908 73.4758L56.3507 71.9401L56.1344 71.4105L52.3745 72.9462ZM52.5908 73.4758L48.8308 75.0115C49.0832 75.6293 49.3986 76.216 49.7749 76.7673L53.1293 74.4774L56.4837 72.1875C56.4304 72.1095 56.3868 72.0284 56.3507 71.9401L52.5908 73.4758ZM53.1293 74.4774L49.7749 76.7673L50.0972 77.2394L53.4516 74.9495L56.806 72.6596L56.4837 72.1875L53.1293 74.4774ZM53.4516 74.9495L50.0972 77.2394L50.4194 77.7114L53.7738 75.4215L57.1282 73.1316L56.806 72.6596L53.4516 74.9495ZM53.7738 75.4215L50.4194 77.7114C50.5892 77.9602 50.7509 78.2128 50.9046 78.4692L54.3885 76.3817L57.8725 74.2943C57.6362 73.8998 57.388 73.5122 57.1282 73.1316L53.7738 75.4215ZM54.3885 76.3817L50.9046 78.4692L51.1971 78.9574L54.6811 76.8699L58.165 74.7825L57.8725 74.2943L54.3885 76.3817ZM54.6811 76.8699L51.1971 78.9574L51.4896 79.4456L54.9736 77.3581L58.4575 75.2707L58.165 74.7825L54.6811 76.8699ZM54.9736 77.3581L51.4896 79.4456C51.5984 79.6272 51.6959 79.8153 51.7822 80.0105L55.4968 78.3681L59.2113 76.7256C58.9901 76.2252 58.7387 75.7399 58.4575 75.2707L54.9736 77.3581ZM55.4968 78.3681L51.7822 80.0105L52.0129 80.5323L55.7275 78.8898L59.442 77.2474L59.2113 76.7256L55.4968 78.3681ZM55.7275 78.8898L52.0129 80.5323L52.2436 81.0541L55.9582 79.4116L59.6727 77.7691L59.442 77.2474L55.7275 78.8898ZM55.9582 79.4116L52.2436 81.0541C52.4398 81.4977 52.6528 81.933 52.8825 82.3597L56.4585 80.434L60.0344 78.5083C59.9047 78.2674 59.7842 78.0211 59.6727 77.7691L55.9582 79.4116ZM56.4585 80.434L52.8825 82.3597L53.1521 82.8603L56.7281 80.9346L60.304 79.0089L60.0344 78.5083L56.4585 80.434ZM56.7281 80.9346L53.1521 82.8603L53.4217 83.3609L56.9977 81.4353L60.5736 79.5096L60.304 79.0089L56.7281 80.9346ZM56.9977 81.4353L53.4217 83.3609C53.5905 83.6743 53.7417 83.9526 53.8344 84.1116L57.3429 82.0655L60.8513 80.0195C60.8564 80.0282 60.8383 79.9969 60.781 79.8921C60.7299 79.7989 60.6612 79.6722 60.5736 79.5096L56.9977 81.4353ZM57.3429 82.0655L53.8344 84.1116L53.91 84.2412L57.4185 82.1952L60.9269 80.1491L60.8513 80.0195L57.3429 82.0655ZM57.4185 82.1952L53.9414 84.2941L54.0449 84.4655L57.5219 82.3665L60.999 80.2676L60.8955 80.0962L57.4185 82.1952ZM57.5219 82.3665L53.953 84.3052L54.0007 84.393L57.5697 82.4544L61.1386 80.5158L61.0909 80.4279L57.5219 82.3665Z" fill="#B8B8B8"/>
<path d="M94.376 51.9765C93.787 49.8121 91.5549 48.535 89.3905 49.124C87.2262 49.713 85.9491 51.9451 86.5381 54.1095L90.457 53.043L94.376 51.9765ZM90.4833 53.1395L86.5643 54.2059L86.5885 54.2948L86.6167 54.3825L90.4833 53.1395ZM93.2243 62.897L89.2317 63.6418L93.2243 62.897ZM93.3289 63.4578L89.3363 64.2026L93.3289 63.4578ZM93.8755 65.6662L89.9527 66.7185L93.8755 65.6662ZM94.0666 66.359L90.1818 67.5439L94.0666 66.359ZM94.1104 66.5025L90.2256 67.6874L90.2346 67.7169L90.244 67.7462L94.1104 66.5025ZM94.1717 66.6931L98.0907 65.6266L98.0664 65.5374L98.0381 65.4494L94.1717 66.6931ZM90.279 67.8561C90.868 70.0204 93.1001 71.2975 95.2644 70.7085C97.4288 70.1195 98.7059 67.8875 98.1169 65.7231L94.198 66.7896L90.279 67.8561ZM90.457 53.043L86.5381 54.1095L86.5643 54.2059L90.4833 53.1395L94.4022 52.073L94.376 51.9765L90.457 53.043ZM90.4833 53.1395L86.6167 54.3825L86.9498 55.4186L90.8164 54.1756L94.683 52.9325L94.3499 51.8964L90.4833 53.1395ZM90.8164 54.1756L86.9498 55.4186C87.0451 55.7151 87.1137 55.9495 87.161 56.1287C87.1843 56.2173 87.2006 56.2855 87.2116 56.3355C87.2227 56.3864 87.2263 56.4089 87.226 56.4073L91.2383 55.7768L95.2505 55.1463C95.1415 54.4524 94.9229 53.679 94.683 52.9325L90.8164 54.1756ZM91.2383 55.7768L87.226 56.4073L87.3148 56.9724L91.3271 56.3419L95.3393 55.7114L95.2505 55.1463L91.2383 55.7768ZM91.3271 56.3419L87.3148 56.9724L87.4036 57.5375L91.4159 56.907L95.4281 56.2765L95.3393 55.7114L91.3271 56.3419ZM91.4159 56.907L87.4036 57.5375C87.5072 58.1968 87.6794 58.8402 87.9189 59.4633L91.7098 58.0056L95.5007 56.548C95.4668 56.4597 95.4429 56.3708 95.4281 56.2765L91.4159 56.907ZM91.7098 58.0056L87.9189 59.4633L88.1241 59.9967L91.9149 58.5391L95.7058 57.0814L95.5007 56.548L91.7098 58.0056ZM91.9149 58.5391L88.1241 59.9967L88.3292 60.5302L92.1201 59.0725L95.911 57.6149L95.7058 57.0814L91.9149 58.5391ZM92.1201 59.0725L88.3292 60.5302C88.4373 60.8114 88.5366 61.0943 88.6272 61.3792L92.4977 60.1484L96.3681 58.9175C96.2288 58.4792 96.0763 58.045 95.911 57.6149L92.1201 59.0725ZM92.4977 60.1484L88.6272 61.3792L88.7997 61.9216L92.6701 60.6907L96.5406 59.4598L96.3681 58.9175L92.4977 60.1484ZM92.6701 60.6907L88.7997 61.9216L88.9721 62.4639L92.8426 61.2331L96.7131 60.0022L96.5406 59.4598L92.6701 60.6907ZM92.8426 61.2331L88.9721 62.4639C89.0363 62.6657 89.0879 62.8711 89.1271 63.081L93.1197 62.3362L97.1123 61.5914C97.012 61.0536 96.8789 60.5235 96.7131 60.0022L92.8426 61.2331ZM93.1197 62.3362L89.1271 63.081L89.2317 63.6418L93.2243 62.897L97.2169 62.1522L97.1123 61.5914L93.1197 62.3362ZM93.2243 62.897L89.2317 63.6418L89.3363 64.2026L93.3289 63.4578L97.3215 62.7131L97.2169 62.1522L93.2243 62.897ZM93.3289 63.4578L89.3363 64.2026C89.4253 64.6795 89.5325 65.1521 89.6581 65.6201L93.5809 64.5679L97.5037 63.5156C97.4328 63.2513 97.3721 62.9839 97.3215 62.7131L93.3289 63.4578ZM93.5809 64.5679L89.6581 65.6201L89.8054 66.1693L93.7282 65.1171L97.651 64.0648L97.5037 63.5156L93.5809 64.5679ZM93.7282 65.1171L89.8054 66.1693L89.9527 66.7185L93.8755 65.6662L97.7983 64.614L97.651 64.0648L93.7282 65.1171ZM93.8755 65.6662L89.9527 66.7185C90.0449 67.0623 90.1281 67.3679 90.1818 67.5439L94.0666 66.359L97.9514 65.1741C97.9544 65.1837 97.9439 65.1491 97.9122 65.0339C97.8839 64.9314 97.8462 64.7924 97.7983 64.614L93.8755 65.6662ZM94.0666 66.359L90.1818 67.5439L90.2256 67.6874L94.1104 66.5025L97.9952 65.3176L97.9514 65.1741L94.0666 66.359ZM94.1104 66.5025L90.244 67.7462L90.3053 67.9368L94.1717 66.6931L98.0381 65.4494L97.9768 65.2588L94.1104 66.5025ZM94.1717 66.6931L90.2527 67.7596L90.279 67.8561L94.198 66.7896L98.1169 65.7231L98.0907 65.6266L94.1717 66.6931Z" fill="#B8B8B8"/>
<path d="M60.5538 106.502C58.3123 106.586 56.5632 108.471 56.6471 110.713C56.731 112.954 58.6161 114.703 60.8576 114.619L60.7057 110.561L60.5538 106.502ZM60.8057 110.557L61.7366 106.604L61.2023 106.478L60.6538 106.498L60.8057 110.557ZM63.7566 111.252L62.8257 115.205L63.7566 111.252ZM68.2359 112.17L67.6498 116.189L68.2359 112.17ZM77.4473 112.558L77.6934 116.612L77.4473 112.558ZM83.544 111.71L84.2069 115.717L83.544 111.71ZM86.5558 111.083L85.5628 107.144L86.5558 111.083ZM89.543 110.329L90.536 114.268L89.543 110.329ZM92.4502 109.335L94.076 113.057L92.4502 109.335ZM95.2774 108.1L93.6516 104.378L95.2774 108.1ZM100.538 104.926L98.2903 101.543L100.538 104.926ZM102.994 103.08L100.37 99.9802L102.994 103.08ZM104.167 102.087L106.792 105.186L104.167 102.087ZM107.56 98.9622L104.57 96.2132L107.56 98.9622ZM109.652 96.6869L112.642 99.4359L109.652 96.6869ZM111.408 94.1775L115.015 96.043L111.408 94.1775ZM112.117 92.8056L108.509 90.94L112.117 92.8056ZM112.826 91.4337L109.219 89.5682L112.826 91.4337ZM114.152 88.6535L110.431 87.0256L114.152 88.6535ZM115.384 85.8368L119.105 87.4647L115.384 85.8368ZM116.221 83.5287L120.166 84.4965L116.221 83.5287ZM116.663 81.7293L112.718 80.7615L116.663 81.7293ZM116.938 80.8431L115.956 84.7842L116.938 80.8431ZM116.992 80.8567L120.674 79.1423L119.856 77.3844L117.974 76.9157L116.992 80.8567ZM117.043 80.9648L113.361 82.6792L116.271 88.929L120.327 83.3542L117.043 80.9648ZM120.386 83.2734C121.706 81.4596 121.305 78.9194 119.491 77.5997C117.677 76.28 115.137 76.6806 113.817 78.4944L117.102 80.8839L120.386 83.2734ZM60.7057 110.561L60.8576 114.619L60.9576 114.616L60.8057 110.557L60.6538 106.498L60.5538 106.502L60.7057 110.561ZM60.8057 110.557L59.8748 114.51L62.8257 115.205L63.7566 111.252L64.6875 107.298L61.7366 106.604L60.8057 110.557ZM63.7566 111.252L62.8257 115.205C64.8207 115.675 66.4519 116.014 67.6498 116.189L68.2359 112.17L68.8221 108.151C67.9821 108.028 66.6271 107.755 64.6875 107.298L63.7566 111.252ZM68.2359 112.17L67.6498 116.189L69.1781 116.412L69.7643 112.393L70.3505 108.374L68.8221 108.151L68.2359 112.17ZM69.7643 112.393L69.1781 116.412L70.7065 116.634L71.2927 112.615L71.8788 108.596L70.3505 108.374L69.7643 112.393ZM71.2927 112.615L70.7065 116.634C72.001 116.823 73.3034 116.878 74.6093 116.799L74.3631 112.745L74.117 108.691C73.3668 108.736 72.6222 108.705 71.8788 108.596L71.2927 112.615ZM74.3631 112.745L74.6093 116.799L76.1513 116.705L75.9052 112.651L75.6591 108.597L74.117 108.691L74.3631 112.745ZM75.9052 112.651L76.1513 116.705L77.6934 116.612L77.4473 112.558L77.2012 108.503L75.6591 108.597L75.9052 112.651ZM77.4473 112.558L77.6934 116.612C78.8606 116.541 80.0198 116.41 81.1705 116.22L80.5076 112.213L79.8446 108.206C78.9711 108.35 78.0901 108.45 77.2012 108.503L77.4473 112.558ZM80.5076 112.213L81.1705 116.22L82.6887 115.969L82.0258 111.962L81.3629 107.955L79.8446 108.206L80.5076 112.213ZM82.0258 111.962L82.6887 115.969L84.2069 115.717L83.544 111.71L82.8811 107.703L81.3629 107.955L82.0258 111.962ZM83.544 111.71L84.2069 115.717C85.3301 115.532 86.4442 115.299 87.5488 115.021L86.5558 111.083L85.5628 107.144C84.676 107.368 83.7822 107.554 82.8811 107.703L83.544 111.71ZM86.5558 111.083L87.5488 115.021L89.0424 114.644L88.0494 110.706L87.0564 106.768L85.5628 107.144L86.5558 111.083ZM88.0494 110.706L89.0424 114.644L90.536 114.268L89.543 110.329L88.5499 106.391L87.0564 106.768L88.0494 110.706ZM89.543 110.329L90.536 114.268C91.7486 113.962 92.9293 113.558 94.076 113.057L92.4502 109.335L90.8244 105.613C90.0863 105.936 89.3288 106.195 88.5499 106.391L89.543 110.329ZM92.4502 109.335L94.076 113.057L95.4896 112.44L93.8638 108.718L92.238 104.996L90.8244 105.613L92.4502 109.335ZM93.8638 108.718L95.4896 112.44L96.9032 111.822L95.2774 108.1L93.6516 104.378L92.238 104.996L93.8638 108.718ZM95.2774 108.1L96.9032 111.822C98.0621 111.316 99.1691 110.712 100.222 110.013L97.9734 106.63L95.7253 103.248C95.0679 103.685 94.3774 104.061 93.6516 104.378L95.2774 108.1ZM97.9734 106.63L100.222 110.013L101.504 109.161L99.2559 105.778L97.0078 102.395L95.7253 103.248L97.9734 106.63ZM99.2559 105.778L101.504 109.161L102.786 108.308L100.538 104.926L98.2903 101.543L97.0078 102.395L99.2559 105.778ZM100.538 104.926L102.786 108.308C103.772 107.653 104.716 106.944 105.619 106.18L102.994 103.08L100.37 99.9802C99.7076 100.541 99.0147 101.062 98.2903 101.543L100.538 104.926ZM102.994 103.08L105.619 106.18L106.792 105.186L104.167 102.087L101.543 98.9868L100.37 99.9802L102.994 103.08ZM104.167 102.087L106.792 105.186L107.965 104.193L105.341 101.093L102.716 97.9935L101.543 98.9868L104.167 102.087ZM105.341 101.093L107.965 104.193C108.877 103.421 109.739 102.593 110.55 101.711L107.56 98.9622L104.57 96.2132C103.987 96.8478 103.369 97.441 102.716 97.9935L105.341 101.093ZM107.56 98.9622L110.55 101.711L111.596 100.574L108.606 97.8245L105.616 95.0756L104.57 96.2132L107.56 98.9622ZM108.606 97.8245L111.596 100.574L112.642 99.4359L109.652 96.6869L106.662 93.9379L105.616 95.0756L108.606 97.8245ZM109.652 96.6869L112.642 99.4359C113.583 98.412 114.376 97.2784 115.015 96.043L111.408 94.1775L107.8 92.3119C107.493 92.9056 107.116 93.4451 106.662 93.9379L109.652 96.6869ZM111.408 94.1775L115.015 96.043L115.725 94.6712L112.117 92.8056L108.509 90.94L107.8 92.3119L111.408 94.1775ZM112.117 92.8056L115.725 94.6712L116.434 93.2993L112.826 91.4337L109.219 89.5682L108.509 90.94L112.117 92.8056ZM112.826 91.4337L116.434 93.2993C116.947 92.3071 117.427 91.3011 117.873 90.2814L114.152 88.6535L110.431 87.0256C110.056 87.8837 109.651 88.7312 109.219 89.5682L112.826 91.4337ZM114.152 88.6535L117.873 90.2814L118.489 88.8731L114.768 87.2452L111.047 85.6173L110.431 87.0256L114.152 88.6535ZM114.768 87.2452L118.489 88.8731L119.105 87.4647L115.384 85.8368L111.663 84.2089L111.047 85.6173L114.768 87.2452ZM115.384 85.8368L119.105 87.4647C119.557 86.4321 119.939 85.4211 120.166 84.4965L116.221 83.5287L112.277 82.561C112.209 82.836 112.033 83.3638 111.663 84.2089L115.384 85.8368ZM116.221 83.5287L120.166 84.4965L120.386 83.5968L116.442 82.629L112.497 81.6612L112.277 82.561L116.221 83.5287ZM116.442 82.629L120.386 83.5968L120.607 82.697L116.663 81.7293L112.718 80.7615L112.497 81.6612L116.442 82.629ZM116.663 81.7293L120.607 82.697C120.639 82.5655 120.666 82.4623 120.687 82.3839C120.697 82.3451 120.705 82.3153 120.711 82.2936C120.718 82.2714 120.721 82.262 120.72 82.2629C120.72 82.2637 120.719 82.2689 120.716 82.2779C120.713 82.2867 120.708 82.3016 120.701 82.3214C120.69 82.352 120.659 82.4379 120.607 82.5527C120.579 82.6157 120.44 82.9314 120.172 83.2891C120.046 83.457 119.728 83.8595 119.19 84.22C118.624 84.5987 117.446 85.1554 115.956 84.7842L116.938 80.8431L117.92 76.9021C116.425 76.5297 115.242 77.0877 114.671 77.47C114.127 77.8342 113.803 78.2426 113.671 78.4189C113.391 78.7933 113.237 79.1354 113.193 79.2341C113.075 79.4989 112.998 79.7423 112.963 79.8528C112.879 80.1224 112.796 80.4437 112.718 80.7615L116.663 81.7293ZM116.938 80.8431L115.956 84.7842L116.011 84.7978L116.992 80.8567L117.974 76.9157L117.92 76.9021L116.938 80.8431ZM116.992 80.8567L113.311 82.5711L113.361 82.6792L117.043 80.9648L120.725 79.2504L120.674 79.1423L116.992 80.8567ZM117.043 80.9648L120.327 83.3542L120.386 83.2734L117.102 80.8839L113.817 78.4944L113.759 78.5753L117.043 80.9648Z" fill="#B8B8B8"/>
</g>
<defs>
<clipPath id="clip0_1855_1291">
<rect width="1008" height="463" fill="white"/>
</clipPath>
<clipPath id="clip1_1855_1291">
<rect width="166" height="166" fill="white" transform="translate(719.643 236.951)"/>
</clipPath>
</defs>
</svg>
