<svg width="150" height="51" viewBox="0 0 150 51" fill="none" xmlns="http://www.w3.org/2000/svg">
<path d="M46.1428 5.60623C46.9158 5.58933 47.5288 4.94899 47.5119 4.17597C47.495 3.40296 46.8547 2.79 46.0817 2.8069L46.1122 4.20656L46.1428 5.60623ZM46.0123 4.20875L45.9089 5.60493L45.9758 5.60988L46.0429 5.60841L46.0123 4.20875ZM2.1851 32.1354L0.888844 32.6643L2.1851 32.1354ZM12.3278 41.7521L11.7519 43.0282L12.3278 41.7521ZM25.8266 46.638L26.136 45.2726L25.8266 46.638ZM49.5827 49.2004L49.4898 50.5974L49.5827 49.2004ZM63.9887 49.0939L63.9357 50.4929L63.9887 49.0939ZM73.6178 48.478L73.4885 47.084L73.6178 48.478ZM83.1703 47.7543L83.1638 49.1543L83.1703 47.7543ZM87.9272 47.2679L87.6397 45.8977L87.9272 47.2679ZM92.665 46.4861L92.832 47.8761L92.665 46.4861ZM102.128 45.0479L101.807 43.6852L102.128 45.0479ZM106.796 44.0863L106.553 42.7076L106.796 44.0863ZM111.444 42.9795L111.042 41.6385L111.444 42.9795ZM120.711 40.5019L120.403 39.1362L120.711 40.5019ZM129.652 37.1665L130.119 38.4864L129.652 37.1665ZM134.1 35.3423L134.695 36.6098L134.1 35.3423ZM138.188 32.8788L139.032 33.9964L138.188 32.8788ZM145.486 26.7167L144.495 25.7276L145.486 26.7167ZM147.843 18.0641L146.472 18.3485V18.3485L147.843 18.0641ZM128.919 5.64384L128.521 6.98601L128.919 5.64384ZM124.267 4.4449L124.567 3.07753V3.07753L124.267 4.4449ZM110.06 2.4829L110.188 1.08877L110.06 2.4829ZM90.9566 1.56036L90.8253 0.166534L90.9566 1.56036ZM46.1154 4.23289L45.5968 2.93252L44.6048 3.32816L44.7242 4.3894L46.1154 4.23289ZM46.2117 4.19448L46.7304 5.49486L46.0707 2.80161L46.2117 4.19448ZM45.9712 2.81168C45.2019 2.88959 44.6415 3.57636 44.7194 4.34562C44.7973 5.11488 45.484 5.67534 46.2533 5.59743L46.1122 4.20456L45.9712 2.81168ZM46.1122 4.20656L46.0817 2.8069L45.9817 2.80908L46.0123 4.20875L46.0429 5.60841L46.1428 5.60623L46.1122 4.20656ZM46.0123 4.20875L46.1156 2.81257C42.9694 2.57964 40.516 2.52689 38.8039 2.6778L38.9268 4.0724L39.0498 5.46699C40.5292 5.33658 42.7995 5.37472 45.9089 5.60493L46.0123 4.20875ZM38.9268 4.0724L38.8039 2.6778C37.1683 2.82197 35.5441 3.0356 33.9313 3.31871L34.1733 4.69763L34.4154 6.07654C35.949 5.80733 37.4938 5.60414 39.0498 5.46699L38.9268 4.0724ZM34.1733 4.69763L33.9313 3.31871C32.3883 3.58955 30.8353 3.80979 29.2722 3.9794L29.4232 5.37123L29.5743 6.76306C31.1981 6.58686 32.8119 6.35802 34.4154 6.07654L34.1733 4.69763ZM29.4232 5.37123L29.2722 3.9794C27.5804 4.16298 25.9277 4.52216 24.3157 5.05673L24.7564 6.38557L25.1971 7.71441C26.6205 7.24236 28.079 6.92531 29.5743 6.76306L29.4232 5.37123ZM24.7564 6.38557L24.3157 5.05673C22.7661 5.57062 21.2415 6.1381 19.7418 6.75918L20.2775 8.05264L20.8132 9.3461C22.25 8.75105 23.7113 8.20714 25.1971 7.71441L24.7564 6.38557ZM20.2775 8.05264L19.7418 6.75918C18.254 7.37537 16.7757 8.02728 15.3067 8.71487L15.9002 9.98283L16.4937 11.2508C17.9248 10.5809 19.3646 9.94604 20.8132 9.3461L20.2775 8.05264ZM15.9002 9.98283L15.3067 8.71487C13.7697 9.43431 12.3257 10.3016 10.9762 11.3163L11.8176 12.4353L12.6589 13.5542C13.8529 12.6565 15.1307 11.8888 16.4937 11.2508L15.9002 9.98283ZM11.8176 12.4353L10.9762 11.3163C9.67894 12.2916 8.41731 13.3096 7.19135 14.37L8.10725 15.4289L9.02314 16.4877C10.2007 15.4691 11.4126 14.4913 12.6589 13.5542L11.8176 12.4353ZM8.10725 15.4289L7.19135 14.37C5.91237 15.4763 4.77079 16.7064 3.76817 18.0589L4.89287 18.8926L6.01757 19.7263C6.89726 18.5396 7.8986 17.4604 9.02314 16.4877L8.10725 15.4289ZM4.89287 18.8926L3.76817 18.0589C2.76551 19.4116 1.92272 20.8588 1.24072 22.3989L2.52082 22.9658L3.80093 23.5326C4.39936 22.1812 5.13793 20.913 6.01757 19.7263L4.89287 18.8926ZM2.52082 22.9658L1.24072 22.3989C0.532117 23.9991 0.125622 25.6822 0.0215607 27.4402L1.41911 27.5229L2.81667 27.6056C2.90112 26.1789 3.2291 24.8239 3.80093 23.5326L2.52082 22.9658ZM1.41911 27.5229L0.0215607 27.4402C-0.0851123 29.2423 0.205196 30.9887 0.888844 32.6643L2.1851 32.1354L3.48136 31.6065C2.95517 30.3168 2.73482 28.9883 2.81667 27.6056L1.41911 27.5229ZM2.1851 32.1354L0.888844 32.6643C1.5624 34.3151 2.52529 35.7795 3.7724 37.0482L4.77083 36.0668L5.76926 35.0854C4.77858 34.0775 4.01764 32.9209 3.48136 31.6065L2.1851 32.1354ZM4.77083 36.0668L3.7724 37.0482C4.92791 38.2238 6.14097 39.3266 7.41152 40.3565L8.29306 39.2689L9.17461 38.1813C7.98664 37.2184 6.85155 36.1865 5.76926 35.0854L4.77083 36.0668ZM8.29306 39.2689L7.41152 40.3565C8.73534 41.4295 10.1832 42.3202 11.7519 43.0282L12.3278 41.7521L12.9037 40.476C11.5513 39.8657 10.3093 39.101 9.17461 38.1813L8.29306 39.2689ZM12.3278 41.7521L11.7519 43.0282C13.2342 43.6971 14.7308 44.3269 16.2416 44.9176L16.7514 43.6137L17.2612 42.3098C15.795 41.7366 14.3425 41.1253 12.9037 40.476L12.3278 41.7521ZM16.7514 43.6137L16.2416 44.9176C17.742 45.5042 19.2506 46.0704 20.7673 46.616L21.2412 45.2986L21.7151 43.9812C20.2224 43.4443 18.7378 42.8872 17.2612 42.3098L16.7514 43.6137ZM21.2412 45.2986L20.7673 46.616C22.3255 47.1765 23.9089 47.639 25.5173 48.0034L25.8266 46.638L26.136 45.2726C24.6397 44.9337 23.1662 44.5032 21.7151 43.9812L21.2412 45.2986ZM25.8266 46.638L25.5173 48.0034C27.1361 48.3702 28.7739 48.6174 30.4301 48.7449L30.5376 47.349L30.6451 45.9532C29.1246 45.8361 27.6218 45.6093 26.136 45.2726L25.8266 46.638ZM30.5376 47.349L30.4301 48.7449C31.9615 48.8628 33.4823 49.0738 34.9929 49.378L35.2693 48.0056L35.5457 46.6332C33.9239 46.3065 32.2903 46.0798 30.6451 45.9532L30.5376 47.349ZM35.2693 48.0056L34.9929 49.378C36.6003 49.7018 38.226 49.9539 39.8697 50.1344L40.0226 48.7428L40.1754 47.3512C38.6138 47.1796 37.0706 46.9403 35.5457 46.6332L35.2693 48.0056ZM40.0226 48.7428L39.8697 50.1344C41.5191 50.3156 43.1643 50.4124 44.8051 50.4245L44.8155 49.0245L44.8258 47.6246C43.2814 47.6131 41.7314 47.5221 40.1754 47.3512L40.0226 48.7428ZM44.8155 49.0245L44.8051 50.4245C46.3702 50.4361 47.9317 50.4937 49.4898 50.5974L49.5827 49.2004L49.6756 47.8035C48.0625 47.6962 46.4459 47.6366 44.8258 47.6246L44.8155 49.0245ZM49.5827 49.2004L49.4898 50.5974C51.1236 50.706 52.7756 50.7311 54.4455 50.6727L54.3966 49.2736L54.3477 47.8744C52.7702 47.9295 51.213 47.9058 49.6756 47.8035L49.5827 49.2004ZM54.3966 49.2736L54.4455 50.6727C56.0714 50.6159 57.6689 50.5562 59.2381 50.4935L59.1822 49.0946L59.1264 47.6957C57.562 47.7582 55.9691 47.8178 54.3477 47.8744L54.3966 49.2736ZM59.1822 49.0946L59.2381 50.4935C60.767 50.4325 62.3328 50.4321 63.9357 50.4929L63.9887 49.0939L64.0418 47.6949C62.3695 47.6315 60.731 47.6317 59.1264 47.6957L59.1822 49.0946ZM63.9887 49.0939L63.9357 50.4929C65.6372 50.5575 67.3234 50.5049 68.9938 50.3348L68.852 48.942L68.7101 47.5492C67.1713 47.7059 65.6154 47.7546 64.0418 47.6949L63.9887 49.0939ZM68.852 48.942L68.9938 50.3348C70.5943 50.1717 72.1787 50.0175 73.7471 49.8721L73.6178 48.478L73.4885 47.084C71.9116 47.2303 70.3188 47.3853 68.7101 47.5492L68.852 48.942ZM73.6178 48.478L73.7471 49.8721C75.3266 49.7256 76.9211 49.5659 78.5306 49.3932L78.3812 48.0012L78.2318 46.6092C76.6354 46.7805 75.0544 46.9388 73.4885 47.084L73.6178 48.478ZM78.3812 48.0012L78.5306 49.3932C80.0824 49.2266 81.6267 49.1471 83.1638 49.1543L83.1703 47.7543L83.1769 46.3543C81.5342 46.3466 79.8857 46.4317 78.2318 46.6092L78.3812 48.0012ZM83.1703 47.7543L83.1638 49.1543C84.854 49.1622 86.5382 48.9897 88.2146 48.6381L87.9272 47.2679L87.6397 45.8977C86.1535 46.2095 84.6664 46.3613 83.1769 46.3543L83.1703 47.7543ZM87.9272 47.2679L88.2146 48.6381C89.7568 48.3146 91.2958 48.0607 92.832 47.8761L92.665 46.4861L92.498 45.0961C90.8797 45.2905 89.2602 45.5578 87.6397 45.8977L87.9272 47.2679ZM92.665 46.4861L92.832 47.8761C94.4122 47.6863 95.9964 47.4908 97.5847 47.2895L97.4087 45.9006L97.2327 44.5117C95.6505 44.7122 94.0722 44.907 92.498 45.0961L92.665 46.4861ZM97.4087 45.9006L97.5847 47.2895C99.2188 47.0825 100.84 46.7895 102.449 46.4107L102.128 45.0479L101.807 43.6852C100.294 44.0416 98.769 44.3171 97.2327 44.5117L97.4087 45.9006ZM102.128 45.0479L102.449 46.4107C103.984 46.049 105.514 45.7338 107.039 45.4651L106.796 44.0863L106.553 42.7076C104.975 42.9857 103.393 43.3116 101.807 43.6852L102.128 45.0479ZM106.796 44.0863L107.039 45.4651C108.645 45.1819 110.248 44.8002 111.846 44.3204L111.444 42.9795L111.042 41.6385C109.545 42.0877 108.048 42.4439 106.553 42.7076L106.796 44.0863ZM111.444 42.9795L111.846 44.3204C113.383 43.8593 114.915 43.421 116.442 43.0054L116.075 41.6545L115.707 40.3036C114.156 40.7257 112.601 41.1706 111.042 41.6385L111.444 42.9795ZM116.075 41.6545L116.442 43.0054C117.962 42.592 119.487 42.2127 121.019 41.8677L120.711 40.5019L120.403 39.1362C118.832 39.4903 117.266 39.8794 115.707 40.3036L116.075 41.6545ZM120.711 40.5019L121.019 41.8677C122.666 41.4963 124.26 40.9551 125.797 40.2447L125.209 38.9739L124.622 37.703C123.264 38.3308 121.858 38.8083 120.403 39.1362L120.711 40.5019ZM125.209 38.9739L125.797 40.2447C127.205 39.5939 128.646 39.0078 130.119 38.4864L129.652 37.1665L129.186 35.8467C127.631 36.3969 126.109 37.0156 124.622 37.703L125.209 38.9739ZM129.652 37.1665L130.119 38.4864C131.677 37.9353 133.202 37.3097 134.695 36.6098L134.1 35.3423L133.506 34.0748C132.097 34.7356 130.657 35.3262 129.186 35.8467L129.652 37.1665ZM134.1 35.3423L134.695 36.6098C136.233 35.8883 137.679 35.017 139.032 33.9964L138.188 32.8788L137.345 31.7613C136.148 32.6645 134.869 33.4355 133.506 34.0748L134.1 35.3423ZM138.188 32.8788L139.032 33.9964C140.321 33.0235 141.585 32.03 142.825 31.0158L141.939 29.9321L141.053 28.8484C139.841 29.8393 138.605 30.8103 137.345 31.7613L138.188 32.8788ZM141.939 29.9321L142.825 31.0158C144.088 29.9829 145.305 28.8795 146.477 27.7058L145.486 26.7167L144.495 25.7276C143.389 26.836 142.241 27.8762 141.053 28.8484L141.939 29.9321ZM145.486 26.7167L146.477 27.7058C147.795 26.3855 148.681 24.8142 149.118 23.0142L147.757 22.6843L146.397 22.3545C146.083 23.6489 145.455 24.7658 144.495 25.7276L145.486 26.7167ZM147.757 22.6843L149.118 23.0142C149.541 21.269 149.575 19.5191 149.214 17.7797L147.843 18.0641L146.472 18.3485C146.747 19.675 146.724 21.0052 146.397 22.3545L147.757 22.6843ZM147.843 18.0641L149.214 17.7797C148.839 15.9731 147.979 14.4004 146.658 13.0884L145.671 14.0816L144.685 15.0748C145.623 16.0069 146.211 17.0892 146.472 18.3485L147.843 18.0641ZM145.671 14.0816L146.658 13.0884C145.496 11.9342 144.282 10.8406 143.016 9.8078L142.131 10.8927L141.246 11.9775C142.441 12.9525 143.588 13.9849 144.685 15.0748L145.671 14.0816ZM142.131 10.8927L143.016 9.8078C141.662 8.7033 140.155 7.851 138.501 7.25298L138.025 8.56954L137.549 9.8861C138.909 10.3778 140.139 11.0742 141.246 11.9775L142.131 10.8927ZM138.025 8.56954L138.501 7.25298C136.976 6.70135 135.445 6.18455 133.908 5.70259L133.489 7.03841L133.07 8.37423C134.568 8.84408 136.061 9.34803 137.549 9.8861L138.025 8.56954ZM133.489 7.03841L133.908 5.70259C132.384 5.2245 130.854 4.75753 129.317 4.30167L128.919 5.64384L128.521 6.98601C130.044 7.43777 131.56 7.90051 133.07 8.37423L133.489 7.03841ZM128.919 5.64384L129.317 4.30167C127.755 3.8382 126.172 3.43017 124.567 3.07753L124.267 4.4449L123.966 5.81227C125.506 6.15059 127.024 6.54185 128.521 6.98601L128.919 5.64384ZM124.267 4.4449L124.567 3.07753C122.988 2.73045 121.413 2.39766 119.844 2.07916L119.565 3.4512L119.287 4.82324C120.842 5.13872 122.401 5.46839 123.966 5.81227L124.267 4.4449ZM119.565 3.4512L119.844 2.07916C118.216 1.74896 116.577 1.53663 114.927 1.44237L114.847 2.84009L114.767 4.23782C116.283 4.32441 117.79 4.51948 119.287 4.82324L119.565 3.4512ZM114.847 2.84009L114.927 1.44237C113.36 1.35289 111.781 1.23503 110.188 1.08877L110.06 2.4829L109.932 3.87703C111.556 4.02619 113.168 4.14646 114.767 4.23782L114.847 2.84009ZM110.06 2.4829L110.188 1.08877C108.565 0.939707 106.958 0.818112 105.367 0.724021L105.284 2.12158L105.202 3.51914C106.762 3.6114 108.339 3.73068 109.932 3.87703L110.06 2.4829ZM105.284 2.12158L105.367 0.724021C103.809 0.631887 102.241 0.509628 100.662 0.357214L100.528 1.75073L100.393 3.14425C102.006 3.29995 103.609 3.42492 105.202 3.51914L105.284 2.12158ZM100.528 1.75073L100.662 0.357214C99.0398 0.200583 97.4177 0.0909318 95.7958 0.028281L95.7418 1.42724L95.6877 2.82619C97.2556 2.88676 98.8241 2.99277 100.393 3.14425L100.528 1.75073ZM95.7418 1.42724L95.7958 0.028281C94.1388 -0.0357252 92.4818 0.0103943 90.8253 0.166534L90.9566 1.56036L91.088 2.95418C92.6218 2.80961 94.1549 2.76698 95.6877 2.82619L95.7418 1.42724ZM90.9566 1.56036L90.8253 0.166534C89.2668 0.313423 87.7094 0.398109 86.153 0.420643L86.1733 1.8205L86.1935 3.22035C87.8246 3.19674 89.4561 3.108 91.088 2.95418L90.9566 1.56036ZM86.1733 1.8205L86.153 0.420643C84.5919 0.443243 83.0261 0.411264 81.4553 0.324657L81.3782 1.72253L81.3011 3.12041C82.9363 3.21057 84.5671 3.2439 86.1935 3.22035L86.1733 1.8205ZM81.3782 1.72253L81.4553 0.324657C79.7887 0.232772 78.1319 0.25503 76.485 0.391726L76.6009 1.78693L76.7167 3.18213C78.2337 3.0562 79.7617 3.03553 81.3011 3.12041L81.3782 1.72253ZM76.6009 1.78693L76.485 0.391726C74.9344 0.520438 73.3646 0.598222 71.7756 0.624959L71.7991 2.02476L71.8227 3.42456C73.4721 3.39681 75.1034 3.31604 76.7167 3.18213L76.6009 1.78693ZM71.7991 2.02476L71.7756 0.624959C70.1501 0.65231 68.5484 0.690258 66.9706 0.738811L67.0137 2.13815L67.0567 3.53749C68.6211 3.48935 70.2098 3.4517 71.8227 3.42456L71.7991 2.02476ZM67.0137 2.13815L66.9706 0.738811C65.3526 0.788603 63.7174 0.920323 62.0651 1.13354L62.2443 2.52202L62.4235 3.91051C63.9882 3.70859 65.5326 3.58439 67.0567 3.53749L67.0137 2.13815ZM62.2443 2.52202L62.0651 1.13354C60.4526 1.34163 58.8614 1.55411 57.2918 1.77099L57.4834 3.15782L57.675 4.54464C59.2362 4.32894 60.819 4.11756 62.4235 3.91051L62.2443 2.52202ZM57.4834 3.15782L57.2918 1.77099C55.7392 1.9855 54.1777 2.17915 52.6073 2.35193L52.7604 3.74353L52.9135 5.13514C54.5095 4.95955 56.0966 4.76272 57.675 4.54464L57.4834 3.15782ZM52.7604 3.74353L52.6073 2.35193C51.0445 2.52388 49.5649 2.65161 48.1682 2.73554L48.2521 4.13302L48.3361 5.5305C49.7841 5.44349 51.31 5.31156 52.9135 5.13514L52.7604 3.74353ZM48.2521 4.13302L48.1682 2.73554C47.4584 2.77819 46.9323 2.80743 46.5858 2.82362C46.4106 2.83181 46.292 2.83615 46.222 2.83756C46.1829 2.83835 46.1794 2.83776 46.195 2.83827C46.1956 2.83829 46.2452 2.8394 46.3129 2.84861C46.3361 2.85176 46.4382 2.86527 46.5637 2.90744C46.6206 2.92658 46.7664 2.97856 46.9264 3.0921C47.0685 3.19298 47.4421 3.50238 47.5067 4.07638L46.1154 4.23289L44.7242 4.3894C44.7888 4.964 45.1628 5.27396 45.3057 5.37538C45.4664 5.48946 45.6133 5.54195 45.6717 5.56158C45.8001 5.60472 45.9065 5.61911 45.9354 5.62304C46.0144 5.6338 46.081 5.63604 46.104 5.63679C46.1646 5.63876 46.2281 5.63801 46.2784 5.63699C46.3869 5.6348 46.5357 5.62902 46.7166 5.62057C47.0823 5.60347 47.6236 5.57332 48.3361 5.5305L48.2521 4.13302ZM46.1154 4.23289L46.6341 5.53327L46.7304 5.49486L46.2117 4.19448L45.6931 2.8941L45.5968 2.93252L46.1154 4.23289ZM46.2117 4.19448L46.0707 2.80161L45.9712 2.81168L46.1122 4.20456L46.2533 5.59743L46.3528 5.58736L46.2117 4.19448Z" fill="#B8B8B8"/>
</svg>
