<svg width="30" height="30" viewBox="0 0 30 30" fill="none" xmlns="http://www.w3.org/2000/svg">
<g clip-path="url(#clip0_1461_5117)">
<path d="M18.5444 9.76486L19.1964 9.14448L18.5444 9.76486ZM17.8299 9.06662L17.2247 9.73276L17.8299 9.06662ZM17.4597 8.73035L18.0649 8.06421L17.4597 8.73035ZM17.0896 8.39409L17.6948 7.72795L17.0896 8.39409ZM16.3179 8.06267L16.3287 8.96261L16.3179 8.06267ZM15.9163 8.06752L15.9271 8.96746L15.9163 8.06752ZM15.5147 8.07237L15.5038 7.17244L15.5147 8.07237ZM14.6651 8.29933L15.0649 9.10566L14.6651 8.29933ZM14.2172 8.52144L13.8174 7.71512L14.2172 8.52144ZM13.7692 8.74355L13.3694 7.93723L13.7692 8.74355ZM12.8882 9.21473L12.4395 8.43457L12.8882 9.21473ZM12.4552 9.4638L12.0065 8.68364L12.4552 9.4638ZM12.0221 9.71287L12.4708 10.493L12.0221 9.71287ZM11.1694 10.2353L10.6782 9.48121L11.1694 10.2353ZM10.3301 10.7821L10.8214 11.5362L10.3301 10.7821ZM9.58353 11.3763L10.2139 12.0187L9.58353 11.3763ZM8.92958 12.0181L8.29919 11.3757L8.92958 12.0181ZM8.52787 12.8331L9.41776 12.9677L8.52787 12.8331ZM8.19313 14.8031L7.31542 14.604L8.19313 14.8031ZM7.97199 15.7781L8.8497 15.9772L7.97199 15.7781ZM7.80762 16.7637L6.91283 16.667L7.80762 16.7637ZM7.75382 17.2617L8.64861 17.3584L7.75382 17.2617ZM7.54552 18.7471L8.42705 18.9285L7.54552 18.7471ZM7.44483 19.2364L6.5633 19.055L7.44483 19.2364ZM7.34413 19.7258L8.22566 19.9072L7.34413 19.7258ZM7.14291 20.7045L6.26132 20.5234L7.14291 20.7045ZM6.94187 21.6833L6.06028 21.5022V21.5022L6.94187 21.6833ZM6.73178 22.6604L5.85367 22.4631L6.73178 22.6604ZM6.62221 23.1481L5.7441 22.9508L6.62221 23.1481ZM6.51264 23.6358L7.39075 23.8331L6.51264 23.6358ZM6.69949 24.2354L7.01744 23.3934L6.69949 24.2354ZM6.99592 24.3474L6.67797 25.1893L6.99592 24.3474ZM7.29235 24.4593L7.6103 23.6173L7.29235 24.4593ZM8.08978 24.5336L8.02244 23.6362L8.08978 24.5336ZM8.59079 24.496L8.65814 25.3935L8.59079 24.496ZM9.0918 24.4584L9.15915 25.3559L9.0918 24.4584ZM10.0787 24.3015L9.8641 23.4275L10.0787 24.3015ZM11.0505 24.0629L11.2652 24.9369L11.0505 24.0629ZM12.0307 23.8692L12.1646 24.7592L12.0307 23.8692ZM14.9628 23.2436L15.2035 24.1108L14.9628 23.2436ZM15.9475 23.0749L16.0094 23.9728L15.9475 23.0749ZM16.9507 23.0058L16.8888 22.108L16.9507 23.0058ZM17.9405 22.8647L18.1325 23.744L17.9405 22.8647ZM18.917 22.6515L18.7251 21.7722L18.917 22.6515ZM21.3101 19.7032L22.0934 20.1464L21.3101 19.7032ZM21.764 18.8127L22.5828 19.1863L21.764 18.8127ZM22.654 17.0218L23.4161 17.5005L22.654 17.0218ZM23.1862 16.1745L22.4241 15.6958L23.1862 16.1745ZM23.536 15.5927L24.3316 16.0136L23.536 15.5927ZM23.6197 15.4345L22.8242 15.0136L23.6197 15.4345ZM6.45672 24.8197L5.82032 24.1833L5.82821 24.1754L5.83629 24.1677L6.45672 24.8197ZM7.1444 24.1653L7.76482 24.8173L7.1444 24.1653ZM8.86229 22.4219L9.51609 23.0404L8.86229 22.4219ZM9.56148 21.7083L10.1932 22.3493L9.56148 21.7083ZM9.91728 21.3577L9.28559 20.7166L9.91728 21.3577ZM11.7007 19.6091L12.3297 20.2528L11.7007 19.6091ZM12.4241 18.9197L13.0368 19.5791L12.4241 18.9197ZM13.1565 18.2393L12.5438 17.58L13.1565 18.2393ZM13.6975 17.6461L12.9571 17.1344L13.6975 17.6461ZM14.0471 17.1403L14.7875 17.652L14.0471 17.1403ZM14.2637 16.9291L14.9001 16.2927L15.2633 16.6559L15.1354 17.1533L14.2637 16.9291ZM14.2348 17.0416L14.8712 17.678L12.5432 20.006L13.3632 16.8175L14.2348 17.0416ZM23.0988 14.3937L22.4463 15.0137L22.1021 14.6515L22.7546 14.0315L23.407 13.4116L23.7512 13.7738L23.0988 14.3937ZM22.7546 14.0315L22.1021 14.6515C21.8914 14.4297 21.6708 14.2176 21.4404 14.0153L22.0343 13.339L22.6281 12.6627C22.8992 12.9008 23.1588 13.1504 23.407 13.4116L22.7546 14.0315ZM22.0343 13.339L21.4404 14.0153L21.0643 13.685L21.6581 13.0087L22.252 12.3325L22.6281 12.6627L22.0343 13.339ZM21.6581 13.0087L21.0643 13.685L20.6882 13.3548L21.282 12.6785L21.8759 12.0022L22.252 12.3325L21.6581 13.0087ZM21.282 12.6785L20.6882 13.3548C20.4093 13.1099 20.1467 12.8486 19.9005 12.5711L20.5738 11.9738L21.2471 11.3766C21.4437 11.5982 21.6532 11.8067 21.8759 12.0022L21.282 12.6785ZM20.5738 11.9738L19.9005 12.5711L19.5685 12.1967L20.2418 11.5995L20.9151 11.0023L21.2471 11.3766L20.5738 11.9738ZM20.2418 11.5995L19.5685 12.1967L19.2364 11.8224L19.9097 11.2251L20.583 10.6279L20.9151 11.0023L20.2418 11.5995ZM19.9097 11.2251L19.2364 11.8224C19.022 11.5806 18.8036 11.3429 18.5813 11.1092L19.2333 10.4888L19.8853 9.86843C20.1221 10.1174 20.3547 10.3705 20.583 10.6279L19.9097 11.2251ZM19.2333 10.4888L18.5813 11.1092L18.2368 10.7472L18.8888 10.1268L19.5409 9.50645L19.8853 9.86843L19.2333 10.4888ZM18.8888 10.1268L18.2368 10.7472L17.8924 10.3853L18.5444 9.76486L19.1964 9.14448L19.5409 9.50645L18.8888 10.1268ZM18.5444 9.76486L17.8924 10.3853C17.6779 10.1598 17.4553 9.94227 17.2247 9.73276L17.8299 9.06662L18.4351 8.40048C18.698 8.63932 18.9518 8.88733 19.1964 9.14448L18.5444 9.76486ZM17.8299 9.06662L17.2247 9.73276L16.8545 9.3965L17.4597 8.73035L18.0649 8.06421L18.4351 8.40048L17.8299 9.06662ZM17.4597 8.73035L16.8545 9.3965L16.4844 9.06023L17.0896 8.39409L17.6948 7.72795L18.0649 8.06421L17.4597 8.73035ZM17.0896 8.39409L16.4844 9.06023C16.4212 9.00279 16.3778 8.97923 16.3565 8.97007C16.338 8.96215 16.3311 8.96258 16.3287 8.96261L16.3179 8.06267L16.307 7.16274C16.8546 7.15612 17.3228 7.39 17.6948 7.72795L17.0896 8.39409ZM16.3179 8.06267L16.3287 8.96261L15.9271 8.96746L15.9163 8.06752L15.9054 7.16759L16.307 7.16274L16.3179 8.06267ZM15.9163 8.06752L15.9271 8.96746L15.5255 8.97231L15.5147 8.07237L15.5038 7.17244L15.9054 7.16759L15.9163 8.06752ZM15.5147 8.07237L15.5255 8.97231C15.4218 8.97356 15.2715 9.00324 15.0649 9.10566L14.6651 8.29933L14.2653 7.49301C14.656 7.29929 15.0721 7.17765 15.5038 7.17244L15.5147 8.07237ZM14.6651 8.29933L15.0649 9.10566L14.617 9.32777L14.2172 8.52144L13.8174 7.71512L14.2653 7.49301L14.6651 8.29933ZM14.2172 8.52144L14.617 9.32777L14.169 9.54988L13.7692 8.74355L13.3694 7.93723L13.8174 7.71512L14.2172 8.52144ZM13.7692 8.74355L14.169 9.54988C13.887 9.68974 13.6096 9.83808 13.3369 9.9949L12.8882 9.21473L12.4395 8.43457C12.7443 8.25929 13.0543 8.09351 13.3694 7.93723L13.7692 8.74355ZM12.8882 9.21473L13.3369 9.9949L12.9039 10.244L12.4552 9.4638L12.0065 8.68364L12.4395 8.43457L12.8882 9.21473ZM12.4552 9.4638L12.9039 10.244L12.4708 10.493L12.0221 9.71287L11.5734 8.93271L12.0065 8.68364L12.4552 9.4638ZM12.0221 9.71287L12.4708 10.493C12.1966 10.6508 11.9265 10.8162 11.6607 10.9894L11.1694 10.2353L10.6782 9.48121C10.9718 9.28991 11.2702 9.10707 11.5734 8.93271L12.0221 9.71287ZM11.1694 10.2353L11.6607 10.9894L11.241 11.2628L10.7498 10.5087L10.2585 9.75458L10.6782 9.48121L11.1694 10.2353ZM10.7498 10.5087L11.241 11.2628L10.8214 11.5362L10.3301 10.7821L9.83889 10.028L10.2585 9.75458L10.7498 10.5087ZM10.3301 10.7821L10.8214 11.5362C10.587 11.6888 10.3856 11.8502 10.2139 12.0187L9.58353 11.3763L8.95314 10.734C9.21742 10.4746 9.51375 10.2398 9.83889 10.028L10.3301 10.7821ZM9.58353 11.3763L10.2139 12.0187L9.88694 12.3395L9.25655 11.6972L8.62617 11.0548L8.95314 10.734L9.58353 11.3763ZM9.25655 11.6972L9.88694 12.3395L9.55996 12.6604L8.92958 12.0181L8.29919 11.3757L8.62617 11.0548L9.25655 11.6972ZM8.92958 12.0181L9.55996 12.6604C9.49405 12.7251 9.44121 12.8126 9.41776 12.9677L8.52787 12.8331L7.63799 12.6985C7.71418 12.1948 7.92913 11.7389 8.29919 11.3757L8.92958 12.0181ZM8.52787 12.8331L9.41776 12.9677L9.34303 13.4618L8.45315 13.3273L7.56327 13.1927L7.63799 12.6985L8.52787 12.8331ZM8.45315 13.3273L9.34303 13.4618L9.26831 13.956L8.37842 13.8214L7.48854 13.6868L7.56327 13.1927L8.45315 13.3273ZM8.37842 13.8214L9.26831 13.956C9.21522 14.3071 9.14939 14.6558 9.07084 15.0021L8.19313 14.8031L7.31542 14.604C7.38429 14.3003 7.442 13.9946 7.48854 13.6868L8.37842 13.8214ZM8.19313 14.8031L9.07084 15.0021L8.96027 15.4897L8.08256 15.2906L7.20485 15.0915L7.31542 14.604L8.19313 14.8031ZM8.08256 15.2906L8.96027 15.4897L8.8497 15.9772L7.97199 15.7781L7.09428 15.5791L7.20485 15.0915L8.08256 15.2906ZM7.97199 15.7781L8.8497 15.9772C8.78366 16.2684 8.73457 16.5627 8.70241 16.8603L7.80762 16.7637L6.91283 16.667C6.95241 16.3006 7.01289 15.9379 7.09428 15.5791L7.97199 15.7781ZM7.80762 16.7637L8.70241 16.8603L8.64861 17.3584L7.75382 17.2617L6.85903 17.165L6.91283 16.667L7.80762 16.7637ZM7.75382 17.2617L8.64861 17.3584L8.59481 17.8564L7.70002 17.7597L6.80523 17.663L6.85903 17.165L7.75382 17.2617ZM7.70002 17.7597L8.59481 17.8564C8.55588 18.2167 8.49996 18.5741 8.42705 18.9285L7.54552 18.7471L6.66399 18.5657C6.72534 18.2675 6.77242 17.9667 6.80523 17.663L7.70002 17.7597ZM7.54552 18.7471L8.42705 18.9285L8.32636 19.4178L7.44483 19.2364L6.5633 19.055L6.66399 18.5657L7.54552 18.7471ZM7.44483 19.2364L8.32636 19.4178L8.22566 19.9072L7.34413 19.7258L6.4626 19.5444L6.5633 19.055L7.44483 19.2364ZM7.34413 19.7258L8.22566 19.9072C8.15855 20.2333 8.0915 20.5594 8.02451 20.8856L7.14291 20.7045L6.26132 20.5234C6.32835 20.1971 6.39545 19.8707 6.4626 19.5444L7.34413 19.7258ZM7.14291 20.7045L8.02451 20.8856L7.92399 21.375L7.04239 21.1939L6.1608 21.0128L6.26132 20.5234L7.14291 20.7045ZM7.04239 21.1939L7.92399 21.375L7.82347 21.8643L6.94187 21.6833L6.06028 21.5022L6.1608 21.0128L7.04239 21.1939ZM6.94187 21.6833L7.82347 21.8643C7.75534 22.196 7.68415 22.5271 7.60989 22.8576L6.73178 22.6604L5.85367 22.4631C5.92551 22.1433 5.99438 21.823 6.06028 21.5022L6.94187 21.6833ZM6.73178 22.6604L7.60989 22.8576L7.50032 23.3453L6.62221 23.1481L5.7441 22.9508L5.85367 22.4631L6.73178 22.6604ZM6.62221 23.1481L7.50032 23.3453L7.39075 23.8331L6.51264 23.6358L5.63452 23.4385L5.7441 22.9508L6.62221 23.1481ZM6.51264 23.6358L7.39075 23.8331C7.37031 23.924 7.39959 23.8766 7.36381 23.7618C7.34296 23.6949 7.30195 23.613 7.2302 23.5372C7.15863 23.4616 7.08023 23.4172 7.01744 23.3934L6.69949 24.2354L6.38154 25.0774C6.02626 24.9432 5.75975 24.6645 5.64531 24.2973C5.54725 23.9826 5.58191 23.6727 5.63452 23.4385L6.51264 23.6358ZM6.69949 24.2354L7.01744 23.3934L7.31387 23.5054L6.99592 24.3474L6.67797 25.1893L6.38154 25.0774L6.69949 24.2354ZM6.99592 24.3474L7.31387 23.5054L7.6103 23.6173L7.29235 24.4593L6.9744 25.3013L6.67797 25.1893L6.99592 24.3474ZM7.29235 24.4593L7.6103 23.6173C7.63398 23.6263 7.75101 23.6565 8.02244 23.6362L8.08978 24.5336L8.15713 25.4311C7.76054 25.4609 7.34596 25.4416 6.9744 25.3013L7.29235 24.4593ZM8.08978 24.5336L8.02244 23.6362L8.52345 23.5986L8.59079 24.496L8.65814 25.3935L8.15713 25.4311L8.08978 24.5336ZM8.59079 24.496L8.52345 23.5986L9.02446 23.561L9.0918 24.4584L9.15915 25.3559L8.65814 25.3935L8.59079 24.496ZM9.0918 24.4584L9.02446 23.561C9.30901 23.5396 9.58872 23.4951 9.8641 23.4275L10.0787 24.3015L10.2933 25.1756C9.92084 25.267 9.5426 25.3271 9.15915 25.3559L9.0918 24.4584ZM10.0787 24.3015L9.8641 23.4275L10.35 23.3082L10.5646 24.1822L10.7793 25.0563L10.2933 25.1756L10.0787 24.3015ZM10.5646 24.1822L10.35 23.3082L10.8359 23.1889L11.0505 24.0629L11.2652 24.9369L10.7793 25.0563L10.5646 24.1822ZM11.0505 24.0629L10.8359 23.1889C11.1864 23.1028 11.5401 23.0329 11.8967 22.9792L12.0307 23.8692L12.1646 24.7592C11.8623 24.8047 11.5625 24.8639 11.2652 24.9369L11.0505 24.0629ZM12.0307 23.8692L11.8967 22.9792L12.3909 22.9048L12.5249 23.7948L12.6588 24.6848L12.1646 24.7592L12.0307 23.8692ZM12.5249 23.7948L12.3909 22.9048L12.8851 22.8304L13.0191 23.7204L13.1531 24.6103L12.6588 24.6848L12.5249 23.7948ZM13.0191 23.7204L12.8851 22.8304C13.1784 22.7862 13.4686 22.7244 13.7557 22.6446L13.9964 23.5119L14.2372 24.3791C13.8801 24.4782 13.5187 24.5553 13.1531 24.6103L13.0191 23.7204ZM13.9964 23.5119L13.7557 22.6446L14.2389 22.5105L14.4796 23.3777L14.7203 24.2449L14.2372 24.3791L13.9964 23.5119ZM14.4796 23.3777L14.2389 22.5105L14.7221 22.3764L14.9628 23.2436L15.2035 24.1108L14.7203 24.2449L14.4796 23.3777ZM14.9628 23.2436L14.7221 22.3764C15.1028 22.2707 15.491 22.2043 15.8857 22.1771L15.9475 23.0749L16.0094 23.9728C15.7354 23.9917 15.467 24.0377 15.2035 24.1108L14.9628 23.2436ZM15.9475 23.0749L15.8857 22.1771L16.3873 22.1425L16.4491 23.0404L16.511 23.9383L16.0094 23.9728L15.9475 23.0749ZM16.4491 23.0404L16.3873 22.1425L16.8888 22.108L16.9507 23.0058L17.0125 23.9037L16.511 23.9383L16.4491 23.0404ZM16.9507 23.0058L16.8888 22.108C17.1797 22.0879 17.4662 22.0471 17.7486 21.9854L17.9405 22.8647L18.1325 23.744C17.7638 23.8245 17.3904 23.8777 17.0125 23.9037L16.9507 23.0058ZM17.9405 22.8647L17.7486 21.9854L18.2368 21.8788L18.4288 22.7581L18.6207 23.6374L18.1325 23.744L17.9405 22.8647ZM18.4288 22.7581L18.2368 21.8788L18.7251 21.7722L18.917 22.6515L19.109 23.5308L18.6207 23.6374L18.4288 22.7581ZM18.917 22.6515L18.7251 21.7722C18.8495 21.7451 18.9201 21.6955 18.9802 21.6165L19.697 22.1606L20.4139 22.7047C20.0849 23.1381 19.6356 23.4159 19.109 23.5308L18.917 22.6515ZM19.697 22.1606L18.9802 21.6165L19.2719 21.2321L19.9888 21.7763L20.7056 22.3204L20.4139 22.7047L19.697 22.1606ZM19.9888 21.7763L19.2719 21.2321L19.5636 20.8478L20.2805 21.3919L20.9974 21.9361L20.7056 22.3204L19.9888 21.7763ZM20.2805 21.3919L19.5636 20.8478C19.7329 20.6248 19.8901 20.3856 20.0348 20.1297L20.8182 20.5728L21.6015 21.0159C21.4184 21.3397 21.2171 21.6466 20.9974 21.9361L20.2805 21.3919ZM20.8182 20.5728L20.0348 20.1297L20.2808 19.6949L21.0641 20.138L21.8475 20.5812L21.6015 21.0159L20.8182 20.5728ZM21.0641 20.138L20.2808 19.6949L20.5268 19.2601L21.3101 19.7032L22.0934 20.1464L21.8475 20.5812L21.0641 20.138ZM21.3101 19.7032L20.5268 19.2601C20.6779 18.993 20.8174 18.7193 20.9452 18.4391L21.764 18.8127L22.5828 19.1863C22.4334 19.5138 22.2703 19.8338 22.0934 20.1464L21.3101 19.7032ZM21.764 18.8127L20.9452 18.4391L21.1532 17.9833L21.972 18.3569L22.7908 18.7305L22.5828 19.1863L21.764 18.8127ZM21.972 18.3569L21.1532 17.9833L21.3612 17.5276L22.1799 17.9012L22.9987 18.2748L22.7908 18.7305L21.972 18.3569ZM22.1799 17.9012L21.3612 17.5276C21.5163 17.1875 21.6933 16.8593 21.8919 16.543L22.654 17.0218L23.4161 17.5005C23.26 17.7491 23.1209 18.0072 22.9987 18.2748L22.1799 17.9012ZM22.654 17.0218L21.8919 16.543L22.158 16.1194L22.9201 16.5981L23.6823 17.0768L23.4161 17.5005L22.654 17.0218ZM22.9201 16.5981L22.158 16.1194L22.4241 15.6958L23.1862 16.1745L23.9484 16.6532L23.6823 17.0768L22.9201 16.5981ZM23.1862 16.1745L22.4241 15.6958C22.6036 15.4101 22.7027 15.2433 22.7405 15.1717L23.536 15.5927L24.3316 16.0136C24.2578 16.1529 24.1237 16.374 23.9484 16.6532L23.1862 16.1745ZM23.536 15.5927L22.7405 15.1717L22.8242 15.0136L23.6197 15.4345L24.4152 15.8554L24.3316 16.0136L23.536 15.5927ZM23.6197 15.4345L22.8242 15.0136L22.9079 14.8554L23.7034 15.2763L24.4989 15.6973L24.4152 15.8554L23.6197 15.4345ZM23.7034 15.2763L22.9079 14.8554C22.8234 15.0152 22.8116 15.1718 22.8241 15.284C22.8355 15.3867 22.8664 15.4521 22.8753 15.47C22.8902 15.4998 22.8812 15.4713 22.7905 15.3759L23.4429 14.756L24.0954 14.136C24.2342 14.2821 24.3832 14.4611 24.4849 14.6643C24.5762 14.8465 24.7306 15.2595 24.4989 15.6973L23.7034 15.2763ZM23.4429 14.756L22.7905 15.3759L22.4463 15.0137L23.0988 14.3937L23.7512 13.7738L24.0954 14.136L23.4429 14.756ZM6.386 24.8904L5.74961 24.254L5.82032 24.1833L6.45672 24.8197L7.09311 25.4561L7.0224 25.5268L6.386 24.8904ZM6.45672 24.8197L5.83629 24.1677L6.52398 23.5133L7.1444 24.1653L7.76482 24.8173L7.07714 25.4717L6.45672 24.8197ZM7.1444 24.1653L6.52398 23.5133C6.97921 23.0801 7.30926 22.7539 7.52168 22.5294L8.17549 23.1479L8.82929 23.7664C8.58384 24.0258 8.22651 24.3779 7.76482 24.8173L7.1444 24.1653ZM8.17549 23.1479L7.52168 22.5294L7.86508 22.1664L8.51889 22.7849L9.17269 23.4034L8.82929 23.7664L8.17549 23.1479ZM8.51889 22.7849L7.86508 22.1664L8.20848 21.8034L8.86229 22.4219L9.51609 23.0404L9.17269 23.4034L8.51889 22.7849ZM8.86229 22.4219L8.20848 21.8034C8.44465 21.5537 8.68509 21.3083 8.92979 21.0672L9.56148 21.7083L10.1932 22.3493C9.96348 22.5757 9.73779 22.806 9.51609 23.0404L8.86229 22.4219ZM9.56148 21.7083L8.92979 21.0672L9.28559 20.7166L9.91728 21.3577L10.549 21.9987L10.1932 22.3493L9.56148 21.7083ZM9.91728 21.3577L9.28559 20.7166L9.64139 20.366L10.2731 21.0071L10.9048 21.6481L10.549 21.9987L9.91728 21.3577ZM10.2731 21.0071L9.64139 20.366C9.87948 20.1314 10.1181 19.8973 10.3571 19.6637L10.9862 20.3074L11.6152 20.951C11.3779 21.1829 11.1411 21.4153 10.9048 21.6481L10.2731 21.0071ZM10.9862 20.3074L10.3571 19.6637L10.7144 19.3145L11.3434 19.9582L11.9724 20.6019L11.6152 20.951L10.9862 20.3074ZM11.3434 19.9582L10.7144 19.3145L11.0717 18.9654L11.7007 19.6091L12.3297 20.2528L11.9724 20.6019L11.3434 19.9582ZM11.7007 19.6091L11.0717 18.9654C11.3153 18.7274 11.5619 18.4924 11.8115 18.2604L12.4241 18.9197L13.0368 19.5791C12.7982 19.8007 12.5625 20.0253 12.3297 20.2528L11.7007 19.6091ZM12.4241 18.9197L11.8115 18.2604L12.1777 17.9202L12.7903 18.5795L13.4029 19.2388L13.0368 19.5791L12.4241 18.9197ZM12.7903 18.5795L12.1777 17.9202L12.5438 17.58L13.1565 18.2393L13.7691 18.8986L13.4029 19.2388L12.7903 18.5795ZM13.1565 18.2393L12.5438 17.58C12.7659 17.3737 12.8934 17.2266 12.9571 17.1344L13.6975 17.6461L14.4378 18.1579C14.2685 18.4029 14.0353 18.6512 13.7691 18.8986L13.1565 18.2393ZM13.6975 17.6461L12.9571 17.1344L13.1319 16.8814L13.8723 17.3932L14.6126 17.9049L14.4378 18.1579L13.6975 17.6461ZM13.8723 17.3932L13.1319 16.8814L13.3068 16.6285L14.0471 17.1403L14.7875 17.652L14.6126 17.9049L13.8723 17.3932ZM14.0471 17.1403L13.3068 16.6285C13.3684 16.5393 13.4339 16.4486 13.4955 16.3755C13.5201 16.3463 13.5791 16.2773 13.6601 16.2125C13.6927 16.1863 13.7962 16.1048 13.9514 16.0532C14.1193 15.9974 14.5377 15.9303 14.8792 16.2718L14.2428 16.9082L13.6064 17.5446C13.7534 17.6916 13.94 17.7765 14.129 17.7999C14.3006 17.8211 14.4387 17.7881 14.519 17.7614C14.6675 17.712 14.7627 17.6355 14.7854 17.6173C14.8217 17.5882 14.8457 17.5638 14.8544 17.5547C14.8649 17.5438 14.8709 17.5367 14.8714 17.5361C14.8721 17.5353 14.8651 17.5436 14.8487 17.5658C14.8331 17.5869 14.8129 17.6152 14.7875 17.652L14.0471 17.1403ZM14.2428 16.9082L14.8792 16.2718L14.9001 16.2927L14.2637 16.9291L13.6273 17.5655L13.6064 17.5446L14.2428 16.9082ZM14.2637 16.9291L15.1354 17.1533L15.1064 17.2658L14.2348 17.0416L13.3632 16.8175L13.3921 16.705L14.2637 16.9291ZM14.2348 17.0416L13.5984 16.4052L13.6691 16.3345L14.3055 16.9709L14.9419 17.6073L14.8712 17.678L14.2348 17.0416Z" fill="#B8B8B8"/>
<rect width="10.2751" height="2.14065" rx="0.856259" transform="matrix(-0.707107 -0.707107 -0.707107 0.707107 26.9365 11.6055)" fill="#B8B8B8"/>
<rect width="3.42504" height="3.42504" rx="1.71252" transform="matrix(-0.707107 -0.707107 -0.707107 0.707107 16.3418 17.3564)" fill="#B8B8B8"/>
</g>
<defs>
<clipPath id="clip0_1461_5117">
<rect width="30" height="30" fill="white"/>
</clipPath>
</defs>
</svg>
