<svg width="132" height="51" viewBox="0 0 132 51" fill="none" xmlns="http://www.w3.org/2000/svg">
<path d="M40.5748 4.23385C-2.90364 1.20761 -26.7096 52.7049 57.5094 49.0335C153.435 44.8518 161.945 -11.2904 40.5748 4.23385Z" fill="#B9372E"/>
<path d="M19.4081 7.28508L19.9716 8.56667L19.4081 7.28508ZM11.066 11.9339L11.8459 13.0965L11.066 11.9339ZM7.47364 15.0411L6.43497 14.1024L7.47364 15.0411ZM1.42262 27.5001L0.0250084 27.4185L1.42262 27.5001ZM4.1913 36.3242L3.09173 37.1907L4.1913 36.3242ZM11.6484 42.1957L12.3831 41.0039L11.6484 42.1957ZM25.0676 47.0279L24.6841 48.3744L25.0676 47.0279ZM39.3262 48.878L39.5235 47.492L39.3262 48.878ZM48.8577 49.3556L48.7914 47.9571L48.8577 49.3556ZM53.6648 49.2679L53.6492 50.6678L53.6648 49.2679ZM58.5023 49.0765L58.6269 50.4709L58.5023 49.0765ZM87.0375 45.6782L87.1573 47.0731L87.0375 45.6782ZM96.3625 43.433L96.6914 44.7938L96.3625 43.433ZM105.507 40.7403L104.978 39.4442L105.507 40.7403ZM114.281 36.9976L114.964 38.2193L114.281 36.9976ZM118.418 34.6214L117.707 33.4153L118.418 34.6214ZM122.511 32.1238L123.258 33.3076L122.511 32.1238ZM128.84 25.1038L130.022 25.8542L128.84 25.1038ZM129.453 16.2636L130.668 15.5688L129.453 16.2636ZM114.185 5.76005L114.656 4.44183L114.185 5.76005ZM104.855 3.50601L104.47 4.85218L104.855 3.50601ZM38.1743 4.06594L38.272 2.66936C36.5875 2.55152 34.9063 2.58624 33.2295 2.77352L33.3849 4.16487L33.5403 5.55622C35.0488 5.38772 36.5606 5.35648 38.0766 5.46253L38.1743 4.06594ZM33.3849 4.16487L33.2295 2.77352C31.5868 2.957 29.9632 3.22773 28.3587 3.58579L28.6636 4.95218L28.9686 6.31857C30.4737 5.98267 31.9976 5.72853 33.5403 5.55622L33.3849 4.16487ZM28.6636 4.95218L28.3587 3.58579C26.8234 3.92842 25.2785 4.23873 23.7242 4.51671L23.9706 5.89484L24.2171 7.27298C25.8105 6.98802 27.3943 6.66989 28.9686 6.31857L28.6636 4.95218ZM23.9706 5.89484L23.7242 4.51671C22.0408 4.81775 20.4136 5.31364 18.8446 6.00349L19.4081 7.28508L19.9716 8.56667C21.3382 7.96581 22.7526 7.53487 24.2171 7.27298L23.9706 5.89484ZM19.4081 7.28508L18.8446 6.00349C17.3345 6.66748 15.8673 7.40181 14.4434 8.2065L15.1321 9.42534L15.8209 10.6442C17.1627 9.88591 18.5462 9.1934 19.9716 8.56667L19.4081 7.28508ZM15.1321 9.42534L14.4434 8.2065C13.0292 9.00568 11.6434 9.86064 10.286 10.7713L11.066 11.9339L11.8459 13.0965C13.1444 12.2254 14.4694 11.408 15.8209 10.6442L15.1321 9.42534ZM11.066 11.9339L10.286 10.7713C8.86349 11.7256 7.57908 12.8364 6.43497 14.1024L7.47364 15.0411L8.5123 15.9798C9.50215 14.8845 10.6126 13.9239 11.8459 13.0965L11.066 11.9339ZM7.47364 15.0411L6.43497 14.1024C5.33169 15.3231 4.30629 16.5997 3.35906 17.932L4.50007 18.7432L5.64108 19.5545C6.52465 18.3117 7.48162 17.1202 8.5123 15.9798L7.47364 15.0411ZM4.50007 18.7432L3.35906 17.932C2.36783 19.3262 1.58842 20.8308 1.0228 22.4426L2.34382 22.9062L3.66484 23.3697C4.14343 22.006 4.80152 20.7353 5.64108 19.5545L4.50007 18.7432ZM2.34382 22.9062L1.0228 22.4426C0.457469 24.0535 0.124641 25.7134 0.0250084 27.4185L1.42262 27.5001L2.82024 27.5818C2.90466 26.1371 3.18596 24.7343 3.66484 23.3697L2.34382 22.9062ZM1.42262 27.5001L0.0250084 27.4185C-0.0769248 29.1629 0.134305 30.8802 0.655686 32.5624L1.99293 32.148L3.33018 31.7335C2.9071 30.3684 2.73812 28.9871 2.82024 27.5818L1.42262 27.5001ZM1.99293 32.148L0.655686 32.5624C1.17906 34.2511 1.99276 35.7963 3.09173 37.1907L4.1913 36.3242L5.29087 35.4576C4.40315 34.3312 3.75127 33.0922 3.33018 31.7335L1.99293 32.148ZM4.1913 36.3242L3.09173 37.1907C4.17046 38.5595 5.42371 39.7398 6.84868 40.7278L7.6464 39.5773L8.44412 38.4268C7.24898 37.5982 6.19882 36.6097 5.29087 35.4576L4.1913 36.3242ZM7.6464 39.5773L6.84868 40.7278C8.17938 41.6505 9.5344 42.537 10.9137 43.3874L11.6484 42.1957L12.3831 41.0039C11.0465 40.1799 9.73352 39.3209 8.44412 38.4268L7.6464 39.5773ZM11.6484 42.1957L10.9137 43.3874C12.3607 44.2795 13.8869 44.9985 15.4907 45.5433L15.941 44.2177L16.3913 42.8921C14.9875 42.4152 13.652 41.7862 12.3831 41.0039L11.6484 42.1957ZM15.941 44.2177L15.4907 45.5433C17.0088 46.0591 18.5356 46.5503 20.071 47.0169L20.4781 45.6773L20.8852 44.3378C19.3787 43.88 17.8807 43.3981 16.3913 42.8921L15.941 44.2177ZM20.4781 45.6773L20.071 47.0169C21.5999 47.4815 23.1376 47.934 24.6841 48.3744L25.0676 47.0279L25.451 45.6814C23.9202 45.2455 22.3982 44.7976 20.8852 44.3378L20.4781 45.6773ZM25.0676 47.0279L24.6841 48.3744C26.2755 48.8275 27.8895 49.1864 29.5258 49.4509L29.7492 48.0688L29.9726 46.6868C28.4441 46.4397 26.9369 46.1046 25.451 45.6814L25.0676 47.0279ZM29.7492 48.0688L29.5258 49.4509C31.1741 49.7174 32.8383 49.866 34.5177 49.8969L34.5435 48.4972L34.5693 47.0974C33.0213 47.0689 31.4893 46.932 29.9726 46.6868L29.7492 48.0688ZM34.5435 48.4972L34.5177 49.8969C36.0749 49.9256 37.6118 50.0481 39.1289 50.264L39.3262 48.878L39.5235 47.492C37.8911 47.2596 36.2396 47.1282 34.5693 47.0974L34.5435 48.4972ZM39.3262 48.878L39.1289 50.264C40.7441 50.494 42.3654 50.6527 43.9926 50.7401L44.0676 49.3421L44.1427 47.9441C42.5974 47.8611 41.0578 47.7104 39.5235 47.492L39.3262 48.878ZM44.0676 49.3421L43.9926 50.7401C45.6265 50.8278 47.2704 50.8324 48.924 50.754L48.8577 49.3556L48.7914 47.9571C47.2308 48.0311 45.6813 48.0267 44.1427 47.9441L44.0676 49.3421ZM48.8577 49.3556L48.924 50.754C50.5041 50.6791 52.0791 50.6504 53.6492 50.6678L53.6648 49.2679L53.6804 47.868C52.0553 47.8499 50.4256 47.8797 48.7914 47.9571L48.8577 49.3556ZM53.6648 49.2679L53.6492 50.6678C55.2947 50.6861 56.9539 50.6204 58.6269 50.4709L58.5023 49.0765L58.3777 47.682C56.7958 47.8234 55.2301 47.8853 53.6804 47.868L53.6648 49.2679ZM58.5023 49.0765L58.6269 50.4709C60.2562 50.3253 61.8592 50.1787 63.4361 50.031L63.3055 48.6371L63.1749 47.2432C61.6022 47.3905 60.0031 47.5368 58.3777 47.682L58.5023 49.0765ZM63.3055 48.6371L63.4361 50.031C64.9747 49.8868 66.5344 49.8012 68.1154 49.7742L68.0914 48.3744L68.0675 46.9746C66.4168 47.0028 64.786 47.0923 63.1749 47.2432L63.3055 48.6371ZM68.0914 48.3744L68.1154 49.7742C69.7988 49.7454 71.4574 49.5956 73.0908 49.3242L72.8613 47.9431L72.6318 46.562C71.137 46.8104 69.6158 46.9481 68.0675 46.9746L68.0914 48.3744ZM72.8613 47.9431L73.0908 49.3242C74.6538 49.0644 76.2272 48.8047 77.8108 48.5448L77.5841 47.1633L77.3574 45.7818C75.772 46.0419 74.1968 46.302 72.6318 46.562L72.8613 47.9431ZM77.5841 47.1633L77.8108 48.5448C79.4065 48.283 80.9943 48.0024 82.5741 47.7031L82.3135 46.3276L82.0529 44.9521C80.4958 45.2471 78.9306 45.5236 77.3574 45.7818L77.5841 47.1633ZM82.3135 46.3276L82.5741 47.7031C84.0963 47.4148 85.6239 47.2048 87.1573 47.0731L87.0375 45.6782L86.9177 44.2834C85.2893 44.4232 83.6677 44.6462 82.0529 44.9521L82.3135 46.3276ZM87.0375 45.6782L87.1573 47.0731C88.8444 46.9282 90.5082 46.5928 92.1471 46.0688L91.7207 44.7353L91.2943 43.4018C89.8506 43.8635 88.3923 44.1567 86.9177 44.2834L87.0375 45.6782ZM91.7207 44.7353L92.1471 46.0688C93.6567 45.5861 95.1714 45.1611 96.6914 44.7938L96.3625 43.433L96.0336 42.0721C94.4472 42.4555 92.8674 42.8988 91.2943 43.4018L91.7207 44.7353ZM96.3625 43.433L96.6914 44.7938C98.2551 44.4159 99.8109 44.0205 101.359 43.6076L100.998 42.2549L100.637 40.9022C99.1106 41.3094 97.5761 41.6993 96.0336 42.0721L96.3625 43.433ZM100.998 42.2549L101.359 43.6076C102.953 43.1824 104.512 42.6587 106.036 42.0365L105.507 40.7403L104.978 39.4442C103.564 40.0215 102.117 40.5075 100.637 40.9022L100.998 42.2549ZM105.507 40.7403L106.036 42.0365C107.493 41.4421 108.961 40.8684 110.441 40.3153L109.951 39.0039L109.461 37.6924C107.955 38.2552 106.461 38.8391 104.978 39.4442L105.507 40.7403ZM109.951 39.0039L110.441 40.3153C112.001 39.7324 113.509 39.0337 114.964 38.2193L114.281 36.9976L113.597 35.776C112.266 36.5208 110.888 37.1595 109.461 37.6924L109.951 39.0039ZM114.281 36.9976L114.964 38.2193C116.366 37.4347 117.754 36.6375 119.129 35.8275L118.418 34.6214L117.707 33.4153C116.351 34.2145 114.981 35.0014 113.597 35.776L114.281 36.9976ZM118.418 34.6214L119.129 35.8275C120.506 35.0156 121.883 34.1756 123.258 33.3076L122.511 32.1238L121.763 30.9399C120.412 31.7929 119.06 32.618 117.707 33.4153L118.418 34.6214ZM122.511 32.1238L123.258 33.3076C124.749 32.3661 126.049 31.213 127.15 29.8512L126.061 28.9708L124.973 28.0904C124.066 29.2116 122.998 30.1604 121.763 30.9399L122.511 32.1238ZM126.061 28.9708L127.15 29.8512C128.187 28.5686 129.145 27.2362 130.022 25.8542L128.84 25.1038L127.659 24.3534C126.839 25.6445 125.944 26.8902 124.973 28.0904L126.061 28.9708ZM128.84 25.1038L130.022 25.8542C130.987 24.335 131.569 22.667 131.766 20.8669L130.374 20.7148L128.982 20.5627C128.831 21.9415 128.391 23.1995 127.659 24.3534L128.84 25.1038ZM130.374 20.7148L131.766 20.8669C131.971 18.9859 131.604 17.2054 130.668 15.5688L129.453 16.2636L128.237 16.9585C128.877 18.0779 129.124 19.2648 128.982 20.5627L130.374 20.7148ZM129.453 16.2636L130.668 15.5688C129.813 14.0731 128.763 12.734 127.521 11.5556L126.558 12.5711L125.594 13.5867C126.636 14.5756 127.517 15.6982 128.237 16.9585L129.453 16.2636ZM126.558 12.5711L127.521 11.5556C126.338 10.4331 125.083 9.377 123.755 8.38713L122.918 9.50958L122.081 10.632C123.322 11.5569 124.493 12.5418 125.594 13.5867L126.558 12.5711ZM122.918 9.50958L123.755 8.38713C122.35 7.34031 120.816 6.54067 119.156 5.99122L118.716 7.32027L118.276 8.64932C119.65 9.1042 120.917 9.7641 122.081 10.632L122.918 9.50958ZM118.716 7.32027L119.156 5.99122C117.65 5.49254 116.15 4.97607 114.656 4.44183L114.185 5.76005L113.714 7.07827C115.228 7.61998 116.749 8.14367 118.276 8.64932L118.716 7.32027ZM114.185 5.76005L114.656 4.44183C113.073 3.87539 111.447 3.45463 109.78 3.17957L109.552 4.56089L109.324 5.94221C110.826 6.19006 112.289 6.56874 113.714 7.07827L114.185 5.76005ZM109.552 4.56089L109.78 3.17957C108.248 2.92684 106.735 2.58696 105.239 2.15983L104.855 3.50601L104.47 4.85218C106.069 5.30865 107.687 5.67203 109.324 5.94221L109.552 4.56089ZM104.855 3.50601L105.239 2.15983C103.591 1.6892 101.921 1.4109 100.23 1.3264L100.16 2.72465L100.09 4.12291C101.565 4.1966 103.024 4.43921 104.47 4.85218L104.855 3.50601ZM100.16 2.72465L100.23 1.3264C98.6573 1.24779 97.0808 1.15229 95.5004 1.03992L95.4011 2.43639L95.3018 3.83286C96.9017 3.94663 98.4978 4.04331 100.09 4.12291L100.16 2.72465ZM95.4011 2.43639L95.5004 1.03992C93.9213 0.927625 92.3305 0.795814 90.7279 0.644471L90.5963 2.03827L90.4646 3.43207C92.0884 3.58541 93.7008 3.71901 95.3018 3.83286L95.4011 2.43639ZM90.5963 2.03827L90.7279 0.644471C89.0948 0.490245 87.4845 0.373571 85.8972 0.294545L85.8276 1.69281L85.7579 3.09108C87.3025 3.16798 88.8714 3.28161 90.4646 3.43207L90.5963 2.03827ZM85.8276 1.69281L85.8972 0.294545C84.3322 0.216631 82.7462 0.136047 81.1392 0.0527953L81.0668 1.45092L80.9944 2.84905C82.6031 2.93239 84.191 3.01307 85.7579 3.09108L85.8276 1.69281ZM81.0668 1.45092L81.1392 0.0527953C79.4719 -0.0335835 77.8141 -0.0131686 76.1663 0.1143L76.2743 1.51013L76.3822 2.90596C77.9087 2.78788 79.4459 2.76882 80.9944 2.84905L81.0668 1.45092ZM76.2743 1.51013L76.1663 0.1143C74.6001 0.235454 73.0291 0.321577 71.4533 0.37266L71.4987 1.77192L71.5441 3.17119C73.1615 3.11876 74.7742 3.03035 76.3822 2.90596L76.2743 1.51013ZM71.4987 1.77192L71.4533 0.37266C69.8454 0.424785 68.2399 0.496374 66.6368 0.58743L66.7162 1.98518L66.7956 3.38292C68.376 3.29316 69.9588 3.22258 71.5441 3.17119L71.4987 1.77192ZM66.7162 1.98518L66.6368 0.58743C65.0655 0.676684 63.4902 0.731732 61.9112 0.752566L61.9296 2.15244L61.9481 3.55232C63.5677 3.53095 65.1835 3.47449 66.7956 3.38292L66.7162 1.98518ZM61.9296 2.15244L61.9112 0.752566C60.2874 0.77399 58.6688 0.837788 57.0554 0.943979L57.1474 2.34096L57.2393 3.73793C58.8036 3.63498 60.3732 3.5731 61.9481 3.55232L61.9296 2.15244ZM57.1474 2.34096L57.0554 0.943979C55.4063 1.05252 53.7606 1.26779 52.1187 1.58943L52.3879 2.96332L52.657 4.3372C54.1835 4.03817 55.7108 3.83854 57.2393 3.73793L57.1474 2.34096ZM52.3879 2.96332L52.1187 1.58943C50.5714 1.89255 49.0326 2.12947 47.5021 2.3004L47.6575 3.69175L47.8129 5.0831C49.4213 4.90346 51.0361 4.65475 52.657 4.3372L52.3879 2.96332ZM47.6575 3.69175L47.5021 2.3004C45.9669 2.47186 44.4263 2.58648 42.8802 2.64427L42.9325 4.04329L42.9848 5.44231C44.5997 5.38196 46.2091 5.26222 47.8129 5.0831L47.6575 3.69175ZM42.9325 4.04329L42.8802 2.64427C42.0877 2.67388 41.4833 2.70073 41.0736 2.72492C40.8721 2.73682 40.6999 2.74908 40.5705 2.76236C40.5125 2.76832 40.4265 2.77804 40.3404 2.79455C40.3089 2.80058 40.2052 2.82044 40.0847 2.86567C40.0358 2.88404 39.8814 2.94316 39.7163 3.07018C39.592 3.16585 39.0824 3.60103 39.1796 4.3605L40.5683 4.18287L41.957 4.00525C42.0538 4.76259 41.5455 5.19563 41.424 5.28912C41.2618 5.41396 41.1118 5.47089 41.0688 5.48704C40.9601 5.52783 40.8745 5.54315 40.8672 5.54453C40.8295 5.55177 40.8167 5.55181 40.8567 5.5477C40.9233 5.54086 41.046 5.53142 41.2386 5.52005C41.6169 5.49772 42.1968 5.47177 42.9848 5.44231L42.9325 4.04329ZM40.5683 4.18287L39.1796 4.3605C39.0758 3.5494 39.6506 3.11017 39.8096 3.00801C39.9963 2.88803 40.1652 2.84436 40.2085 2.83317C40.3244 2.80312 40.4143 2.79717 40.4203 2.79668C40.4585 2.79362 40.471 2.79497 40.4299 2.79471C40.3616 2.79428 40.2366 2.79034 40.0413 2.7808C39.6576 2.76206 39.07 2.72518 38.272 2.66936L38.1743 4.06594L38.0766 5.46253C38.8789 5.51865 39.4905 5.55723 39.9047 5.57746C40.1085 5.58742 40.2821 5.59384 40.4123 5.59466C40.4704 5.59502 40.557 5.59471 40.6443 5.58771C40.6748 5.58526 40.783 5.57677 40.9109 5.54362C40.9601 5.53087 41.1335 5.4855 41.3231 5.36368C41.485 5.25968 42.061 4.81847 41.957 4.00525L40.5683 4.18287Z" fill="#B9372E"/>
</svg>
