<svg width="150" height="51" viewBox="0 0 150 51" fill="none" xmlns="http://www.w3.org/2000/svg">
<path d="M46.1122 4.20456C-3.32215 1.17831 -30.3892 52.6756 65.3666 49.0042C174.432 44.8225 184.108 -11.3197 46.1122 4.20456Z" fill="#B9372E"/>
<path d="M29.4232 5.36931L29.2722 3.97748L29.4232 5.36931ZM24.7564 6.3837L24.3157 5.05487L24.7564 6.3837ZM20.2775 8.05082L19.7418 6.75737L20.2775 8.05082ZM11.8176 12.4336L12.659 13.5525L11.8176 12.4336ZM8.10735 15.4272L7.19144 14.3684L8.10735 15.4272ZM4.89299 18.891L6.01769 19.7247L4.89299 18.891ZM8.29199 39.2678L7.41038 40.3553L8.29199 39.2678ZM12.3265 41.7512L11.7506 43.0272L12.3265 41.7512ZM16.75 43.613L16.2402 44.9169L16.75 43.613ZM21.2397 45.298L20.7658 46.6154L21.2397 45.298ZM25.8252 46.6376L26.1346 45.2722V45.2722L25.8252 46.6376ZM40.0212 48.7426L39.8683 50.1343V50.1343L40.0212 48.7426ZM44.814 49.0244L44.8244 47.6245L44.814 49.0244ZM59.1808 49.0946L59.2366 50.4935L59.1808 49.0946ZM68.8505 48.942L68.7086 47.5492V47.5492L68.8505 48.942ZM78.3797 48.0013L78.2303 46.6093L78.3797 48.0013ZM87.9257 47.268L88.2131 48.6382L87.9257 47.268ZM92.6635 46.4863L92.4966 45.0963L92.6635 46.4863ZM102.126 45.0481L102.447 46.4108L102.126 45.0481ZM106.794 44.0866L107.037 45.4653L106.794 44.0866ZM111.442 42.9797L111.04 41.6388L111.442 42.9797ZM129.651 37.167L130.118 38.4868L129.651 37.167ZM134.099 35.3427L134.693 36.6103L134.099 35.3427ZM141.938 29.9328L142.824 31.0165L141.938 29.9328ZM147.843 18.0652L149.214 17.7809L147.843 18.0652ZM145.672 14.0824L144.685 15.0755L145.672 14.0824ZM142.132 10.8932L143.017 9.80842L142.132 10.8932ZM138.026 8.56999L137.55 9.88654L138.026 8.56999ZM128.92 5.6441L128.522 6.98627L128.92 5.6441ZM119.566 3.45136L119.845 2.07933V2.07933L119.566 3.45136ZM100.528 1.75078L100.663 0.357257L100.528 1.75078ZM81.3791 1.72251L81.302 3.12038L81.3791 1.72251ZM52.7613 3.74345L52.6082 2.35184L52.7613 3.74345ZM46.1154 4.23289L44.7242 4.3894L46.1154 4.23289ZM43.7163 4.03198L43.8169 2.6356C42.1452 2.51518 40.4739 2.5286 38.8039 2.67581L38.9268 4.07041L39.0497 5.465C40.5712 5.33088 42.093 5.31868 43.6158 5.42836L43.7163 4.03198ZM38.9268 4.07041L38.8039 2.67581C37.1683 2.81999 35.544 3.03363 33.9312 3.31675L34.1733 4.69567L34.4153 6.07458C35.949 5.80536 37.4937 5.60216 39.0497 5.465L38.9268 4.07041ZM34.1733 4.69567L33.9312 3.31675C32.3883 3.5876 30.8353 3.80785 29.2722 3.97748L29.4232 5.36931L29.5742 6.76114C31.1981 6.58492 32.8118 6.35607 34.4153 6.07458L34.1733 4.69567ZM29.4232 5.36931L29.2722 3.97748C27.5804 4.16107 25.9277 4.52027 24.3157 5.05487L24.7564 6.3837L25.1971 7.71253C26.6205 7.24046 28.079 6.9234 29.5742 6.76114L29.4232 5.36931ZM24.7564 6.3837L24.3157 5.05487C22.7661 5.56877 21.2415 6.13627 19.7418 6.75737L20.2775 8.05082L20.8133 9.34427C22.25 8.7492 23.7113 8.20528 25.1971 7.71253L24.7564 6.3837ZM20.2775 8.05082L19.7418 6.75737C18.254 7.37358 16.7757 8.02551 15.3067 8.71312L15.9003 9.98108L16.4938 11.249C17.9249 10.5792 19.3647 9.94424 20.8133 9.34427L20.2775 8.05082ZM15.9003 9.98108L15.3067 8.71312C13.7697 9.43259 12.3257 10.2999 10.9763 11.3146L11.8176 12.4336L12.659 13.5525C13.853 12.6547 15.1308 11.8871 16.4938 11.249L15.9003 9.98108ZM11.8176 12.4336L10.9763 11.3146C9.679 12.29 8.41738 13.3079 7.19144 14.3684L8.10735 15.4272L9.02325 16.486C10.2008 15.4674 11.4127 14.4896 12.659 13.5525L11.8176 12.4336ZM8.10735 15.4272L7.19144 14.3684C5.91247 15.4747 4.77091 16.7047 3.76829 18.0573L4.89299 18.891L6.01769 19.7247C6.89738 18.538 7.89872 17.4588 9.02325 16.486L8.10735 15.4272ZM4.89299 18.891L3.76829 18.0573C2.76564 19.41 1.92283 20.8571 1.2408 22.3972L2.52089 22.9641L3.80098 23.531C4.39945 22.1796 5.13804 20.9114 6.01769 19.7247L4.89299 18.891ZM2.52089 22.9641L1.2408 22.3972C0.532161 23.9974 0.125593 25.6805 0.0214207 27.4384L1.41897 27.5213L2.81652 27.6041C2.90107 26.1773 3.22911 24.8223 3.80098 23.531L2.52089 22.9641ZM1.41897 27.5213L0.0214207 27.4384C-0.0853664 29.2405 0.204807 30.9869 0.888303 32.6626L2.18461 32.1338L3.48092 31.6051C2.95484 30.3153 2.73458 28.9867 2.81652 27.6041L1.41897 27.5213ZM2.18461 32.1338L0.888303 32.6626C1.56172 34.3135 2.52448 35.7779 3.7715 37.0468L4.77001 36.0655L5.76852 35.0842C4.77791 34.0762 4.01708 32.9195 3.48092 31.6051L2.18461 32.1338ZM4.77001 36.0655L3.7715 37.0468C4.92692 38.2225 6.13991 39.3254 7.41038 40.3553L8.29199 39.2678L9.17361 38.1802C7.98572 37.2173 6.85072 36.1853 5.76852 35.0842L4.77001 36.0655ZM8.29199 39.2678L7.41038 40.3553C8.73412 41.4284 10.1819 42.3192 11.7506 43.0272L12.3265 41.7512L12.9025 40.4751C11.5501 39.8648 10.3082 39.1 9.17361 38.1802L8.29199 39.2678ZM12.3265 41.7512L11.7506 43.0272C13.2329 43.6962 14.7294 44.3261 16.2402 44.9169L16.75 43.613L17.2599 42.3092C15.7937 41.7358 14.3412 41.1245 12.9025 40.4751L12.3265 41.7512ZM16.75 43.613L16.2402 44.9169C17.7406 45.5036 19.2491 46.0697 20.7658 46.6154L21.2397 45.298L21.7137 43.9807C20.221 43.4437 18.7365 42.8865 17.2599 42.3092L16.75 43.613ZM21.2397 45.298L20.7658 46.6154C22.324 47.176 23.9075 47.6386 25.5158 48.003L25.8252 46.6376L26.1346 45.2722C24.6383 44.9332 23.1648 44.5028 21.7137 43.9807L21.2397 45.298ZM25.8252 46.6376L25.5158 48.003C27.1346 48.3698 28.7724 48.617 30.4286 48.7446L30.5361 47.3487L30.6436 45.9528C29.1232 45.8357 27.6204 45.6089 26.1346 45.2722L25.8252 46.6376ZM30.5361 47.3487L30.4286 48.7446C31.9601 48.8625 33.4809 49.0736 34.9914 49.3778L35.2679 48.0054L35.5443 46.6329C33.9225 46.3063 32.2889 46.0795 30.6436 45.9528L30.5361 47.3487ZM35.2679 48.0054L34.9914 49.3778C36.5989 49.7016 38.2245 49.9537 39.8683 50.1343L40.0212 48.7426L40.174 47.351C38.6124 47.1795 37.0692 46.9401 35.5443 46.6329L35.2679 48.0054ZM40.0212 48.7426L39.8683 50.1343C41.5177 50.3155 43.1629 50.4122 44.8036 50.4244L44.814 49.0244L44.8244 47.6245C43.28 47.613 41.73 47.5219 40.174 47.351L40.0212 48.7426ZM44.814 49.0244L44.8036 50.4244C46.3687 50.436 47.9303 50.4936 49.4883 50.5973L49.5812 49.2004L49.6742 47.8035C48.061 47.6962 46.4444 47.6365 44.8244 47.6245L44.814 49.0244ZM49.5812 49.2004L49.4883 50.5973C51.1221 50.706 52.7741 50.731 54.444 50.6727L54.3951 49.2735L54.3463 47.8744C52.7688 47.9295 51.2115 47.9058 49.6742 47.8035L49.5812 49.2004ZM54.3951 49.2735L54.444 50.6727C56.07 50.6159 57.6675 50.5562 59.2366 50.4935L59.1808 49.0946L59.1249 47.6958C57.5606 47.7582 55.9677 47.8178 54.3463 47.8744L54.3951 49.2735ZM59.1808 49.0946L59.2366 50.4935C60.7655 50.4325 62.3313 50.4322 63.9342 50.493L63.9872 49.094L64.0403 47.695C62.3681 47.6315 60.7296 47.6317 59.1249 47.6958L59.1808 49.0946ZM63.9872 49.094L63.9342 50.493C65.6357 50.5575 67.322 50.5049 68.9923 50.3348L68.8505 48.942L68.7086 47.5492C67.1698 47.7059 65.6139 47.7547 64.0403 47.695L63.9872 49.094ZM68.8505 48.942L68.9923 50.3348C70.5928 50.1718 72.1773 50.0176 73.7457 49.8721L73.6164 48.4781L73.4871 47.0841C71.9101 47.2303 70.3173 47.3854 68.7086 47.5492L68.8505 48.942ZM73.6164 48.4781L73.7457 49.8721C75.3252 49.7256 76.9196 49.566 78.5291 49.3933L78.3797 48.0013L78.2303 46.6093C76.634 46.7806 75.0529 46.9389 73.4871 47.0841L73.6164 48.4781ZM78.3797 48.0013L78.5291 49.3933C80.0809 49.2267 81.6252 49.1472 83.1623 49.1544L83.1689 47.7544L83.1755 46.3544C81.5327 46.3467 79.8843 46.4317 78.2303 46.6093L78.3797 48.0013ZM83.1689 47.7544L83.1623 49.1544C84.8526 49.1623 86.5367 48.9899 88.2131 48.6382L87.9257 47.268L87.6383 45.8979C86.1521 46.2096 84.665 46.3614 83.1755 46.3544L83.1689 47.7544ZM87.9257 47.268L88.2131 48.6382C89.7553 48.3147 91.2944 48.0608 92.8305 47.8763L92.6635 46.4863L92.4966 45.0963C90.8782 45.2907 89.2588 45.5579 87.6383 45.8979L87.9257 47.268ZM92.6635 46.4863L92.8305 47.8763C94.4107 47.6865 95.995 47.4909 97.5832 47.2897L97.4072 45.9008L97.2313 44.5119C95.649 44.7124 94.0708 44.9072 92.4966 45.0963L92.6635 46.4863ZM97.4072 45.9008L97.5832 47.2897C99.2174 47.0827 100.839 46.7897 102.447 46.4108L102.126 45.0481L101.805 43.6854C100.292 44.0418 98.7676 44.3173 97.2313 44.5119L97.4072 45.9008ZM102.126 45.0481L102.447 46.4108C103.983 46.0492 105.513 45.7341 107.037 45.4653L106.794 44.0866L106.551 42.7078C104.974 42.986 103.392 43.3118 101.805 43.6854L102.126 45.0481ZM106.794 44.0866L107.037 45.4653C108.643 45.1822 110.246 44.8004 111.845 44.3206L111.442 42.9797L111.04 41.6388C109.543 42.088 108.047 42.4441 106.551 42.7078L106.794 44.0866ZM111.442 42.9797L111.845 44.3206C113.381 43.8596 114.913 43.4213 116.441 43.0057L116.073 41.6548L115.706 40.3039C114.155 40.7259 112.599 41.1709 111.04 41.6388L111.442 42.9797ZM116.073 41.6548L116.441 43.0057C117.96 42.5923 119.486 42.213 121.017 41.868L120.709 40.5022L120.402 39.1365C118.83 39.4906 117.265 39.8797 115.706 40.3039L116.073 41.6548ZM120.709 40.5022L121.017 41.868C122.665 41.4966 124.258 40.9554 125.795 40.2451L125.208 38.9742L124.621 37.7034C123.262 38.3312 121.856 38.8087 120.402 39.1365L120.709 40.5022ZM125.208 38.9742L125.795 40.2451C127.203 39.5943 128.644 39.0082 130.118 38.4868L129.651 37.167L129.184 35.8471C127.629 36.3972 126.108 37.016 124.621 37.7034L125.208 38.9742ZM129.651 37.167L130.118 38.4868C131.676 37.9357 133.201 37.3102 134.693 36.6103L134.099 35.3427L133.504 34.0752C132.095 34.736 130.655 35.3266 129.184 35.8471L129.651 37.167ZM134.099 35.3427L134.693 36.6103C136.232 35.8888 137.678 35.0175 139.03 33.9969L138.187 32.8794L137.344 31.7618C136.147 32.665 134.867 33.4359 133.504 34.0752L134.099 35.3427ZM138.187 32.8794L139.03 33.9969C140.319 33.0241 141.584 32.0307 142.824 31.0165L141.938 29.9328L141.051 28.8491C139.84 29.8399 138.604 30.8109 137.344 31.7618L138.187 32.8794ZM141.938 29.9328L142.824 31.0165C144.087 29.9837 145.304 28.8804 146.476 27.7067L145.485 26.7176L144.494 25.7285C143.388 26.8368 142.24 27.8769 141.051 28.8491L141.938 29.9328ZM145.485 26.7176L146.476 27.7067C147.794 26.3865 148.681 24.8153 149.117 23.0154L147.757 22.6854L146.396 22.3554C146.082 23.6497 145.454 24.7667 144.494 25.7285L145.485 26.7176ZM147.757 22.6854L149.117 23.0154C149.54 21.2703 149.574 19.5204 149.214 17.7809L147.843 18.0652L146.472 18.3494C146.747 19.6759 146.723 21.0062 146.396 22.3554L147.757 22.6854ZM147.843 18.0652L149.214 17.7809C148.839 15.9743 147.979 14.4015 146.659 13.0893L145.672 14.0824L144.685 15.0755C145.623 16.0077 146.211 17.0901 146.472 18.3494L147.843 18.0652ZM145.672 14.0824L146.659 13.0893C145.497 11.935 144.283 10.8413 143.017 9.80842L142.132 10.8932L141.247 11.9781C142.442 12.953 143.588 13.9855 144.685 15.0755L145.672 14.0824ZM142.132 10.8932L143.017 9.80842C141.663 8.70386 140.156 7.85151 138.502 7.25344L138.026 8.56999L137.55 9.88654C138.909 10.3783 140.139 11.0747 141.247 11.9781L142.132 10.8932ZM138.026 8.56999L138.502 7.25344C136.976 6.70177 135.446 6.18493 133.909 5.70294L133.49 7.03875L133.071 8.37457C134.569 8.84444 136.062 9.34843 137.55 9.88654L138.026 8.56999ZM133.49 7.03875L133.909 5.70294C132.385 5.22482 130.855 4.75782 129.318 4.30193L128.92 5.6441L128.522 6.98627C130.044 7.43804 131.561 7.90081 133.071 8.37457L133.49 7.03875ZM128.92 5.6441L129.318 4.30193C127.756 3.83845 126.173 3.43039 124.568 3.07774L124.267 4.4451L123.967 5.81247C125.506 6.15081 127.025 6.54209 128.522 6.98627L128.92 5.6441ZM124.267 4.4451L124.568 3.07774C122.989 2.73064 121.414 2.39783 119.845 2.07933L119.566 3.45136L119.288 4.8234C120.842 5.13888 122.402 5.46857 123.967 5.81247L124.267 4.4451ZM119.566 3.45136L119.845 2.07933C118.217 1.74911 116.578 1.53677 114.928 1.4425L114.848 2.84022L114.768 4.23794C116.284 4.32455 117.791 4.51963 119.288 4.8234L119.566 3.45136ZM114.848 2.84022L114.928 1.4425C113.361 1.353 111.781 1.23513 110.189 1.08886L110.061 2.48299L109.933 3.87712C111.557 4.02629 113.169 4.14657 114.768 4.23794L114.848 2.84022ZM110.061 2.48299L110.189 1.08886C108.566 0.939787 106.959 0.818184 105.368 0.724086L105.285 2.12164L105.203 3.5192C106.763 3.61147 108.339 3.73076 109.933 3.87712L110.061 2.48299ZM105.285 2.12164L105.368 0.724086C103.81 0.631945 102.242 0.509679 100.663 0.357257L100.528 1.75078L100.394 3.1443C102.007 3.3 103.609 3.42498 105.203 3.5192L105.285 2.12164ZM100.528 1.75078L100.663 0.357257C99.0407 0.200619 97.4186 0.0909604 95.7967 0.0283036L95.7426 1.42726L95.6886 2.82622C97.2565 2.88679 98.8249 2.99281 100.394 3.1443L100.528 1.75078ZM95.7426 1.42726L95.7967 0.0283036C94.1397 -0.0357089 92.4827 0.0104048 90.8261 0.166538L90.9575 1.56036L91.0889 2.95418C92.6227 2.80962 94.1558 2.767 95.6886 2.82622L95.7426 1.42726ZM90.9575 1.56036L90.8261 0.166538C89.2677 0.313422 87.7103 0.398103 86.1539 0.420631L86.1741 1.82048L86.1944 3.22034C87.8254 3.19673 89.4569 3.10799 91.0889 2.95418L90.9575 1.56036ZM86.1741 1.82048L86.1539 0.420631C84.5928 0.443226 83.0269 0.411243 81.4561 0.324632L81.3791 1.72251L81.302 3.12038C82.9371 3.21054 84.568 3.24388 86.1944 3.22034L86.1741 1.82048ZM81.3791 1.72251L81.4561 0.324632C79.7896 0.232742 78.1327 0.254995 76.4859 0.391687L76.6017 1.78689L76.7175 3.18209C78.2345 3.05617 79.7625 3.0355 81.302 3.12038L81.3791 1.72251ZM76.6017 1.78689L76.4859 0.391687C74.9353 0.520395 73.3655 0.598175 71.7764 0.624909L71.8 2.02471L71.8235 3.42451C73.4729 3.39676 75.1043 3.316 76.7175 3.18209L76.6017 1.78689ZM71.8 2.02471L71.7764 0.624909C70.1509 0.652257 68.5492 0.690202 66.9715 0.738751L67.0145 2.13809L67.0576 3.53743C68.6219 3.48929 70.2106 3.45165 71.8235 3.42451L71.8 2.02471ZM67.0145 2.13809L66.9715 0.738751C65.3534 0.788539 63.7182 0.920255 62.066 1.13346L62.2452 2.52195L62.4243 3.91044C63.9891 3.70852 65.5334 3.58433 67.0576 3.53743L67.0145 2.13809ZM62.2452 2.52195L62.066 1.13346C60.4534 1.34155 58.8623 1.55403 57.2926 1.77091L57.4842 3.15773L57.6758 4.54456C59.237 4.32886 60.8199 4.11748 62.4243 3.91044L62.2452 2.52195ZM57.4842 3.15773L57.2926 1.77091C55.7401 1.98542 54.1786 2.17906 52.6082 2.35184L52.7613 3.74345L52.9144 5.13505C54.5103 4.95946 56.0975 4.76264 57.6758 4.54456L57.4842 3.15773ZM52.7613 3.74345L52.6082 2.35184C51.0454 2.52378 49.5657 2.65153 48.1686 2.7355L48.2526 4.13297L48.3366 5.53045C49.7848 5.44341 51.3109 5.31147 52.9144 5.13505L52.7613 3.74345ZM48.2526 4.13297L48.1686 2.7355C47.4586 2.77816 46.9324 2.80741 46.5859 2.82361C46.4106 2.83181 46.292 2.83615 46.2219 2.83756C46.1829 2.83835 46.1793 2.83776 46.195 2.83827C46.1955 2.83829 46.2451 2.83939 46.3128 2.8486C46.336 2.85175 46.4381 2.86525 46.5635 2.90741C46.6205 2.92653 46.7663 2.97849 46.9262 3.09202C47.0683 3.19285 47.442 3.50226 47.5066 4.07638L46.1154 4.23289L44.7242 4.3894C44.7888 4.96412 45.1629 5.27409 45.3058 5.37546C45.4665 5.48952 45.6134 5.542 45.6718 5.56161C45.8002 5.60474 45.9065 5.61912 45.9354 5.62305C46.0145 5.6338 46.081 5.63604 46.104 5.63679C46.1646 5.63876 46.2281 5.638 46.2784 5.63699C46.387 5.6348 46.5358 5.62901 46.7167 5.62055C47.0825 5.60345 47.6238 5.57329 48.3366 5.53045L48.2526 4.13297ZM46.1154 4.23289L47.5066 4.07638C47.4401 3.48536 47.0429 3.17845 46.9575 3.11409C46.8241 3.01349 46.7033 2.96055 46.6564 2.9408C46.5514 2.89655 46.4635 2.87503 46.4382 2.86886C46.3707 2.85235 46.3124 2.84325 46.2895 2.83974C46.2318 2.83089 46.1684 2.82357 46.1133 2.81767C45.9964 2.80515 45.8332 2.79033 45.6309 2.77338C45.2226 2.73919 44.6168 2.69321 43.8169 2.6356L43.7163 4.03198L43.6158 5.42836C44.4132 5.4858 45.0058 5.53083 45.3972 5.56361C45.5947 5.58015 45.7316 5.5928 45.8152 5.60175C45.8603 5.60659 45.8723 5.6085 45.8649 5.60737C45.8616 5.60686 45.8529 5.60549 45.8404 5.6032C45.8297 5.60123 45.8052 5.59657 45.7731 5.58871C45.7542 5.5841 45.6711 5.56405 45.5693 5.52116C45.5241 5.5021 45.4045 5.44982 45.2719 5.34986C45.2031 5.29801 45.0948 5.20664 44.9912 5.06715C44.8854 4.92459 44.7586 4.69586 44.7242 4.3894L46.1154 4.23289Z" fill="#B9372E"/>
</svg>
