<svg width="132" height="51" viewBox="0 0 132 51" fill="none" xmlns="http://www.w3.org/2000/svg">
<path d="M40.628 5.63485C41.4006 5.60546 42.0032 4.95529 41.9738 4.18265C41.9444 3.41001 41.2942 2.80748 40.5216 2.83687L40.5748 4.23586L40.628 5.63485ZM40.4749 4.23966L40.374 5.63602L40.451 5.64158L40.5281 5.63865L40.4749 4.23966ZM15.1321 9.42714L14.4433 8.20829V8.20829L15.1321 9.42714ZM2.34375 22.9079L1.02272 22.4443H1.02272L2.34375 22.9079ZM7.64751 39.5785L8.44515 38.428L7.64751 39.5785ZM15.9424 44.2185L16.3926 42.8928L15.9424 44.2185ZM20.4795 45.6779L20.8866 44.3384L20.4795 45.6779ZM39.3277 48.8782L39.525 47.4921L39.3277 48.8782ZM48.8592 49.3556L48.9255 50.754L48.8592 49.3556ZM53.6664 49.2679L53.6819 47.868L53.6664 49.2679ZM68.093 48.3743L68.069 46.9745L68.093 48.3743ZM77.5856 47.1631L77.8123 48.5447L77.5856 47.1631ZM82.315 46.3274L82.0544 44.9519L82.315 46.3274ZM87.039 45.678L86.9192 44.2831L87.039 45.678ZM105.509 40.7399L104.98 39.4437L105.509 40.7399ZM109.953 39.0034L110.443 40.3148L109.953 39.0034ZM130.374 20.7134L131.766 20.8653L130.374 20.7134ZM129.452 16.2624L130.667 15.5674L129.452 16.2624ZM126.557 12.5702L125.593 13.5859L126.557 12.5702ZM122.917 9.50888L122.08 10.6314L122.917 9.50888ZM118.715 7.31977L118.275 8.64884L118.715 7.31977ZM76.273 1.51015L76.1651 0.114316L76.273 1.51015ZM57.1461 2.34106L57.0542 0.944082L57.1461 2.34106ZM52.3867 2.96344L52.1175 1.58955L52.3867 2.96344ZM40.5683 4.18287L39.1796 4.3605L39.2866 5.19742L40.0766 5.49371L40.5683 4.18287ZM40.6742 4.22259L40.8319 5.61367L41.1658 2.91175L40.6742 4.22259ZM40.4171 2.84277C39.6488 2.92988 39.0966 3.62331 39.1837 4.39159C39.2708 5.15986 39.9643 5.71205 40.7325 5.62494L40.5748 4.23385L40.4171 2.84277ZM40.5748 4.23586L40.5216 2.83687L40.4217 2.84067L40.4749 4.23966L40.5281 5.63865L40.628 5.63485L40.5748 4.23586ZM40.4749 4.23966L40.5758 2.8433C37.4212 2.61539 34.9538 2.58292 33.2295 2.77551L33.3849 4.16686L33.5403 5.5582C35.0013 5.39502 37.2606 5.41109 40.374 5.63602L40.4749 4.23966ZM33.3849 4.16686L33.2295 2.77551C31.5869 2.95897 29.9632 3.22969 28.3587 3.58774L28.6636 4.95413L28.9686 6.32052C30.4737 5.98463 31.9976 5.73051 33.5403 5.5582L33.3849 4.16686ZM28.6636 4.95413L28.3587 3.58774C26.8234 3.93036 25.2785 4.24065 23.7242 4.51861L23.9706 5.89675L24.2171 7.27489C25.8104 6.98995 27.3943 6.67183 28.9686 6.32052L28.6636 4.95413ZM23.9706 5.89675L23.7242 4.51861C22.0408 4.81963 20.4136 5.31551 18.8446 6.00533L19.4081 7.28693L19.9716 8.56853C21.3382 7.96768 22.7526 7.53677 24.2171 7.27489L23.9706 5.89675ZM19.4081 7.28693L18.8446 6.00533C17.3344 6.66931 15.8673 7.40361 14.4433 8.20829L15.1321 9.42714L15.8209 10.646C17.1627 9.88773 18.5462 9.19524 19.9716 8.56853L19.4081 7.28693ZM15.1321 9.42714L14.4433 8.20829C13.0291 9.00744 11.6433 9.86238 10.2859 10.773L11.0659 11.9356L11.8458 13.0982C13.1443 12.2271 14.4693 11.4098 15.8209 10.646L15.1321 9.42714ZM11.0659 11.9356L10.2859 10.773C8.8634 11.7273 7.57898 12.8381 6.43485 14.1041L7.47351 15.0428L8.51217 15.9815C9.50202 14.8863 10.6125 13.9256 11.8458 13.0982L11.0659 11.9356ZM7.47351 15.0428L6.43485 14.1041C5.33156 15.3248 4.30616 16.6014 3.35893 17.9337L4.49994 18.7449L5.64095 19.5562C6.52451 18.3134 7.48149 17.1219 8.51217 15.9815L7.47351 15.0428ZM4.49994 18.7449L3.35893 17.9337C2.36769 19.3279 1.5883 20.8326 1.02272 22.4443L2.34375 22.9079L3.66478 23.3714C4.14333 22.0076 4.8014 20.737 5.64095 19.5562L4.49994 18.7449ZM2.34375 22.9079L1.02272 22.4443C0.457425 24.0553 0.124668 25.7152 0.0251375 27.4203L1.42276 27.5019L2.82038 27.5834C2.90471 26.1387 3.18595 24.736 3.66478 23.3714L2.34375 22.9079ZM1.42276 27.5019L0.0251375 27.4203C-0.0766907 29.1647 0.134667 30.882 0.656198 32.5642L1.99341 32.1496L3.33062 31.7351C2.90742 30.37 2.73835 28.9888 2.82038 27.5834L1.42276 27.5019ZM1.99341 32.1496L0.656198 32.5642C1.17972 34.2529 1.99355 35.7979 3.09263 37.1923L4.19213 36.3256L5.29163 35.459C4.40381 34.3326 3.75183 33.0937 3.33062 31.7351L1.99341 32.1496ZM4.19213 36.3256L3.09263 37.1923C4.17148 38.561 5.42482 39.7412 6.84987 40.7291L7.64751 39.5785L8.44515 38.428C7.24993 37.5994 6.19968 36.611 5.29163 35.459L4.19213 36.3256ZM7.64751 39.5785L6.84987 40.7291C8.18065 41.6517 9.53572 42.5381 10.9151 43.3884L11.6497 42.1966L12.3843 41.0048C11.0477 40.1809 9.73464 39.3219 8.44515 38.428L7.64751 39.5785ZM11.6497 42.1966L10.9151 43.3884C12.3621 44.2804 13.8883 44.9993 15.4921 45.5441L15.9424 44.2185L16.3926 42.8928C14.9888 42.416 13.6533 41.787 12.3843 41.0048L11.6497 42.1966ZM15.9424 44.2185L15.4921 45.5441C17.0102 46.0597 18.537 46.5509 20.0725 47.0174L20.4795 45.6779L20.8866 44.3384C19.38 43.8806 17.8821 43.3988 16.3926 42.8928L15.9424 44.2185ZM20.4795 45.6779L20.0725 47.0174C21.6014 47.482 23.1391 47.9344 24.6856 48.3748L25.069 47.0283L25.4524 45.6818C23.9216 45.2459 22.3997 44.7981 20.8866 44.3384L20.4795 45.6779ZM25.069 47.0283L24.6856 48.3748C26.277 48.8279 27.891 49.1867 29.5273 49.4512L29.7507 48.0691L29.9741 46.6871C28.4455 46.44 26.9384 46.1049 25.4524 45.6818L25.069 47.0283ZM29.7507 48.0691L29.5273 49.4512C31.1756 49.7176 32.8398 49.8662 34.5193 49.8971L34.545 48.4974L34.5708 47.0976C33.0228 47.0691 31.4908 46.9322 29.9741 46.6871L29.7507 48.0691ZM34.545 48.4974L34.5193 49.8971C36.0764 49.9258 37.6134 50.0482 39.1304 50.2642L39.3277 48.8782L39.525 47.4921C37.8926 47.2598 36.2411 47.1283 34.5708 47.0976L34.545 48.4974ZM39.3277 48.8782L39.1304 50.2642C40.7457 50.4941 42.367 50.6528 43.9942 50.7401L44.0692 49.3421L44.1443 47.9442C42.599 47.8612 41.0593 47.7105 39.525 47.4921L39.3277 48.8782ZM44.0692 49.3421L43.9942 50.7401C45.6281 50.8279 47.2719 50.8324 48.9255 50.754L48.8592 49.3556L48.7929 47.9572C47.2323 48.0312 45.6828 48.0268 44.1443 47.9442L44.0692 49.3421ZM48.8592 49.3556L48.9255 50.754C50.5056 50.6791 52.0807 50.6504 53.6508 50.6678L53.6664 49.2679L53.6819 47.868C52.0568 47.8499 50.4271 47.8797 48.7929 47.9572L48.8592 49.3556ZM53.6664 49.2679L53.6508 50.6678C55.2962 50.6861 56.9555 50.6203 58.6284 50.4708L58.5038 49.0764L58.3792 47.682C56.7974 47.8233 55.2317 47.8852 53.6819 47.868L53.6664 49.2679ZM58.5038 49.0764L58.6284 50.4708C60.2577 50.3253 61.8608 50.1786 63.4376 50.0309L63.3071 48.637L63.1765 47.2431C61.6038 47.3904 60.0047 47.5367 58.3792 47.682L58.5038 49.0764ZM63.3071 48.637L63.4376 50.0309C64.9762 49.8868 66.5359 49.8011 68.1169 49.7741L68.093 48.3743L68.069 46.9745C66.4184 47.0027 64.7875 47.0922 63.1765 47.2431L63.3071 48.637ZM68.093 48.3743L68.1169 49.7741C69.8003 49.7453 71.459 49.5954 73.0923 49.324L72.8628 47.943L72.6333 46.5619C71.1385 46.8103 69.6173 46.948 68.069 46.9745L68.093 48.3743ZM72.8628 47.943L73.0923 49.324C74.6554 49.0643 76.2288 48.8045 77.8123 48.5447L77.5856 47.1631L77.3589 45.7816C75.7735 46.0417 74.1983 46.3018 72.6333 46.5619L72.8628 47.943ZM77.5856 47.1631L77.8123 48.5447C79.4081 48.2828 80.9958 48.0022 82.5757 47.7029L82.315 46.3274L82.0544 44.9519C80.4973 45.2469 78.9322 45.5235 77.3589 45.7816L77.5856 47.1631ZM82.315 46.3274L82.5757 47.7029C84.0978 47.4145 85.6255 47.2046 87.1589 47.0729L87.039 45.678L86.9192 44.2831C85.2909 44.423 83.6692 44.6459 82.0544 44.9519L82.315 46.3274ZM87.039 45.678L87.1589 47.0729C88.8459 46.9279 90.5098 46.5926 92.1487 46.0685L91.7223 44.735L91.2959 43.4015C89.8522 43.8632 88.3939 44.1565 86.9192 44.2831L87.039 45.678ZM91.7223 44.735L92.1487 46.0685C93.6582 45.5858 95.173 45.1608 96.6929 44.7935L96.364 43.4326L96.0351 42.0718C94.4487 42.4552 92.8689 42.8985 91.2959 43.4015L91.7223 44.735ZM96.364 43.4326L96.6929 44.7935C98.2567 44.4155 99.8124 44.0201 101.36 43.6073L100.999 42.2546L100.639 40.9019C99.1121 41.309 97.5776 41.699 96.0351 42.0718L96.364 43.4326ZM100.999 42.2546L101.36 43.6073C102.954 43.182 104.514 42.6583 106.038 42.0361L105.509 40.7399L104.98 39.4437C103.566 40.0211 102.119 40.5071 100.639 40.9019L100.999 42.2546ZM105.509 40.7399L106.038 42.0361C107.494 41.4416 108.963 40.8679 110.443 40.3148L109.953 39.0034L109.463 37.6919C107.956 38.2547 106.462 38.8386 104.98 39.4437L105.509 40.7399ZM109.953 39.0034L110.443 40.3148C112.003 39.7319 113.511 39.0331 114.966 38.2188L114.282 36.9971L113.598 35.7754C112.267 36.5203 110.889 37.159 109.463 37.6919L109.953 39.0034ZM114.282 36.9971L114.966 38.2188C116.368 37.4341 117.756 36.6368 119.13 35.8268L118.419 34.6207L117.708 33.4146C116.352 34.2139 114.982 35.0009 113.598 35.7754L114.282 36.9971ZM118.419 34.6207L119.13 35.8268C120.508 35.0148 121.884 34.1748 123.259 33.3067L122.512 32.1229L121.765 30.9391C120.413 31.7921 119.061 32.6173 117.708 33.4146L118.419 34.6207ZM122.512 32.1229L123.259 33.3067C124.751 32.3652 126.05 31.212 127.151 29.8502L126.063 28.9699L124.974 28.0895C124.067 29.2107 122.999 30.1595 121.765 30.9391L122.512 32.1229ZM126.063 28.9699L127.151 29.8502C128.188 28.5675 129.146 27.2351 130.023 25.8529L128.841 25.1026L127.659 24.3524C126.84 25.6435 125.945 26.8892 124.974 28.0895L126.063 28.9699ZM128.841 25.1026L130.023 25.8529C130.988 24.3336 131.569 22.6655 131.766 20.8653L130.374 20.7134L128.982 20.5616C128.832 21.9403 128.392 23.1983 127.659 24.3524L128.841 25.1026ZM130.374 20.7134L131.766 20.8653C131.971 18.9843 131.603 17.2039 130.667 15.5674L129.452 16.2624L128.237 16.9575C128.877 18.0768 129.124 19.2637 128.982 20.5616L130.374 20.7134ZM129.452 16.2624L130.667 15.5674C129.812 14.0719 128.762 12.7329 127.52 11.5545L126.557 12.5702L125.593 13.5859C126.636 14.5747 127.516 15.6972 128.237 16.9575L129.452 16.2624ZM126.557 12.5702L127.52 11.5545C126.337 10.4322 125.081 9.37617 123.754 8.38639L122.917 9.50888L122.08 10.6314C123.321 11.5562 124.492 12.541 125.593 13.5859L126.557 12.5702ZM122.917 9.50888L123.754 8.38639C122.349 7.33967 120.815 6.5401 119.155 5.9907L118.715 7.31977L118.275 8.64884C119.649 9.10368 120.916 9.76352 122.08 10.6314L122.917 9.50888ZM118.715 7.31977L119.155 5.9907C117.649 5.49207 116.149 4.97565 114.655 4.44143L114.184 5.75966L113.712 7.0779C115.227 7.61958 116.748 8.14323 118.275 8.64884L118.715 7.31977ZM114.184 5.75966L114.655 4.44143C113.072 3.87503 111.446 3.45431 109.779 3.17927L109.551 4.5606L109.323 5.94192C110.825 6.18975 112.288 6.5684 113.712 7.0779L114.184 5.75966ZM109.551 4.5606L109.779 3.17927C108.247 2.92657 106.733 2.58671 105.238 2.15959L104.853 3.50578L104.469 4.85196C106.067 5.30842 107.685 5.67177 109.323 5.94192L109.551 4.5606ZM104.853 3.50578L105.238 2.15959C103.59 1.68898 101.92 1.41071 100.229 1.32622L100.159 2.72447L100.089 4.12273C101.564 4.19641 103.023 4.439 104.469 4.85196L104.853 3.50578ZM100.159 2.72447L100.229 1.32622C98.6561 1.24763 97.0795 1.15215 95.4992 1.03979L95.3999 2.43627L95.3006 3.83274C96.9004 3.94649 98.4966 4.04315 100.089 4.12273L100.159 2.72447ZM95.3999 2.43627L95.4992 1.03979C93.9201 0.927517 92.3292 0.795721 90.7266 0.64439L90.595 2.03819L90.4634 3.43199C92.0872 3.58532 93.6996 3.71891 95.3006 3.83274L95.3999 2.43627ZM90.595 2.03819L90.7266 0.64439C89.0935 0.490175 87.4832 0.373513 85.8959 0.294499L85.8263 1.69277L85.7567 3.09104C87.3012 3.16792 88.8701 3.28154 90.4634 3.43199L90.595 2.03819ZM85.8263 1.69277L85.8959 0.294499C84.3309 0.216596 82.7449 0.136024 81.138 0.0527817L81.0656 1.45091L80.9931 2.84903C82.6019 2.93237 84.1897 3.01304 85.7567 3.09104L85.8263 1.69277ZM81.0656 1.45091L81.138 0.0527817C79.4707 -0.0335867 77.8129 -0.0131619 76.1651 0.114316L76.273 1.51015L76.381 2.90597C77.9075 2.78789 79.4447 2.76882 80.9931 2.84903L81.0656 1.45091ZM76.273 1.51015L76.1651 0.114316C74.5988 0.235479 73.0278 0.32161 71.4521 0.3727L71.4975 1.77196L71.5428 3.17123C73.1602 3.11879 74.7729 3.03037 76.381 2.90597L76.273 1.51015ZM71.4975 1.77196L71.4521 0.3727C69.8442 0.424832 68.2387 0.496429 66.6356 0.587492L66.715 1.98524L66.7944 3.38299C68.3748 3.29321 69.9576 3.22263 71.5428 3.17123L71.4975 1.77196ZM66.715 1.98524L66.6356 0.587492C65.0642 0.676755 63.489 0.73181 61.9099 0.75265L61.9284 2.15253L61.9469 3.55241C63.5664 3.53103 65.1823 3.47456 66.7944 3.38299L66.715 1.98524ZM61.9284 2.15253L61.9099 0.75265C60.2862 0.774079 58.6676 0.837885 57.0542 0.944082L57.1461 2.34106L57.2381 3.73804C58.8024 3.63507 60.3719 3.57319 61.9469 3.55241L61.9284 2.15253ZM57.1461 2.34106L57.0542 0.944082C55.405 1.05263 53.7593 1.26791 52.1175 1.58955L52.3867 2.96344L52.6558 4.33732C54.1822 4.03829 55.7095 3.83865 57.2381 3.73804L57.1461 2.34106ZM52.3867 2.96344L52.1175 1.58955C50.5702 1.89268 49.0314 2.1296 47.5008 2.30054L47.6562 3.69189L47.8116 5.08324C49.4201 4.90359 51.0349 4.65488 52.6558 4.33732L52.3867 2.96344ZM47.6562 3.69189L47.5008 2.30054C45.9656 2.472 44.4253 2.5866 42.8796 2.64434L42.9319 4.04336L42.9841 5.44239C44.5986 5.38208 46.2078 5.26237 47.8116 5.08324L47.6562 3.69189ZM42.9319 4.04336L42.8796 2.64434C42.0873 2.67393 41.483 2.70076 41.0734 2.72494C40.872 2.73683 40.6998 2.74908 40.5705 2.76237C40.5125 2.76832 40.4265 2.77804 40.3403 2.79456C40.3089 2.80058 40.2051 2.82045 40.0846 2.86571C40.0357 2.88408 39.8813 2.94323 39.7162 3.07028C39.5918 3.16605 39.0825 3.60122 39.1796 4.3605L40.5683 4.18287L41.957 4.00525C42.0538 4.76241 41.5458 5.19543 41.4242 5.28902C41.262 5.4139 41.1119 5.47085 41.0689 5.48701C40.9602 5.52782 40.8745 5.54314 40.8672 5.54453C40.8295 5.55177 40.8167 5.55181 40.8566 5.54771C40.9232 5.54087 41.0459 5.53144 41.2384 5.52007C41.6167 5.49775 42.1963 5.47182 42.9841 5.44239L42.9319 4.04336ZM40.5683 4.18287L40.0766 5.49371L40.1825 5.53342L40.6742 4.22259L41.1658 2.91175L41.0599 2.87204L40.5683 4.18287ZM40.6742 4.22259L40.5164 2.8315L40.4171 2.84277L40.5748 4.23385L40.7325 5.62494L40.8319 5.61367L40.6742 4.22259Z" fill="#B8B8B8"/>
</svg>
