<svg width="30" height="30" viewBox="0 0 30 30" fill="none" xmlns="http://www.w3.org/2000/svg">
<path d="M15.3507 8.6121L14.482 8.22277L15.3507 8.6121ZM14.1585 11.1628L15.0006 11.6066L14.1585 11.1628ZM13.5033 12.4062L12.6612 11.9624L13.5033 12.4062ZM12.6352 13.4915L13.255 14.214L12.6352 13.4915ZM11.5542 14.4189L10.9344 13.6964L11.5542 14.4189ZM10.3184 15.0173L10.1374 14.0827L10.3184 15.0173ZM8.92771 15.2866L9.10871 16.2212L8.92771 15.2866ZM8.80121 15.6281L9.12646 14.7335L8.80121 15.6281ZM9.93891 16.0417L9.61365 16.9364L9.93891 16.0417ZM12.3905 17.2313L11.95 18.0752L12.3905 17.2313ZM13.924 18.6539L14.6574 18.0471L13.924 18.6539ZM14.3769 19.2013L13.6435 19.8081L14.3769 19.2013ZM15.0178 20.4238L14.1008 20.6791L15.0178 20.4238ZM15.8287 23.9214L14.8899 24.0789L15.8287 23.9214ZM16.125 23.7386L17.0323 24.0268L16.125 23.7386ZM16.339 23.065L15.4317 22.7768L16.339 23.065ZM16.5529 22.3913L15.6457 22.1031L16.5529 22.3913ZM17.0081 21.0481L16.1125 20.7255L17.0081 21.0481ZM18.2376 18.542L17.5702 17.8632L18.2376 18.542ZM18.7437 18.0444L19.411 18.7232L18.7437 18.0444ZM19.2497 17.5469L19.9171 18.2257L19.2497 17.5469ZM20.3537 16.6846L19.8578 15.872L20.3537 16.6846ZM20.9515 16.3198L21.4473 17.1323L20.9515 16.3198ZM21.5494 15.955L21.0535 15.1424L21.5494 15.955ZM21.7216 15.2699L21.1492 16.0305L21.7216 15.2699ZM21.2961 14.9496L21.8685 14.189L21.2961 14.9496ZM20.8705 14.6293L20.2981 15.3899V15.3899L20.8705 14.6293ZM18.8598 12.8678L19.5002 12.1635L18.8598 12.8678ZM18.0853 11.7196L18.9784 11.3903L18.0853 11.7196ZM17.5928 10.3842L16.6997 10.7135L17.5928 10.3842ZM17.0486 9.07118L16.1844 9.47034L17.0486 9.07118ZM16.4525 7.78062L17.3166 7.38146L16.4525 7.78062ZM16.1136 6.64433L17.0623 6.56559L16.1136 6.64433ZM16.0321 5.6623L16.9808 5.58356L16.0321 5.6623ZM15.9935 5.17095L15.8443 4.23081L15.9935 5.17095ZM15.9957 5.17061L16.1449 6.11074L15.9957 5.17061ZM15.9978 5.17026L15.8486 4.23013L15.9978 5.17026ZM15.8195 6.5695L14.8754 6.44771L14.7851 7.1475L15.7292 7.26929L16.6733 7.39108L16.7635 6.69129L15.8195 6.5695ZM15.7292 7.26929L14.7851 7.1475C14.7368 7.52176 14.636 7.87921 14.482 8.22277L15.3507 8.6121L16.2193 9.00144C16.4496 8.48763 16.6012 7.94988 16.6733 7.39108L15.7292 7.26929ZM15.3507 8.6121L14.482 8.22277L14.1938 8.86579L15.0625 9.25513L15.9311 9.64446L16.2193 9.00144L15.3507 8.6121ZM15.0625 9.25513L14.1938 8.86579L13.9056 9.50881L14.7743 9.89815L15.6429 10.2875L15.9311 9.64446L15.0625 9.25513ZM14.7743 9.89815L13.9056 9.50881C13.7217 9.91912 13.5253 10.3225 13.3164 10.7191L14.1585 11.1628L15.0006 11.6066C15.2285 11.1743 15.4426 10.7345 15.6429 10.2875L14.7743 9.89815ZM14.1585 11.1628L13.3164 10.7191L12.9888 11.3407L13.8309 11.7845L14.673 12.2283L15.0006 11.6066L14.1585 11.1628ZM13.8309 11.7845L12.9888 11.3407L12.6612 11.9624L13.5033 12.4062L14.3454 12.8499L14.673 12.2283L13.8309 11.7845ZM13.5033 12.4062L12.6612 11.9624C12.4994 12.2693 12.286 12.5369 12.0154 12.7691L12.6352 13.4915L13.255 14.214C13.7051 13.8279 14.0704 13.3719 14.3454 12.8499L13.5033 12.4062ZM12.6352 13.4915L12.0154 12.7691L11.4749 13.2328L12.0947 13.9552L12.7145 14.6777L13.255 14.214L12.6352 13.4915ZM12.0947 13.9552L11.4749 13.2328L10.9344 13.6964L11.5542 14.4189L12.1741 15.1414L12.7145 14.6777L12.0947 13.9552ZM11.5542 14.4189L10.9344 13.6964C10.6988 13.8986 10.4378 14.0245 10.1374 14.0827L10.3184 15.0173L10.4994 15.9518C11.1261 15.8304 11.6891 15.5575 12.1741 15.1414L11.5542 14.4189ZM10.3184 15.0173L10.1374 14.0827L9.44206 14.2174L9.62306 15.152L9.80406 16.0865L10.4994 15.9518L10.3184 15.0173ZM9.62306 15.152L9.44206 14.2174L8.74671 14.3521L8.92771 15.2866L9.10871 16.2212L9.80406 16.0865L9.62306 15.152ZM8.92771 15.2866L8.74671 14.3521C8.60765 14.379 8.44949 14.4167 8.30353 14.4754C8.23083 14.5047 8.12736 14.5525 8.02228 14.6293C7.92432 14.7009 7.75107 14.8514 7.65578 15.1087C7.54504 15.4076 7.59256 15.7038 7.71031 15.9271C7.81063 16.1174 7.94819 16.2336 8.02624 16.2919C8.18307 16.409 8.35836 16.48 8.47596 16.5227L8.80121 15.6281L9.12646 14.7335C9.05444 14.7073 9.0928 14.7123 9.16536 14.7665C9.20128 14.7933 9.30987 14.8789 9.3944 15.0392C9.49635 15.2326 9.54124 15.4995 9.44104 15.77C9.35629 15.9988 9.20676 16.1217 9.14568 16.1663C9.07747 16.2161 9.02405 16.2377 9.01456 16.2415C8.99504 16.2494 9.01599 16.2391 9.10871 16.2212L8.92771 15.2866ZM8.80121 15.6281L8.47596 16.5227L9.04481 16.7295L9.37006 15.8349L9.69531 14.9403L9.12646 14.7335L8.80121 15.6281ZM9.37006 15.8349L9.04481 16.7295L9.61365 16.9364L9.93891 16.0417L10.2642 15.1471L9.69531 14.9403L9.37006 15.8349ZM9.93891 16.0417L9.61365 16.9364C9.94744 17.0577 10.3076 17.2179 10.6948 17.42L11.1353 16.5762L11.5758 15.7323C11.1263 15.4976 10.6888 15.3015 10.2642 15.1471L9.93891 16.0417ZM11.1353 16.5762L10.6948 17.42L11.3224 17.7476L11.7629 16.9037L12.2034 16.0599L11.5758 15.7323L11.1353 16.5762ZM11.7629 16.9037L11.3224 17.7476L11.95 18.0752L12.3905 17.2313L12.831 16.3875L12.2034 16.0599L11.7629 16.9037ZM12.3905 17.2313L11.95 18.0752C12.2555 18.2347 12.5162 18.4456 12.7376 18.7132L13.471 18.1064L14.2045 17.4996C13.8219 17.0372 13.3623 16.6648 12.831 16.3875L12.3905 17.2313ZM13.471 18.1064L12.7376 18.7132L13.1905 19.2607L13.924 18.6539L14.6574 18.0471L14.2045 17.4996L13.471 18.1064ZM13.924 18.6539L13.1905 19.2607L13.6435 19.8081L14.3769 19.2013L15.1103 18.5945L14.6574 18.0471L13.924 18.6539ZM14.3769 19.2013L13.6435 19.8081C13.8615 20.0716 14.0118 20.3597 14.1008 20.6791L15.0178 20.4238L15.9348 20.1684C15.7732 19.5879 15.4962 19.061 15.1103 18.5945L14.3769 19.2013ZM15.0178 20.4238L14.1008 20.6791L14.2887 21.3541L15.2057 21.0988L16.1228 20.8434L15.9348 20.1684L15.0178 20.4238ZM15.2057 21.0988L14.2887 21.3541L14.4767 22.0291L15.3937 21.7737L16.3107 21.5184L16.1228 20.8434L15.2057 21.0988ZM15.3937 21.7737L14.4767 22.0291C14.5963 22.4587 14.6775 22.8131 14.7252 23.0971L15.664 22.9396L16.6028 22.7821C16.5406 22.4116 16.4417 21.9887 16.3107 21.5184L15.3937 21.7737ZM15.664 22.9396L14.7252 23.0971L14.8075 23.588L15.7463 23.4305L16.6851 23.273L16.6028 22.7821L15.664 22.9396ZM15.7463 23.4305L14.8075 23.588L14.8899 24.0789L15.8287 23.9214L16.7675 23.7639L16.6851 23.273L15.7463 23.4305ZM15.8287 23.9214L14.8899 24.0789C14.9057 24.1734 14.9428 24.3778 15.0536 24.5698C15.1081 24.6644 15.2533 24.8854 15.5468 25.0061C15.9035 25.1529 16.2367 25.059 16.4437 24.9313C16.6172 24.8243 16.7192 24.6888 16.7648 24.6232C16.8187 24.5456 16.8585 24.4695 16.8866 24.4099C16.9431 24.2906 16.991 24.1567 17.0323 24.0268L16.125 23.7386L15.2178 23.4505C15.2036 23.495 15.1917 23.5295 15.182 23.5554C15.1772 23.5681 15.1733 23.5779 15.1704 23.5849C15.169 23.5884 15.1679 23.591 15.1671 23.5928C15.1662 23.5946 15.1658 23.5955 15.1659 23.5954C15.1659 23.5954 15.1664 23.5943 15.1675 23.5922C15.1686 23.59 15.1704 23.5866 15.1729 23.5821C15.1776 23.5737 15.1869 23.5577 15.2013 23.537C15.2194 23.5109 15.2954 23.4028 15.4442 23.311C15.6265 23.1985 15.9364 23.1078 16.2711 23.2455C16.5426 23.3572 16.6672 23.5571 16.7026 23.6183C16.7749 23.7437 16.7791 23.8331 16.7675 23.7639L15.8287 23.9214ZM16.125 23.7386L17.0323 24.0268L17.2462 23.3531L16.339 23.065L15.4317 22.7768L15.2178 23.4505L16.125 23.7386ZM16.339 23.065L17.2462 23.3531L17.4602 22.6794L16.5529 22.3913L15.6457 22.1031L15.4317 22.7768L16.339 23.065ZM16.5529 22.3913L17.4602 22.6794C17.5991 22.2419 17.747 21.8057 17.9036 21.3706L17.0081 21.0481L16.1125 20.7255C15.9476 21.1832 15.792 21.6424 15.6457 22.1031L16.5529 22.3913ZM17.0081 21.0481L17.9036 21.3706L18.1448 20.7011L17.2492 20.3786L16.3536 20.056L16.1125 20.7255L17.0081 21.0481ZM17.2492 20.3786L18.1448 20.7011L18.3859 20.0316L17.4903 19.709L16.5947 19.3865L16.3536 20.056L17.2492 20.3786ZM17.4903 19.709L18.3859 20.0316C18.4984 19.7192 18.6696 19.4521 18.9049 19.2208L18.2376 18.542L17.5702 17.8632C17.1307 18.2953 16.8038 18.8061 16.5947 19.3865L17.4903 19.709ZM18.2376 18.542L18.9049 19.2208L19.411 18.7232L18.7437 18.0444L18.0763 17.3656L17.5702 17.8632L18.2376 18.542ZM18.7437 18.0444L19.411 18.7232L19.9171 18.2257L19.2497 17.5469L18.5824 16.8681L18.0763 17.3656L18.7437 18.0444ZM19.2497 17.5469L19.9171 18.2257C20.2033 17.9443 20.5139 17.7019 20.8495 17.4971L20.3537 16.6846L19.8578 15.872C19.3964 16.1536 18.971 16.4861 18.5824 16.8681L19.2497 17.5469ZM20.3537 16.6846L20.8495 17.4971L21.4473 17.1323L20.9515 16.3198L20.4557 15.5072L19.8578 15.872L20.3537 16.6846ZM20.9515 16.3198L21.4473 17.1323L22.0452 16.7676L21.5494 15.955L21.0535 15.1424L20.4557 15.5072L20.9515 16.3198ZM21.5494 15.955L22.0452 16.7676C22.2755 16.627 22.6876 16.3382 22.8145 15.8335C22.9811 15.1709 22.5633 14.712 22.2941 14.5093L21.7216 15.2699L21.1492 16.0305C21.1469 16.0287 21.1313 16.0168 21.1092 15.9927C21.087 15.9684 21.0541 15.927 21.0232 15.8667C20.9525 15.7286 20.923 15.5488 20.9682 15.3691C21.0074 15.2133 21.0845 15.1297 21.1 15.1136C21.1173 15.0958 21.1107 15.1075 21.0535 15.1424L21.5494 15.955ZM21.7216 15.2699L22.2941 14.5093L21.8685 14.189L21.2961 14.9496L20.7237 15.7102L21.1492 16.0305L21.7216 15.2699ZM21.2961 14.9496L21.8685 14.189L21.4429 13.8688L20.8705 14.6293L20.2981 15.3899L20.7237 15.7102L21.2961 14.9496ZM20.8705 14.6293L21.4429 13.8688C21.1891 13.6777 20.8943 13.431 20.557 13.1243L19.9166 13.8286L19.2762 14.5329C19.6434 14.8668 19.9845 15.1539 20.2981 15.3899L20.8705 14.6293ZM19.9166 13.8286L20.557 13.1243L20.0286 12.6439L19.3882 13.3482L18.7478 14.0525L19.2762 14.5329L19.9166 13.8286ZM19.3882 13.3482L20.0286 12.6439L19.5002 12.1635L18.8598 12.8678L18.2195 13.5721L18.7478 14.0525L19.3882 13.3482ZM18.8598 12.8678L19.5002 12.1635C19.2607 11.9457 19.0894 11.6915 18.9784 11.3903L18.0853 11.7196L17.1921 12.049C17.4094 12.6381 17.7545 13.1493 18.2195 13.5721L18.8598 12.8678ZM18.0853 11.7196L18.9784 11.3903L18.7322 10.7226L17.839 11.0519L16.9459 11.3812L17.1921 12.049L18.0853 11.7196ZM17.839 11.0519L18.7322 10.7226L18.486 10.0549L17.5928 10.3842L16.6997 10.7135L16.9459 11.3812L17.839 11.0519ZM17.5928 10.3842L18.486 10.0549C18.3131 9.58608 18.122 9.12511 17.9127 8.67202L17.0486 9.07118L16.1844 9.47034C16.3725 9.87761 16.5443 10.292 16.6997 10.7135L17.5928 10.3842ZM17.0486 9.07118L17.9127 8.67202L17.6147 8.02674L16.7505 8.4259L15.8863 8.82506L16.1844 9.47034L17.0486 9.07118ZM16.7505 8.4259L17.6147 8.02674L17.3166 7.38146L16.4525 7.78062L15.5883 8.17978L15.8863 8.82506L16.7505 8.4259ZM16.4525 7.78062L17.3166 7.38146C17.1457 7.01147 17.0772 6.74461 17.0623 6.56559L16.1136 6.64433L15.165 6.72307C15.2045 7.19873 15.3618 7.6894 15.5883 8.17978L16.4525 7.78062ZM16.1136 6.64433L17.0623 6.56559L17.0215 6.07457L16.0729 6.15332L15.1242 6.23206L15.165 6.72307L16.1136 6.64433ZM16.0729 6.15332L17.0215 6.07457L16.9808 5.58356L16.0321 5.6623L15.0835 5.74105L15.1242 6.23206L16.0729 6.15332ZM16.0321 5.6623L16.9808 5.58356C16.9672 5.4202 16.9574 5.29912 16.9511 5.2194C16.9479 5.17908 16.9459 5.15177 16.9447 5.13561C16.9441 5.12661 16.9441 5.12572 16.9443 5.12925C16.9444 5.13054 16.9445 5.13327 16.9446 5.137C16.9448 5.14019 16.945 5.14736 16.9452 5.15675C16.9453 5.16126 16.9458 5.18736 16.9441 5.22084C16.9435 5.23168 16.9411 5.28176 16.9294 5.34462C16.9248 5.36939 16.9092 5.45259 16.8661 5.55138C16.8447 5.60038 16.7977 5.69802 16.7081 5.79984C16.6168 5.90364 16.4319 6.06518 16.1428 6.11109L15.9935 5.17095L15.8443 4.23081C15.5551 4.27672 15.3703 4.43827 15.2789 4.54208C15.1893 4.64391 15.1423 4.74156 15.1209 4.79058C15.0778 4.88942 15.0621 4.97268 15.0575 4.99753C15.0458 5.06057 15.0434 5.11089 15.0428 5.12205C15.041 5.15619 15.0416 5.18326 15.0417 5.18907C15.042 5.20761 15.0428 5.22307 15.043 5.22815C15.0438 5.24197 15.0447 5.25646 15.0455 5.26796C15.0473 5.29281 15.0499 5.32694 15.0531 5.36851C15.0597 5.45258 15.0699 5.57707 15.0835 5.74105L16.0321 5.6623ZM15.9935 5.17095L16.1428 6.11109L16.1449 6.11074L15.9957 5.17061L15.8465 4.23047L15.8443 4.23081L15.9935 5.17095ZM15.9957 5.17061L16.1449 6.11074L16.1471 6.1104L15.9978 5.17026L15.8486 4.23013L15.8465 4.23047L15.9957 5.17061ZM15.9978 5.17026L16.1471 6.1104C15.9948 6.12217 15.6972 6.07344 15.5593 6.01511C15.4543 5.95176 15.2942 5.81133 15.2363 5.7414C15.1305 5.60029 15.092 5.46568 15.0811 5.42658C15.0537 5.32864 15.0491 5.24842 15.0481 5.23417C15.0448 5.18421 15.0463 5.14486 15.0465 5.13855C15.0473 5.11463 15.0489 5.09618 15.0491 5.09383C15.0496 5.08777 15.0501 5.08339 15.0502 5.08192C15.0503 5.08093 15.0504 5.0802 15.0504 5.07978C15.0505 5.07935 15.0505 5.07911 15.0505 5.07908C15.0505 5.07907 15.0505 5.07956 15.0503 5.08068C15.0502 5.08177 15.05 5.08324 15.0498 5.08516C15.0494 5.08902 15.0488 5.09408 15.048 5.10049C15.0449 5.12669 15.0397 5.1681 15.0324 5.22597C15.0179 5.34109 14.9957 5.51487 14.9656 5.74792L15.9097 5.86971L16.8538 5.9915C16.8839 5.75803 16.9065 5.58197 16.9213 5.46394C16.9287 5.40524 16.9344 5.35924 16.9383 5.32721C16.9401 5.31183 16.9419 5.2963 16.9434 5.28315C16.9439 5.27788 16.9452 5.26581 16.9464 5.25208C16.9467 5.24792 16.9484 5.22812 16.9492 5.2033C16.9495 5.19654 16.951 5.15686 16.9477 5.10667C16.9467 5.09232 16.942 5.01202 16.9146 4.91402C16.9037 4.87489 16.8652 4.74026 16.7594 4.59914C16.6375 4.43663 16.3237 4.15472 15.8486 4.23013L15.9978 5.17026ZM15.9097 5.86971L14.9656 5.74792L14.8754 6.44771L15.8195 6.5695L16.7635 6.69129L16.8538 5.9915L15.9097 5.86971Z" fill="#B8B8B8"/>
<path d="M20.9648 9.65723C21.2394 8.94177 22.0885 7.3167 23.2881 6.54004" stroke="#B8B8B8" stroke-width="1.90382" stroke-linecap="round"/>
<path d="M20.585 20.2998C21.2025 21.295 22.6538 23.4707 23.5186 24.2119" stroke="#B8B8B8" stroke-width="1.90382" stroke-linecap="round"/>
<path d="M10.9609 20.918C10.3434 21.9132 8.89205 24.0889 8.02734 24.8301" stroke="#B8B8B8" stroke-width="1.90382" stroke-linecap="round"/>
<path d="M6.48242 6.35156C7.13411 6.78077 9.60207 8.69063 10.4453 10.7783" stroke="#B8B8B8" stroke-width="1.90382" stroke-linecap="round"/>
</svg>
