<svg width="72" height="40" viewBox="0 0 72 40" fill="none" xmlns="http://www.w3.org/2000/svg">
  <path
    d="M10.8 8.9C15 8 20.2 8.4 25.4 8.5H46.8C53 8.4 58 7.8 61.4 9.1C64 10.1 65.3 12.8 64.9 16.8C64.7 19.5 64.8 22 64.6 24.9C64.2 29.3 62.1 31.5 58 32.2C52.6 33.1 46.1 32.8 39.4 32.8H25.9C19.7 32.8 14.5 33.4 11 32.1C8.2 31.1 7.1 28.5 7.2 24.6C7.3 21.2 7.2 18 7.7 15.3C8.2 12.5 9.2 10.3 10.8 8.9Z"
    stroke="#7F7F7F"
    stroke-width="2.4"
    stroke-linecap="round"
    stroke-linejoin="round"
  />
</svg>
