<svg width="116" height="40" viewBox="0 0 116 40" fill="none" xmlns="http://www.w3.org/2000/svg">
  <path
    d="M12.4 8.7C19 7.5 27.2 8 35.5 8.1H78C87.3 8 94.8 7.4 99.8 9.1C103.4 10.3 105.4 13 104.9 17C104.6 19.8 104.7 22.3 104.4 25.3C104 29.7 101.2 31.9 95.8 32.6C87.7 33.6 78.3 33.2 68.6 33.2H35.6C27.5 33.2 20.2 33.8 15.1 32.4C11.4 31.4 9.8 28.7 9.9 24.7C10 21.1 9.9 17.9 10.5 15C11.1 12.3 11.8 10.2 12.4 8.7Z"
    stroke="#7F7F7F"
    stroke-width="2.4"
    stroke-linecap="round"
    stroke-linejoin="round"
  />
</svg>
