<svg width="92" height="40" viewBox="0 0 92 40" fill="none" xmlns="http://www.w3.org/2000/svg">
  <path
    d="M11.5 8.8C17 7.8 23.8 8.3 30.7 8.4H59.7C67.6 8.3 74 7.7 78.3 9.1C81.3 10.1 83 12.9 82.5 16.9C82.2 19.7 82.3 22.1 82.1 25C81.7 29.4 79.2 31.6 74.5 32.3C67.7 33.3 59.8 32.8 51.6 32.8H30.8C23.4 32.8 17 33.5 12.7 32.1C9.7 31.1 8.4 28.5 8.5 24.6C8.6 21.1 8.5 17.9 9.1 15.2C9.6 12.5 10.4 10.3 11.5 8.8Z"
    stroke="#7F7F7F"
    stroke-width="2.4"
    stroke-linecap="round"
    stroke-linejoin="round"
  />
</svg>
