<svg width="72" height="57" viewBox="0 0 72 57" fill="none" xmlns="http://www.w3.org/2000/svg">
<style>
  .top-right-art {
    transform-box: view-box;
    transform-origin: center;
    animation: top-right-doodle 2.45s steps(1, end) infinite;
  }

  @keyframes top-right-doodle {
    0%, 100% { transform: translate(0, 0) rotate(0deg); }
    16% { transform: translate(1.2px, -1px) rotate(1.4deg) scale(1.025, 0.985); }
    34% { transform: translate(-1.1px, 0.7px) rotate(-1.2deg) scale(0.985, 1.025); }
    53% { transform: translate(0.8px, 1.1px) rotate(0.9deg) scale(1.02, 1); }
    72% { transform: translate(-1px, -0.8px) rotate(-1.4deg) scale(1, 0.98); }
    88% { transform: translate(1.1px, -0.6px) rotate(1deg) scale(0.985, 1.02); }
  }

  @media (prefers-reduced-motion: reduce) {
    .top-right-art { animation: none; }
  }
</style>
<g class="top-right-art">
<path d="M38.8508 12.2832C38.8508 11.4548 38.1793 10.7832 37.3508 10.7832C36.5224 10.7832 35.8508 11.4548 35.8508 12.2832H37.3508H38.8508ZM37.3508 12.3832H35.8508V12.4128L35.852 12.4425L37.3508 12.3832ZM37.4045 23.4114L38.8983 23.5477L38.8992 23.5378L38.9 23.528L37.4045 23.4114ZM37.3508 23.9996L35.8571 23.8633L35.8508 23.9313V23.9996H37.3508ZM35.8508 24.0996C35.8508 24.928 36.5224 25.5996 37.3508 25.5996C38.1793 25.5996 38.8508 24.928 38.8508 24.0996H37.3508H35.8508ZM38.8499 42.2438C38.8789 41.4159 38.2311 40.7213 37.4032 40.6924C36.5753 40.6634 35.8807 41.3112 35.8518 42.1391L37.3508 42.1915L38.8499 42.2438ZM37.3474 42.2914L38.8408 42.4316L38.8449 42.3878L38.8464 42.3438L37.3474 42.2914ZM37.0423 47.4039L38.5423 47.394L37.0423 47.4039ZM37.0287 50.8855L35.5289 50.864L37.0287 50.8855ZM37.019 55.1372L36.0208 56.2568L36.4252 56.6173L36.9666 56.6363L37.019 55.1372ZM36.9022 55.033L37.9004 53.9134L35.5147 51.7865L35.4031 54.9807L36.9022 55.033ZM35.3996 55.0806C35.3707 55.9085 36.0184 56.6031 36.8463 56.6321C37.6743 56.661 38.3689 56.0133 38.3978 55.1853L36.8987 55.133L35.3996 55.0806ZM30.3794 35.4052C31.2078 35.4052 31.8794 34.7337 31.8794 33.9052C31.8794 33.0768 31.2078 32.4052 30.3794 32.4052V33.9052V35.4052ZM30.2794 33.9052L30.2463 35.4049L30.2628 35.4052H30.2794V33.9052ZM25.1594 33.8174L25.1708 32.3174L25.1594 33.8174ZM15.7981 33.7538L15.4632 32.2916L15.4351 32.2981L15.4073 32.3056L15.7981 33.7538ZM15.2367 33.9052V35.4052H15.4355L15.6275 35.3535L15.2367 33.9052ZM15.1367 32.4052C14.3083 32.4052 13.6367 33.0768 13.6367 33.9052C13.6367 34.7337 14.3083 35.4052 15.1367 35.4052V33.9052V32.4052ZM46.4492 32.4052C45.6208 32.4052 44.9492 33.0768 44.9492 33.9052C44.9492 34.7337 45.6208 35.4052 46.4492 35.4052V33.9052V32.4052ZM46.5492 33.9052L46.5854 32.4057L46.5673 32.4052H46.5492V33.9052ZM55.1492 34.0376L55.105 32.5383L55.1492 34.0376ZM60.9714 33.9084L60.9794 35.4084L60.9809 35.4084L60.9714 33.9084ZM61.4737 33.9052V32.4052L61.4642 32.4053L61.4737 33.9052ZM61.5737 35.4052C62.4021 35.4052 63.0737 34.7337 63.0737 33.9052C63.0737 33.0768 62.4021 32.4052 61.5737 32.4052V33.9052V35.4052ZM42.3265 27.0447C41.7352 27.6249 41.7261 28.5746 42.3063 29.1659C42.8865 29.7572 43.8362 29.7663 44.4275 29.1861L43.377 28.1154L42.3265 27.0447ZM43.4484 28.0454L44.4989 29.1161L44.5029 29.1122L43.4484 28.0454ZM47.0332 24.3884L48.136 25.4052L47.0332 24.3884ZM49.0232 22.6375L49.7769 23.9344L49.0232 22.6375ZM49.7358 22.0692L50.8065 21.0187L50.465 20.6706L49.984 20.5899L49.7358 22.0692ZM49.5681 22.0411L48.5176 20.9704L46.4152 23.0332L49.32 23.5204L49.5681 22.0411ZM50.69 23.0418C51.2814 22.4616 51.2904 21.5119 50.7102 20.9206C50.13 20.3292 49.1803 20.3202 48.589 20.9003L49.6395 21.9711L50.69 23.0418ZM45.4325 40.1339C44.957 39.4555 44.0216 39.291 43.3432 39.7665C42.6648 40.242 42.5003 41.1774 42.9758 41.8558L44.2041 40.9949L45.4325 40.1339ZM44.2615 41.0767L45.5769 40.3558L45.5373 40.2834L45.4899 40.2158L44.2615 41.0767ZM47.0046 44.9149L45.5675 45.3447L47.0046 44.9149ZM47.2213 45.4167L48.0822 46.645L48.7365 46.1865L48.721 45.3876L47.2213 45.4167ZM47.2189 45.2962L48.4473 44.4353L45.6237 40.4068L45.7192 45.3253L47.2189 45.2962ZM46.048 46.239C46.5234 46.9174 47.4588 47.0819 48.1372 46.6065C48.8156 46.131 48.9801 45.1956 48.5046 44.5172L47.2763 45.3781L46.048 46.239ZM30.233 41.5202C30.8709 40.9916 30.9595 40.046 30.431 39.4081C29.9024 38.7702 28.9568 38.6816 28.3189 39.2101L29.276 40.3651L30.233 41.5202ZM29.1989 40.4289L29.9546 41.7247L30.0611 41.6626L30.156 41.584L29.1989 40.4289ZM27.355 41.9535L28.6095 42.7757L27.355 41.9535ZM26.5304 42.9117L25.7006 41.6622L26.5304 42.9117ZM26.1297 43.0793L24.6563 42.7979L24.5238 43.4921L24.9747 44.0363L26.1297 43.0793ZM26.154 42.9519L27.6274 43.2332L28.41 39.1346L25.197 41.7969L26.154 42.9519ZM25.12 41.8607C24.4821 42.3892 24.3934 43.3348 24.922 43.9727C25.4505 44.6106 26.3961 44.6993 27.034 44.1707L26.077 43.0157L25.12 41.8607ZM30.1893 29.1379C30.754 29.744 31.7031 29.7776 32.3092 29.2129C32.9154 28.6481 32.9489 27.699 32.3842 27.0929L31.2867 28.1154L30.1893 29.1379ZM31.2185 28.0422L32.316 27.0197L32.2991 27.0015L32.2816 26.984L31.2185 28.0422ZM28.0614 24.3659L26.8698 25.2771L28.0614 24.3659ZM27.6349 24.0128L26.6124 22.9154L26.2271 23.2743L26.1508 23.7953L27.6349 24.0128ZM27.6117 24.1711L26.5143 25.1936L28.6429 27.4783L29.0959 24.3887L27.6117 24.1711ZM28.641 23.0754C28.0763 22.4693 27.1271 22.4358 26.521 23.0005C25.9149 23.5652 25.8814 24.5144 26.4461 25.1205L27.5435 24.0979L28.641 23.0754ZM37.3508 12.2832H35.8508V12.3832H37.3508H38.8508V12.2832H37.3508ZM37.3508 12.3832L35.852 12.4425C35.9404 14.6781 35.9247 16.3022 35.8217 17.3575L37.3146 17.5032L38.8076 17.6489C38.931 16.3842 38.9395 14.595 38.8497 12.3239L37.3508 12.3832ZM37.3146 17.5032L35.8217 17.3575C35.6994 18.6106 35.6947 19.8644 35.8075 21.1177L37.3015 20.9832L38.7954 20.8487C38.6994 19.782 38.7034 18.7158 38.8076 17.6489L37.3146 17.5032ZM37.3015 20.9832L35.8075 21.1177C35.9124 22.2827 35.9339 22.9766 35.909 23.2948L37.4045 23.4114L38.9 23.528C38.9467 22.9286 38.8994 22.0037 38.7954 20.8487L37.3015 20.9832ZM37.4045 23.4114L35.9107 23.2751L35.8571 23.8633L37.3508 23.9996L38.8446 24.1359L38.8983 23.5477L37.4045 23.4114ZM37.3508 23.9996H35.8508V24.0996H37.3508H38.8508V23.9996H37.3508ZM37.3508 42.1915L35.8518 42.1391L35.8483 42.239L37.3474 42.2914L38.8464 42.3438L38.8499 42.2438L37.3508 42.1915ZM37.3474 42.2914L35.8539 42.1512C35.6417 44.4112 35.5342 46.1756 35.5423 47.4137L37.0423 47.4039L38.5423 47.394C38.5351 46.3102 38.631 44.6662 38.8408 42.4316L37.3474 42.2914ZM37.0423 47.4039L35.5423 47.4137C35.5499 48.5642 35.5454 49.7143 35.5289 50.864L37.0287 50.8855L38.5286 50.9071C38.5454 49.7365 38.55 48.5654 38.5423 47.394L37.0423 47.4039ZM37.0287 50.8855L35.5289 50.864C35.5119 52.0464 35.5261 53.0816 35.5737 53.9643L37.0715 53.8835L38.5694 53.8028C38.5265 53.0084 38.5122 52.0449 38.5286 50.9071L37.0287 50.8855ZM37.0715 53.8835L35.5737 53.9643C35.5957 54.3732 35.5992 54.6287 35.5936 54.7631C35.5902 54.8448 35.5859 54.8075 35.6073 54.7167C35.6149 54.6845 35.6538 54.5144 35.7772 54.3186C35.8972 54.1282 36.3083 53.6114 37.0714 53.6381L37.019 55.1372L36.9666 56.6363C37.7498 56.6636 38.1789 56.1344 38.3151 55.9184C38.4546 55.697 38.5077 55.4882 38.5275 55.4041C38.5733 55.2095 38.5857 55.0159 38.591 54.8886C38.6029 54.6052 38.5925 54.2324 38.5694 53.8028L37.0715 53.8835ZM37.019 55.1372L38.0172 54.0175L37.9004 53.9134L36.9022 55.033L35.904 56.1527L36.0208 56.2568L37.019 55.1372ZM36.9022 55.033L35.4031 54.9807L35.3996 55.0806L36.8987 55.133L38.3978 55.1853L38.4013 55.0854L36.9022 55.033ZM30.3794 33.9052V32.4052H30.2794V33.9052V35.4052H30.3794V33.9052ZM30.2794 33.9052L30.3125 32.4056C28.0573 32.3558 26.3419 32.3263 25.1708 32.3174L25.1594 33.8174L25.148 35.3174C26.2969 35.3261 27.9948 35.3552 30.2463 35.4049L30.2794 33.9052ZM25.1594 33.8174L25.1708 32.3174C24.0027 32.3086 22.8346 32.3091 21.6665 32.3192L21.6794 33.8191L21.6923 35.3191C22.8442 35.3092 23.9961 35.3086 25.148 35.3174L25.1594 33.8174ZM21.6794 33.8191L21.6665 32.3192C20.5441 32.3288 19.4217 32.2963 18.2991 32.2215L18.1994 33.7182L18.0997 35.2149C19.2971 35.2946 20.4947 35.3294 21.6923 35.3191L21.6794 33.8191ZM18.1994 33.7182L18.2991 32.2215C17.1519 32.1451 16.1456 32.1354 15.4632 32.2916L15.7981 33.7538L16.1329 35.2159C16.3323 35.1703 16.9269 35.1368 18.0997 35.2149L18.1994 33.7182ZM15.7981 33.7538L15.4073 32.3056L14.846 32.457L15.2367 33.9052L15.6275 35.3535L16.1888 35.202L15.7981 33.7538ZM15.2367 33.9052V32.4052H15.1367V33.9052V35.4052H15.2367V33.9052ZM46.4492 33.9052V35.4052H46.5492V33.9052V32.4052H46.4492V33.9052ZM46.5492 33.9052L46.513 35.4048C48.7657 35.4591 50.4692 35.5033 51.6252 35.5372L51.6692 34.0379L51.7132 32.5385C50.5492 32.5043 48.8394 32.46 46.5854 32.4057L46.5492 33.9052ZM51.6692 34.0379L51.6252 35.5372C52.8146 35.5721 54.004 35.5721 55.1934 35.537L55.1492 34.0376L55.105 32.5383C53.9744 32.5716 52.8438 32.5717 51.7132 32.5385L51.6692 34.0379ZM55.1492 34.0376L55.1934 35.537C56.3494 35.5029 57.5054 35.4734 58.6614 35.4486L58.6292 33.949L58.597 32.4493C57.433 32.4743 56.269 32.504 55.105 32.5383L55.1492 34.0376ZM58.6292 33.949L58.6614 35.4486C59.8231 35.4237 60.5919 35.4104 60.9794 35.4084L60.9714 33.9084L60.9635 32.4084C60.548 32.4106 59.7553 32.4244 58.597 32.4493L58.6292 33.949ZM60.9714 33.9084L60.9809 35.4084L61.4832 35.4052L61.4737 33.9052L61.4642 32.4053L60.962 32.4084L60.9714 33.9084ZM61.4737 33.9052V35.4052H61.5737V33.9052V32.4052H61.4737V33.9052ZM43.377 28.1154L44.4275 29.1861L44.4989 29.1161L43.4484 28.0454L42.3979 26.9747L42.3265 27.0447L43.377 28.1154ZM43.4484 28.0454L44.5029 29.1122C46.1097 27.5238 47.3245 26.2853 48.136 25.4052L47.0332 24.3884L45.9305 23.3716C45.1673 24.1993 43.9922 25.3987 42.3939 26.9786L43.4484 28.0454ZM47.0332 24.3884L48.136 25.4052C48.8932 24.584 49.4347 24.1332 49.7769 23.9344L49.0232 22.6375L48.2695 21.3406C47.5331 21.7686 46.7479 22.4851 45.9305 23.3716L47.0332 24.3884ZM49.0232 22.6375L49.7769 23.9344C50.0585 23.7708 50.332 23.5998 50.541 23.4331C50.6271 23.3645 50.8144 23.2105 50.9677 22.9851C51.0428 22.8747 51.1946 22.6262 51.2357 22.2731C51.286 21.8412 51.1531 21.3719 50.8065 21.0187L49.7358 22.0692L48.6651 23.1197C48.3346 22.7829 48.2083 22.3338 48.2558 21.9261C48.2941 21.597 48.4336 21.3766 48.4871 21.298C48.5971 21.1363 48.7033 21.0616 48.6706 21.0876C48.6421 21.1103 48.5272 21.1908 48.2695 21.3406L49.0232 22.6375ZM49.7358 22.0692L49.984 20.5899L49.8163 20.5618L49.5681 22.0411L49.32 23.5204L49.4877 23.5486L49.7358 22.0692ZM49.5681 22.0411L50.6186 23.1118L50.69 23.0418L49.6395 21.9711L48.589 20.9003L48.5176 20.9704L49.5681 22.0411ZM44.2041 40.9949L42.9758 41.8558L43.0332 41.9377L44.2615 41.0767L45.4899 40.2158L45.4325 40.1339L44.2041 40.9949ZM44.2615 41.0767L42.9462 41.7977C43.6257 43.0376 44.3116 44.0554 45.019 44.7195L46.0457 43.626L47.0725 42.5325C46.7169 42.1986 46.2133 41.5168 45.5769 40.3558L44.2615 41.0767ZM46.0457 43.626L45.019 44.7195C45.2415 44.9285 45.3888 45.0944 45.4806 45.2178C45.5766 45.3469 45.5801 45.3869 45.5675 45.3447L47.0046 44.9149L48.4417 44.4851C48.2153 43.7283 47.6468 43.0717 47.0725 42.5325L46.0457 43.626ZM47.0046 44.9149L45.5675 45.3447C45.6244 45.5351 45.6898 45.7369 45.7625 45.9052C45.7899 45.9687 45.8654 46.142 45.9983 46.3147C46.0543 46.3874 46.2295 46.608 46.5414 46.7621C46.9585 46.9682 47.5599 47.0111 48.0822 46.645L47.2213 45.4167L46.3603 44.1884C46.5723 44.0398 46.8448 43.9325 47.1556 43.9204C47.4552 43.9087 47.7008 43.9888 47.8702 44.0725C48.1708 44.221 48.3334 44.4299 48.3758 44.485C48.4386 44.5665 48.4754 44.6338 48.4891 44.6595C48.5056 44.6905 48.5147 44.7114 48.5167 44.7159C48.5171 44.7169 48.4925 44.655 48.4417 44.4851L47.0046 44.9149ZM47.2213 45.4167L48.721 45.3876L48.7186 45.2671L47.2189 45.2962L45.7192 45.3253L45.7215 45.4458L47.2213 45.4167ZM47.2189 45.2962L45.9906 46.1572L46.048 46.239L47.2763 45.3781L48.5046 44.5172L48.4473 44.4353L47.2189 45.2962ZM29.276 40.3651L28.3189 39.2101L28.2419 39.2739L29.1989 40.4289L30.156 41.584L30.233 41.5202L29.276 40.3651ZM29.1989 40.4289L28.4433 39.1332C27.47 39.7008 26.6113 40.3517 26.1004 41.1313L27.355 41.9535L28.6095 42.7757C28.734 42.5858 29.1047 42.2203 29.9546 41.7247L29.1989 40.4289ZM27.355 41.9535L26.1004 41.1313C25.9651 41.3378 25.856 41.4824 25.7735 41.5782C25.6848 41.6814 25.6598 41.6893 25.7006 41.6622L26.5304 42.9117L27.3602 44.1613C27.8619 43.8281 28.275 43.2862 28.6095 42.7757L27.355 41.9535ZM26.5304 42.9117L25.7006 41.6622C25.6055 41.7253 25.6096 41.7137 25.6776 41.6853C25.7021 41.675 25.8449 41.6142 26.0552 41.5974C26.2496 41.5819 26.8411 41.5868 27.2847 42.1222L26.1297 43.0793L24.9747 44.0363C25.4359 44.5929 26.0572 44.6068 26.2938 44.5879C26.5462 44.5677 26.7435 44.4913 26.8348 44.4531C27.0364 44.3688 27.2233 44.2522 27.3602 44.1613L26.5304 42.9117ZM26.1297 43.0793L27.6031 43.3606L27.6274 43.2332L26.154 42.9519L24.6806 42.6706L24.6563 42.7979L26.1297 43.0793ZM26.154 42.9519L25.197 41.7969L25.12 41.8607L26.077 43.0157L27.034 44.1707L27.111 44.1069L26.154 42.9519ZM31.2867 28.1154L32.3842 27.0929L32.316 27.0197L31.2185 28.0422L30.1211 29.0648L30.1893 29.1379L31.2867 28.1154ZM31.2185 28.0422L32.2816 26.984C31.3078 26.0058 30.6456 25.2731 30.2582 24.7676L29.0676 25.68L27.877 26.5923C28.3844 27.2545 29.1561 28.0967 30.1555 29.1005L31.2185 28.0422ZM29.0676 25.68L30.2582 24.7676C29.8109 24.1839 29.4759 23.7464 29.253 23.4548L28.0614 24.3659L26.8698 25.2771C27.0937 25.5699 27.4295 26.0084 27.877 26.5923L29.0676 25.68ZM28.0614 24.3659L29.253 23.4548C29.1262 23.289 28.951 23.0747 28.7439 22.9032C28.6514 22.8266 28.4371 22.6594 28.1271 22.5663C27.7523 22.4538 27.1266 22.4362 26.6124 22.9154L27.6349 24.0128L28.6575 25.1103C28.4505 25.3031 28.1878 25.4341 27.9011 25.4805C27.6322 25.524 27.4088 25.4829 27.2646 25.4396C27.0053 25.3618 26.852 25.2316 26.8306 25.2139C26.7656 25.1601 26.7732 25.1507 26.8698 25.2771L28.0614 24.3659ZM27.6349 24.0128L26.1508 23.7953L26.1276 23.9536L27.6117 24.1711L29.0959 24.3887L29.1191 24.2304L27.6349 24.0128ZM27.6117 24.1711L28.7092 23.1486L28.641 23.0754L27.5435 24.0979L26.4461 25.1205L26.5143 25.1936L27.6117 24.1711Z" fill="#B9372E"/>
<path d="M64.4516 1.30078C64.4516 0.582811 63.8696 0.000781298 63.1516 0.000781298C62.4336 0.000781298 61.8516 0.582811 61.8516 1.30078H63.1516H64.4516ZM63.1516 1.40078H61.8516V1.4336L61.8533 1.46638L63.1516 1.40078ZM63.1088 7.28078L61.8171 7.42743L63.1088 7.28078ZM63.1409 15.9768L61.8416 16.0196L61.8419 16.0292L61.8424 16.0387L63.1409 15.9768ZM63.1516 16.2008H64.4516V16.1698L64.4501 16.1388L63.1516 16.2008ZM61.8516 16.3008C61.8516 17.0188 62.4336 17.6008 63.1516 17.6008C63.8696 17.6008 64.4516 17.0188 64.4516 16.3008H63.1516H61.8516ZM54.796 6.79732C54.0784 6.77621 53.4795 7.34088 53.4584 8.05854C53.4373 8.7762 54.0019 9.37509 54.7196 9.3962L54.7578 8.09676L54.796 6.79732ZM54.8578 8.0997L54.8196 9.39914L54.8786 9.40087L54.9375 9.39725L54.8578 8.0997ZM60.7328 8.35514L60.5358 9.64012L60.7328 8.35514ZM69.7917 8.55815L69.7018 7.26127L69.7917 8.55815ZM70.4817 8.53473L70.7537 9.80596L71.7512 9.59255L71.7812 8.57295L70.4817 8.53473ZM70.381 8.55627L70.1091 7.28504L70.3428 9.85571L70.381 8.55627ZM70.4428 9.85865C71.1604 9.87975 71.7593 9.31509 71.7804 8.59743C71.8015 7.87977 71.2369 7.28088 70.5192 7.25977L70.481 8.55921L70.4428 9.85865ZM68.2798 4.53642C68.7581 4.00091 68.7117 3.17911 68.1762 2.70087C67.6407 2.22263 66.8189 2.26905 66.3406 2.80455L67.3102 3.67049L68.2798 4.53642ZM67.2436 3.74507L68.1106 4.71372L68.1648 4.66523L68.2132 4.611L67.2436 3.74507ZM58.7429 12.9435L57.7676 12.084L58.7429 12.9435ZM58.3825 13.5105L57.5165 14.4801L57.9059 14.8279L58.4277 14.8097L58.3825 13.5105ZM58.5269 13.5055L59.4966 14.3714L61.5248 12.1003L58.4817 12.2063L58.5269 13.5055ZM57.4907 12.7141C57.0125 13.2496 57.0589 14.0714 57.5944 14.5497C58.1299 15.0279 58.9517 14.9815 59.43 14.446L58.4603 13.5801L57.4907 12.7141ZM58.9496 3.45631C58.3935 3.0022 57.5745 3.0849 57.1204 3.64102C56.6663 4.19713 56.749 5.01608 57.3051 5.47019L58.1274 4.46325L58.9496 3.45631ZM58.2048 4.5265L59.1098 3.59321L59.07 3.55462L59.0271 3.51956L58.2048 4.5265ZM64.6881 9.66535L63.7989 10.6137L64.6881 9.66535ZM69.1815 13.6664L69.9813 14.6912L70.3495 14.4039L70.4506 13.948L69.1815 13.6664ZM69.2147 13.5168L70.0369 12.5099L68.4026 11.1753L67.9455 13.2352L69.2147 13.5168ZM68.4699 14.587C69.026 15.0411 69.845 14.9584 70.2991 14.4023C70.7532 13.8462 70.6705 13.0272 70.1144 12.5731L69.2921 13.5801L68.4699 14.587ZM63.1516 1.30078H61.8516V1.40078H63.1516H64.4516V1.30078H63.1516ZM63.1516 1.40078L61.8533 1.46638C61.9294 2.97368 61.9141 4.04643 61.83 4.73L63.1202 4.88878L64.4105 5.04757C64.5226 4.13647 64.5282 2.88388 64.4499 1.33518L63.1516 1.40078ZM63.1202 4.88878L61.83 4.73C61.7194 5.62862 61.7151 6.52847 61.8171 7.42743L63.1088 7.28078L64.4005 7.13413C64.3215 6.43843 64.3248 5.74361 64.4105 5.04757L63.1202 4.88878ZM63.1088 7.28078L61.8171 7.42743C61.9044 8.19651 61.9662 8.96534 62.0024 9.73397L63.301 9.67278L64.5995 9.61159C64.5606 8.78555 64.4943 7.95972 64.4005 7.13413L63.1088 7.28078ZM63.301 9.67278L62.0024 9.73397C62.0372 10.4715 62.021 11.209 61.9539 11.9471L63.2486 12.0648L64.5433 12.1825C64.6211 11.3258 64.6399 10.4688 64.5995 9.61159L63.301 9.67278ZM63.2486 12.0648L61.9539 11.9471C61.8781 12.7817 61.8384 13.6165 61.8351 14.4515L63.1351 14.4568L64.435 14.462C64.4381 13.7024 64.4742 12.9426 64.5433 12.1825L63.2486 12.0648ZM63.1351 14.4568L61.8351 14.4515C61.8319 15.2412 61.8335 15.7745 61.8416 16.0196L63.1409 15.9768L64.4402 15.9339C64.434 15.7471 64.4318 15.267 64.435 14.462L63.1351 14.4568ZM63.1409 15.9768L61.8424 16.0387L61.8531 16.2627L63.1516 16.2008L64.4501 16.1388L64.4394 15.9148L63.1409 15.9768ZM63.1516 16.2008H61.8516V16.3008H63.1516H64.4516V16.2008H63.1516ZM54.7578 8.09676L54.7196 9.3962L54.8196 9.39914L54.8578 8.0997L54.896 6.80026L54.796 6.79732L54.7578 8.09676ZM54.8578 8.0997L54.9375 9.39725C56.4515 9.3042 57.5365 9.29794 58.2322 9.36032L58.3483 8.06551L58.4644 6.7707C57.5689 6.69042 56.3269 6.70695 54.778 6.80215L54.8578 8.0997ZM58.3483 8.06551L58.2322 9.36032C59.0005 9.4292 59.7684 9.52246 60.5358 9.64012L60.7328 8.35514L60.9298 7.07015C60.109 6.9443 59.2872 6.84448 58.4644 6.7707L58.3483 8.06551ZM60.7328 8.35514L60.5358 9.64012C61.4578 9.78149 62.3846 9.78464 63.3118 9.65042L63.1256 8.36383L62.9393 7.07724C62.2644 7.17494 61.596 7.17229 60.9298 7.07015L60.7328 8.35514ZM63.1256 8.36383L63.3118 9.65042C64.0241 9.54732 64.7314 9.51957 65.4353 9.56627L65.5214 8.26912L65.6075 6.97197C64.7191 6.91304 63.8293 6.94842 62.9393 7.07724L63.1256 8.36383ZM65.5214 8.26912L65.4353 9.56627C66.2135 9.61789 66.9913 9.6857 67.7687 9.76968L67.9083 8.4772L68.0479 7.18472C67.235 7.09689 66.4215 7.02598 65.6075 6.97197L65.5214 8.26912ZM67.9083 8.4772L67.7687 9.76968C68.5934 9.85878 69.309 9.89475 69.8817 9.85503L69.7917 8.55815L69.7018 7.26127C69.3536 7.28542 68.8135 7.26742 68.0479 7.18472L67.9083 8.4772ZM69.7917 8.55815L69.8817 9.85503C70.1086 9.8393 70.2625 9.83069 70.3537 9.82759C70.4044 9.82587 70.4099 9.82683 70.3907 9.82612C70.3836 9.82586 70.3685 9.8252 70.3481 9.82346C70.3304 9.82196 70.2913 9.81826 70.2407 9.80916C70.2105 9.80373 70.08 9.78076 69.9265 9.70865C69.8506 9.673 69.6895 9.58924 69.5339 9.42369C69.3597 9.23841 69.1698 8.91988 69.1823 8.49651L70.4817 8.53473L71.7812 8.57295C71.8068 7.70097 71.0643 7.37054 71.0317 7.35525C70.8746 7.28148 70.7388 7.25704 70.7015 7.25031C70.601 7.23222 70.5156 7.22896 70.487 7.2279C70.4105 7.22506 70.3297 7.22691 70.2655 7.22909C70.1267 7.2338 69.9354 7.24507 69.7018 7.26127L69.7917 8.55815ZM70.4817 8.53473L70.2097 7.2635L70.1091 7.28504L70.381 8.55627L70.653 9.8275L70.7537 9.80596L70.4817 8.53473ZM70.381 8.55627L70.3428 9.85571L70.4428 9.85865L70.481 8.55921L70.5192 7.25977L70.4193 7.25683L70.381 8.55627ZM67.3102 3.67049L66.3406 2.80455L66.274 2.87914L67.2436 3.74507L68.2132 4.611L68.2798 4.53642L67.3102 3.67049ZM67.2436 3.74507L66.3766 2.77643C65.2158 3.81547 64.3274 4.70476 63.7628 5.42769L64.7873 6.2279L65.8118 7.02812C66.2309 6.49156 66.9801 5.72564 68.1106 4.71372L67.2436 3.74507ZM64.7873 6.2279L63.7628 5.42769C63.2492 6.08527 62.7612 6.76521 62.2989 7.4674L63.3847 8.18229L64.4705 8.89718C64.8946 8.253 65.3417 7.63002 65.8118 7.02812L64.7873 6.2279ZM63.3847 8.18229L62.2989 7.4674C61.9438 8.00666 61.5019 8.46729 60.9661 8.85339L61.7261 9.9081L62.4861 10.9628C63.2752 10.3942 63.9391 9.70428 64.4705 8.89718L63.3847 8.18229ZM61.7261 9.9081L60.9661 8.85339C60.2208 9.39045 59.5534 10.0035 58.967 10.6924L59.9568 11.5351L60.9467 12.3778C61.3943 11.8521 61.9064 11.3805 62.4861 10.9628L61.7261 9.9081ZM59.9568 11.5351L58.967 10.6924C58.4516 11.2977 58.0526 11.7606 57.7676 12.084L58.7429 12.9435L59.7183 13.803C60.0178 13.463 60.428 12.987 60.9467 12.3778L59.9568 11.5351ZM58.7429 12.9435L57.7676 12.084C57.611 12.2617 57.4529 12.4535 57.3366 12.6365C57.2854 12.717 57.1875 12.8791 57.1272 13.087C57.0902 13.2147 56.905 13.934 57.5165 14.4801L58.3825 13.5105L59.2484 12.5409C59.5249 12.7879 59.6367 13.0994 59.6635 13.3462C59.6873 13.5657 59.6465 13.7346 59.6244 13.811C59.5996 13.8965 59.5711 13.9562 59.558 13.9824C59.5433 14.0116 59.5324 14.0288 59.5307 14.0314C59.5282 14.0354 59.5395 14.0176 59.5751 13.9727C59.6088 13.9301 59.6557 13.874 59.7183 13.803L58.7429 12.9435ZM58.3825 13.5105L58.4277 14.8097L58.5722 14.8047L58.5269 13.5055L58.4817 12.2063L58.3372 12.2113L58.3825 13.5105ZM58.5269 13.5055L57.5573 12.6395L57.4907 12.7141L58.4603 13.5801L59.43 14.446L59.4966 14.3714L58.5269 13.5055ZM58.1274 4.46325L57.3051 5.47019L57.3826 5.53344L58.2048 4.5265L59.0271 3.51956L58.9496 3.45631L58.1274 4.46325ZM58.2048 4.5265L57.2998 5.45979C58.4169 6.54296 59.3744 7.36592 60.1519 7.87404L60.8631 6.78582L61.5743 5.69761C61.0094 5.32842 60.1947 4.64516 59.1098 3.59321L58.2048 4.5265ZM60.8631 6.78582L60.1519 7.87404C60.8065 8.30186 61.4497 8.74353 62.0814 9.19904L62.8417 8.14458L63.6021 7.09011C62.938 6.61126 62.262 6.1471 61.5743 5.69761L60.8631 6.78582ZM62.8417 8.14458L62.0814 9.19904C62.6841 9.63362 63.2565 10.1051 63.7989 10.6137L64.6881 9.66535L65.5773 8.71703C64.9537 8.13228 64.2952 7.58989 63.6021 7.09011L62.8417 8.14458ZM64.6881 9.66535L63.7989 10.6137C64.388 11.1661 64.982 11.7124 65.5811 12.2527L66.4518 11.2874L67.3225 10.322C66.7359 9.79296 66.1542 9.25797 65.5773 8.71703L64.6881 9.66535ZM66.4518 11.2874L65.5811 12.2527C66.1636 12.7781 66.7382 13.3132 67.3048 13.8581L68.2059 12.9211L69.107 11.984C68.5204 11.42 67.9255 10.866 67.3225 10.322L66.4518 11.2874ZM68.2059 12.9211L67.3048 13.8581C67.6019 14.1438 67.8702 14.386 68.0931 14.5563C68.1963 14.6352 68.3462 14.7427 68.518 14.8249C68.6002 14.8642 68.7585 14.9329 68.9636 14.9613C69.1639 14.9891 69.5865 14.9993 69.9813 14.6912L69.1815 13.6664L68.3817 12.6416C68.758 12.3479 69.1544 12.3629 69.3205 12.386C69.4915 12.4097 69.6078 12.464 69.6401 12.4795C69.7121 12.514 69.7308 12.5356 69.6715 12.4902C69.5692 12.4121 69.3865 12.2528 69.107 11.984L68.2059 12.9211ZM69.1815 13.6664L70.4506 13.948L70.4838 13.7984L69.2147 13.5168L67.9455 13.2352L67.9124 13.3848L69.1815 13.6664ZM69.2147 13.5168L68.3924 14.5237L68.4699 14.587L69.2921 13.5801L70.1144 12.5731L70.0369 12.5099L69.2147 13.5168Z" fill="#B9372E"/>
<path d="M9.13869 8.80078C9.13869 8.08281 8.55666 7.50078 7.83869 7.50078C7.12071 7.50078 6.53868 8.08281 6.53868 8.80078H7.83869H9.13869ZM7.83869 8.90078H6.53868V8.9336L6.54034 8.96638L7.83869 8.90078ZM7.79591 14.7808L9.08761 14.6341L7.79591 14.7808ZM7.82214 21.9568L9.12213 21.962V21.962L7.82214 21.9568ZM7.828 23.4768L6.5287 23.5196L6.52902 23.5292L6.52947 23.5387L7.828 23.4768ZM7.83869 23.7008H9.13869V23.6698L9.13721 23.6388L7.83869 23.7008ZM6.53868 23.8008C6.53868 24.5188 7.12071 25.1008 7.83869 25.1008C8.55666 25.1008 9.13869 24.5188 9.13869 23.8008H7.83869H6.53868ZM1.2998 14.7592C0.581835 14.7592 -0.000195265 15.3412 -0.000195265 16.0592C-0.000195265 16.7772 0.581835 17.3592 1.2998 17.3592V16.0592V14.7592ZM1.3998 16.0592V17.3592H1.45886L1.51766 17.3539L1.3998 16.0592ZM15.1681 16.1029H16.4681V15.2523L15.6886 14.9117L15.1681 16.1029ZM15.0681 16.0592V14.7592L14.5475 17.2504L15.0681 16.0592ZM15.1681 17.3592C15.886 17.3592 16.4681 16.7772 16.4681 16.0592C16.4681 15.3412 15.886 14.7592 15.1681 14.7592V16.0592V17.3592ZM12.9545 12.0502C13.4403 11.5215 13.4056 10.6991 12.877 10.2133C12.3483 9.72748 11.526 9.76219 11.0401 10.2908L11.9973 11.1705L12.9545 12.0502ZM11.9296 11.2441L10.9725 10.3644L10.9547 10.3838L10.9377 10.4038L11.9296 11.2441ZM9.50887 13.7566L8.68906 12.7477L9.50887 13.7566ZM7.81961 15.4529L6.80659 14.6381L7.81961 15.4529ZM6.38925 17.3871L5.31376 16.6568L6.38925 17.3871ZM3.73487 19.9583L2.45865 20.2058L2.53886 20.6193L2.84636 20.9072L3.73487 19.9583ZM3.835 20.052L4.79217 20.9317L5.66372 19.9833L4.7235 19.103L3.835 20.052ZM2.81015 19.246C2.32433 19.7746 2.35903 20.597 2.88766 21.0828C3.4163 21.5686 4.23868 21.5339 4.72451 21.0053L3.76733 20.1256L2.81015 19.246ZM5.41259 11.6147C4.90205 11.1099 4.07895 11.1146 3.57414 11.6251C3.06934 12.1357 3.07399 12.9588 3.58453 13.4636L4.49856 12.5391L5.41259 11.6147ZM4.56967 12.6095L5.49861 11.7L5.49122 11.6925L5.4837 11.685L4.56967 12.6095ZM6.95215 15.1608L5.96301 16.0043L6.95215 15.1608ZM10.4035 18.4743L11.2147 17.4585L10.4035 18.4743ZM12.7046 20.5108L12.7191 21.8107L13.2534 21.8047L13.629 21.4248L12.7046 20.5108ZM12.5624 20.5124L12.5478 19.2124L9.43402 19.2473L11.6483 21.4368L12.5624 20.5124ZM11.7194 21.5071C12.23 22.0119 13.0531 22.0072 13.5579 21.4967C14.0627 20.9862 14.0581 20.1631 13.5475 19.6582L12.6335 20.5827L11.7194 21.5071ZM7.83869 8.80078H6.53868V8.90078H7.83869H9.13869V8.80078H7.83869ZM7.83869 8.90078L6.54034 8.96638C6.6165 10.4737 6.60117 11.5464 6.51704 12.23L7.80731 12.3888L9.09758 12.5476C9.2097 11.6365 9.21528 10.3839 9.13703 8.83518L7.83869 8.90078ZM7.80731 12.3888L6.51704 12.23C6.40646 13.1286 6.40215 14.0285 6.50421 14.9274L7.79591 14.7808L9.08761 14.6341C9.00863 13.9384 9.01192 13.2436 9.09758 12.5476L7.80731 12.3888ZM7.79591 14.7808L6.50421 14.9274C6.59152 15.6965 6.65327 16.4653 6.68949 17.234L7.98805 17.1728L9.28661 17.1116C9.24769 16.2856 9.18134 15.4597 9.08761 14.6341L7.79591 14.7808ZM7.98805 17.1728L6.68949 17.234C6.72424 17.9715 6.70811 18.709 6.64103 19.4471L7.93569 19.5648L9.23035 19.6825C9.30822 18.8258 9.327 17.9688 9.28661 17.1116L7.98805 17.1728ZM7.93569 19.5648L6.64103 19.4471C6.56516 20.2817 6.52552 21.1165 6.52215 21.9515L7.82214 21.9568L9.12213 21.962C9.1252 21.2024 9.16126 20.4426 9.23035 19.6825L7.93569 19.5648ZM7.82214 21.9568L6.52215 21.9515C6.51896 22.7412 6.52062 23.2745 6.5287 23.5196L7.828 23.4768L9.12729 23.4339C9.12113 23.2471 9.11888 22.767 9.12213 21.962L7.82214 21.9568ZM7.828 23.4768L6.52947 23.5387L6.54016 23.7627L7.83869 23.7008L9.13721 23.6388L9.12652 23.4148L7.828 23.4768ZM7.83869 23.7008H6.53868V23.8008H7.83869H9.13869V23.7008H7.83869ZM1.2998 16.0592V17.3592H1.3998V16.0592V14.7592H1.2998V16.0592ZM1.3998 16.0592L1.51766 17.3539C3.02827 17.2163 4.11256 17.1782 4.80983 17.2201L4.8878 15.9224L4.96578 14.6248C4.06838 14.5708 2.82734 14.6239 1.28194 14.7646L1.3998 16.0592ZM4.8878 15.9224L4.80983 17.2201C5.57988 17.2663 6.35013 17.337 7.12065 17.432L7.2798 16.1418L7.43896 14.8516C6.61481 14.7499 5.7904 14.6743 4.96578 14.6248L4.8878 15.9224ZM7.2798 16.1418L7.12065 17.432C8.04644 17.5462 8.97289 17.5221 9.89579 17.3607L9.6718 16.0802L9.44782 14.7996C8.77605 14.9171 8.10783 14.9341 7.43896 14.8516L7.2798 16.1418ZM9.6718 16.0802L9.89579 17.3607C10.6047 17.2367 11.3109 17.1882 12.0159 17.2142L12.0638 15.9151L12.1117 14.6159C11.222 14.5831 10.3336 14.6447 9.44782 14.7996L9.6718 16.0802ZM12.0638 15.9151L12.0159 17.2142C12.793 17.2428 13.4826 17.2873 14.0868 17.3466L14.2139 16.0529L14.341 14.7591C13.6731 14.6935 12.9293 14.6461 12.1117 14.6159L12.0638 15.9151ZM14.2139 16.0529L14.0868 17.3466C14.4092 17.3783 14.6717 17.4005 14.8615 17.4105C14.9497 17.4151 15.0578 17.4191 15.1593 17.4152C15.1983 17.4136 15.3079 17.409 15.4353 17.3807C15.4879 17.369 15.6473 17.3321 15.8239 17.2281C15.9781 17.1373 16.4681 16.7922 16.4681 16.1029H15.1681H13.8681C13.8681 15.4173 14.3556 15.0754 14.5048 14.9876C14.6765 14.8865 14.8284 14.8522 14.871 14.8427C14.9338 14.8287 14.9826 14.8232 15.0049 14.8209C15.0305 14.8184 15.0491 14.8175 15.0576 14.8172C15.0795 14.8163 15.0684 14.8177 14.9976 14.814C14.8693 14.8073 14.6548 14.7899 14.341 14.7591L14.2139 16.0529ZM15.1681 16.1029L15.6886 14.9117L15.5886 14.868L15.0681 16.0592L14.5475 17.2504L14.6475 17.2941L15.1681 16.1029ZM15.0681 16.0592V17.3592H15.1681V16.0592V14.7592H15.0681V16.0592ZM11.9973 11.1705L11.0401 10.2908L10.9725 10.3644L11.9296 11.2441L12.8868 12.1238L12.9545 12.0502L11.9973 11.1705ZM11.9296 11.2441L10.9377 10.4038C9.96382 11.5535 9.21906 12.3171 8.68906 12.7477L9.50887 13.7566L10.3287 14.7656C11.0494 14.1799 11.9185 13.2684 12.9216 12.0844L11.9296 11.2441ZM9.50887 13.7566L8.68906 12.7477C7.99322 13.3131 7.36526 13.9435 6.80659 14.6381L7.81961 15.4529L8.83262 16.2676C9.27555 15.7169 9.77376 15.2165 10.3287 14.7656L9.50887 13.7566ZM7.81961 15.4529L6.80659 14.6381C6.28366 15.2883 5.78605 15.9613 5.31376 16.6568L6.38925 17.3871L7.46474 18.1174C7.89801 17.4793 8.35397 16.8628 8.83262 16.2676L7.81961 15.4529ZM6.38925 17.3871L5.31376 16.6568C4.95106 17.1909 4.50265 17.6452 3.96137 18.0236L4.70624 19.0891L5.45112 20.1545C6.24829 19.5972 6.92189 18.9168 7.46474 18.1174L6.38925 17.3871ZM4.70624 19.0891L3.96137 18.0236C3.61424 18.2663 3.31528 18.491 3.09461 18.6885C2.98904 18.783 2.8574 18.9098 2.74485 19.0592C2.68871 19.1338 2.60703 19.2535 2.54203 19.4103C2.48099 19.5575 2.38908 19.8471 2.45865 20.2058L3.73487 19.9583L5.01108 19.7107C5.07524 20.0415 4.98871 20.2977 4.94385 20.4059C4.89503 20.5237 4.84033 20.5987 4.82195 20.6231C4.78494 20.6723 4.77202 20.6765 4.82834 20.6261C4.93147 20.5338 5.12902 20.3797 5.45112 20.1545L4.70624 19.0891ZM3.73487 19.9583L2.84636 20.9072L2.94649 21.001L3.835 20.052L4.7235 19.103L4.62337 19.0093L3.73487 19.9583ZM3.835 20.052L2.87782 19.1724L2.81015 19.246L3.76733 20.1256L4.72451 21.0053L4.79217 20.9317L3.835 20.052ZM4.49856 12.5391L3.58453 13.4636L3.65564 13.5339L4.56967 12.6095L5.4837 11.685L5.41259 11.6147L4.49856 12.5391ZM4.56967 12.6095L3.64072 13.5189C4.70404 14.605 5.47325 15.4301 5.96301 16.0043L6.95215 15.1608L7.9413 14.3172C7.39254 13.6738 6.57343 12.7979 5.49861 11.7L4.56967 12.6095ZM6.95215 15.1608L5.96301 16.0043C6.51135 16.6473 7.09067 17.2594 7.7009 17.8404L8.59735 16.899L9.4938 15.9575C8.94894 15.4387 8.43147 14.892 7.9413 14.3172L6.95215 15.1608ZM8.59735 16.899L7.7009 17.8404C8.30591 18.4165 8.93643 18.9664 9.59232 19.4902L10.4035 18.4743L11.2147 17.4585C10.6175 16.9816 10.0439 16.4812 9.4938 15.9575L8.59735 16.899ZM10.4035 18.4743L9.59232 19.4902C10.2116 19.9847 10.7534 20.429 11.219 20.8236L12.0595 19.8319L12.9001 18.8402C12.4107 18.4254 11.8486 17.9647 11.2147 17.4585L10.4035 18.4743ZM12.0595 19.8319L11.219 20.8236C11.4499 21.0193 11.5791 21.1402 11.6364 21.2005C11.6743 21.2404 11.6344 21.2056 11.5817 21.1193C11.5602 21.0842 11.4757 20.9449 11.4345 20.7354C11.3896 20.5073 11.3724 20.0091 11.7802 19.5967L12.7046 20.5108L13.629 21.4248C14.0486 21.0004 14.035 20.4847 13.9856 20.2334C13.9398 20.0008 13.8426 19.8328 13.8001 19.7634C13.7055 19.6086 13.5909 19.4829 13.5213 19.4096C13.3636 19.2437 13.1466 19.0491 12.9001 18.8402L12.0595 19.8319ZM12.7046 20.5108L12.69 19.2108L12.5478 19.2124L12.5624 20.5124L12.5769 21.8123L12.7191 21.8107L12.7046 20.5108ZM12.5624 20.5124L11.6483 21.4368L11.7194 21.5071L12.6335 20.5827L13.5475 19.6582L13.4764 19.5879L12.5624 20.5124Z" fill="#B9372E"/>
<ellipse cx="37.7456" cy="34.293" rx="2.86377" ry="2.55664" fill="#B9372E"/>
</g>
</svg>
