<svg width="55" height="47" viewBox="0 0 55 47" fill="none" xmlns="http://www.w3.org/2000/svg">
<path d="M49.9093 30.0923L51.4261 28.7887L49.9093 30.0923ZM36.2377 14.7895L34.7218 16.0942L36.2377 14.7895ZM31.586 9.77414L30.171 11.1876L31.586 9.77414ZM21.5339 5.16581L23.5336 5.12988L21.5339 5.16581ZM21.7534 18.8458L19.7639 18.6406L21.7534 18.8458ZM21.5154 25.6858L23.5143 25.6188L21.5154 25.6858ZM21.4903 32.5258L23.4886 32.6075L21.4903 32.5258ZM22.573 43.926L20.8659 44.9679L22.573 43.926ZM25.3418 42.3451L23.7508 41.1332L25.3418 42.3451ZM29.5393 36.9407L27.9713 35.6991L29.5393 36.9407ZM33.3736 31.2711L35.1093 32.2647L33.3736 31.2711ZM41.5798 20.3244L43.262 21.4062L41.5798 20.3244ZM49.4223 9.11212L47.7078 8.0823L49.4223 9.11212ZM47.4076 4.02377L47.0068 2.06433L47.4076 4.02377ZM40.6916 5.32988L41.0544 7.2967L40.6916 5.32988ZM13.7376 10.0272L13.4109 8.05406L13.7376 10.0272ZM10.7792 16.9184L11.42 15.0238L10.7792 16.9184ZM17.1577 19.3888L17.9601 17.5569L17.1577 19.3888ZM23.4875 21.9877L24.2038 20.1204L23.4875 21.9877ZM42.7285 29.1205L43.2404 27.1871L42.7285 29.1205ZM49.1393 31.2289L49.8787 29.3706L49.1393 31.2289ZM52.1828 32.572L50.3125 31.8636L52.1828 32.572ZM49.9093 30.0923L48.3926 31.3959C46.9461 29.7129 45.4237 28.0986 43.8252 26.5527L45.2155 25.1151L46.6059 23.6774C48.2925 25.3085 49.8993 27.0123 51.4261 28.7887L49.9093 30.0923ZM45.2155 25.1151L43.8252 26.5527C42.1217 24.9054 40.5296 23.1567 39.0492 21.3072L40.6106 20.0574L42.172 18.8076C43.5464 20.5247 45.0243 22.1478 46.6059 23.6774L45.2155 25.1151ZM40.6106 20.0574L39.0492 21.3072C37.6366 19.5424 36.1941 17.8048 34.7218 16.0942L36.2377 14.7895L37.7535 13.4848C39.2569 15.2315 40.7297 17.0057 42.172 18.8076L40.6106 20.0574ZM36.2377 14.7895L34.7218 16.0942C33.2663 14.4031 31.7494 12.7676 30.171 11.1876L31.586 9.77414L33.0009 8.36065C34.6492 10.0106 36.2334 11.7187 37.7535 13.4848L36.2377 14.7895ZM31.586 9.77414L30.171 11.1876C28.5358 9.55067 26.9405 7.87742 25.3851 6.16788L26.8645 4.82197L28.3439 3.47607C29.8573 5.1395 31.4096 6.76769 33.0009 8.36065L31.586 9.77414ZM26.8645 4.82197L25.3851 6.16788C24.6732 5.38534 24.07 4.83398 23.5743 4.47279C23.0635 4.10062 22.7701 4.00627 22.6695 3.98849L23.0177 2.01903L23.3659 0.0495761C24.2956 0.213936 25.1584 0.677809 25.9299 1.23996C26.7164 1.81308 27.5215 2.57212 28.3439 3.47607L26.8645 4.82197ZM23.0177 2.01903L22.6695 3.98849C22.7784 4.00774 23.0448 4.01631 23.3339 3.85196C23.4631 3.7785 23.5534 3.69383 23.6101 3.62701C23.6376 3.59461 23.6561 3.56773 23.6673 3.54981C23.673 3.5408 23.6769 3.53381 23.6794 3.52918C23.6807 3.52686 23.6816 3.52509 23.6822 3.52392C23.6828 3.52274 23.6831 3.52213 23.6831 3.52213C23.6831 3.52212 23.6828 3.52268 23.6823 3.52385C23.6818 3.52502 23.6811 3.52676 23.6801 3.52911C23.6782 3.53384 23.6755 3.54081 23.6721 3.55024C23.6653 3.56929 23.6565 3.59684 23.6466 3.63408C23.6265 3.70972 23.6045 3.81543 23.5853 3.95669C23.5463 4.24288 23.5246 4.62866 23.5336 5.12988L21.5339 5.16581L19.5342 5.20173C19.5126 3.99605 19.6127 2.77555 20.0652 1.81611C20.3086 1.29996 20.7089 0.743023 21.3571 0.374544C22.0275 -0.00650528 22.7419 -0.0607473 23.3659 0.0495761L23.0177 2.01903ZM21.5339 5.16581L23.5336 5.12988C23.5739 7.37207 23.6777 9.61437 23.8451 11.8568L21.8507 12.0057L19.8562 12.1546C19.6832 9.83717 19.5759 7.51952 19.5342 5.20173L21.5339 5.16581ZM21.8507 12.0057L23.8451 11.8568C24.0242 14.255 23.99 16.6535 23.7428 19.0509L21.7534 18.8458L19.7639 18.6406C19.9869 16.4779 20.0176 14.3164 19.8562 12.1546L21.8507 12.0057ZM21.7534 18.8458L23.7428 19.0509C23.517 21.241 23.4409 23.4301 23.5143 25.6188L21.5154 25.6858L19.5165 25.7529C19.437 23.3816 19.5195 21.0107 19.7639 18.6406L21.7534 18.8458ZM21.5154 25.6858L23.5143 25.6188C23.5924 27.9483 23.5839 30.278 23.4886 32.6075L21.4903 32.5258L19.4919 32.4441C19.5832 30.2136 19.5914 27.9832 19.5165 25.7529L21.5154 25.6858ZM21.4903 32.5258L23.4886 32.6075C23.3986 34.809 23.4383 37.0104 23.6078 39.2122L21.6137 39.3658L19.6196 39.5193C19.4381 37.1613 19.3955 34.8027 19.4919 32.4441L21.4903 32.5258ZM21.6137 39.3658L23.6078 39.2122C23.6917 40.3019 23.8066 41.1587 23.9424 41.8041C24.0849 42.4814 24.2235 42.7913 24.2802 42.8841L22.573 43.926L20.8659 44.9679C20.4585 44.3005 20.2053 43.4703 20.028 42.6275C19.844 41.7528 19.7113 40.7097 19.6196 39.5193L21.6137 39.3658ZM22.573 43.926L24.2802 42.8841C24.1808 42.7213 23.8828 42.374 23.3387 42.2825C23.1054 42.2433 22.9154 42.2695 22.7965 42.2997C22.6824 42.3286 22.6221 42.3637 22.6215 42.3641C22.6191 42.3655 22.6498 42.3479 22.7145 42.2949C22.778 42.243 22.8618 42.1673 22.9662 42.0612C23.1773 41.8468 23.4384 41.5433 23.7508 41.1332L25.3418 42.3451L26.9328 43.557C26.2231 44.4886 25.442 45.3598 24.6049 45.8378C24.1697 46.0862 23.4855 46.3634 22.6754 46.2271C21.7846 46.0773 21.1972 45.5109 20.8659 44.9679L22.573 43.926ZM25.3418 42.3451L23.7508 41.1332C25.1402 39.3091 26.5471 37.4978 27.9713 35.6991L29.5393 36.9407L31.1072 38.1823C29.6985 39.9613 28.307 41.7529 26.9328 43.557L25.3418 42.3451ZM29.5393 36.9407L27.9713 35.6991C29.3254 33.9891 30.5475 32.1821 31.6379 30.2775L33.3736 31.2711L35.1093 32.2647C33.9202 34.3419 32.5861 36.3147 31.1072 38.1823L29.5393 36.9407ZM33.3736 31.2711L31.6379 30.2775C32.8508 28.1587 34.2816 26.1974 35.9289 24.3958L37.405 25.7454L38.881 27.0949C37.4325 28.6791 36.1758 30.4016 35.1093 32.2647L33.3736 31.2711ZM37.405 25.7454L35.9289 24.3958C37.401 22.7858 38.7235 21.0684 39.8976 19.2426L41.5798 20.3244L43.262 21.4062C41.9653 23.4226 40.5047 25.3191 38.881 27.0949L37.405 25.7454ZM41.5798 20.3244L39.8976 19.2426C41.1665 17.2694 42.5238 15.3603 43.9692 13.5157L45.5435 14.7493L47.1177 15.9829C45.749 17.7296 44.4638 19.5373 43.262 21.4062L41.5798 20.3244ZM45.5435 14.7493L43.9692 13.5157C45.3253 11.7852 46.5714 9.97422 47.7078 8.0823L49.4223 9.11212L51.1368 10.1419C49.9157 12.1749 48.5759 14.122 47.1177 15.9829L45.5435 14.7493ZM49.4223 9.11212L47.7078 8.0823C48.2583 7.16575 48.612 6.43674 48.8106 5.87937C48.9087 5.60383 48.9597 5.39595 48.9828 5.24787C49.0062 5.09823 48.9961 5.04179 48.9979 5.05396L50.9752 4.7533L52.9525 4.45264C53.0955 5.39302 52.8872 6.35541 52.5786 7.22181C52.2595 8.11739 51.765 9.09606 51.1368 10.1419L49.4223 9.11212ZM50.9752 4.7533L48.9979 5.05396C49.0269 5.2445 49.1346 5.48648 49.3415 5.6707C49.5165 5.82648 49.6465 5.83739 49.575 5.82278C49.5053 5.80852 49.3307 5.78847 49.0124 5.80835C48.7016 5.82777 48.3037 5.88189 47.8083 5.98321L47.4076 4.02377L47.0068 2.06433C48.1971 1.82089 49.3765 1.69941 50.3764 1.90387C50.8995 2.01085 51.4934 2.23089 52.0015 2.68333C52.5416 3.1642 52.8518 3.79038 52.9525 4.45264L50.9752 4.7533ZM47.4076 4.02377L47.8083 5.98321C45.5607 6.44289 43.3094 6.88072 41.0544 7.2967L40.6916 5.32988L40.3287 3.36306C42.5584 2.95176 44.7845 2.51885 47.0068 2.06433L47.4076 4.02377ZM40.6916 5.32988L41.0544 7.2967C38.7963 7.71324 36.5335 8.10264 34.2662 8.4649L33.9506 6.48995L33.6351 4.515C35.8709 4.15778 38.1021 3.7738 40.3287 3.36306L40.6916 5.32988ZM33.9506 6.48995L34.2662 8.4649C32.073 8.8153 29.8963 9.26275 27.7357 9.80731L27.2469 7.86797L26.7581 5.92862C29.0327 5.3553 31.3251 4.88407 33.6351 4.515L33.9506 6.48995ZM27.2469 7.86797L27.7357 9.80731C25.4306 10.3883 23.0981 10.8109 20.7386 11.075L20.5161 9.08745L20.2936 7.09986C22.4733 6.85587 24.6279 6.46551 26.7581 5.92862L27.2469 7.86797ZM20.5161 9.08745L20.7386 11.075C18.5038 11.3252 16.2791 11.6336 14.0643 12.0003L13.7376 10.0272L13.4109 8.05406C15.695 7.67587 17.9892 7.3578 20.2936 7.09986L20.5161 9.08745ZM13.7376 10.0272L14.0643 12.0003C11.865 12.3645 9.67975 12.8122 7.50853 13.3435L7.03313 11.4009L6.55772 9.45819C8.82702 8.90285 11.1115 8.43479 13.4109 8.05406L13.7376 10.0272ZM7.03313 11.4009L7.50853 13.3435C5.29542 13.8851 3.95597 14.3408 3.31212 14.6779L2.38445 12.9061L1.45679 11.1342C2.57064 10.5511 4.33031 10.0033 6.55772 9.45819L7.03313 11.4009ZM2.38445 12.9061L3.31212 14.6779C3.31274 14.6776 3.41024 14.6284 3.53453 14.5051C3.66429 14.3764 3.87051 14.1178 3.96076 13.7183C4.16629 12.8086 3.59892 12.2677 3.57474 12.2449C3.51254 12.1864 3.55096 12.2401 3.83441 12.3762C4.08972 12.4988 4.45567 12.647 4.95223 12.8178L4.30179 14.709L3.65136 16.6003C3.06937 16.4002 2.54653 16.195 2.10279 15.9819C1.68719 15.7824 1.2163 15.5179 0.834552 15.1589C0.490814 14.8357 -0.206363 14.0118 0.0590996 12.8368C0.29236 11.8044 1.11579 11.3128 1.45679 11.1342L2.38445 12.9061ZM4.30179 14.709L4.95223 12.8178C7.10611 13.5585 9.26204 14.2939 11.42 15.0238L10.7792 16.9184L10.1383 18.8129C7.97396 18.0808 5.81163 17.3433 3.65136 16.6003L4.30179 14.709ZM10.7792 16.9184L11.42 15.0238C13.636 15.7734 15.8161 16.6177 17.9601 17.5569L17.1577 19.3888L16.3552 21.2208C14.317 20.328 12.2447 19.5254 10.1383 18.8129L10.7792 16.9184ZM17.1577 19.3888L17.9601 17.5569C20.0228 18.4604 22.1041 19.3149 24.2038 20.1204L23.4875 21.9877L22.7711 23.8551C20.6134 23.0273 18.4747 22.1492 16.3552 21.2208L17.1577 19.3888ZM23.4875 21.9877L24.2038 20.1204C26.2768 20.9157 28.3851 21.618 30.5291 22.2275L29.9822 24.1512L29.4354 26.075C27.1772 25.4331 24.9557 24.6931 22.7711 23.8551L23.4875 21.9877ZM29.9822 24.1512L30.5291 22.2275C32.8579 22.8894 35.102 23.7762 37.2596 24.8868L36.3443 26.6651L35.429 28.4433C33.506 27.4535 31.5088 26.6644 29.4354 26.075L29.9822 24.1512ZM36.3443 26.6651L37.2596 24.8868C39.1716 25.871 41.1644 26.6374 43.2404 27.1871L42.7285 29.1205L42.2165 31.0538C39.8609 30.4301 37.5976 29.5596 35.429 28.4433L36.3443 26.6651ZM42.7285 29.1205L43.2404 27.1871C45.5308 27.7936 47.7439 28.5211 49.8787 29.3706L49.1393 31.2289L48.3998 33.0872C46.4186 32.2988 44.3578 31.6208 42.2165 31.0538L42.7285 29.1205ZM49.1393 31.2289L49.8787 29.3706C50.9128 29.782 51.7089 30.1098 52.2511 30.3491C52.515 30.4655 52.758 30.5781 52.9482 30.6793C53.0309 30.7233 53.1776 30.8036 53.3243 30.9107C53.3844 30.9547 53.5533 31.0801 53.7186 31.2804C53.7646 31.3361 54.4776 32.1596 54.0531 33.2804L52.1828 32.572L50.3125 31.8636C50.0987 32.4279 50.1898 32.9358 50.3026 33.2465C50.4081 33.537 50.5568 33.7334 50.6334 33.8262C50.786 34.0112 50.934 34.1183 50.9652 34.1411C51.0539 34.2059 51.11 34.2322 51.0696 34.2107C51.0134 34.1808 50.8795 34.116 50.6362 34.0086C50.1639 33.8002 49.4237 33.4946 48.3998 33.0872L49.1393 31.2289ZM52.1828 32.572L54.0531 33.2804C53.8408 33.8409 53.3637 34.3282 52.6987 34.5076C52.175 34.6488 51.7493 34.5384 51.5896 34.4901C51.2567 34.3893 51.027 34.2224 50.9836 34.1918C50.8308 34.0838 50.7049 33.9654 50.6444 33.9077C50.495 33.7653 50.3135 33.5738 50.1185 33.3611C49.717 32.9231 49.1387 32.2641 48.3926 31.3959L49.9093 30.0923L51.4261 28.7887C52.1666 29.6502 52.7106 30.2693 53.0669 30.6579C53.2507 30.8585 53.3571 30.9674 53.4044 31.0124C53.4422 31.0485 53.3919 30.9957 53.2919 30.925C53.2749 30.913 53.0659 30.7577 52.7481 30.6615C52.5958 30.6154 52.1762 30.5055 51.6572 30.6455C50.9969 30.8236 50.5229 31.3079 50.3125 31.8636L52.1828 32.572Z" fill="#B9372E"/>
</svg>
