<svg width="156" height="40" viewBox="0 0 156 40" fill="none" xmlns="http://www.w3.org/2000/svg">
  <path
    d="M13.8 8.7C22.4 7.3 33 8 43.7 8.1H103.2C115 8 124.5 7.3 130.8 9.1C135.4 10.4 138.1 13.1 137.5 17.2C137.1 20 137.2 22.6 136.8 25.6C136.3 30 132.8 32.1 125.9 32.8C115.8 33.8 104 33.3 91.8 33.3H43.8C33.2 33.3 23.8 33.9 17.4 32.5C12.9 31.5 10.9 28.8 11 24.8C11.1 21.1 10.9 17.8 11.7 14.9C12.3 12.2 13 10.1 13.8 8.7Z"
    stroke="#7F7F7F"
    stroke-width="2.4"
    stroke-linecap="round"
    stroke-linejoin="round"
  />
</svg>
