<svg width="335" height="310" viewBox="0 0 335 310" fill="none" xmlns="http://www.w3.org/2000/svg">
<path d="M242.567 216.403C242.03 216.243 241.694 216.134 241.358 216.05C232.887 213.825 226.33 208.998 221.805 201.509C217.028 193.6 214.568 184.969 214.014 175.768C213.989 175.365 213.972 174.962 213.947 174.559C213.947 174.475 213.888 174.391 213.779 174.13C213.351 174.298 212.922 174.475 212.486 174.634C209.069 175.835 205.652 177.019 202.243 178.236C201.806 178.387 201.32 178.656 201.068 179.008C200.06 180.444 198.658 181.292 197.038 181.77C185.435 185.213 174.688 190.502 164.353 196.715C158.25 200.384 152.121 204.011 145.925 207.528C141.836 209.846 137.605 211.919 133.441 214.111C125.708 218.191 118.068 222.414 111.007 227.619C108.699 229.324 106.331 230.961 103.854 232.405C94.5099 237.837 87.2981 245.485 81.1021 254.183C79.4397 256.517 77.7942 258.885 76.3921 261.378C72.4713 268.38 67.5179 274.618 62.4637 280.797C58.6017 285.507 54.8992 290.343 51.1296 295.129C46.5791 300.905 41.1891 305.615 34.0696 307.907C31.9623 308.587 29.7038 308.99 27.4958 309.091C24.0284 309.242 22.3157 307.286 22.7522 303.852C23.0125 301.82 23.4575 299.788 24.0116 297.815C26.3708 289.411 28.8223 281.041 31.2067 272.645C31.9539 270.026 32.592 267.381 33.2888 264.72C30.4762 265.442 27.7896 266.197 25.0778 266.81C20.88 267.759 16.6738 268.666 12.4508 269.455C10.9311 269.74 9.31918 269.765 7.77438 269.648C2.9049 269.228 0 265.996 0 261.059C0 255.845 1.40208 251.001 4.55884 246.837C8.28652 241.909 12.1821 237.098 16.0777 232.296C20.7373 226.561 26.2364 221.683 32.0546 217.158C33.3895 216.117 34.6741 215.017 36.2776 213.708C35.0771 213.59 34.2207 213.498 33.356 213.414C27.798 212.876 23.256 210.299 19.6542 206.193C16.254 202.323 15.4648 197.47 15.9266 192.551C16.8669 182.509 19.352 172.829 22.7774 163.317C27.9072 149.036 37.3523 138.063 48.5941 128.366C51.0708 126.225 53.6231 124.176 56.0914 122.027C56.6539 121.54 56.9897 120.801 57.3088 120.356C55.8899 120.104 55.2686 118.652 55 117.074C54.1352 111.994 53.2117 106.923 52.624 101.81C52.2966 98.9893 52.4897 96.0928 52.6492 93.2383C52.7247 91.7858 53.1277 90.3166 53.5727 88.9145C56.4524 79.8472 57.2332 70.4776 57.6782 61.0661C57.8377 57.6659 57.9133 54.2572 57.9049 50.8486C57.8881 45.2151 59.0635 39.8419 61.0281 34.5778C62.766 29.9266 64.3024 25.1998 65.822 20.4647C67.5851 14.9655 70.0702 9.82738 73.143 4.9579C74.6038 2.6407 76.5432 0.978355 79.3138 0.331889C83.2262 -0.583238 86.4333 0.373868 89.0863 3.45507C92.6797 7.61932 94.6946 12.5392 95.8616 17.7697C97.801 26.434 99.1192 35.1991 99.2535 44.1237C99.3207 48.3803 99.6565 52.6285 99.8832 56.8767C99.8832 56.9942 99.9755 57.1117 100.068 57.33C100.362 57.053 100.639 56.8431 100.857 56.5828C107.464 49.0435 114.752 42.2514 122.652 36.0554C128.857 31.1943 134.734 25.9135 140.686 20.7333C148.805 13.6726 158.183 8.56803 167.544 3.48026C172.195 0.944772 177.291 0.281515 182.555 1.41493C186.871 2.34685 188.97 4.5633 189.599 8.93744C190.095 12.4384 189.515 15.8303 188.315 19.1046C184.721 28.9443 180.196 38.3306 174.672 47.23C170.516 53.9298 166.469 60.7051 162.288 67.3964C160.743 69.8647 158.972 72.1903 157.251 74.5327C153.011 80.3089 148.863 86.1775 144.431 91.8026C140.048 97.3605 135.363 102.667 130.796 108.073C129.73 109.333 128.622 110.559 127.664 111.969C128.025 111.751 128.395 111.549 128.747 111.323C138.688 105.127 148.066 98.1413 157.477 91.1897C164.068 86.3202 170.785 81.6103 177.384 76.7576C182.329 73.1223 187.215 69.403 192.084 65.6753C195.426 63.1146 198.65 60.4028 202.025 57.8841C203.805 56.5576 205.786 55.4914 207.675 54.316C207.902 54.1733 208.17 54.1061 208.405 53.9718C212.335 51.663 216.247 49.3206 220.21 47.0621C222.065 45.9959 224.013 45.0808 225.919 44.0985C227.548 43.2589 229.151 42.3522 230.813 41.5882C233.206 40.4883 235.641 39.4976 238.051 38.4566C239.73 37.7346 241.442 37.0545 243.088 36.2569C252.718 31.6141 262.65 27.6933 273.077 25.3594C279.643 23.8901 286.418 24.0832 293.168 24.5534C302.462 25.1998 311.731 26.4508 320.53 29.2885C330.789 32.5964 340.478 37.5163 347.731 45.9203C351.896 50.7478 355.094 56.1546 355.64 62.7872C355.892 65.8936 356.547 68.9664 357.067 72.3331C358.184 71.5859 359.192 71.0317 360.073 70.3097C361.215 69.3694 362.373 68.4123 363.305 67.2789C367.57 62.1155 372.843 58.0688 378.006 53.913C382.792 50.051 388.324 47.8429 394.52 47.4399C400.523 47.0537 405.703 49.1023 409.515 53.5856C416.03 61.234 419.019 70.3097 418.364 80.3425C417.894 87.4704 414.939 93.7084 409.918 98.7962C404.536 104.262 398.374 108.619 390.759 110.466C386.721 111.44 382.607 111.549 378.334 111.323C377.696 113.598 375.714 114.622 373.976 115.974C370.769 118.476 367.646 121.112 364.657 123.866C362.432 125.914 360.132 127.736 357.437 129.163C354.154 130.901 352.87 132.866 353.726 136.182C353.961 137.089 354.414 138.079 355.078 138.709C360.997 144.401 364.044 151.319 364.246 159.514C364.38 165.147 363.868 170.663 360.703 175.541C359.443 177.489 358.108 179.453 356.471 181.074C351.795 185.716 346.774 189.839 340.889 193.063C325.668 201.408 311.806 211.651 300.053 224.521C295.855 229.114 291.925 233.966 288.063 238.844C282.262 246.174 275.881 252.949 269.19 259.464C262.062 266.407 254.976 273.392 247.739 280.218C245.246 282.577 242.45 284.651 239.612 286.599C235.641 289.344 231.2 290.016 226.507 288.773C225.86 288.605 225.197 288.463 224.559 288.269C213.065 284.768 208.481 277.002 209.891 264.921C210.823 256.928 213.737 249.549 218.06 242.773C224.483 232.707 232.308 223.908 242.03 216.881C242.173 216.78 242.29 216.646 242.593 216.369L242.567 216.403ZM49.4085 208.192C52.54 207.352 55.6884 206.848 58.5429 205.648C62.7827 203.868 66.8211 201.618 70.9265 199.527C71.9844 198.99 73.0171 198.57 74.0413 199.46C75.1076 200.384 74.99 201.601 74.4107 202.667C73.3865 204.548 72.3034 206.42 71.0609 208.158C67.2324 213.514 63.4376 218.905 59.4077 224.101C51.818 233.908 46.9737 245.233 41.399 256.156C41.1807 256.584 41.0968 257.206 41.2143 257.676C41.5585 259.027 41.038 259.984 40.1648 260.942C39.4764 261.706 38.7208 262.562 38.4185 263.519C35.4968 272.83 32.6087 282.149 29.8466 291.51C28.6292 295.624 27.6973 299.822 26.7234 304.011C26.3708 305.523 26.6058 305.699 28.201 305.699C31.3662 305.699 34.3215 304.876 37.0417 303.281C41.5417 300.628 45.2946 297.127 48.4094 292.954C51.3898 288.966 54.2612 284.903 57.334 280.999C62.0187 275.063 65.9311 268.657 69.5413 262.033C71.9172 257.676 74.352 253.327 77.0554 249.171C83.2094 239.684 90.7739 231.473 100.076 224.958C102.167 223.489 104.291 222.061 106.289 220.466C114.24 214.111 122.963 208.998 131.921 204.22C135.397 202.365 138.856 200.468 142.264 198.486C148.074 195.103 153.859 191.686 159.602 188.202C168.753 182.652 178.383 178.102 188.382 174.307C188.919 174.105 189.482 173.66 189.792 173.173C191.572 170.428 194.04 168.623 197.046 167.431C200.883 165.919 204.661 164.274 208.515 162.813C210.085 162.217 211.764 161.772 213.434 161.621C214.551 161.512 214.937 161.26 215.122 160.152C217.255 147.457 222.317 136.081 230.604 126.183C238.806 116.393 248.713 108.703 260.03 102.876C263.431 101.122 267.058 99.577 270.768 98.6786C278.031 96.924 285.41 95.631 292.773 94.2709C295.838 93.7084 298.936 93.826 301.958 94.7663C307.575 96.5126 311.445 100.366 314.468 105.21C315.089 106.21 315.358 107.368 314.334 108.275C313.931 108.628 313.175 108.787 312.638 108.703C312.352 108.661 312.159 107.914 311.958 107.469C311.798 107.108 311.764 106.68 311.538 106.369C307.659 100.904 302.546 97.7635 295.695 98.8885C287.031 100.307 278.325 101.852 270.105 105.009C257.671 109.786 247.504 117.98 238.739 127.82C229.227 138.491 224.626 151.353 223.173 165.458C222.057 176.305 224.021 186.522 229.16 196.127C233.005 203.297 239.092 207.235 247.101 208.326C249.569 208.662 251.903 208.351 254.153 207.209C255.144 206.706 256.219 206.303 257.302 206.093C258.989 205.757 260.408 206.353 261.349 207.839C262.23 209.224 262.096 210.937 260.946 212.347C260.299 213.145 259.585 213.926 258.763 214.53C256.168 216.436 253.583 218.376 250.846 220.071C247.026 222.439 243.18 224.773 240.024 227.997C236.615 231.49 233.215 235.024 230.1 238.769C224.668 245.3 220.31 252.47 217.96 260.732C217.045 263.939 216.381 267.163 216.499 270.529C216.684 275.634 218.942 279.362 223.711 281.368C225.432 282.09 227.254 282.619 229.067 283.089C231.284 283.669 233.5 283.4 235.448 282.233C237.664 280.898 239.864 279.479 241.862 277.85C249.385 271.713 255.967 264.61 262.549 257.491C270.626 248.759 278.459 239.86 285.318 230.113C287.87 226.494 290.624 222.985 293.596 219.71C301.858 210.601 311.286 202.827 321.47 195.951C327.162 192.114 332.846 188.26 339.168 185.523C345.28 182.879 349.73 178.253 354.121 173.501C354.423 173.173 354.649 172.779 354.859 172.384C358.763 165.105 359.359 157.692 355.85 150.077C354.616 147.399 353.021 145.048 350.796 143.05C347.37 139.977 346.615 135.754 347.337 131.564C347.958 127.963 350.376 124.991 353.55 123.118C356.597 121.313 359.066 119.005 361.215 116.284C364.43 112.221 368.586 109.232 372.65 106.134C374.077 105.043 375.882 105.051 376.94 106.294C377.796 107.301 378.653 107.36 379.761 107.125C380.374 106.99 381.003 106.923 381.625 106.856C389.256 106.1 396.141 103.531 402.194 98.7122C407.248 94.6823 411.219 89.9052 412.739 83.5497C415.157 73.4749 412.546 64.4495 406.249 56.4569C403.991 53.594 400.758 51.982 397.073 51.6546C392.077 51.2096 387.409 52.427 383.27 55.1807C377.654 58.9168 372.65 63.4337 368.116 68.4039C364.951 71.8629 361.693 75.1372 357.731 77.6895C354.952 79.4778 352.525 78.5459 351.988 75.3051C351.409 71.7706 350.67 68.236 350.401 64.6678C349.872 57.6323 346.615 51.9988 341.989 46.953C338.966 43.6619 335.172 41.4286 331.352 39.2626C326.516 36.5256 321.629 33.7382 316.088 32.7727C308.902 31.5134 301.664 30.4723 294.427 29.5404C287.224 28.6085 279.928 28.6505 272.901 30.3967C267.15 31.824 261.6 34.1496 256.051 36.2989C250.543 38.4314 245.246 41.16 239.663 43.0574C233.374 45.1983 227.799 48.7077 221.855 51.5118C217.985 53.3421 214.35 55.6761 210.597 57.775C210.127 58.0353 209.606 58.2032 209.144 58.4718C207.331 59.5213 205.45 60.4784 203.746 61.6874C200.312 64.1221 196.996 66.7248 193.596 69.2099C185.569 75.0784 177.526 80.9386 169.483 86.7736C158.569 94.6907 147.629 102.591 136.715 110.508C132.332 113.69 127.958 116.889 123.609 120.121C120.05 122.774 116.549 125.494 112.997 128.164C111.629 129.188 110.252 129.23 109.152 128.382C108.035 127.526 107.632 125.998 108.422 124.495C109.102 123.202 110.008 122.002 110.965 120.894C113.073 118.45 115.314 116.125 117.438 113.698C121.536 109.005 125.616 104.295 129.663 99.5602C132.341 96.4286 135.053 93.3138 137.588 90.0647C142.575 83.6672 147.47 77.1942 152.373 70.7379C154.027 68.5634 155.731 66.4057 157.192 64.1053C163.027 54.9624 168.854 45.8112 174.529 36.576C178.198 30.6066 181.044 24.2175 183.437 17.6269C184.352 15.1083 184.788 12.514 184.562 9.83578C184.31 6.80494 183.479 5.97377 180.498 5.43645C175.755 4.58009 171.372 5.69672 167.334 8.06429C159.014 12.9422 150.878 18.1223 143.557 24.4358C134.7 32.0759 125.876 39.7663 117.161 47.5575C105.936 57.5903 96.2395 68.958 88.3139 81.7866C84.2672 88.3436 80.2121 94.9006 76.1654 101.458C75.2923 102.868 74.6962 104.346 74.4191 106.042C73.8566 109.492 71.9424 112.473 69.684 114.933C68.2063 116.545 66.8714 118.232 65.4777 119.903C64.2856 121.33 63.043 122.925 61.4646 123.782C59.987 124.571 58.8536 125.57 57.737 126.712C56.1082 128.374 54.4291 129.994 52.8087 131.665C49.4085 135.166 45.8907 138.575 42.6583 142.235C37.856 147.684 33.3644 153.351 30.5854 160.227C26.3036 170.814 23.4491 181.754 22.0974 193.054C21.0731 201.567 26.9669 207.386 33.952 208.284C36.3448 208.595 38.7796 208.704 41.1975 208.779C43.4559 208.846 45.3785 207.864 47.0829 206.454C47.7797 205.874 48.5437 205.933 48.9551 206.756C49.1314 207.109 49.1902 207.512 49.3917 208.175L49.4085 208.192ZM60.5831 116.704C62.8331 112.011 66.9386 108.518 68.6765 103.548C68.9955 102.633 70.045 101.617 70.9601 101.348C71.9844 101.046 72.3874 100.551 72.8156 99.7365C78.1468 89.7876 83.3269 79.7464 89.8839 70.5196C91.009 68.9412 91.5043 67.6147 91.1769 65.4822C90.119 58.5222 89.8504 51.4866 90.3457 44.4343C90.9838 35.3754 90.7319 26.3416 89.397 17.3499C88.8009 13.32 87.6843 9.47476 84.9305 6.28441C83.9986 5.20977 82.9155 4.78998 81.5135 4.78998C78.533 4.78998 76.8623 6.61184 75.5442 8.92065C73.3529 12.7491 71.7577 16.821 70.6243 21.086C69.7092 24.545 68.8276 28.0292 67.6858 31.4126C65.377 38.2299 64.252 45.1563 64.2352 52.3766C64.21 63.5008 63.1018 74.5747 61.1624 85.531C60.2389 90.728 59.4581 95.8493 60.2053 101.13C60.9357 106.277 61.5066 111.448 60.5579 116.679L60.5831 116.704ZM65.8639 207.402C65.696 207.352 65.6457 207.318 65.6205 207.335C58.9207 210.929 51.6585 212.591 44.2115 213.632C43.7078 213.699 43.1705 213.943 42.7759 214.262C39.2161 217.133 35.69 220.038 32.147 222.926C25.0694 228.711 19.4863 235.839 14.0627 243.092C12.1905 245.603 10.461 248.231 8.75667 250.858C6.81728 253.864 5.88536 257.197 5.73424 260.774C5.62509 263.393 6.48984 264.401 9.11769 264.518C10.142 264.56 11.1998 264.518 12.1905 264.308C16.5227 263.36 20.88 262.503 25.145 261.294C28.4865 260.345 31.7104 258.969 34.9343 257.659C35.5472 257.415 36.1013 256.702 36.4036 256.064C39.4428 249.775 42.2134 243.344 45.4793 237.182C50.9113 226.939 57.9468 217.738 64.9572 208.544C65.2427 208.175 65.5281 207.805 65.8472 207.402H65.8639Z" fill="#CACAC9"/>
<path d="M43.4005 196.376C41.0917 199.843 38.0021 201.245 34.0645 200.742C32.6288 200.557 31.3779 200.019 30.5803 198.735C29.7995 197.467 30.0094 196.384 31.3191 195.729C32.7128 195.032 34.182 194.478 35.6429 193.924C37.9265 193.059 40.0338 190.003 39.9163 187.611C39.9079 187.384 39.7232 187.132 39.5637 186.956C39.0599 186.385 38.5058 185.864 38.0021 185.294C36.2474 183.304 36.4992 180.441 38.5562 178.736C39.614 177.863 40.6719 176.99 41.713 176.109C42.8632 175.143 44.5843 175.126 45.936 176.167C47.7914 177.603 48.4211 179.584 47.9006 181.793C47.6067 183.077 46.9015 184.261 46.3725 185.487C46.2298 185.806 45.9276 186.091 45.8772 186.419C45.4742 188.946 48.2951 192.707 50.7803 193.093C51.7961 193.253 52.4258 192.917 52.7784 191.976C53.1898 190.893 53.534 189.768 54.0546 188.736C54.3064 188.232 54.8857 187.896 55.3139 187.485C55.7169 187.93 56.3802 188.316 56.4809 188.828C56.8671 190.65 57.3792 192.522 57.2701 194.352C57.0938 197.266 54.6675 199.23 51.5695 199.398C48.4799 199.566 45.7093 198.777 43.3837 196.384L43.4005 196.376Z" fill="#CACAC9"/>
<path d="M51.3929 172.6C48.3032 172.583 46.5318 170.165 47.3294 167.512C47.5644 166.74 47.8079 165.976 48.0766 165.212C48.9749 162.609 52.6102 160.712 55.2381 161.501C56.5058 161.879 57.2698 162.76 57.5049 164.078C58.143 167.73 56.3379 170.938 52.8873 172.239C52.308 172.457 51.6783 172.533 51.3929 172.6Z" fill="#CACAC9"/>
<path d="M39.8826 170.543C39.8826 173.456 37.7249 175.648 34.8032 175.681C32.1166 175.715 30.0513 173.809 30.0261 171.273C30.0009 168.478 32.5364 165.808 35.2482 165.791C37.8172 165.774 39.8826 167.882 39.8826 170.543V170.543Z" fill="#CACAC9"/>
</svg>
