<svg width="19" height="18" viewBox="0 0 19 18" fill="none" xmlns="http://www.w3.org/2000/svg">
<path d="M10.9936 1.30078C10.9936 0.582811 10.4116 0.000781298 9.69359 0.000781298C8.97562 0.000781298 8.39359 0.582811 8.39359 1.30078H9.69359H10.9936ZM9.69359 1.40078H8.39359V1.4336L8.39525 1.46638L9.69359 1.40078ZM9.65082 7.28078L8.35912 7.42743L9.65082 7.28078ZM9.68291 15.9768L8.38361 16.0196L8.38393 16.0292L8.38438 16.0387L9.68291 15.9768ZM9.69359 16.2008H10.9936V16.1698L10.9921 16.1388L9.69359 16.2008ZM8.39359 16.3008C8.39359 17.0188 8.97562 17.6008 9.69359 17.6008C10.4116 17.6008 10.9936 17.0188 10.9936 16.3008H9.69359H8.39359ZM1.33802 6.79732C0.620364 6.77621 0.0214744 7.34088 0.000366688 8.05854C-0.020741 8.7762 0.543926 9.37509 1.26159 9.3962L1.2998 8.09676L1.33802 6.79732ZM1.39976 8.0997L1.36154 9.39914L1.42057 9.40087L1.47951 9.39725L1.39976 8.0997ZM7.27479 8.35514L7.07777 9.64012L7.27479 8.35514ZM16.3337 8.55815L16.2438 7.26127L16.3337 8.55815ZM17.0237 8.53473L17.2957 9.80596L18.2932 9.59255L18.3231 8.57295L17.0237 8.53473ZM16.923 8.55627L16.651 7.28504L16.8848 9.85571L16.923 8.55627ZM16.9848 9.85865C17.7024 9.87975 18.3013 9.31509 18.3224 8.59743C18.3435 7.87977 17.7789 7.28088 17.0612 7.25977L17.023 8.55921L16.9848 9.85865ZM14.8218 4.53642C15.3001 4.00091 15.2537 3.17911 14.7182 2.70087C14.1826 2.22263 13.3608 2.26905 12.8826 2.80455L13.8522 3.67049L14.8218 4.53642ZM13.7856 3.74507L14.6526 4.71372L14.7068 4.66523L14.7552 4.611L13.7856 3.74507ZM5.28494 12.9435L4.3096 12.084L5.28494 12.9435ZM4.92444 13.5105L4.05851 14.4801L4.44792 14.8279L4.96969 14.8097L4.92444 13.5105ZM5.06894 13.5055L6.03855 14.3714L8.06682 12.1003L5.02369 12.2063L5.06894 13.5055ZM4.03271 12.7141C3.55447 13.2496 3.60089 14.0714 4.13639 14.5497C4.6719 15.0279 5.4937 14.9815 5.97194 14.446L5.00233 13.5801L4.03271 12.7141ZM5.49159 3.45631C4.93547 3.0022 4.11652 3.0849 3.66241 3.64102C3.2083 4.19713 3.291 5.01608 3.84712 5.47019L4.66935 4.46325L5.49159 3.45631ZM4.74681 4.5265L5.65178 3.59321L5.61198 3.55462L5.56904 3.51956L4.74681 4.5265ZM11.2301 9.66535L10.3409 10.6137L11.2301 9.66535ZM15.7235 13.6664L16.5233 14.6912L16.8915 14.4039L16.9926 13.948L15.7235 13.6664ZM15.7567 13.5168L16.5789 12.5099L14.9446 11.1753L14.4875 13.2352L15.7567 13.5168ZM15.0119 14.587C15.568 15.0411 16.387 14.9584 16.8411 14.4023C17.2952 13.8462 17.2125 13.0272 16.6564 12.5731L15.8341 13.5801L15.0119 14.587ZM9.69359 1.30078H8.39359V1.40078H9.69359H10.9936V1.30078H9.69359ZM9.69359 1.40078L8.39525 1.46638C8.47141 2.97368 8.45608 4.04643 8.37195 4.73L9.66222 4.88878L10.9525 5.04757C11.0646 4.13647 11.0702 2.88388 10.9919 1.33518L9.69359 1.40078ZM9.66222 4.88878L8.37195 4.73C8.26136 5.62862 8.25706 6.52847 8.35912 7.42743L9.65082 7.28078L10.9425 7.13413C10.8635 6.43843 10.8668 5.74361 10.9525 5.04757L9.66222 4.88878ZM9.65082 7.28078L8.35912 7.42743C8.44643 8.19651 8.50818 8.96534 8.5444 9.73397L9.84296 9.67278L11.1415 9.61159C11.1026 8.78555 11.0363 7.95972 10.9425 7.13413L9.65082 7.28078ZM9.84296 9.67278L8.5444 9.73397C8.57915 10.4715 8.56302 11.209 8.49593 11.9471L9.7906 12.0648L11.0853 12.1825C11.1631 11.3258 11.1819 10.4688 11.1415 9.61159L9.84296 9.67278ZM9.7906 12.0648L8.49593 11.9471C8.42007 12.7817 8.38043 13.6165 8.37706 14.4515L9.67705 14.4568L10.977 14.462C10.9801 13.7024 11.0162 12.9426 11.0853 12.1825L9.7906 12.0648ZM9.67705 14.4568L8.37706 14.4515C8.37387 15.2412 8.37552 15.7745 8.38361 16.0196L9.68291 15.9768L10.9822 15.9339C10.976 15.7471 10.9738 15.267 10.977 14.462L9.67705 14.4568ZM9.68291 15.9768L8.38438 16.0387L8.39507 16.2627L9.69359 16.2008L10.9921 16.1388L10.9814 15.9148L9.68291 15.9768ZM9.69359 16.2008H8.39359V16.3008H9.69359H10.9936V16.2008H9.69359ZM1.2998 8.09676L1.26159 9.3962L1.36154 9.39914L1.39976 8.0997L1.43798 6.80026L1.33802 6.79732L1.2998 8.09676ZM1.39976 8.0997L1.47951 9.39725C2.9935 9.3042 4.07845 9.29794 4.77419 9.36032L4.89028 8.06551L5.00636 6.7707C4.11094 6.69042 2.86888 6.70695 1.32001 6.80215L1.39976 8.0997ZM4.89028 8.06551L4.77419 9.36032C5.54254 9.4292 6.31039 9.52246 7.07777 9.64012L7.27479 8.35514L7.47181 7.07015C6.651 6.9443 5.82917 6.84448 5.00636 6.7707L4.89028 8.06551ZM7.27479 8.35514L7.07777 9.64012C7.99981 9.78149 8.92656 9.78464 9.85381 9.65042L9.66757 8.36383L9.48133 7.07724C8.8064 7.17494 8.13797 7.17229 7.47181 7.07015L7.27479 8.35514ZM9.66757 8.36383L9.85381 9.65042C10.5661 9.54732 11.2734 9.51957 11.9773 9.56627L12.0634 8.26912L12.1494 6.97197C11.2611 6.91304 10.3713 6.94842 9.48133 7.07724L9.66757 8.36383ZM12.0634 8.26912L11.9773 9.56627C12.7555 9.61789 13.5333 9.6857 14.3107 9.76968L14.4503 8.4772L14.5899 7.18472C13.777 7.09689 12.9635 7.02598 12.1494 6.97197L12.0634 8.26912ZM14.4503 8.4772L14.3107 9.76968C15.1354 9.85878 15.851 9.89475 16.4237 9.85503L16.3337 8.55815L16.2438 7.26127C15.8956 7.28542 15.3555 7.26742 14.5899 7.18472L14.4503 8.4772ZM16.3337 8.55815L16.4237 9.85503C16.6506 9.8393 16.8045 9.83069 16.8957 9.82759C16.9464 9.82587 16.9519 9.82683 16.9327 9.82612C16.9256 9.82586 16.9105 9.8252 16.8901 9.82346C16.8723 9.82196 16.8333 9.81826 16.7827 9.80916C16.7525 9.80373 16.622 9.78076 16.4685 9.70865C16.3926 9.673 16.2315 9.58924 16.0759 9.42369C15.9017 9.23841 15.7118 8.91988 15.7243 8.49651L17.0237 8.53473L18.3231 8.57295C18.3488 7.70097 17.6063 7.37054 17.5737 7.35525C17.4166 7.28148 17.2808 7.25704 17.2435 7.25031C17.143 7.23222 17.0576 7.22896 17.029 7.2279C16.9525 7.22506 16.8717 7.22691 16.8075 7.22909C16.6687 7.2338 16.4774 7.24507 16.2438 7.26127L16.3337 8.55815ZM17.0237 8.53473L16.7517 7.2635L16.651 7.28504L16.923 8.55627L17.195 9.8275L17.2957 9.80596L17.0237 8.53473ZM16.923 8.55627L16.8848 9.85571L16.9848 9.85865L17.023 8.55921L17.0612 7.25977L16.9612 7.25683L16.923 8.55627ZM13.8522 3.67049L12.8826 2.80455L12.816 2.87914L13.7856 3.74507L14.7552 4.611L14.8218 4.53642L13.8522 3.67049ZM13.7856 3.74507L12.9186 2.77643C11.7578 3.81547 10.8694 4.70476 10.3048 5.42769L11.3293 6.2279L12.3538 7.02812C12.7729 6.49156 13.5221 5.72564 14.6526 4.71372L13.7856 3.74507ZM11.3293 6.2279L10.3048 5.42769C9.79116 6.08527 9.30319 6.76521 8.84087 7.4674L9.92666 8.18229L11.0124 8.89718C11.4366 8.253 11.8837 7.63002 12.3538 7.02812L11.3293 6.2279ZM9.92666 8.18229L8.84087 7.4674C8.48582 8.00666 8.04393 8.46729 7.5081 8.85339L8.26808 9.9081L9.02807 10.9628C9.81721 10.3942 10.481 9.70428 11.0124 8.89718L9.92666 8.18229ZM8.26808 9.9081L7.5081 8.85339C6.76276 9.39045 6.0954 10.0035 5.50897 10.6924L6.49883 11.5351L7.48869 12.3778C7.93628 11.8521 8.44842 11.3805 9.02807 10.9628L8.26808 9.9081ZM6.49883 11.5351L5.50897 10.6924C4.99361 11.2977 4.59456 11.7606 4.3096 12.084L5.28494 12.9435L6.26028 13.803C6.55982 13.463 6.97003 12.987 7.48869 12.3778L6.49883 11.5351ZM5.28494 12.9435L4.3096 12.084C4.15297 12.2617 3.99491 12.4535 3.87857 12.6365C3.82741 12.717 3.72947 12.8791 3.66919 13.087C3.63214 13.2147 3.44695 13.934 4.05851 14.4801L4.92444 13.5105L5.79038 12.5409C6.06692 12.7879 6.17868 13.0994 6.20545 13.3462C6.22927 13.5657 6.18851 13.7346 6.16635 13.811C6.14157 13.8965 6.11311 13.9562 6.09996 13.9824C6.08525 14.0116 6.07438 14.0288 6.07268 14.0314C6.07015 14.0354 6.08146 14.0176 6.11705 13.9727C6.15077 13.9301 6.19766 13.874 6.26028 13.803L5.28494 12.9435ZM4.92444 13.5105L4.96969 14.8097L5.11418 14.8047L5.06894 13.5055L5.02369 12.2063L4.8792 12.2113L4.92444 13.5105ZM5.06894 13.5055L4.09932 12.6395L4.03271 12.7141L5.00233 13.5801L5.97194 14.446L6.03855 14.3714L5.06894 13.5055ZM4.66935 4.46325L3.84712 5.47019L3.92457 5.53344L4.74681 4.5265L5.56904 3.51956L5.49159 3.45631L4.66935 4.46325ZM4.74681 4.5265L3.84184 5.45979C4.95891 6.54296 5.91639 7.36592 6.69387 7.87404L7.40506 6.78582L8.11626 5.69761C7.55135 5.32842 6.73665 4.64516 5.65178 3.59321L4.74681 4.5265ZM7.40506 6.78582L6.69387 7.87404C7.3485 8.30186 7.99166 8.74353 8.62338 9.19904L9.38372 8.14458L10.1441 7.09011C9.47996 6.61126 8.80403 6.1471 8.11626 5.69761L7.40506 6.78582ZM9.38372 8.14458L8.62338 9.19904C9.22607 9.63362 9.79848 10.1051 10.3409 10.6137L11.2301 9.66535L12.1193 8.71703C11.4957 8.13228 10.8372 7.58989 10.1441 7.09011L9.38372 8.14458ZM11.2301 9.66535L10.3409 10.6137C10.93 11.1661 11.524 11.7124 12.1231 12.2527L12.9938 11.2874L13.8645 10.322C13.2779 9.79296 12.6962 9.25797 12.1193 8.71703L11.2301 9.66535ZM12.9938 11.2874L12.1231 12.2527C12.7056 12.7781 13.2802 13.3132 13.8468 13.8581L14.7479 12.9211L15.6489 11.984C15.0624 11.42 14.4675 10.866 13.8645 10.322L12.9938 11.2874ZM14.7479 12.9211L13.8468 13.8581C14.1439 14.1438 14.4122 14.386 14.635 14.5563C14.7383 14.6352 14.8882 14.7427 15.06 14.8249C15.1422 14.8642 15.3005 14.9329 15.5056 14.9613C15.7058 14.9891 16.1285 14.9993 16.5233 14.6912L15.7235 13.6664L14.9237 12.6416C15.3 12.3479 15.6964 12.3629 15.8625 12.386C16.0334 12.4097 16.1498 12.464 16.1821 12.4795C16.2541 12.514 16.2728 12.5356 16.2135 12.4902C16.1112 12.4121 15.9285 12.2528 15.6489 11.984L14.7479 12.9211ZM15.7235 13.6664L16.9926 13.948L17.0258 13.7984L15.7567 13.5168L14.4875 13.2352L14.4543 13.3848L15.7235 13.6664ZM15.7567 13.5168L14.9344 14.5237L15.0119 14.587L15.8341 13.5801L16.6564 12.5731L16.5789 12.5099L15.7567 13.5168Z" fill="#B9372E"/>
</svg>
