<svg width="100" height="100" viewBox="0 0 100 100" fill="none" xmlns="http://www.w3.org/2000/svg">
<rect width="100" height="100" rx="24" fill="white"/>
<path d="M75.0923 44.6806C76.4175 40.6896 75.9586 36.321 73.8342 32.6933C70.6389 27.1313 64.2175 24.2698 57.9469 25.6141C52.4809 19.5335 43.1228 19.0359 37.0426 24.5022C35.1131 26.2373 33.6734 28.448 32.8688 30.9153C28.7489 31.7608 25.1937 34.3403 23.1123 37.9944C19.8828 43.5477 20.6159 50.5531 24.9251 55.3181C23.5955 59.3069 24.0501 63.6766 26.1722 67.3054C29.3708 72.8696 35.7966 75.7311 42.0705 74.3846C44.8619 77.5278 48.8706 79.3169 53.0742 79.2926C59.5022 79.2982 65.1971 75.1475 67.1596 69.0262C71.2784 68.1795 74.8336 65.6 76.9162 61.947C80.107 56.4036 79.3707 49.4346 75.0923 44.6806ZM53.0742 75.4591C50.5084 75.4635 48.0231 74.564 46.0539 72.9181L46.4006 72.7221L58.0625 65.9886C58.6524 65.6418 59.0167 65.0099 59.0211 64.3251V47.8789L63.9511 50.7315C64.0007 50.7568 64.0348 50.8041 64.0436 50.8581V64.4858C64.0304 70.54 59.1268 75.4459 53.0742 75.4591ZM29.4974 65.3886C28.2107 63.1668 27.7484 60.562 28.1931 58.032L28.5398 58.24L40.2126 64.9724C40.8004 65.3181 41.5301 65.3181 42.1179 64.9724L56.3773 56.7504V62.4446C56.374 62.5041 56.3443 62.5591 56.2969 62.5944L44.4854 69.4082C39.2363 72.4325 32.5298 70.6347 29.4974 65.3886ZM26.4265 39.9806C27.722 37.7434 29.767 36.038 32.1995 35.165V49.0239C32.1907 49.7054 32.5529 50.3384 33.1462 50.6753L47.3362 58.8632L42.4062 61.7158C42.3523 61.7444 42.2874 61.7444 42.2334 61.7158L30.4451 54.9129C25.2069 51.8765 23.4106 45.1738 26.4265 39.9222V39.9806ZM66.9296 49.3927L52.6933 41.1234L57.6112 38.2829C57.6651 38.2543 57.73 38.2543 57.7839 38.2829L69.5723 45.0968C74.8193 48.1255 76.6178 54.8359 73.5898 60.0831C72.3152 62.2927 70.3109 63.9882 67.9213 64.88V51.021C67.9004 50.3406 67.524 49.7219 66.9296 49.3927ZM71.8365 42.013L71.4897 41.8049L59.8401 35.0141C59.2479 34.6673 58.5148 34.6673 57.9237 35.0141L43.6764 43.2361V37.5419C43.6709 37.4836 43.6974 37.4252 43.7458 37.3922L55.5341 30.5894C60.7888 27.5617 67.5031 29.3673 70.53 34.6233C71.809 36.8428 72.2712 39.44 71.8376 41.9645V42.0108L71.8365 42.013ZM40.9864 52.1066L36.0564 49.2661C36.0068 49.2364 35.9727 49.1846 35.9639 49.1274V35.5338C35.9716 29.4675 40.895 24.5572 46.9587 24.5649C49.5178 24.5682 51.9966 25.4655 53.9646 27.1026L53.6179 27.2986L41.9561 34.0321C41.3661 34.3789 41.0018 35.0108 40.9974 35.6956L40.9864 52.1066ZM43.6643 46.332L50.0142 42.6713L56.3762 46.332V53.6534L50.0373 57.3152L43.6764 53.6534L43.6643 46.332Z" fill="black"/>
</svg>
