<svg width="720" height="300" viewBox="-80 -140 720 300" fill="none" xmlns="http://www.w3.org/2000/svg" xmlns:xlink="http://www.w3.org/1999/xlink" overflow="visible">
  <defs>
    <path
      id="drawPath"
      d="M5.92578 39.909C72.135 58.5301 110.237 39.909 174.377 39.909C238.516 39.909 271.781 74.4722 350.405 47.5748C429.03 20.6774 443.203 -7.91355 513.833 13.311"
      pathLength="1"
    />
  </defs>

  <path
    id="drawLine"
    d="M5.92578 39.909C72.135 58.5301 110.237 39.909 174.377 39.909C238.516 39.909 271.781 74.4722 350.405 47.5748C429.03 20.6774 443.203 -7.91355 513.833 13.311"
    stroke="#B8B8B8"
    stroke-width="9.96"
    stroke-linecap="round"
    pathLength="1"
    stroke-dasharray="1"
    stroke-dashoffset="1"
  >
    <animate
      attributeName="stroke-dashoffset"
      from="1"
      to="0"
      begin="0s"
      dur="3s"
      fill="freeze"
    />
    <animate
      attributeName="opacity"
      from="1"
      to="0"
      begin="3s"
      dur="0.01s"
      fill="freeze"
    />
  </path>

  <path
    id="settledLine"
    d="M5.92578 39.909C72.135 58.5301 110.237 39.909 174.377 39.909C238.516 39.909 271.781 74.4722 350.405 47.5748C429.03 20.6774 443.203 -7.91355 513.833 13.311"
    stroke="#B8B8B8"
    stroke-width="9.96"
    stroke-linecap="round"
    opacity="0"
  >
    <animate
      attributeName="opacity"
      from="0"
      to="1"
      begin="3s"
      dur="0.01s"
      fill="freeze"
    />
    <animate
      attributeName="d"
      begin="3s"
      dur="1.35s"
      repeatCount="indefinite"
      values="
        M5.92578 39.909C72.135 58.5301 110.237 39.909 174.377 39.909C238.516 39.909 271.781 74.4722 350.405 47.5748C429.03 20.6774 443.203 -7.91355 513.833 13.311;
        M5.92578 39.909C72.135 53.3301 110.237 44.509 174.377 42.909C238.516 41.509 271.781 68.8722 350.405 51.7748C429.03 24.8774 443.203 -2.71355 513.833 13.311;
        M5.92578 39.909C72.135 63.7301 110.237 35.309 174.377 36.909C238.516 38.309 271.781 80.0722 350.405 43.3748C429.03 16.4774 443.203 -13.11355 513.833 13.311;
        M5.92578 39.909C72.135 58.5301 110.237 39.909 174.377 39.909C238.516 39.909 271.781 74.4722 350.405 47.5748C429.03 20.6774 443.203 -7.91355 513.833 13.311"
    />
  </path>

  <g>
    <animateMotion begin="0s" dur="3s" rotate="auto" fill="freeze">
      <mpath href="#drawPath" xlink:href="#drawPath" />
    </animateMotion>
    <g transform="translate(-2.33789 -114.133)">
      <g>
        <animateTransform
          attributeName="transform"
          type="rotate"
          begin="3s"
          dur="0.28s"
          from="0 3.33789 114.133"
          to="-16.8 3.33789 114.133"
          fill="freeze"
        />
        <g clip-path="url(#clip0_pen)">
          <path d="M3.33789 114.133L3.4086 114.063L7.18991 110.097C9.71078 107.454 11.6407 105.498 12.9798 104.232L16.997 100.431C18.3361 99.1646 19.6523 97.8749 20.9456 96.5624L24.8256 92.6249C26.1189 91.3124 27.4095 89.9972 28.6974 88.6793L32.5611 84.7255C33.849 83.4075 35.1205 82.0732 36.3756 80.7224L40.1408 76.6702C41.3959 75.3194 42.4899 74.3216 43.423 73.6767L46.222 71.7419C47.155 71.097 47.583 70.736 47.5059 70.659L47.3903 70.5434L47.0884 70.3829L47.1591 70.3122M93.6112 54.347C92.275 53.0774 90.9977 51.7488 89.7794 50.3613L86.1244 46.1989C84.906 44.8114 83.6064 43.5052 82.2254 42.2803L78.0826 38.6056C76.7017 37.3807 75.3436 36.133 74.0083 34.8625L70.0024 31.0509C68.6671 29.7803 67.3792 28.4624 66.1388 27.097L62.4174 23.0008C61.177 21.6355 59.8085 20.9575 58.3119 20.9669L53.8222 20.9951C52.3256 21.0046 50.7906 21.4904 49.217 22.4525L44.4964 25.339C42.9228 26.3012 41.3218 27.2137 39.6933 28.0764L34.8079 30.6645C33.1794 31.5272 31.5262 32.3451 29.8482 33.1182L24.8143 35.4374C23.1363 36.2105 21.8311 37.2877 20.8985 38.6691L18.1008 42.8132C17.1683 44.1945 16.505 45.7857 16.111 47.5867L14.9291 52.9897C14.5351 54.7907 14.2073 56.6039 13.9455 58.4293L13.1603 63.9056C12.8985 65.731 12.5321 67.5371 12.0609 69.3239L10.6474 74.684C10.1763 76.4708 9.79162 78.2735 9.49345 80.0922L8.59896 85.5483C8.30079 87.367 8.0023 89.1856 7.70348 91.0042L6.80702 96.4599C6.5082 98.2785 6.22608 100.1 5.96066 101.925L5.16439 107.399C4.89896 109.224 5.2178 110.409 6.12091 110.953L8.83022 112.587C9.73333 113.132 11.0727 113.139 12.8484 112.608L18.1755 111.015C19.9511 110.484 21.7547 110.104 23.5861 109.875L29.0802 109.186C30.9116 108.957 32.7277 108.644 34.5285 108.249L39.9308 107.064C41.7316 106.669 43.5527 106.384 45.3942 106.209L50.9186 105.684C52.7601 105.509 54.5677 105.151 56.3413 104.609L61.6621 102.982C63.4357 102.44 65.2339 102.031 67.0566 101.754L72.5247 100.925C74.3474 100.648 75.7803 99.8403 76.8234 98.5008L79.9526 94.4822C80.9957 93.1427 81.9543 91.6618 82.8285 90.0397L85.4512 85.1733C86.3254 83.5512 87.2697 81.9678 88.284 80.423L91.3271 75.7888C92.3414 74.2441 93.2485 72.6402 94.0484 70.977L96.4479 65.9874C97.2478 64.3242 97.8124 63.2066 98.1418 62.6346L99.13 60.9185C99.4593 60.3464 98.9559 59.4256 97.6198 58.1559L93.6112 54.347Z" stroke="#B8B8B8" stroke-width="9.96"/>
          <rect width="56.8556" height="11.8449" rx="4.73797" transform="matrix(-0.707107 -0.707107 -0.707107 0.707107 117.045 40.6309)" fill="#B8B8B8"/>
          <rect width="18.9519" height="18.9519" rx="9.47593" transform="matrix(-0.707107 -0.707107 -0.707107 0.707107 58.4258 72.4473)" fill="#B8B8B8"/>
        </g>
      </g>
    </g>
  </g>

  <defs>
    <clipPath id="clip0_pen">
      <rect width="117" height="118" fill="white"/>
    </clipPath>
  </defs>
</svg>
